<?xml version="1.0" encoding="UTF-8"?>
<svg width="80px" height="80px" viewBox="0 0 80 80" version="1.1" xmlns="http://www.w3.org/2000/svg" xmlns:xlink="http://www.w3.org/1999/xlink">
    <!-- Generator: Sketch 61.2 (89653) - https://sketch.com -->
    <title>ui/avatar</title>
    <desc>Created with Sketch.</desc>
    <defs>
        <circle id="path-1" cx="40" cy="40" r="40"></circle>
    </defs>
    <g id="Designs:-User-Management" stroke="none" stroke-width="1" fill="none" fill-rule="evenodd">
        <g id="Create-Organization-(Vendor)" transform="translate(-425.000000, -301.000000)">
            <g id="Logo-Image-(Optional)" transform="translate(425.000000, 301.000000)">
                <g id="ui/avatar/logo/colour">
                    <mask id="mask-2" fill="white">
                        <use xlink:href="#path-1"></use>
                    </mask>
                    <use id="Mask" fill="#0F4C8B" fill-rule="evenodd" xlink:href="#path-1"></use>
                    <path d="M54.21875,53.5 C56.030941,53.5 57.5,51.9889679 57.5,50.125 L57.5,29.875 C57.5,28.0110321 56.030941,26.5 54.21875,26.5 L25.78125,26.5 C23.969059,26.5 22.5,28.0110321 22.5,29.875 L22.5,50.125 C22.5,51.9889679 23.969059,53.5 25.78125,53.5 L54.21875,53.5 Z M53.8085938,50.125 L26.1914062,50.125 C25.9650326,50.125 25.78125,49.9359665 25.78125,49.703125 L25.78125,30.296875 C25.78125,30.0640335 25.9650326,29.875 26.1914062,29.875 L53.8085938,29.875 C54.0349674,29.875 54.21875,30.0640335 54.21875,30.296875 L54.21875,49.703125 C54.21875,49.9359665 54.0349674,50.125 53.8085938,50.125 Z M31.25,38.3125 C32.7601147,38.3125 33.984375,37.0532608 33.984375,35.5 C33.984375,33.9467392 32.7601147,32.6875 31.25,32.6875 C29.7398853,32.6875 28.515625,33.9467392 28.515625,35.5 C28.515625,37.0532608 29.7398853,38.3125 31.25,38.3125 Z M50.9375,46.75 L50.9375,41.125 L44.9550533,34.9716263 C44.6346855,34.6421051 44.1153145,34.6421051 43.7948799,34.9716263 L35.625,43.375 L32.9238033,40.5966263 C32.6034355,40.2671051 32.0840645,40.2671051 31.7636299,40.5966263 L29.0625,43.375 L29.0625,46.75 L50.9375,46.75 Z" id="icons/image" fill="#BCE3F5" fill-rule="nonzero" mask="url(#mask-2)"></path>
                </g>
            </g>
        </g>
    </g>
</svg>
