<svg width="137" height="189" viewBox="0 0 137 189" fill="none" xmlns="http://www.w3.org/2000/svg">
<path d="M136.918 8.55784L133.405 96.2525C133.405 101.632 130.546 106.522 125.89 109.211L14.7865 177.346C9.80322 180.361 0 177.264 0 169.196V80.1969C0 74.8179 2.85927 69.8463 7.5158 67.1568L122.132 1.05978C128.749 -2.20025 136.918 2.77129 136.918 8.55784Z" fill="#81A0EA"/>
<path d="M125.644 2.77109L11.0285 68.9496C6.37197 71.6391 3.5127 76.6107 3.5127 81.9897V166.098V170.988C3.5127 176.775 9.80309 180.361 14.8681 177.508L129.484 111.085C134.141 108.396 137 103.424 137 98.1269V88.8358V9.29115C137 3.5046 130.709 -0.162929 125.644 2.77109Z" fill="#E2E9FB"/>
<path d="M125.808 3.99364L12.5808 69.3572C8.006 72.0467 5.14673 76.9367 5.14673 82.2343V165.446V170.255C5.14673 175.96 11.3554 179.546 16.3387 176.694L129.566 111.085C134.141 108.396 137 103.506 137 98.2899V89.0803V10.4322C137 4.72715 130.791 1.14112 125.808 3.99364Z" fill="#343C6B"/>
<path d="M127.605 8.39453V106.277L14.5415 171.803V73.6766L127.605 8.39453Z" fill="#819BEA"/>
<path d="M118.619 85.4125V26.8135L75.3215 51.9157V110.433L118.619 85.4125Z" fill="#445393"/>
<path d="M68.786 113.775V55.1758L25.4067 80.278V138.795L68.786 113.775Z" fill="#EAEFFC"/>
<path d="M118.619 100.979V96.9854L25.4067 150.776V154.688L118.619 100.979Z" fill="#3754E0"/>
<path d="M96.5616 57.8657L98.1955 59.9032C98.4406 60.1477 98.6856 60.3922 99.0124 60.6367L99.5843 61.0442C100.238 61.4517 100.728 62.0222 101.055 62.7557L101.953 64.7117L104.731 63.0002L103.015 60.3107C102.689 59.4957 102.362 58.5992 101.953 57.7027L100.156 53.6276C100.074 53.3831 99.8294 53.3016 99.5843 53.3831C99.4209 53.4646 99.3392 53.5461 99.3392 53.6276C98.849 53.2201 98.4406 52.9756 98.0321 53.0571C96.725 53.3831 98.4406 57.7027 98.5223 58.0287C98.4406 57.9472 97.7053 57.2952 97.4602 57.0506C97.1335 56.8061 96.8067 56.8062 96.5616 56.8877C96.0715 57.2137 96.3982 57.7027 96.5616 57.8657Z" fill="#FCB280"/>
<path d="M100.401 62.8371L104.895 71.9652C105.058 72.2912 105.303 72.6987 105.548 73.0247L112.165 81.9898L118.456 78.8112C118.456 78.8112 115.841 76.4477 115.433 75.9587C113.391 73.5137 110.94 70.5797 110.531 70.0907C110.205 69.7647 109.96 69.3572 109.714 68.9497L104.159 60.7181C102.852 60.4736 100.401 62.1036 100.401 62.8371Z" fill="url(#paint0_linear)"/>
<path d="M112.41 108.804L113.554 127.549C113.636 128.608 113.799 129.586 114.044 130.564L118.455 147.598C117.965 147.272 117.148 146.946 116.658 146.864C116.495 146.864 116.331 146.864 116.086 146.864H115.76C115.188 146.864 114.779 147.19 114.616 147.679C114.616 147.761 114.616 147.842 114.534 147.924C114.534 147.924 114.534 149.146 116.086 150.287C116.331 150.45 116.577 150.613 116.903 150.858C117.802 151.428 118.619 152.08 119.354 152.732C119.763 153.14 120.253 153.384 120.906 153.466C121.887 153.547 122.622 152.732 122.54 151.754C122.54 151.673 122.54 151.51 122.54 151.347C122.54 151.265 122.54 151.184 122.54 151.102C122.54 151.021 122.54 150.939 122.54 150.858C122.458 150.45 122.377 150.043 122.377 149.635C122.213 148.739 122.132 147.761 122.132 146.864C121.968 142.871 121.315 132.683 119.517 127.06L121.887 106.766L112.41 108.804Z" fill="#FCB280"/>
<path d="M106.038 154.362L109.061 154.118C109.878 154.118 110.613 153.71 111.185 153.14C111.43 152.895 111.511 152.488 111.43 152.162C109.796 144.908 101.381 106.277 105.548 97.4748C110.204 87.6947 120.334 95.4373 120.334 95.4373C120.334 95.4373 123.357 102.609 121.887 106.766C120.579 110.515 114.698 112.063 114.698 112.063L113.635 129.016C114.616 135.128 115.514 153.71 115.841 155.503C116.005 156.318 115.841 157.459 115.514 157.948C114.779 159.089 113.064 158.682 111.675 158.437L107.754 157.704C106.283 157.378 105.384 156.4 105.139 155.503C105.058 154.933 105.466 154.444 106.038 154.362Z" fill="#FCB280"/>
<path d="M114.698 147.679C114.698 147.761 114.698 147.842 114.616 147.924C114.616 147.924 114.616 148.657 115.351 149.554C115.27 148.739 115.27 147.924 115.188 147.027C114.943 147.19 114.779 147.435 114.698 147.679Z" fill="#535873"/>
<path d="M112.41 108.803L113.554 127.548C113.554 127.874 113.636 128.282 113.636 128.608C113.717 129.26 113.881 129.912 114.044 130.564L118.129 146.457C118.292 146.701 118.782 146.864 119.272 147.027C119.354 147.027 119.436 147.027 119.517 147.109C120.498 147.272 121.642 147.19 122.132 146.538C122.132 146.538 122.295 132.52 119.436 127.222L121.805 106.929L112.41 108.803Z" fill="#B8C9F5"/>
<path d="M114.616 147.924C114.616 147.924 114.616 149.146 116.168 150.287C116.413 150.45 116.658 150.613 116.985 150.858C117.884 151.428 118.701 152.08 119.436 152.732C119.844 153.14 120.335 153.384 120.988 153.466C121.968 153.547 122.785 153.221 122.622 151.754C122.622 151.673 122.622 151.51 122.622 151.347C122.622 151.265 122.622 151.184 122.622 151.102C122.622 151.021 122.622 150.939 122.622 150.858C122.54 151.347 121.968 151.428 121.56 151.428C120.906 151.428 120.416 151.265 120.008 150.858C119.272 150.124 113.881 147.109 117.23 146.864L116.822 146.783C115.188 146.62 114.943 147.109 114.779 147.598C114.616 147.761 114.616 147.842 114.616 147.924Z" fill="#F8D483"/>
<path d="M111.185 151.917C111.348 152.162 111.675 152.325 112.083 152.488C112.165 152.488 112.247 152.569 112.328 152.569C113.472 152.814 115.106 152.569 115.678 151.836C115.678 151.836 114.207 132.765 113.554 129.097L114.616 112.145C114.616 112.145 120.498 110.597 121.805 106.848C122.377 105.218 122.295 103.099 121.887 101.061C121.315 98.0455 120.253 95.4375 120.253 95.4375C120.253 95.4375 110.531 87.858 105.466 97.475C104.976 98.3715 104.649 99.594 104.404 101.061C102.362 115.242 111.185 151.917 111.185 151.917Z" fill="#B8C9F5"/>
<path d="M106.038 154.362L107.999 154.199C107.264 154.444 106.937 155.096 107.754 155.666C108.652 156.318 115.841 157.296 115.841 155.666C115.841 155.992 115.923 156.237 115.923 156.4C115.923 156.97 115.841 157.622 115.515 158.111C114.779 159.252 113.064 158.845 111.675 158.6L107.754 157.867C106.283 157.541 105.385 156.563 105.14 155.666C105.058 154.933 105.466 154.444 106.038 154.362Z" fill="#F8D483"/>
<path d="M113.635 128.689L114.452 112.715C114.452 112.063 114.861 111.493 115.514 111.248L119.027 109.863L118.537 111.167C116.822 115.812 113.635 128.689 113.635 128.689Z" fill="#819BEA"/>
<path d="M104.976 66.5047C105.956 70.7428 108.816 71.0688 111.511 69.6833C114.452 68.1348 116.168 64.6302 116.25 62.0222C116.413 58.1102 113.799 55.6651 110.613 55.5836C103.179 55.3391 104.649 65.0377 104.976 66.5047Z" fill="#FCB280"/>
<path d="M114.453 64.3857V72.8618C114.453 73.2693 114.126 73.6768 113.39 73.9213C112.247 74.3288 110.613 74.2473 109.714 73.6768C109.388 73.4323 109.224 73.1878 109.224 72.8618V64.3857H114.453Z" fill="#FCB280"/>
<path d="M80.9582 53.8719L83.8992 57.7025C84.471 58.5175 85.1246 59.3325 85.7781 60.066L87.0035 62.674L91.3333 63.0815L89.1276 59.4955C88.6374 58.8435 88.3923 58.0285 88.3106 57.2135L88.2289 56.48C88.2289 56.0725 88.1472 55.7464 87.9838 55.4204L86.1049 53.2199C86.1049 53.2199 85.6147 52.7309 85.3697 52.8939C85.1246 53.0569 84.9612 53.3014 85.0429 53.7089C85.1246 54.1164 85.9415 54.7684 85.9415 54.7684C85.9415 54.7684 82.5921 50.6119 81.5301 51.6714C81.2033 51.9974 81.2033 52.4864 81.3667 53.1384C81.2033 53.1384 81.1216 53.1384 81.0399 53.2199C80.8765 53.3014 80.7948 53.6274 80.9582 53.8719Z" fill="#FCB280"/>
<path d="M120.58 90.4659C120.661 92.422 121.723 98.127 121.723 98.127C121.315 101.958 103.914 100.817 104.077 99.268C104.077 99.268 105.466 95.845 104.568 89.8139C104.077 86.1464 104.159 81.9899 104.159 81.9899C104.077 80.7674 103.506 79.6264 102.607 78.8113L92.3136 69.7648C91.9868 69.4388 91.7418 69.1128 91.4967 68.7868L85.5331 60.4737C85.4514 59.7402 87.5754 57.7842 88.8825 57.7842L95.7447 64.9562C96.0715 65.2822 96.3983 65.6082 96.7251 65.9342C97.2152 66.3417 101.708 69.4388 104.159 71.4763C105.303 72.4543 106.692 72.9433 108.162 72.9433C108.407 72.7803 108.734 72.6988 109.061 72.5358L110.695 71.8023L110.776 71.7208L113.554 70.4168L113.636 70.3353C113.717 70.2538 114.126 70.4983 114.534 70.6613C115.024 70.9058 115.515 71.2318 115.678 71.1503C116.25 70.9873 116.822 70.8243 117.475 70.8243C117.72 70.8243 117.965 70.8243 118.129 70.8243C120.58 71.0688 122.132 72.8618 121.805 76.1218C121.805 76.1218 121.478 78.7298 121.151 81.9084C120.825 85.0869 120.58 88.3469 120.58 90.4659Z" fill="#E2E9FB"/>
<path d="M107.018 63.9782C104.404 67.4827 108.244 67.4012 106.855 66.4232C107.427 66.8307 108.489 66.5047 109.142 65.6082C109.796 64.7117 109.878 63.6522 109.306 63.1632C108.734 62.7557 107.754 63.0817 107.018 63.9782Z" fill="#FCB280"/>
<path d="M45.9934 89.1613L48.1174 91.1173C48.4442 91.3618 48.6892 91.6063 49.0977 91.7693L49.7513 92.0953C50.4865 92.4213 51.1401 92.9918 51.6302 93.6439L53.019 95.5999L55.7966 93.2363L53.4275 90.6283C52.9373 89.7318 52.4472 88.8353 51.7936 87.9388L49.0977 83.7823C48.9343 83.5378 48.6892 83.4563 48.4442 83.6193C48.2808 83.7008 48.1991 83.8638 48.1991 83.9453C47.6272 83.5378 47.0554 83.3748 46.6469 83.6193C45.2581 84.1898 47.8723 88.6723 48.0357 88.9983C47.954 88.9168 46.9737 88.3463 46.7286 88.1018C46.3201 87.8573 45.9117 87.9388 45.7483 88.1018C45.3398 88.5093 45.7483 88.9983 45.9934 89.1613Z" fill="#FCBAC0"/>
<path d="M50.9767 93.97L57.5121 103.18C57.7572 103.506 58.084 103.913 58.4108 104.239L67.152 112.878L73.5241 108.314C73.5241 108.314 70.2563 106.195 69.6845 105.706C66.9886 103.343 63.8842 100.653 63.3124 100.164C62.9039 99.838 62.5771 99.4305 62.2504 99.1045L54.7346 91.1175C53.2641 90.9545 50.895 93.155 50.9767 93.97Z" fill="#343C6B"/>
<path d="M29.4913 82.3969L33.0042 86.3904C33.7394 87.2869 34.4747 88.1019 35.2916 88.8354L36.8438 91.6065L41.6637 91.688L38.9678 87.8574C38.3959 87.1239 37.9875 86.3089 37.9058 85.4124L37.8241 84.5974C37.7424 84.1899 37.6607 83.7824 37.4973 83.3749L35.1282 81.1744C35.1282 81.1744 34.5563 80.6039 34.3113 80.8484C34.0662 81.0929 33.9028 81.3374 34.0662 81.7449C34.2296 82.1524 35.1282 82.8044 35.1282 82.8044C35.1282 82.8044 31.0435 78.4034 29.9815 79.7889C29.6547 80.1149 29.7364 80.7669 29.8998 81.4189C29.7364 81.4189 29.6547 81.5004 29.4913 81.5819C29.328 81.8264 29.2463 82.1524 29.4913 82.3969Z" fill="#FCBAC0"/>
<path d="M66.0901 178.486C66.0901 178.486 66.0901 179.79 67.724 180.85C67.969 181.013 68.2141 181.176 68.5409 181.42C69.4395 181.991 70.6649 182.969 71.4819 183.702C71.8903 184.11 72.3805 184.354 73.034 184.354C74.0144 184.354 74.8313 184.028 74.6679 182.643C74.6679 182.561 74.6679 182.398 74.5862 182.235C74.5862 182.154 74.5862 182.072 74.5862 181.991C74.5862 181.909 74.4228 179.22 74.4228 179.138C74.3411 179.627 73.6059 177.753 73.1974 177.753C72.5439 177.753 72.7073 179.22 72.2171 178.812C71.4002 178.079 70.6649 178.486 68.5409 177.427L68.1324 177.345C66.4986 177.182 66.2535 177.753 66.0901 178.242C66.1718 178.323 66.1718 178.405 66.0901 178.486Z" fill="#343C6B"/>
<path d="M53.9994 184.68C53.9994 184.68 55.4698 184.517 55.96 184.517C57.1037 184.436 59.6362 183.702 60.4531 184.191C61.3518 184.762 63.3941 185.251 63.3941 183.621L64.5378 183.947C64.5378 184.273 64.7012 186.392 64.7012 186.473C64.7829 187.125 64.6195 187.696 64.2927 188.266C63.5575 189.489 61.1884 188.837 59.7996 188.592L55.7966 188.103C54.3261 187.859 53.3458 186.799 53.1007 185.903C52.9373 185.332 53.3458 184.843 53.9994 184.68Z" fill="#343C6B"/>
<path d="M74.2593 127.222L74.7495 128.934C74.9129 129.341 74.9946 129.83 74.9946 130.238C75.2397 132.357 75.3214 134.394 75.158 136.514L74.9129 141.078L74.5861 178.731C74.7495 180.279 69.6845 180.524 69.6845 178.649L66.4985 140.507L63.2307 160.882L64.7012 183.621C64.7012 185.169 59.7179 185.414 59.6362 183.539C59.6362 183.539 55.5515 162.92 55.4698 159.089C55.3881 155.666 56.8586 135.617 57.022 132.52C57.3488 127.548 65.8449 128.771 65.8449 128.526L61.1067 124.94L74.2593 127.222Z" fill="#FF4A59"/>
<path d="M66.4985 140.588L68.2141 139.529C68.6226 139.284 69.1944 139.61 69.1944 140.099L68.9493 168.054L66.4985 140.588Z" fill="#C71B48"/>
<path d="M38.5593 86.8794L46.647 94.2959C47.0555 94.622 47.3822 94.948 47.7907 95.274C48.3626 95.6815 51.712 98.208 54.5713 100.327C55.8784 101.305 57.5122 101.794 59.1461 101.631C59.4729 101.468 59.7996 101.305 60.1264 101.061L61.842 100.082L61.9237 100.001L65.028 98.2895C65.2731 98.208 67.0704 99.186 67.3154 99.1045C67.969 98.86 68.6225 98.697 69.1944 98.6155C69.4395 98.6155 69.6846 98.6155 69.9296 98.6155C72.7072 98.697 74.5045 100.572 74.4228 104.239C74.4228 104.239 73.7692 114.916 74.2594 119.806C74.4228 121.925 76.0566 128.2 76.0566 128.2C75.8933 132.438 56.6136 132.52 56.6953 130.808C56.6953 130.808 57.9207 126.978 56.5319 120.295C55.715 116.301 55.4699 111.737 55.4699 111.737C55.2248 110.433 54.5713 109.211 53.5092 108.314L43.2976 99.5935C42.9708 99.2675 42.644 98.9415 42.3172 98.6155L35.1282 89.8949C34.8014 89.2429 37.0889 86.8794 38.5593 86.8794Z" fill="#3E4672"/>
<path d="M59.9631 92.0141C58.9827 96.0076 61.2702 97.5561 64.1294 97.4746C67.3155 97.4746 70.2564 95.1926 71.4818 92.9921C73.2791 89.7321 72.2171 86.5535 69.5212 85.0865C63.3125 81.745 60.2898 90.6286 59.9631 92.0141Z" fill="#FCBAC0"/>
<path d="M66.9887 92.9106L66.8253 100.979C66.8253 101.387 66.4986 101.713 65.845 101.957C64.7013 102.365 63.1491 102.202 62.3322 101.631C62.0054 101.387 61.842 101.142 61.842 100.898L61.9237 92.8291L66.9887 92.9106Z" fill="#FCBAC0"/>
<path d="M67.4788 89.8948C66.1717 90.5468 64.7012 90.5468 63.6392 89.9763C63.3124 89.8133 63.3124 88.7538 63.149 87.9388C62.9856 87.4498 62.4955 87.2868 62.4138 86.9608C61.9236 85.8198 63.0673 83.1303 65.3547 82.9673C67.6421 82.8043 69.5211 83.6193 70.6648 84.4343C70.8282 84.5158 69.3577 84.5973 69.5211 84.7603C70.338 86.5533 69.4394 88.8353 67.4788 89.8948Z" fill="#343C6B"/>
<path d="M65.5998 95.763L66.09 93.318C66.2534 92.666 66.1717 92.014 66.0083 91.362C65.8449 90.71 65.4364 90.1395 64.9463 89.6505L63.0673 87.939C62.3321 89.8135 62.4138 91.7695 63.3124 94.296C63.7209 95.5185 64.3744 96.4965 65.1097 97.067L65.2731 96.741C65.4364 96.415 65.5181 96.089 65.5998 95.763Z" fill="#343C6B"/>
<path d="M70.5832 84.4345C68.0507 82.886 64.8646 84.1085 63.3125 87.3685C63.2308 87.5315 63.1491 87.7761 63.0674 87.9391L64.9463 89.6506C65.4365 90.1396 65.845 90.7101 66.0084 91.3621C66.1717 92.0141 66.2534 92.6661 66.09 93.3181L65.5999 95.7631C65.5182 96.0891 65.4365 96.4966 65.2731 96.8226L65.1097 97.1486C65.4365 97.3931 68.6225 98.2081 71.8903 95.5186C73.5242 94.2146 76.9553 88.2651 70.5832 84.4345Z" fill="#343C6B"/>
<path d="M62.5772 92.0956C61.5968 92.5846 61.1067 93.4811 61.3518 94.0516C61.5968 94.6221 62.6589 94.7851 63.6392 94.2961C64.6195 93.8071 65.1097 92.9106 64.8646 92.3401C64.6195 91.6881 63.5575 91.6066 62.5772 92.0956Z" fill="#FCBAC0"/>
<path d="M103.914 62.1847C105.674 62.1847 107.1 60.7616 107.1 59.0062C107.1 57.2507 105.674 55.8276 103.914 55.8276C102.154 55.8276 100.728 57.2507 100.728 59.0062C100.728 60.7616 102.154 62.1847 103.914 62.1847Z" fill="#612916"/>
<path d="M108.979 59.6583C111.01 59.6583 112.655 58.0163 112.655 55.9908C112.655 53.9653 111.01 52.3232 108.979 52.3232C106.949 52.3232 105.303 53.9653 105.303 55.9908C105.303 58.0163 106.949 59.6583 108.979 59.6583Z" fill="#612916"/>
<path d="M108.326 62.5109C110.085 62.5109 111.512 61.0878 111.512 59.3323C111.512 57.5769 110.085 56.1538 108.326 56.1538C106.566 56.1538 105.14 57.5769 105.14 59.3323C105.14 61.0878 106.566 62.5109 108.326 62.5109Z" fill="#612916"/>
<path d="M110.368 61.859C112.128 61.859 113.554 60.4359 113.554 58.6805C113.554 56.925 112.128 55.502 110.368 55.502C108.608 55.502 107.182 56.925 107.182 58.6805C107.182 60.4359 108.608 61.859 110.368 61.859Z" fill="#612916"/>
<path d="M113.391 64.2223C115.15 64.2223 116.577 62.7992 116.577 61.0438C116.577 59.2883 115.15 57.8652 113.391 57.8652C111.631 57.8652 110.205 59.2883 110.205 61.0438C110.205 62.7992 111.631 64.2223 113.391 64.2223Z" fill="#612916"/>
<path d="M114.453 59.3322C116.212 59.3322 117.639 57.9091 117.639 56.1536C117.639 54.3982 116.212 52.9751 114.453 52.9751C112.693 52.9751 111.267 54.3982 111.267 56.1536C111.267 57.9091 112.693 59.3322 114.453 59.3322Z" fill="#612916"/>
<path d="M116.658 65.0372C118.689 65.0372 120.335 63.3952 120.335 61.3697C120.335 59.3442 118.689 57.7021 116.658 57.7021C114.628 57.7021 112.982 59.3442 112.982 61.3697C112.982 63.3952 114.628 65.0372 116.658 65.0372Z" fill="#612916"/>
<path d="M114.453 68.2159C116.212 68.2159 117.639 66.7929 117.639 65.0374C117.639 63.282 116.212 61.8589 114.453 61.8589C112.693 61.8589 111.267 63.282 111.267 65.0374C111.267 66.7929 112.693 68.2159 114.453 68.2159Z" fill="#612916"/>
<path d="M112.084 69.3571C113.572 69.3571 114.779 68.1529 114.779 66.6676C114.779 65.1822 113.572 63.978 112.084 63.978C110.595 63.978 109.388 65.1822 109.388 66.6676C109.388 68.1529 110.595 69.3571 112.084 69.3571Z" fill="#612916"/>
<path d="M109.224 67.401C110.984 67.401 112.41 65.9779 112.41 64.2225C112.41 62.467 110.984 61.0439 109.224 61.0439C107.465 61.0439 106.038 62.467 106.038 64.2225C106.038 65.9779 107.465 67.401 109.224 67.401Z" fill="#612916"/>
<path d="M105.139 64.8747C106.628 64.8747 107.835 63.6705 107.835 62.1851C107.835 60.6997 106.628 59.4956 105.139 59.4956C103.651 59.4956 102.444 60.6997 102.444 62.1851C102.444 63.6705 103.651 64.8747 105.139 64.8747Z" fill="#612916"/>
<defs>
<linearGradient id="paint0_linear" x1="119.459" y1="73.6416" x2="99.0223" y2="69.636" gradientUnits="userSpaceOnUse">
<stop stop-color="#D3DBEE"/>
<stop offset="1" stop-color="#B9C6E4"/>
</linearGradient>
</defs>
</svg>
