<?xml version="1.0" encoding="UTF-8"?>
<svg width="350px" height="216px" viewBox="0 0 350 216" version="1.1" xmlns="http://www.w3.org/2000/svg" xmlns:xlink="http://www.w3.org/1999/xlink">
    <!-- Generator: sketchtool 64 (101010) - https://sketch.com -->
    <title>93F552E7-2E5C-4E90-A33A-CCF5C9FBDE80</title>
    <desc>Created with sketchtool.</desc>
    <g id="Designs:-Opportunity-Listing" stroke="none" stroke-width="1" fill="none" fill-rule="evenodd">
        <g id="D:-Create-Opportunity---Select-Program" transform="translate(-140.000000, -239.000000)">
            <g id="Code-With-Us" transform="translate(45.000000, 191.000000)">
                <g id="Source-Code-Review" transform="translate(95.000000, 48.000000)">
                    <g id="bg" opacity="0.5" transform="translate(0.000000, 151.007812)" fill-rule="nonzero">
                        <path d="M314.761333,21.2939006 C292.628529,15.6763102 281.627934,23.4726985 256.568184,34.1822453 C231.508437,44.8917919 200.56306,48.3259724 165.2364,28.3389769 C129.909739,8.35198127 90.3272965,15.6763102 74.2316835,37.9795516 C63.5012749,52.8483793 38.7573803,61.5218621 0,64 L350,64 C341.262759,39.2743273 329.516535,25.0389608 314.761333,21.2939006 Z" id="Shape" fill="#CCEEFF" transform="translate(175.000000, 40.337165) scale(-1, 1) translate(-175.000000, -40.337165) "></path>
                        <path d="M0.499286733,64 C12.4772031,34.7342455 35.9125516,24.9789943 70.8053318,34.7342455 C123.144503,49.3671229 153.741511,38.3924649 181.051872,16.4431491 C208.362233,-5.50616663 240.455111,-8.43274206 278.232308,25.9545193 C303.417107,48.8793602 327.339672,61.5611871 350,64 L0.499286733,64 Z" id="Shape" fill="#E5F6FF" transform="translate(175.249643, 32.000000) scale(-1, 1) translate(-175.249643, -32.000000) "></path>
                    </g>
                    <g id="Background" transform="translate(40.000000, 0.007812)" fill-rule="nonzero">
                        <g id="Background-Element-2" transform="translate(149.447936, 32.572071)">
                            <path d="M2.00265241,0 L82.6094118,0 C83.7154461,0 84.6120642,0.890565679 84.6120642,1.98913412 L84.6120642,64.6468589 C84.6120642,65.7454273 83.7154461,66.635993 82.6094118,66.635993 L2.00265241,66.635993 C0.896618023,66.635993 0,65.7454273 0,64.6468589 L0,1.98913412 C0,0.890565679 0.896618023,0 2.00265241,0 Z" id="Shape" fill="#60C9FF"></path>
                            <path d="M4.80636578,3.97826824 L79.8056984,3.97826824 C80.2481121,3.97826824 80.6067594,4.33449451 80.6067594,4.77392189 L80.6067594,61.8620711 C80.6067594,62.3014984 80.2481121,62.6577247 79.8056984,62.6577247 L4.80636578,62.6577247 C4.36395202,62.6577247 4.00530481,62.3014984 4.00530481,61.8620711 L4.00530481,4.77392189 C4.00530481,4.33449451 4.36395202,3.97826824 4.80636578,3.97826824 Z" id="Shape" fill="#FFFFFF"></path>
                            <ellipse id="Shape" fill="#0F4C8B" cx="17.3063424" cy="17.2856481" rx="4.78976484" ry="4.75410315"></ellipse>
                            <path d="M15.4122574,17.0173297 C15.149924,16.835203 14.7939237,16.9066117 14.6171085,17.1768254 C14.4402933,17.4470392 14.5096194,17.8137335 14.7719528,17.9958602 L16.6407349,19.2932742 C16.8833971,19.461744 17.2103229,19.4147249 17.3989036,19.1842328 L19.8917108,16.1374087 C20.0955786,15.8882321 20.0647395,15.5160025 19.8228297,15.3060106 C19.5809199,15.0960187 19.2195457,15.1277843 19.0156779,15.3769609 L16.8544147,18.0185566 L15.4122574,17.0173297 Z" id="Shape" fill="#FFFFFF"></path>
                            <ellipse id="Shape" fill="#FCBA19" cx="17.3063424" cy="33.198721" rx="4.78976484" ry="4.75410315"></ellipse>
                            <path d="M15.4122574,32.9304025 C15.149924,32.7482759 14.7939237,32.8196846 14.6171085,33.0898983 C14.4402933,33.3601122 14.5096194,33.7268066 14.7719528,33.9089332 L16.6407349,35.2063472 C16.8833971,35.3748169 17.2103229,35.327798 17.3989036,35.0973058 L19.8917108,32.0504817 C20.0955786,31.8013051 20.0647395,31.4290754 19.8228297,31.2190836 C19.5809199,31.0090917 19.2195457,31.0408571 19.0156779,31.290034 L16.8544147,33.9316297 L15.4122574,32.9304025 Z" id="Shape" fill="#FFFFFF"></path>
                            <ellipse id="Shape" fill="#1E98D2" cx="17.3063424" cy="49.111794" rx="4.78976484" ry="4.75410315"></ellipse>
                            <path d="M15.4122574,48.8434755 C15.149924,48.6613489 14.7939237,48.7327575 14.6171085,49.0029712 C14.4402933,49.2731851 14.5096194,49.6398795 14.7719528,49.8220061 L16.6407349,51.1194201 C16.8833971,51.2878898 17.2103229,51.2408709 17.3989036,51.0103788 L19.8917108,47.9635546 C20.0955786,47.7143781 20.0647395,47.3421484 19.8228297,47.1321565 C19.5809199,46.9221646 19.2195457,46.9539301 19.0156779,47.2031069 L16.8544147,49.8447026 L15.4122574,48.8434755 Z" id="Shape" fill="#FFFFFF"></path>
                            <path d="M30.0397861,13.3271986 L51.2679016,13.3271986 C51.9315223,13.3271986 52.469493,13.861538 52.469493,14.5206791 C52.469493,15.1798201 51.9315223,15.7141595 51.2679016,15.7141595 L30.0397861,15.7141595 C29.3761654,15.7141595 28.8381947,15.1798201 28.8381947,14.5206791 C28.8381947,13.861538 29.3761654,13.3271986 30.0397861,13.3271986 Z" id="Shape" fill="#CCEEFF"></path>
                            <path d="M29.8395209,18.8967741 L71.0941604,18.8967741 C71.7577811,18.8967741 72.2957519,19.4311135 72.2957519,20.0902546 C72.2957519,20.7493957 71.7577811,21.2837351 71.0941604,21.2837351 L29.8395209,21.2837351 C29.1759002,21.2837351 28.6379294,20.7493957 28.6379294,20.0902546 C28.6379294,19.4311135 29.1759002,18.8967741 29.8395209,18.8967741 Z" id="Shape" fill="#CCEEFF"></path>
                            <path d="M29.8395209,29.6380984 L43.0570267,29.6380984 C43.7206474,29.6380984 44.2586182,30.1724377 44.2586182,30.8315788 C44.2586182,31.49072 43.7206474,32.0250593 43.0570267,32.0250593 L29.8395209,32.0250593 C29.1759002,32.0250593 28.6379294,31.49072 28.6379294,30.8315788 C28.6379294,30.1724377 29.1759002,29.6380984 29.8395209,29.6380984 Z" id="Shape" fill="#CCEEFF"></path>
                            <path d="M29.8395209,35.0087605 L71.0941604,35.0087605 C71.7577811,35.0087605 72.2957519,35.5430999 72.2957519,36.202241 C72.2957519,36.8613821 71.7577811,37.3957214 71.0941604,37.3957214 L29.8395209,37.3957214 C29.1759002,37.3957214 28.6379294,36.8613821 28.6379294,36.202241 C28.6379294,35.5430999 29.1759002,35.0087605 29.8395209,35.0087605 Z" id="Shape" fill="#CCEEFF"></path>
                            <path d="M29.8395209,45.3522579 L55.0729412,45.3522579 C55.7365619,45.3522579 56.2745326,45.8865973 56.2745326,46.5457384 C56.2745326,47.2048795 55.7365619,47.7392189 55.0729412,47.7392189 L29.8395209,47.7392189 C29.1759002,47.7392189 28.6379294,47.2048795 28.6379294,46.5457384 C28.6379294,45.8865973 29.1759002,45.3522579 29.8395209,45.3522579 Z" id="Shape" fill="#CCEEFF"></path>
                            <path d="M29.8395209,50.72292 L71.0941604,50.72292 C71.7577811,50.72292 72.2957519,51.2572594 72.2957519,51.9164005 C72.2957519,52.5755416 71.7577811,53.109881 71.0941604,53.109881 L29.8395209,53.109881 C29.1759002,53.109881 28.6379294,52.5755416 28.6379294,51.9164005 C28.6379294,51.2572594 29.1759002,50.72292 29.8395209,50.72292 Z" id="Shape" fill="#CCEEFF"></path>
                        </g>
                        <g id="Background-Element-1" transform="translate(0.000000, 13.426655)">
                            <path d="M3.00397861,0 L139.985403,0 C141.644455,0 142.989382,1.33584852 142.989382,2.98370118 L142.989382,116.961086 C142.989382,118.608939 141.644455,119.944787 139.985403,119.944787 L3.00397861,119.944787 C1.34492703,119.944787 0,118.608939 0,116.961086 L0,2.98370118 C0,1.33584852 1.34492703,0 3.00397861,0 Z" id="Shape" fill="#CCEEFF"></path>
                            <path d="M7.81034439,17.9022071 L135.179037,17.9022071 C136.174468,17.9022071 136.981425,18.7037162 136.981425,19.6924278 L136.981425,112.187164 C136.981425,113.175876 136.174468,113.977385 135.179037,113.977385 L7.81034439,113.977385 C6.81491344,113.977385 6.00795722,113.175876 6.00795722,112.187164 L6.00795722,19.6924278 C6.00795722,18.7037162 6.81491344,17.9022071 7.81034439,17.9022071 Z" id="Shape" fill="#FFFFFF"></path>
                            <path d="M3.00397861,0 L139.985403,0 C141.644455,0 142.989382,1.33584852 142.989382,2.98370118 L142.989382,11.9348047 L0,11.9348047 L0,2.98370118 C0,1.33584852 1.34492703,0 3.00397861,0 Z" id="Shape" fill="#62C7FC"></path>
                            <ellipse id="Shape" fill="#FFFFFF" cx="7.20954866" cy="5.96740236" rx="2.40318289" ry="2.38696094"></ellipse>
                            <ellipse id="Shape" fill="#FFFFFF" cx="15.019893" cy="5.96740236" rx="2.40318289" ry="2.38696094"></ellipse>
                            <ellipse id="Shape" fill="#FFFFFF" cx="22.8302374" cy="5.96740236" rx="2.40318289" ry="2.38696094"></ellipse>
                            <path d="M23.1306353,32.820713 L47.1624642,32.820713 C48.3238003,32.820713 49.2652492,33.7558069 49.2652492,34.9093038 C49.2652492,36.0628007 48.3238003,36.9978946 47.1624642,36.9978946 L23.1306353,36.9978946 C21.9692992,36.9978946 21.0278503,36.0628007 21.0278503,34.9093038 C21.0278503,33.7558069 21.9692992,32.820713 23.1306353,32.820713 Z" id="Shape" fill="#1E98D2"></path>
                            <path d="M23.1306353,42.965297 L71.194293,42.965297 C72.3556292,42.965297 73.2970781,43.9003909 73.2970781,45.0538878 C73.2970781,46.2073847 72.3556292,47.1424786 71.194293,47.1424786 L23.1306353,47.1424786 C21.9692992,47.1424786 21.0278503,46.2073847 21.0278503,45.0538878 C21.0278503,43.9003909 21.9692992,42.965297 23.1306353,42.965297 Z" id="Shape" fill="#0F4C8B"></path>
                            <path d="M23.1306353,53.109881 L53.1704214,53.109881 C54.3317575,53.109881 55.2732064,54.0449749 55.2732064,55.1984718 C55.2732064,56.3519687 54.3317575,57.2870626 53.1704214,57.2870626 L23.1306353,57.2870626 C21.9692992,57.2870626 21.0278503,56.3519687 21.0278503,55.1984718 C21.0278503,54.0449749 21.9692992,53.109881 23.1306353,53.109881 Z" id="Shape" fill="#1E98D2"></path>
                            <path d="M23.1306353,63.254465 L71.194293,63.254465 C72.3556292,63.254465 73.2970781,64.1895589 73.2970781,65.3430558 C73.2970781,66.4965527 72.3556292,67.4316466 71.194293,67.4316466 L23.1306353,67.4316466 C21.9692992,67.4316466 21.0278503,66.4965527 21.0278503,65.3430558 C21.0278503,64.1895589 21.9692992,63.254465 23.1306353,63.254465 Z" id="Shape" fill="#0F4C8B"></path>
                            <path d="M23.1306353,73.399049 L56.1744,73.399049 C57.3357361,73.399049 58.277185,74.3341429 58.277185,75.4876398 C58.277185,76.6411367 57.3357361,77.5762306 56.1744,77.5762306 L23.1306353,77.5762306 C21.9692992,77.5762306 21.0278503,76.6411367 21.0278503,75.4876398 C21.0278503,74.3341429 21.9692992,73.399049 23.1306353,73.399049 Z" id="Shape" fill="#FCBA19"></path>
                            <path d="M23.1306353,83.543633 L71.194293,83.543633 C72.3556292,83.543633 73.2970781,84.4787269 73.2970781,85.6322238 C73.2970781,86.7857207 72.3556292,87.7208146 71.194293,87.7208146 L23.1306353,87.7208146 C21.9692992,87.7208146 21.0278503,86.7857207 21.0278503,85.6322238 C21.0278503,84.4787269 21.9692992,83.543633 23.1306353,83.543633 Z" id="Shape" fill="#1E98D2"></path>
                            <path d="M23.1306353,92.4947365 L41.154507,92.4947365 C42.3158431,92.4947365 43.257292,93.4298305 43.257292,94.5833274 C43.257292,95.7368242 42.3158431,96.6719182 41.154507,96.6719182 L23.1306353,96.6719182 C21.9692992,96.6719182 21.0278503,95.7368242 21.0278503,94.5833274 C21.0278503,93.4298305 21.9692992,92.4947365 23.1306353,92.4947365 Z" id="Shape" fill="#FCBA19"></path>
                            <path d="M56.8753283,32.820713 L101.834875,32.820713 C102.996211,32.820713 103.93766,33.7558069 103.93766,34.9093038 C103.93766,36.0628007 102.996211,36.9978946 101.834875,36.9978946 L56.8753283,36.9978946 C55.7139922,36.9978946 54.7725433,36.0628007 54.7725433,34.9093038 C54.7725433,33.7558069 55.7139922,32.820713 56.8753283,32.820713 Z" id="Shape" fill="#0F4C8B"></path>
                            <path d="M80.9071572,42.965297 L125.866704,42.965297 C127.02804,42.965297 127.969489,43.9003909 127.969489,45.0538878 C127.969489,46.2073847 127.02804,47.1424786 125.866704,47.1424786 L80.9071572,47.1424786 C79.7458211,47.1424786 78.8043722,46.2073847 78.8043722,45.0538878 C78.8043722,43.9003909 79.7458211,42.965297 80.9071572,42.965297 Z" id="Shape" fill="#FCBA19"></path>
                            <path d="M62.632954,53.109881 L113.850789,53.109881 C115.012125,53.109881 115.953574,54.0449749 115.953574,55.1984718 C115.953574,56.3519687 115.012125,57.2870626 113.850789,57.2870626 L62.632954,57.2870626 C61.4716179,57.2870626 60.530169,56.3519687 60.530169,55.1984718 C60.530169,54.0449749 61.4716179,53.109881 62.632954,53.109881 Z" id="Shape" fill="#FCBA19"></path>
                            <path d="M80.9071572,63.254465 L125.866704,63.254465 C127.02804,63.254465 127.969489,64.1895589 127.969489,65.3430558 C127.969489,66.4965527 127.02804,67.4316466 125.866704,67.4316466 L80.9071572,67.4316466 C79.7458211,67.4316466 78.8043722,66.4965527 78.8043722,65.3430558 C78.8043722,64.1895589 79.7458211,63.254465 80.9071572,63.254465 Z" id="Shape" fill="#1E98D2"></path>
                            <path d="M65.8872642,73.399049 L113.850789,73.399049 C115.012125,73.399049 115.953574,74.3341429 115.953574,75.4876398 C115.953574,76.6411367 115.012125,77.5762306 113.850789,77.5762306 L65.8872642,77.5762306 C64.725928,77.5762306 63.7844791,76.6411367 63.7844791,75.4876398 C63.7844791,74.3341429 64.725928,73.399049 65.8872642,73.399049 Z" id="Shape" fill="#0F4C8B"></path>
                            <path d="M80.9071572,83.543633 L125.866704,83.543633 C127.02804,83.543633 127.969489,84.4787269 127.969489,85.6322238 C127.969489,86.7857207 127.02804,87.7208146 125.866704,87.7208146 L80.9071572,87.7208146 C79.7458211,87.7208146 78.8043722,86.7857207 78.8043722,85.6322238 C78.8043722,84.4787269 79.7458211,83.543633 80.9071572,83.543633 Z" id="Shape" fill="#FCBA19"></path>
                            <path d="M50.8673711,92.4947365 L110.846811,92.4947365 C112.008147,92.4947365 112.949596,93.4298305 112.949596,94.5833274 C112.949596,95.7368242 112.008147,96.6719182 110.846811,96.6719182 L50.8673711,96.6719182 C49.706035,96.6719182 48.7645861,95.7368242 48.7645861,94.5833274 C48.7645861,93.4298305 49.706035,92.4947365 50.8673711,92.4947365 Z" id="Shape" fill="#0F4C8B"></path>
                        </g>
                        <g id="Background-Element-4" transform="translate(127.669091, 112.386078)">
                            <path d="M2.00265241,0 L41.805369,0 C42.9114034,0 43.8080214,0.890565679 43.8080214,1.98913412 L43.8080214,32.3234294 C43.8080214,33.4219979 42.9114034,34.3125636 41.805369,34.3125636 L2.00265241,34.3125636 C0.896618023,34.3125636 0,33.4219979 0,32.3234294 L0,1.98913412 C0,0.890565679 0.896618023,0 2.00265241,0 Z" id="Shape" fill="#62C7FC"></path>
                            <path d="M2.50331551,0.994567059 L41.3047059,0.994567059 C42.1342315,0.994567059 42.8066952,1.66249132 42.8066952,2.48641765 L42.8066952,31.8261459 C42.8066952,32.6500721 42.1342315,33.3179965 41.3047059,33.3179965 L2.50331551,33.3179965 C1.67378972,33.3179965 1.0013262,32.6500721 1.0013262,31.8261459 L1.0013262,2.48641765 C1.0013262,1.66249132 1.67378972,0.994567059 2.50331551,0.994567059 Z" id="Shape" fill="#FFFFFF"></path>
                            <path d="M17.5626589,12.1166919 C17.9126316,11.8478732 17.976939,11.3481588 17.7062934,11.0005484 C17.4356479,10.6529381 16.9325373,10.5890648 16.5825646,10.8578835 L9.07261807,16.6263724 C8.65793302,16.9448975 8.65793302,17.5666557 9.07261807,17.8851808 L16.5825646,23.6536697 C16.9325373,23.9224884 17.4356479,23.8586151 17.7062934,23.5110048 C17.976939,23.1633945 17.9126316,22.66368 17.5626589,22.3948614 L10.8721283,17.2557766 L17.5626589,12.1166919 Z" id="Path" fill="#0F4C8B"></path>
                            <path d="M35.0358012,12.1166919 C35.385774,11.8478732 35.4500814,11.3481588 35.179436,11.0005484 C34.9087902,10.6529381 34.4056797,10.5890648 34.0557071,10.8578835 L26.5457606,16.6263724 C26.1310754,16.9448975 26.1310754,17.5666557 26.5457606,17.8851808 L34.0557071,23.6536697 C34.4056797,23.9224884 34.9087902,23.8586151 35.179436,23.5110048 C35.4500814,23.1633945 35.385774,22.66368 35.0358012,22.3948614 L28.3452707,17.2557766 L35.0358012,12.1166919 Z" id="Path" fill="#0F4C8B" transform="translate(30.790800, 17.255777) scale(-1, 1) translate(-30.790800, -17.255777) "></path>
                            <ellipse id="Oval" fill="#0F4C8B" cx="18.7748663" cy="17.1562818" rx="1.0013262" ry="1"></ellipse>
                            <ellipse id="Oval" fill="#0F4C8B" cx="25.2834866" cy="17.1562818" rx="1.0013262" ry="1"></ellipse>
                            <ellipse id="Oval" fill="#0F4C8B" cx="22.0291765" cy="17.1562818" rx="1.0013262" ry="1"></ellipse>
                        </g>
                        <g id="Background-Element-3" transform="translate(149.447936, 0.000000)">
                            <path d="M2.40318289,0 L24.0318289,0 C25.3590702,0 26.4350118,1.06867882 26.4350118,2.38696094 L26.4350118,23.8696094 C26.4350118,25.1878917 25.3590702,26.2565704 24.0318289,26.2565704 L2.40318289,26.2565704 C1.07594163,26.2565704 0,25.1878917 0,23.8696094 L0,2.38696094 C0,1.06867882 1.07594163,0 2.40318289,0 Z" id="Shape" fill="#62C7FC"></path>
                            <path d="M7.31823499,8.64973773 L8.40812406,7.56720562 C8.49234048,7.48355765 8.62306602,7.46757325 8.72519345,7.52843608 L9.68744215,8.10188808 C10.3133823,7.70205397 11.0164969,7.4110785 11.7696763,7.2558882 L12.0448366,6.16267665 C12.0737226,6.04791261 12.177539,5.96740236 12.296639,5.96740236 L13.8379749,5.96740236 C13.9570749,5.96740236 14.0608913,6.04791261 14.0897773,6.16267665 L14.365067,7.25640227 L14.365067,7.26964863 C15.1084015,7.43113922 15.8018253,7.72515408 16.4189738,8.12550663 L16.4361245,8.10847166 L17.4094204,7.52843608 C17.5115479,7.46757325 17.6422734,7.48355765 17.7264898,7.56720562 L18.8163789,8.64973773 C18.9005954,8.73338567 18.9166884,8.86322879 18.8554119,8.96466684 L18.2714344,9.93139284 L18.2484421,9.95422989 C18.6454198,10.5664474 18.9360739,11.2531096 19.0944834,11.9884703 L19.1292945,11.9884703 L20.2304532,12.2619017 C20.3459971,12.2905928 20.4270545,12.3937084 20.4270545,12.5120044 L20.4270545,14.042936 C20.4270545,14.1612321 20.3459971,14.2643477 20.2304532,14.2930388 L19.1292945,14.5664702 L19.0966315,14.5664702 C18.9392309,15.3031707 18.6491444,15.991171 18.2523883,16.6046302 L18.2714344,16.6235476 L18.8554119,17.5902736 C18.9166884,17.6917117 18.9005954,17.8215548 18.8163789,17.9052028 L17.7264898,18.9877349 C17.6422734,19.0713828 17.5115479,19.0873672 17.4094204,19.0265044 L16.4361245,18.4464688 L16.4250691,18.435488 C15.8063924,18.8378616 15.1108497,19.1332827 14.365067,19.2953051 L14.365067,19.2985382 L14.0897773,20.3922638 C14.0608913,20.5070279 13.9570749,20.5875381 13.8379749,20.5875381 L12.296639,20.5875381 C12.177539,20.5875381 12.0737226,20.5070279 12.0448366,20.3922638 L11.7723343,19.3096127 C11.0148989,19.153891 10.3080478,18.8608563 9.67933957,18.4578811 L8.72519345,19.0265044 C8.62306602,19.0873672 8.49234048,19.0713828 8.40812406,18.9877349 L7.31823499,17.9052028 C7.23401855,17.8215548 7.21792551,17.6917117 7.27920197,17.5902736 L7.84708755,16.6501866 C7.43353194,16.0229753 7.13216224,15.3162117 6.97129553,14.5580216 L5.90416075,14.2930388 C5.78861676,14.2643477 5.70755936,14.1612321 5.70755936,14.042936 L5.70755936,12.5120044 C5.70755936,12.3937084 5.78861676,12.2905928 5.90416075,12.2619017 L6.97354859,11.9963594 C7.13537978,11.2402438 7.43699167,10.5354685 7.85024581,9.90998215 L7.27920197,8.96466684 C7.21792551,8.86322879 7.23401855,8.73338567 7.31823499,8.64973773 Z M13.0997509,16.5075068 C14.8929905,16.5075068 16.3466984,15.0636117 16.3466984,13.2824769 C16.3466984,11.501342 14.8929905,10.0574469 13.0997509,10.0574469 C11.3065114,10.0574469 9.85280349,11.501342 9.85280349,13.2824769 C9.85280349,15.0636117 11.3065114,16.5075068 13.0997509,16.5075068 Z" id="Shape" fill="#FFFFFF"></path>
                        </g>
                    </g>
                    <g id="Man-Standing-1" transform="translate(19.000000, 62.007812)">
                        <g id="Head-Front/-Man/1" transform="translate(8.903226, 0.181695)">
                            <path d="M2.48761953,16.4708867 C1.55644671,16.4723189 0.685736097,15.8888765 0.365629444,14.9595362 C0.0729918355,14.1099446 0.321002821,13.2049444 0.927016551,12.6188876 C0.768123281,11.5724813 0.623992315,10.6149925 0.494623656,9.7464214 C0.494623656,6.13977928 3.48420614,3.21601813 7.17204301,3.21601813 C10.8598799,3.21601813 13.8494624,6.13977928 13.8494624,9.7464214 L13.8494624,13.9223255 C13.8494624,16.833997 12.5945135,19.2459023 11.165144,20.1510639 C11.4662258,21.3248448 11.883164,22.2988238 12.4159585,23.0730008 C13.3969699,24.4984591 13.3801808,26.0432032 12.3655914,27.7072331 L2.72043011,27.7072331 L3.46236559,16.9435511 C3.38242355,16.8686485 2.56281511,16.5461401 2.48761953,16.4708867 Z" id="Shape" fill="#944300"></path>
                            <path d="M11.8709677,11.6271425 C11.8709677,11.490515 11.7602425,11.3797565 11.6236559,11.3797565 C11.4870694,11.3797565 11.3763441,11.490515 11.3763441,11.6271425 L11.3763441,13.5571344 C11.3763441,13.6812384 11.4682677,13.7861359 11.5912659,13.8023896 C12.0505775,13.8630858 12.2376897,13.9602424 12.2376897,14.0043818 C12.2376897,14.1031695 11.997604,14.3369651 11.4985345,14.6297711 C11.3807181,14.6988944 11.3412278,14.8504677 11.4103304,14.9683195 C11.479433,15.0861713 11.6309609,15.1256735 11.7487773,15.0565501 C12.3981686,14.6755497 12.7323133,14.3501594 12.7323133,14.0043818 C12.7323133,13.6476978 12.4251522,13.449243 11.8709677,13.3457762 L11.8709677,11.6271425 Z" id="Shape" fill="#4A2D00" fill-rule="nonzero"></path>
                            <path d="M8.41115916,15.6208006 C8.57151417,16.7275938 9.36272339,17.2088233 10.6672714,17.0338715 C10.8026467,17.0157164 10.8976769,16.8912225 10.8795273,16.7558066 C10.8613777,16.6203907 10.7369211,16.525332 10.6015458,16.5434871 C9.54641106,16.6849903 9.01862388,16.3639794 8.9006688,15.5498366 C8.88107851,15.4146217 8.755617,15.3208942 8.62044264,15.3404904 C8.48526827,15.3600866 8.39156887,15.4855857 8.41115916,15.6208006 Z" id="Shape" fill="#4A2D00" fill-rule="nonzero"></path>
                            <path d="M7.89782668,10.6320141 C7.2861056,10.9075266 6.74207646,10.9672361 6.68270359,10.7653789 C6.62333072,10.5635218 7.07109742,10.1765372 7.68281848,9.90102469 C8.29453956,9.62551218 8.8385687,9.56580272 8.89794157,9.76765991 C8.95731444,9.96951707 8.50954774,10.3565016 7.89782668,10.6320141 Z M12.7842328,10.7642689 C12.1026132,10.5854161 11.5840697,10.2729566 11.6260335,10.0663709 C11.6679973,9.85978522 12.2545776,9.83730323 12.9361973,10.016156 C13.6178169,10.1950087 14.1363604,10.5074683 14.0943966,10.7140539 C14.0524328,10.9206396 13.4658525,10.9431216 12.7842328,10.7642689 Z M9.02688172,12.6166865 C8.8220019,12.6166865 8.65591398,12.4505488 8.65591398,12.2456075 C8.65591398,12.0406662 8.8220019,11.8745285 9.02688172,11.8745285 C9.23176154,11.8745285 9.39784946,12.0406662 9.39784946,12.2456075 C9.39784946,12.4505488 9.23176154,12.6166865 9.02688172,12.6166865 Z M12.983871,12.6166865 C12.7789911,12.6166865 12.6129032,12.4505488 12.6129032,12.2456075 C12.6129032,12.0406662 12.7789911,11.8745285 12.983871,11.8745285 C13.1887508,11.8745285 13.3548387,12.0406662 13.3548387,12.2456075 C13.3548387,12.4505488 13.1887508,12.6166865 12.983871,12.6166865 Z M1.85189291,12.4555525 C1.73343729,12.3812025 1.28701856,12.2996687 0.826977722,12.7355206 C0.189257137,10.8020178 -0.0468747583,9.27681937 0.00609302151,8.18384549 C0.086599182,6.52262555 0.634588966,5.4777682 1.65006238,5.04927342 C1.86624498,3.44944793 2.8013541,2.58368732 4.45538978,2.45199156 C6.93644325,2.25444792 11.4022255,0.0627399982 13.1882184,0.00429975899 C15.2872177,-0.0643824943 15.7915229,0.689757868 14.7011342,2.26672084 C17.5586055,1.82296352 19.2101127,2.06402436 19.6556557,2.98990336 C20.3239702,4.37872186 18.3528098,6.37825904 14.8659523,7.59115242 C13.036277,8.22759974 10.1584162,8.23392765 6.23236978,7.61013618 C5.98397067,8.56305834 5.70323845,9.19780517 5.39017316,9.51437669 C5.07710785,9.8309482 4.80893198,9.97998996 4.5856455,9.96150194 C4.4454264,12.2399094 4.17983345,13.4190223 3.78886664,13.4988407 C3.2024164,13.6185682 2.74532365,12.6620166 1.85189291,12.4555525 Z" id="Shape" fill="#441006"></path>
                            <path d="M3.21878637,14.054613 C2.40498444,13.2687536 1.67994992,13.3680847 1.2754415,14.3497007 C1.22338837,14.4760175 1.28356022,14.6206275 1.40983911,14.6726962 C1.53611799,14.724765 1.68068466,14.6645751 1.7327378,14.5382583 C1.99692343,13.897162 2.30050785,13.8555704 2.87524976,14.4105781 C2.97351733,14.5054716 3.13008222,14.5027124 3.22494723,14.4044154 C3.31981226,14.3061183 3.31705394,14.1495065 3.21878637,14.054613 Z" id="Shape" fill="#4A2D00" fill-rule="nonzero"></path>
                            <path d="M10.7752824,20.0559597 C10.1384435,20.5345892 9.58812695,20.7154856 9.12095291,20.6202135 C8.60638971,20.5152772 7.39327257,19.9677053 5.51634335,18.9869216 C5.39528013,18.9236604 5.24587101,18.9705476 5.18262875,19.0916471 C5.11938652,19.2127467 5.16625968,19.3622006 5.2873229,19.4254618 C7.21037555,20.4303472 8.44373589,20.9870564 9.0221457,21.105013 C9.64794466,21.232634 10.3324884,21.0076153 11.072397,20.4515217 C11.1815957,20.3694512 11.2036073,20.2143703 11.1215614,20.1051389 C11.0395155,19.9959074 10.8844811,19.9738892 10.7752824,20.0559597 Z" id="Shape" fill="#4A2D00" fill-rule="nonzero"></path>
                        </g>
                        <g id="Front-Bottom/-Standing/-Long-Pants" transform="translate(0.000000, 63.208136)">
                            <path d="M2.32243427,75.0570906 L7.42056254,76.0483633 L4.32248811,86.5217769 L0.246104124,85.7420872 L2.32243427,75.0570906 Z M33.732626,76.3046347 L38.8874624,75.6715106 L39.1765109,86.5899634 L35.0587741,87.108484 L33.732626,76.3046347 Z" id="Shape" fill="#944300"></path>
                            <path d="M20.3718648,25.1162813 L6.00559527,83.953915 L0.494033622,82.7391213 C1.6909917,59.9250635 3.94036529,44.9731191 7.24215441,43.0111239 C5.44903291,30.1781951 5.66071437,16.2724608 7.87719882,1.29392066 L12.4361203,1.52348623 L31.310247,-7.03113328e-15 L39.5698925,42.4375543 L39.3976482,82.7539175 L34.3583259,83.953915 C30.8118892,62.0012293 29.2013673,48.7106168 31.9998785,46.0611653 C28.460822,40.3672332 24.5848173,33.3856052 20.3718648,25.1162813 Z" id="Shape" fill="#134DBD"></path>
                            <path d="M0.218506718,84.9433074 C0.655520153,84.5126341 2.7020792,85.7689859 3.55444988,85.771418 C4.122697,85.7730396 4.49282012,85.5012317 4.66481927,84.9559946 C8.20181234,86.4031795 10.2926987,87.320051 10.9374784,87.7066084 C11.5822582,88.0931661 11.7726282,88.5439512 11.5085886,89.0589636 L0.218506718,89.0589636 C-0.0728355725,86.6023082 -0.0728355725,85.2304229 0.218506718,84.9433074 Z M34.5948508,85.000298 C35.0318641,84.5696247 37.0784232,85.8259765 37.930794,85.8284088 C38.4990412,85.8300302 38.8691643,85.5582222 39.0411633,85.0129852 C42.5781565,86.4601701 44.6690429,87.3770415 45.3138225,87.7635992 C45.9586022,88.1501567 46.1489722,88.6009417 45.8849327,89.1159541 L34.5948508,89.1159541 C34.3035085,86.659299 34.3035085,85.2874135 34.5948508,85.000298 Z" id="Shape" fill="#021768"></path>
                            <path d="M30.2612795,6.07402301 C30.3417511,5.96362606 30.317519,5.80887684 30.2071551,5.72838092 C30.0967912,5.64788497 29.9420883,5.67212455 29.8616167,5.78252149 L21.7905672,16.8549639 C21.7752807,16.875935 21.7633885,16.8991817 21.755327,16.9238511 L18.8980407,25.6675303 C18.8556028,25.7973956 18.9264453,25.9370853 19.0562718,25.979536 C19.1860983,26.0219864 19.3257461,25.9511227 19.368184,25.8212572 L22.2133027,17.1148127 L30.2612795,6.07402301 Z" id="Shape" fill="#0E143F" fill-rule="nonzero"></path>
                        </g>
                        <g id="Front-body/-Man/-Pose7/-Hoodie-" transform="translate(0.000000, 21.109912)">
                            <path d="M34.4122691,45.2303187 C33.040378,48.1328151 11.9828604,49.8453703 8.12965432,47.0539373 C6.6589554,45.9884979 8.94521644,37.3334849 8.12965432,33.3931668 C7.71260486,31.3782283 1.57874233,19.4931145 1.14021704,17.9992845 C-1.09033095,10.4009557 0.520543865,8.70838421 3.82898487,6.45362912 C4.49919375,5.99687113 6.30332376,1.33189104 9.80013766,0.281508217 C12.5639054,-0.548680121 18.2319259,6.00609729 19.2472789,5.70395029 C19.6863855,5.70395029 19.839753,4.71836138 19.8745399,4.29407627 C19.8790251,4.29463041 20.1142832,0.379449407 20.7378709,0.379449407 C21.3614587,0.379449407 34.4122691,6.45362912 37.2018745,19.9871082 C38.4790388,27.1406595 36.2229228,30.9754514 32.8104796,32.1874601 C33.7987805,37.2019841 35.8087467,42.2758041 34.4122691,45.2303187 Z" id="Path" fill="#1E98D2"></path>
                            <path d="M3.80626018,6.89103792 C6.38421738,5.76025633 8.5454729,5.17895673 10.2857327,5.14387534 C10.4222933,5.14112245 10.5308409,5.02433478 10.5282747,4.8830228 C10.5255203,4.74171079 10.4126594,4.62938643 10.2760988,4.63213932 C8.46398595,4.66866918 6.2444585,5.2656418 3.61322239,6.41979337 C3.4874672,6.47495397 3.42873549,6.62516216 3.4820414,6.75529274 C3.53534731,6.88542332 3.68050501,6.94619852 3.80626018,6.89103792 Z" id="Shape" fill="#0E143F" fill-rule="nonzero"></path>
                            <path d="M15.1641767,5.5865305 C18.2490785,8.57958016 19.5034468,11.3273042 18.967296,13.8337533 C18.4037777,16.4681435 18.2024285,18.8384849 18.3645711,20.9452194 C18.3754147,21.0861121 18.4945812,21.1912319 18.6307365,21.1800109 C18.766892,21.16879 18.8684774,21.0454775 18.8576335,20.9045848 C18.6996616,18.8520383 18.896753,16.5318196 19.4502302,13.9443706 C20.0310752,11.2289804 18.7018236,8.31722284 15.5024899,5.21314842 C15.4028502,5.11647533 15.2463421,5.12169072 15.1529194,5.22479733 C15.0594968,5.32790396 15.0645368,5.48985741 15.1641767,5.5865305 Z" id="Shape" fill="#0E143F" fill-rule="nonzero"></path>
                            <path d="M21.8952459,3.29809734 C21.1207091,6.98171046 21.5309653,9.73972706 23.1488886,11.5501573 C24.6550995,13.2355834 25.3017374,15.3107981 25.0908961,17.7942979 C25.0789428,17.9350945 25.1795532,18.0592597 25.3156158,18.0716288 C25.4516783,18.0839979 25.5716688,17.9798869 25.5836219,17.8390903 C25.806411,15.2148601 25.1151839,12.9965477 23.5120347,11.2026494 C22.0205977,9.53375537 21.6351486,6.94250769 22.3785615,3.40691659 C22.4076006,3.26880909 22.3229478,3.13249082 22.189484,3.10244121 C22.0560202,3.0723916 21.9242853,3.15998982 21.8952459,3.29809734 Z" id="Shape" fill="#0E143F" fill-rule="nonzero"></path>
                            <path d="M24.9784946,16.6601682 L25.4731183,16.6601682 C25.7462913,16.6601682 25.9677419,16.8893237 25.9677419,17.1720013 L25.9677419,18.4515841 C25.9677419,18.7342618 25.7462913,18.9634172 25.4731183,18.9634172 L24.9784946,18.9634172 C24.7053216,18.9634172 24.483871,18.7342618 24.483871,18.4515841 L24.483871,17.1720013 C24.483871,16.8893237 24.7053216,16.6601682 24.9784946,16.6601682 Z" id="Shape" fill="#0E143F"></path>
                            <path d="M18.3010753,19.4752504 L18.7956989,19.4752504 C19.0688719,19.4752504 19.2903226,19.7044059 19.2903226,19.9870835 L19.2903226,21.2666663 C19.2903226,21.5493439 19.0688719,21.7784994 18.7956989,21.7784994 L18.3010753,21.7784994 C18.0279023,21.7784994 17.8064516,21.5493439 17.8064516,21.2666663 L17.8064516,19.9870835 C17.8064516,19.7044059 18.0279023,19.4752504 18.3010753,19.4752504 Z" id="Shape" fill="#0E143F"></path>
                            <path d="M31.6670331,25.6090331 C30.5772879,22.5580394 29.8510115,19.5606199 29.487862,16.6165992 C29.470568,16.4763979 29.3467142,16.3772497 29.2112269,16.3951455 C29.0757396,16.4130412 28.9799251,16.5412042 28.9972191,16.6814055 C29.3652275,19.6648164 30.1006297,22.6998985 31.2030848,25.7864767 C31.2504368,25.9190501 31.3926817,25.9867997 31.5207976,25.9378002 C31.6489133,25.8888005 31.7143852,25.7416063 31.6670331,25.6090331 Z" id="Path" fill="#0E143F" fill-rule="nonzero"></path>
                            <path d="M31.7561,27.8484854 C30.3162744,26.915577 29.028716,26.2943639 27.8934252,25.9848458 C28.0947044,24.6581031 29.2648552,24.1021477 31.4038773,24.3169789 C31.7821324,24.3549688 31.8281679,27.8951805 31.7561,27.8484854 Z" id="Path-4" fill="#944300" transform="translate(29.839043, 26.060507) scale(-1, 1) rotate(2.000000) translate(-29.839043, -26.060507) "></path>
                            <path d="M27.7469683,27.7721148 C17.0907764,35.03689 10.3565428,35.8968332 7.44620647,30.4982267 C7.37966545,30.3747947 7.22902615,30.3305522 7.10974425,30.3994084 C6.99046234,30.4682646 6.94770742,30.624145 7.01424847,30.7475772 C10.1280819,36.523666 17.1969749,35.6016789 28.1219239,28.1293048 C28.1863365,28.0852486 28.2271687,28.0125903 28.2323158,27.9328702 L28.4610762,24.389713 C28.4712343,24.2323782 28.3428018,24.1030604 28.1910916,24.1178672 L15.3542675,25.3707348 L12.1051075,15.4852948 C12.0611263,15.3514839 11.9206446,15.279903 11.7913328,15.3254144 C11.662021,15.3709258 11.5928468,15.5162953 11.636828,15.6501063 L14.9488846,25.7269061 C14.9857586,25.8390937 15.0922384,25.9104134 15.2062472,25.8992862 L27.948178,24.6556802 L27.7469683,27.7721148 Z" id="Path-10" fill="#0E143F" fill-rule="nonzero"></path>
                            <path d="M11.8941363,24.9287659 C13.1703032,23.7341206 14.5549509,22.7787845 16.0480792,22.0627575 C18.2877718,20.988717 21.7714047,20.5325177 17.3458384,22.7534834 C18.5001815,23.2483024 19.2978761,23.7669169 19.7389224,24.3093269 C20.4004922,25.1229421 18.4762263,24.5020322 17.5323261,23.9798952 C18.6593914,24.7607881 19.2955756,25.330333 19.4408787,25.6885299 C19.6588337,26.2258251 18.678731,25.7792523 17.1509869,24.9287659 C18.0177639,25.7113611 18.5236105,26.3102886 18.6685271,26.7255483 C18.8859016,27.3484378 17.7168719,26.7712392 16.8824755,26.1330989 C16.3262113,25.7076721 14.6634315,25.3062277 11.8941363,24.9287659 Z" id="Path-5" fill="#944300" transform="translate(15.884338, 24.081912) scale(-1, 1) translate(-15.884338, -24.081912) "></path>
                            <path d="M22.4415931,31.6358872 C26.7476163,32.9950697 30.2408462,33.2799919 32.9243212,32.4805823 C33.055577,32.4414812 33.1313486,32.2996773 33.0935621,32.163855 C33.0557756,32.0280324 32.9187399,31.9496244 32.7874843,31.9887255 C30.2099302,32.7565812 26.8083912,32.4791378 22.5859055,31.1463237 C22.4552618,31.1050864 22.3170486,31.1812494 22.2771978,31.3164387 C22.237347,31.4516279 22.3109494,31.5946499 22.4415931,31.6358872 Z" id="Path" fill="#0E143F" fill-rule="nonzero"></path>
                        </g>
                    </g>
                    <g id="Plant-8" transform="translate(287.000000, 126.007812)" fill-rule="nonzero">
                        <path d="M17.2931034,47.9827974 C17.3092094,47.9922387 17.3476994,48.0180319 17.4071302,48.0631774 C17.5109519,48.1420437 17.6327826,48.2462472 17.7711606,48.3787895 C18.1724619,48.7631669 18.6222268,49.2968197 19.1086002,50.003674 C20.5082455,52.0378011 21.9117137,55.051047 23.2237768,59.2332816 C24.7448163,64.0816333 26.0408369,70.1958827 27.0407544,77.7183099 L27.4655172,77.6666991 C26.4627713,70.1229929 25.1621182,63.986889 23.6339047,59.1156695 C22.310542,54.8974177 20.8903397,51.8482434 19.4663144,49.7786845 C18.9644032,49.0492488 18.4964752,48.4940455 18.0742059,48.0895841 C17.8153677,47.8416617 17.6256343,47.6975341 17.5169172,47.6338028 L17.2931034,47.9827974 Z" id="Shape" fill="#86D7FF"></path>
                        <polygon id="Shape" fill="#60C9FF" points="21.8706897 32.6710511 26.6082645 78.2197183 27.4655172 78.1402165 22.7279423 32.5915493"></polygon>
                        <path d="M36.4266443,26.5746479 C31.4856844,35.8337531 28.6761207,53.1980562 27.9741379,78.6981246 L28.7741848,78.7211268 C29.4728381,53.3420079 32.2658183,36.0801974 37.1293103,26.9662629 L36.4266443,26.5746479 Z" id="Shape" fill="#60C9FF"></path>
                        <path d="M28.1446952,52.1464789 C27.3899616,62.7850051 27.2641383,71.4755031 27.7677781,78.2197183 L28.1057105,78.1834321 C27.6040632,71.4658997 27.7295616,62.7978286 28.4827586,52.180964 L28.1446952,52.1464789 Z" id="Shape" fill="#60C9FF"></path>
                        <path d="M22.6327565,34.7030944 C16.4074617,37.1802624 12.7455236,34.5261538 11.6469422,26.7407688 C11.1173862,22.9879319 11.040606,18.3422389 11.4540518,13.9815602 C11.4722774,13.7893323 12.4827266,13.9062076 14.4853995,14.3321861 C12.5822132,13.0192184 11.6472256,12.2380977 11.6804365,11.988824 C12.7875169,3.67932037 15.7953515,-2.84189044 20.9848843,1.26132674 C24.6419623,4.15287508 27.8965913,12.8781823 29.6526399,20.2577132 C29.7453782,20.6474315 28.3515693,21.857186 25.4712137,23.8869769 C28.6570469,23.2919972 30.280541,23.1573574 30.3416968,23.4830574 C30.9825807,26.896249 31.2053983,29.699042 30.8721172,30.9873423 C30.1397296,33.8183915 27.3932761,35.0569754 22.6327565,34.7030944 Z" id="Shape" fill="#60C9FF"></path>
                        <path d="M20.9581431,35.2622127 C20.6703471,35.338338 20.388979,35.4015962 20.1140385,35.4519877 C18.5415191,34.732696 16.7016586,34.2632747 14.5937299,34.0448822 C14.4084621,33.8649377 14.2309956,33.6693767 14.0613302,33.4581995 C16.7568834,33.6743278 19.0562576,34.27497 20.9581431,35.2622127 L20.9581431,35.2622127 Z M12.7793816,31.2204486 C12.7076746,31.0462518 12.6385635,30.8668584 12.5720483,30.6822684 C16.7344489,30.7225954 20.0753657,31.5598044 22.5908845,33.2001315 C22.5180368,32.7756813 22.4370447,32.2204965 22.3458176,31.5475357 C19.8294343,29.8797261 16.4124485,29.0530535 12.0903577,29.0746917 C12.047218,28.8999953 12.0058307,28.7217912 11.9661957,28.5400795 C16.2238578,28.503682 19.653897,29.2700034 22.2523539,30.8453525 C22.2095008,30.5184339 22.1645673,30.1698946 22.1173794,29.8008119 L22.0812691,29.7673153 C22.0854996,29.7631684 22.0897312,29.7590245 22.0939639,29.7548834 C19.0672559,27.69716 15.599394,26.7687754 11.6800211,26.9684619 C11.668748,26.8930583 11.6577217,26.8171604 11.6469422,26.7407688 C11.6327012,26.6398463 11.6187876,26.538278 11.6052023,26.4360869 C15.4982539,26.2296553 18.9737976,27.1035315 22.0226141,29.0565874 C21.9619111,28.5784668 21.8977452,28.0713145 21.8298087,27.5370362 C19.9749765,24.6685455 16.4641164,23.043721 11.2664875,22.6727112 C11.2572158,22.4940001 11.248778,22.314403 11.2411769,22.1340092 C16.1163109,22.4712489 19.6053765,23.8929777 21.6854648,26.4067583 C21.5893154,25.6577699 21.4863029,24.8642503 21.3757309,24.0305153 C18.6153093,21.1364484 15.2252211,19.614592 11.1899706,19.4581457 C11.1905436,19.2798713 11.1918978,19.1012638 11.1940356,18.9224019 C15.1302627,19.0709982 18.4884816,20.4764062 21.2558092,23.1329725 C21.1863937,22.6173674 21.1141829,22.0879054 21.0390276,21.5455115 C18.3513593,18.8842998 15.0875695,17.4771158 11.2341164,17.3180168 C11.2408984,17.1396667 11.2484597,16.9612968 11.2568029,16.782984 C15.0071545,16.9375445 18.2310922,18.2365676 20.917421,20.6751404 C20.8731871,20.3611861 20.8279885,20.0432614 20.7817983,19.721533 C19.547574,18.4894368 18.3119743,17.4904258 17.0755616,16.7240758 C16.0825477,16.1085887 14.1930029,15.3338429 11.4154893,14.405337 C11.427832,14.2638067 11.4406857,14.1225345 11.4540518,13.9815602 C11.4579645,13.9402928 11.5076061,13.9132711 11.6029768,13.9004952 C14.4210076,14.8425073 16.3443455,15.6322031 17.3815995,16.2751111 C18.4764559,16.953722 19.5667857,17.8061219 20.6529459,18.8320461 C20.570231,18.2661661 20.4845007,17.6894482 20.3956183,17.1027481 C18.6858285,13.7787835 15.8127368,11.9160437 11.7478358,11.5015841 C11.7733307,11.3239143 11.7997127,11.1471575 11.8269847,10.9714024 C15.5415113,11.3553289 18.3285913,12.9112759 20.1690885,15.6305539 C20.0556199,14.9045305 19.9374108,14.1650359 19.8142208,13.4135613 C17.6198958,11.278115 15.0455388,9.96958029 12.0838978,9.4847748 C12.117742,9.30797923 12.152566,9.13255412 12.1883727,8.95860048 C15.0189746,9.42369716 17.5140326,10.614808 19.6678832,12.5294475 C19.5410153,11.7703055 19.4090921,10.9998078 19.2718746,10.219436 C17.3900755,8.38213299 15.2282369,7.15420854 12.7817714,6.5336493 C12.8320961,6.35958159 12.8836446,6.18792083 12.9364215,6.0188041 C15.2357955,6.60374795 17.2956253,7.70534275 19.1125084,9.32209529 C18.9374098,8.34593519 18.7540401,7.35547861 18.5619444,6.35354541 C17.2243397,4.95261649 15.7389827,3.8736721 14.104112,3.11593926 C14.1898179,2.95270078 14.2774786,2.79478951 14.3671026,2.64247167 C15.8170103,3.31686549 17.1536249,4.23400858 18.3758486,5.39341925 C18.2671061,4.83844722 18.1556797,4.28027447 18.0414937,3.71937032 C17.1772042,2.80783285 16.2509544,2.03134026 15.2622658,1.38968267 C15.3882898,1.24766417 15.5173547,1.11546208 15.6494764,0.993579433 C16.4164074,1.49764366 17.1466315,2.07995701 17.8399476,2.74043119 C17.6566633,1.86015069 17.4665473,0.973877832 17.2693119,0.0833977105 C17.4481369,0.0405444173 17.6310935,0.0138756554 17.8182062,0.00415907993 C18.0560123,0.888461772 18.2838201,1.76673985 18.5019841,2.63752849 C18.8966831,1.82406614 19.3263865,1.10505781 19.7911283,0.48110546 C19.9498313,0.562123591 20.110851,0.653788339 20.2741973,0.756410213 C19.7034382,1.51575111 19.1841908,2.43119314 18.7165303,3.5040645 C18.8554865,4.07202525 18.9903421,4.6365521 19.1211969,5.19723134 C19.8322492,3.76063523 20.6549814,2.62546949 21.5895877,1.79516418 C21.7172794,1.9195878 21.8443912,2.05081562 21.9708746,2.18852965 C20.9575799,3.08797707 20.0751822,4.38233774 19.3239861,6.07699915 C19.6073669,7.32191545 19.870992,8.54649175 20.1159822,9.74609683 C21.1759885,7.50720967 22.4939076,5.96403551 24.0704205,5.12861419 C24.1605927,5.28298595 24.2502332,5.44009692 24.33932,5.59980419 C22.7181568,6.46058694 21.3732821,8.15124445 20.3056315,10.6883201 C20.4515807,11.4241819 20.5904709,12.1499612 20.7225701,12.8645546 C21.9715167,10.2675781 23.5736583,8.62353271 25.5300861,7.95171187 C25.6053897,8.1144603 25.6801617,8.27878466 25.7543868,8.44458016 C23.7628939,9.11586694 22.1435805,10.901895 20.8979111,13.8285531 C21.0558956,14.7115362 21.2033948,15.5761468 21.3409362,16.4202055 C22.4449315,14.2019024 24.3807388,12.6754814 27.1321156,11.8464658 C27.1939092,12.0144522 27.2551388,12.1831213 27.3157913,12.3523886 C24.3844408,13.23123 22.4547786,14.9246098 21.5039397,17.4403031 C21.5850808,17.9583636 21.6623983,18.4680104 21.7360218,18.9687078 C23.6577542,16.4776697 25.7813572,15.040949 28.1010713,14.6746214 C28.1561278,14.847192 28.2105514,15.019979 28.2643299,15.1928983 C25.9344728,15.5374336 23.797996,17.047077 21.8477858,19.7416845 C21.912187,20.1948082 21.9735026,20.6400809 22.0318346,21.0770821 C22.6914179,20.4021058 23.4860189,19.8654511 24.4137012,19.4681977 C25.2749633,19.0993869 26.8268056,18.605374 29.0747163,17.9838224 C29.1215923,18.1572743 29.1677412,18.3304017 29.2131504,18.5031185 C26.9998646,19.1154607 25.4749251,19.6007487 24.6437467,19.9566771 C23.6289146,20.3912498 22.7905699,21.0023026 22.1255273,21.7916118 C22.2018658,22.384515 22.2725798,22.9610824 22.3379403,23.5201941 C24.26039,21.7696931 26.5474086,20.9234581 29.1846244,20.9875939 C29.0283153,21.1450411 28.8332125,21.3238884 28.5993157,21.5241358 C26.2138287,21.5942248 24.15717,22.4846346 22.4158833,24.2010813 C22.5075257,25.0191604 22.5873378,25.7968064 22.6562384,26.5302231 C23.6210647,25.1451768 25.0549456,24.1774709 26.9507728,23.6250618 C29.1605547,23.2596623 30.2908627,23.2123275 30.3416968,23.4830574 C30.3509812,23.5325044 30.360178,23.5818233 30.3692867,23.6310114 C26.550235,23.8124195 24.0180802,25.0894668 22.7392263,27.452492 C22.7874463,28.0137721 22.8288004,28.5451079 22.8637733,29.0444962 C25.1610055,27.048252 27.7679022,25.8562983 30.6781646,25.4720061 C30.7049051,25.6515344 30.7301775,25.8284516 30.7539557,26.002587 C27.8350416,26.3882977 25.2374097,27.6183276 22.9539216,29.6964961 C22.9747871,29.7118325 22.9956314,29.7272227 23.0164545,29.7426663 L22.9172847,29.8642496 C22.9428752,30.2887289 22.9633213,30.685333 22.9789977,31.0525127 C25.2926541,28.8981829 27.9322248,27.5889942 30.8909217,27.1285781 C30.9101481,27.3109226 30.9273789,27.4891994 30.9425757,27.6631595 C27.9745212,28.1332688 25.3446805,29.4932108 23.0453324,31.7471168 L23.0029434,31.7077958 C23.0203248,32.2898408 23.0235728,32.7771529 23.0147499,33.1612097 C25.3548699,30.9941808 28.027402,29.6892538 31.0253532,29.2501707 C31.0269734,29.4405903 31.0247312,29.6218083 31.0185351,29.7932298 C28.0193708,30.2520494 25.3642766,31.615898 23.0453324,33.8890126 L22.977763,33.826334 C22.9474319,34.1055065 22.9016584,34.225144 22.8440755,34.1702351 C22.8063761,34.1342863 22.7661459,34.028349 22.7227051,33.8566357 L22.6756106,33.9165126 C20.2619648,32.1903363 16.964681,31.2893236 12.7793816,31.2204486 L12.7793816,31.2204486 Z M30.6916212,31.550947 C30.6079488,31.7671598 30.5104673,31.972454 30.3991763,32.1668295 C28.4818144,32.6285307 26.7136134,33.4840323 25.0923021,34.73455 C24.8017113,34.752081 24.5005291,34.7612374 24.1887554,34.7620196 C26.138223,33.1207165 28.3070983,32.0496882 30.6916212,31.550947 L30.6916212,31.550947 Z" id="Shape" fill="#86D7FF"></path>
                        <path d="M36.2628661,28.0788732 C40.0864669,27.0374865 42.6934673,25.3018418 44.0838677,22.8719393 C45.4742678,20.4420368 47.7336682,15.4086674 50.862069,7.77183099 C50.862069,6.73044419 50.1668689,6.20975082 48.7764686,6.20975082 C48.0812685,5.51549296 47.3860682,5.34192849 46.6908681,5.68905742 C45.6480678,6.20975082 36.7842661,13.4994583 33.6558657,19.2270856 C31.5702652,23.0455038 32.4392653,25.9960998 36.2628661,28.0788732 Z" id="Shape" fill="#60C9FF"></path>
                        <path d="M32.5904831,22.298452 C32.610625,22.1272867 32.6386174,21.9538156 32.6744604,21.7780388 C35.2798567,22.5743724 36.7896448,24.0162272 37.1661352,26.0841205 C37.3325564,25.5550739 37.5261886,25.0065735 37.7470312,24.4386195 C37.5091602,22.307821 36.0359335,20.871845 33.2775096,20.1049272 C33.2607388,20.1002645 33.2448081,20.0940643 33.2298274,20.0865211 C33.2992455,19.9299721 33.3739934,19.7718577 33.4540712,19.6121778 C36.0246277,20.3352361 37.5870802,21.6535371 38.1081051,23.5498554 C38.1754607,23.3906599 38.2448114,23.230038 38.3161574,23.0679897 C38.3101493,23.0497551 38.3060943,23.0306317 38.3042407,23.0108678 C38.3032161,23.0005992 38.3028521,22.9903575 38.3030848,22.9801896 C38.3008469,20.6378238 36.9811926,19.0419401 34.2889143,18.1640002 C34.3849528,18.0143201 34.4841649,17.8639586 34.5863272,17.7130525 C37.0533718,18.5544072 38.4571099,20.0204237 38.7615898,22.0925181 C39.0766811,21.4255744 39.4233394,20.7360625 39.801565,20.0239822 C39.5010524,18.136427 38.180227,16.8210745 35.8017625,16.0586298 C35.9159186,15.9137662 36.0319948,15.7688589 36.1498025,15.6240242 C38.3378391,16.3698709 39.6897751,17.6069087 40.1805424,19.3221797 C40.4114643,18.9013097 40.6529724,18.4728711 40.9050672,18.0368638 C40.8114795,16.2129304 39.6776233,14.9983277 37.4489423,14.3609892 C37.3898505,14.3440907 37.3413711,14.308102 37.3082772,14.2616226 C37.4222944,14.1328731 37.5372302,14.0044777 37.652947,13.8765206 C39.7575961,14.4932982 40.9978091,15.6413415 41.3373119,17.2993296 C41.6823793,16.7182083 42.0455441,16.1241485 42.4268067,15.5171503 C42.1901966,13.9616055 41.104503,12.8991919 39.1297504,12.3064131 C39.2665299,12.1662115 39.4035821,12.0270384 39.5407034,11.8890192 C41.3174114,12.4819784 42.4200591,13.4874288 42.8237518,14.8907379 C43.0469295,14.5415698 43.275925,14.1882424 43.5107384,13.8307556 C43.4118605,12.3185198 42.4924325,11.2997401 40.7055755,10.7442697 C40.8489567,10.6065997 40.9917695,10.4706113 41.1337741,10.3364515 C42.7083801,10.8933903 43.6544214,11.8452702 43.9450125,13.1748027 C44.1438443,12.876786 44.3466077,12.5759587 44.553302,12.2723209 C44.4586024,10.979384 43.6697192,10.1200162 42.1405875,9.66086418 C42.0740335,9.64088 42.021365,9.59667312 41.9893171,9.54076224 C42.120025,9.42108246 42.2495653,9.3033203 42.3777329,9.18760172 C43.8212124,9.64265932 44.699092,10.4686183 44.9831437,11.6450403 C45.2119179,11.3133434 45.4452673,10.9783758 45.6831911,10.6401375 C45.6411834,10.5983045 45.6133369,10.5422391 45.6074784,10.4797752 C45.606457,10.4695392 45.6060921,10.4593299 45.6063205,10.4491938 C45.6042845,9.26593275 44.9866598,8.49519691 43.702717,8.09360402 C43.6825863,8.08730756 43.6637605,8.07879424 43.6464236,8.06841627 C43.8025883,7.93392774 43.955001,7.80391012 44.103165,7.67866864 C45.2980076,8.12105916 45.975544,8.91815196 46.1050734,10.043693 C46.4642227,9.53869764 46.8333427,9.02657377 47.2124337,8.5073214 C47.1905857,8.47323229 47.1764407,8.43372461 47.1724579,8.39125978 C47.1714376,8.38103636 47.1710725,8.37083962 47.171299,8.36071588 C47.1694268,7.43421144 46.7213589,6.83821324 45.7846737,6.52570413 C45.7268829,6.50642319 45.680323,6.46885685 45.6492748,6.42157423 C45.8145109,6.29383782 45.9646021,6.18066256 46.0976702,6.0832023 C46.9943964,6.42501427 47.522185,7.03921866 47.6578695,7.90013895 C47.9256207,7.53689651 48.198149,7.17023869 48.4754546,6.80016551 C48.2320519,7.20421544 47.9938058,7.60036156 47.7607169,7.98860387 C48.9633289,7.62819155 49.9961219,7.50669966 50.8575593,7.6299355 C50.8605657,7.67610813 50.862069,7.72340661 50.862069,7.77183099 C50.8118539,7.89441247 50.7618628,8.01632316 50.7120955,8.1375631 C49.8594275,8.03155941 48.7961893,8.18723944 47.5203415,8.61231086 C47.5057657,8.61755248 47.4905887,8.62153196 47.474942,8.62411765 C47.4439742,8.62928414 47.413214,8.62873224 47.3837097,8.62312571 L47.3805158,8.62250482 C47.1044325,9.08327622 46.8359497,9.53239863 46.5750672,9.96987203 C47.9512208,9.6048882 49.0907331,9.57337954 49.9910802,9.88488511 C49.9236379,10.0474278 49.8566462,10.2086215 49.7901046,10.3684661 C48.8961625,10.0706211 47.6952503,10.1522233 46.1837652,10.6268926 C45.8769057,11.1428128 45.5812124,11.6416192 45.2966849,12.1233118 C46.8561922,11.6757891 48.1234243,11.6397235 49.0949144,12.0282203 C49.0266072,12.190248 48.9588238,12.3507061 48.8915643,12.5095947 C47.9411755,12.1344158 46.6162878,12.2215419 44.9120423,12.7893417 C44.9087172,12.7905375 44.9053608,12.7916676 44.9019747,12.7927304 C44.7300769,13.0848033 44.5625739,13.3701409 44.3994653,13.648743 C46.0649827,13.1930538 47.3890187,13.2183945 48.3671978,13.7413064 C48.297624,13.9037611 48.2286602,14.0643883 48.1603066,14.2231881 C47.2213822,13.7009279 45.8414624,13.7213866 44.0143235,14.3080914 C43.7107105,14.8290991 43.4237353,15.3246063 43.1533978,15.794613 C44.9794221,15.2613858 46.4083978,15.2869783 47.434834,15.8921454 C47.3632894,16.0549975 47.2925095,16.2155582 47.2224945,16.3738276 C46.2587796,15.7738311 44.7955852,15.7878424 42.8254028,16.4442437 C42.8108272,16.4494854 42.79565,16.4534648 42.7800033,16.4560505 C42.7777852,16.4564183 42.7757795,16.4567289 42.7737742,16.4570155 C42.5097922,16.9194037 42.2637411,17.3543095 42.0356209,17.7617329 C43.7319396,17.3374863 45.0589838,17.4339747 46.0118377,18.0697817 C46.1365219,18.1529791 46.2524969,18.2270143 46.3599425,18.2922958 C46.2856788,18.4544929 46.2124638,18.6135484 46.1402974,18.7694624 C46.0102714,18.6917804 45.8711499,18.6034262 45.7224729,18.5042191 C44.8281924,17.9074962 43.4829591,17.8647344 41.680328,18.4002944 C41.4971388,18.7317954 41.3277684,19.0421167 41.1722167,19.3312581 C40.9655041,19.7154981 40.7622181,20.1013273 40.5623586,20.4887458 C42.4657886,19.9358302 43.93659,19.9918554 44.968518,20.680426 C45.0374491,20.7264213 45.1037183,20.7696163 45.1673559,20.8100799 C45.0874745,20.9717562 45.0093318,21.1282223 44.9329283,21.2794784 C44.8516131,21.2283753 44.7670531,21.1735161 44.6791533,21.1148634 C43.7189636,20.4741615 42.2389001,20.4720845 40.2309859,21.1387862 C40.0170084,21.5635994 39.8071131,21.9903061 39.6013005,22.4189064 C41.2146189,22.0439332 42.4835067,22.1550353 43.4035384,22.7689414 C43.6071441,22.9048005 43.787526,23.0162272 43.9454669,23.1050016 C43.8541387,23.2532922 43.7581078,23.398899 43.6573737,23.5418221 C43.4924629,23.447892 43.3117561,23.3352189 43.1141737,23.2033789 C42.2598069,22.6332888 40.9938424,22.5688147 39.3106611,23.0311987 C39.1332596,23.4093128 38.9590089,23.7888884 38.7879092,24.1699252 C40.2278612,24.004211 41.4210609,24.2307886 42.3602188,24.8574568 C42.3919888,24.8786559 42.4232794,24.8989882 42.4540977,24.918471 C42.3235417,25.0406741 42.1884551,25.1602917 42.0488379,25.2773237 C41.1606588,24.6943365 39.9937102,24.5087102 38.5392216,24.7298283 C38.2561516,25.3741878 37.9820249,26.022695 37.7168415,26.6753503 C38.741877,26.4044674 39.6353992,26.3189211 40.3963626,26.4226632 C40.1012947,26.5923519 39.792844,26.7544036 39.4710104,26.9088181 C38.7817623,26.9432127 37.9873791,27.1090207 37.0871447,27.4089497 C37.0725689,27.4141914 37.0573919,27.4181708 37.0417452,27.4207566 C37.0107776,27.4259231 36.9800175,27.4253711 36.9505129,27.4197646 C36.9122023,27.4125656 36.8768458,27.3969831 36.8464168,27.374993 C36.8448986,27.3738997 36.8433915,27.3727896 36.8418959,27.3716629 C36.7841718,27.3272106 36.7462172,27.2620648 36.7392611,27.1878988 C36.7382365,27.1776302 36.7378726,27.1673884 36.7381053,27.1572203 C36.7358307,24.7764731 35.372612,23.1668717 32.5904831,22.298452 L32.5904831,22.298452 Z" id="Path" fill="#A1E0FF"></path>
                        <path d="M18.276571,48.6366197 C18.9997637,46.2592607 18.9997637,44.2215245 18.276571,42.523411 C17.1917821,39.9762408 8.51347069,33.8630321 3.08952605,32.3347299 C-2.3344186,30.8064277 0.91994819,36.9196363 1.46234265,37.4290706 C1.70453363,37.6565438 3.882228,41.8782703 12.8526264,47.6177517 C14.2990117,48.296997 16.1069932,48.6366197 18.276571,48.6366197 Z" id="Shape" fill="#86D7FF"></path>
                        <path d="M14.3669168,48.1695247 C14.2223282,48.129941 14.0804183,48.0878412 13.9411871,48.0432259 C14.5066978,47.5338834 15.5157936,47.4192529 16.9397262,47.6862098 C16.6517562,47.4351463 16.2807523,47.0761203 15.8522776,46.6447746 C13.9849582,46.2827582 12.9774346,46.5971531 12.747885,47.5506066 C12.6420942,47.482658 12.5372567,47.4149245 12.4333645,47.3474101 C12.7402595,46.353502 13.7600071,45.9869157 15.4360184,46.2218173 C15.1747858,45.9542818 14.8977095,45.6671555 14.6094172,45.3668906 C13.4413392,45.1931801 12.2706867,45.5515711 11.0887804,46.450528 C10.9863304,46.3803454 10.884925,46.3104362 10.7845542,46.2408052 C11.9287783,45.347296 13.082523,44.9251091 14.2392126,44.9806577 C14.0668622,44.8006054 13.8913901,44.6170428 13.7137013,44.4312318 C12.2585702,44.3197013 10.9000292,44.6492365 9.63268355,45.4215153 C9.52987801,45.3465043 9.42830709,45.2718642 9.32795697,45.1976018 C10.582376,44.4044862 11.9288014,44.0262527 13.3626614,44.0643234 C13.0386545,43.7259123 12.7093937,43.3828991 12.3801397,43.042619 C10.9025671,42.8902232 9.62782914,43.4071266 8.54053943,44.6036993 C8.4459074,44.5309291 8.35248288,44.4585659 8.26024732,44.386613 C9.32726707,43.2062464 10.5840046,42.6313618 12.0184764,42.6700357 C11.8019656,42.4477585 11.5862948,42.2278358 11.3729698,42.0123663 C9.9173823,41.8408327 8.36302911,42.2090585 6.70756069,43.1222153 C6.61148415,43.0403872 6.51706767,42.9592428 6.42428511,42.8787961 C8.02518051,41.9760573 9.54876775,41.5587686 10.9931555,41.6310933 C10.6351858,41.2741266 10.2866496,40.9337509 9.95500635,40.6203672 C8.47323462,40.4425248 6.88903918,40.8244562 5.1999384,41.7716238 C5.10961611,41.6862585 5.02133116,41.6019213 4.93504251,41.5186331 C6.5498983,40.5971377 8.08630059,40.1683798 9.54231503,40.2366175 C9.47457425,40.1747437 9.40775556,40.1143134 9.34193249,40.0554295 C9.1458852,39.8800499 8.95015204,39.7060995 8.75509949,39.5337847 C8.71683893,39.5721808 8.66098623,39.5929529 8.60239053,39.5851249 C7.16979734,39.3937373 5.64104124,39.7280396 4.01386326,40.593004 C3.92829016,40.5032966 3.8453591,40.4152161 3.76499922,40.3287991 C5.38664128,39.452192 6.92822698,39.077956 8.38776636,39.2104718 C8.12641126,38.9812735 7.86670905,38.7552771 7.60955511,38.5329857 C7.58455579,38.5409927 7.55734751,38.5437254 7.52952062,38.5400077 C6.12248958,38.3520352 4.62269677,38.6711596 3.02800197,39.5020924 C2.94748462,39.4076298 2.8706993,39.3160308 2.79750224,39.2273682 C4.32687084,38.4194593 5.78469002,38.0603817 7.16927974,38.1538332 C6.90449196,37.9266488 6.64303392,37.7038068 6.38592074,37.4858782 C5.05001319,37.3238834 3.63082058,37.6170749 2.12652323,38.3694579 C2.04989169,38.2655575 1.98084016,38.1696072 1.91880753,38.0818934 C3.31614609,37.3757132 4.65321866,37.0473393 5.92872845,37.0996254 C5.51473379,36.7509798 5.11415548,36.4165685 4.73151904,36.0989355 C4.71139663,36.1032845 4.69015208,36.1042893 4.66853415,36.1014014 C3.50041194,35.9453458 2.26835476,36.1388007 0.971138004,36.6844622 C0.917907782,36.587278 0.863268085,36.4832062 0.808348222,36.3735602 C2.00655139,35.8664312 3.15900847,35.6454336 4.26486632,35.7124456 C3.8128985,35.3389279 3.39099448,34.9924614 3.007609,34.6777985 C2.97193724,34.7022598 2.9270459,34.7141411 2.88041761,34.7079119 C2.02881888,34.5941423 1.14323951,34.6661335 0.22320496,34.92493 C0.189383913,34.8127837 0.158468037,34.7002915 0.131132424,34.588238 C0.970922488,34.3527467 1.78698682,34.265097 2.57900955,34.3259841 C2.22939665,34.0388585 1.92097169,33.7848881 1.66200412,33.5687204 C1.64831236,33.580153 1.63277384,33.5896349 1.6157991,33.5966662 C1.57793249,33.6443689 1.51565421,33.6715761 1.44992437,33.6627949 C0.977156772,33.5996352 0.493916509,33.5937264 -9.87750631e-05,33.6452466 C-0.00100293619,33.5235706 0.00560473376,33.4056829 0.0210604164,33.2928801 C0.468367098,33.2500671 0.908466571,33.2519596 1.34130651,33.2986728 C0.968031857,32.9807373 0.758973083,32.7859815 0.758973083,32.7396102 C0.758973083,32.6955346 0.964931659,32.822127 1.33145787,33.0865811 C1.30248994,32.7398095 1.29098951,32.4126244 1.29707619,32.1051089 C1.40782401,32.0933085 1.52692456,32.0883353 1.65483832,32.0907247 C1.64609242,32.4812607 1.66718341,32.9083334 1.71841439,33.3721535 C2.01229039,33.5928901 2.36543672,33.8652907 2.76616777,34.18091 C2.7024346,33.4551872 2.71437223,32.8143251 2.80305979,32.2590746 C2.8957423,32.2818348 2.99120845,32.3070271 3.08952605,32.3347299 C3.10966216,32.3404036 3.12984311,32.3461407 3.15006839,32.3519402 C3.06017968,32.9436476 3.06093455,33.6467032 3.1539556,34.4622363 C3.15497681,34.4711894 3.15528223,34.4800596 3.15491633,34.4887924 C3.58302651,34.8296225 4.05483225,35.2108115 4.55874435,35.6239834 C4.45772031,34.5266984 4.52780956,33.6213309 4.77268339,32.9104365 C4.88245955,32.9537434 4.99297835,32.9983342 5.10417202,33.0441584 C4.86468845,33.7536198 4.80907428,34.6897085 4.94207213,35.8557256 C4.94511575,35.8824098 4.94180112,35.9083544 4.93330659,35.9321252 C5.38794777,36.307377 5.8650647,36.7056119 6.35686235,37.1211958 C6.21331157,35.6961423 6.3519546,34.5876729 6.78057462,33.8012057 C6.88682416,33.8530526 6.99335997,33.9057218 7.10013014,33.9591744 C6.69112612,34.704401 6.56477065,35.7989639 6.73018867,37.2492151 C6.73650172,37.3045626 6.71546001,37.3567299 6.67757873,37.3929125 C6.92099902,37.5996763 7.16752729,37.8102977 7.41625196,38.0241181 C7.27478313,36.4306069 7.49725446,35.2452455 8.09504943,34.4759581 C8.2004514,34.5326318 8.30592428,34.5899403 8.41141948,34.6478469 C7.81663733,35.3803365 7.60893452,36.5924094 7.80305861,38.2943321 C7.80541807,38.3150182 7.80395645,38.3352598 7.79922272,38.3543888 C8.02457894,38.5493537 8.25133313,38.7466303 8.47882342,38.9457409 C8.34266444,37.1986075 8.65626165,35.9557084 9.43523422,35.2279176 C9.54166819,35.2900767 9.64796376,35.3527277 9.75407053,35.4158327 C8.96172314,36.0927865 8.66007478,37.3791215 8.87034297,39.2896078 C9.02744222,39.42807 9.18471079,39.5672718 9.34193249,39.7070572 C9.50600592,39.8529344 9.67663829,40.0057038 9.85262995,40.1642835 C9.67148902,38.2173499 10.0276994,36.8731167 10.9416941,36.1458079 C11.0468738,36.2125622 11.1516659,36.2796351 11.2560184,36.3469875 C11.2502463,36.3525534 11.2440163,36.3578019 11.237336,36.3626826 C10.3452927,37.0144086 10.002738,38.3491832 10.2348971,40.3845663 C10.2366928,40.4003095 10.2362753,40.4157955 10.2338866,40.4307292 C10.2365083,40.4470889 10.2367606,40.4640914 10.2343326,40.4813379 C10.233187,40.4894747 10.2314819,40.497403 10.2292602,40.5050906 C10.5945575,40.8369869 10.9778868,41.1890436 11.3696902,41.5526427 C11.1580921,39.4879645 11.4988225,38.003437 12.4063884,37.1128503 C12.5057979,37.1811128 12.6045839,37.2495057 12.7026957,37.3179908 C11.8145853,38.1531911 11.4927689,39.6339175 11.754636,41.7767003 C11.7595609,41.8169995 11.7499446,41.8557202 11.7298169,41.8878763 C11.9646097,42.1071096 12.2013572,42.3294763 12.4380685,42.5531814 C12.2233579,40.384988 12.6228314,38.8619052 13.6534954,38.0000989 C13.7515942,38.0724716 13.8487575,38.1448066 13.9449257,38.2170588 C12.9290177,39.0196029 12.5496177,40.547938 12.827506,42.8218175 C12.8313187,42.8530161 12.8264162,42.8832689 12.8146682,42.9102619 C13.0372045,43.1219674 13.25877,43.334015 13.4776974,43.5449021 C13.3390285,41.4375118 13.8277466,39.9889909 14.9613637,39.215986 C15.0422669,39.1608188 15.1537614,39.1799851 15.2103936,39.2587958 C15.2670259,39.3376061 15.2473504,39.4462165 15.1664472,39.5013837 C14.0862224,40.237981 13.646327,41.7049149 13.8677778,43.9221634 C14.2388448,44.2825171 14.5990982,44.6367424 14.9399886,44.9771308 C14.7131054,42.6591872 15.1901072,41.0805671 16.3918569,40.261103 C16.3962727,40.258092 16.4007795,40.2553024 16.4053637,40.2527317 C16.4897588,40.3313791 16.5719546,40.4093048 16.6518527,40.4864352 C16.6390422,40.5096424 16.6206122,40.5303593 16.5969404,40.5465009 C15.4697997,41.3150896 15.0398174,42.8788322 15.3308691,45.2604238 C15.3349467,45.2937897 15.3290562,45.3260734 15.3154848,45.3544451 C15.5642423,45.6060857 15.7997859,45.8479318 16.0182867,46.0765312 C15.7796367,43.7391816 16.2494862,42.1460189 17.448911,41.3170777 C17.529257,41.4090292 17.6050163,41.4991356 17.675967,41.5872298 C17.6739559,41.5887273 17.6719036,41.5901904 17.6698103,41.5916179 C16.5426696,42.3602066 16.1126873,43.9239491 16.4037391,46.305541 C16.4099173,46.356096 16.3932112,46.4041673 16.3615768,46.4399097 C16.6378517,46.7361721 16.87711,47.0031581 17.0690552,47.2315835 C16.8928172,45.1099922 17.3273743,43.6298996 18.3895708,42.8073183 C18.4330197,42.9245085 18.4731712,43.0432475 18.5100254,43.1635346 C17.5573492,43.9831607 17.2065171,45.4889469 17.476609,47.6990303 C17.4791926,47.7201714 17.4777743,47.7408783 17.472936,47.7604308 C17.5748917,47.9197388 17.6117274,48.0250255 17.5708253,48.0649141 C17.5380956,48.0968327 17.4662451,48.0769025 17.3604617,48.0123572 C17.3211884,48.072354 17.2462934,48.1050598 17.1708556,48.0887297 C15.8383167,47.8002699 14.9124895,47.8312276 14.3669168,48.1695247 L14.3669168,48.1695247 Z" id="Path" fill="#A1E0FF"></path>
                        <path d="M36.5862443,42.6197183 C32.4370531,46.3104626 30.1080662,57.9668357 29.5,77.693071 L30.3171635,77.7183099 C30.917653,58.2378753 33.2214631,46.7075079 37.1293103,43.2314416 L36.5862443,42.6197183 Z" id="Path" fill="#A1E0FF"></path>
                        <path d="M35.7420065,44.6253521 C33.3140402,41.2329384 33.5424132,37.5578238 36.4271257,33.6000078 C37.8694819,35.0392135 38.59066,35.7588164 38.59066,35.7588164 L38.0497765,31.9809012 C40.9344889,29.8220924 42.3768449,28.7426881 42.3768449,28.7426881 C42.737434,30.1818939 42.9177286,30.9014967 42.9177286,30.9014967 C43.2783176,29.1024896 43.4586121,28.2029859 43.4586121,28.2029859 L46.16303,26.0441773 C46.5236189,27.8431844 46.7039135,28.7426881 46.7039135,28.7426881 L47.7856805,24.9647729 C54.1801265,23.3199662 57.918233,23.9367687 59,26.8151803 C53.5911643,29.693592 49.4443903,32.3921028 46.5596778,34.9107131 C43.6749654,37.429323 40.0690751,40.6675362 35.7420065,44.6253521 Z" id="Shape" fill="#86D7FF"></path>
                        <path d="M35.3572703,44.0498265 C35.5616216,43.8669362 35.7703104,43.6804083 35.9833363,43.4902426 C35.114236,42.1454604 34.4780637,40.9106069 34.0775936,39.7866109 C34.0784163,39.1949336 34.1489892,38.5958333 34.2893128,37.9893095 C34.4922949,39.404028 35.2175,41.0903097 36.4751779,43.0515857 C36.8839342,42.6873551 37.3077177,42.3105215 37.7465284,41.9210851 C36.1951308,39.6565044 35.2686729,37.6870284 34.9793788,36.0167504 C35.1443273,35.6622398 35.3319041,35.305321 35.5421091,34.9459939 C35.5417099,36.6592226 36.4325292,38.8365294 38.2375508,41.4856101 C38.5665219,41.1940491 38.9035283,40.8957492 39.2485697,40.5907103 C37.4122726,37.9670844 36.3968564,35.731178 36.220747,33.889161 C36.2879589,33.7929448 36.3567519,33.6965603 36.4271257,33.6000078 L36.9049234,34.0767617 C37.1253985,35.7276932 38.0648009,37.7525129 39.7396934,40.1567667 C40.1402703,39.8030202 40.5512185,39.4405751 40.9725383,39.0694318 C39.0873515,36.2359353 38.1399974,33.8442193 38.1522999,31.9041765 L38.8446573,31.3860425 C38.6270864,33.2358278 39.4909504,35.6475714 41.4661315,38.6348188 C41.9243993,38.2314896 42.3944831,37.8182503 42.8763829,37.3951012 C41.3209727,34.2233427 40.7908844,31.6010304 41.3070139,29.5433091 L42.2472803,28.8396493 C41.3506309,30.7961112 41.7194147,33.4912701 43.3855007,36.9482226 C43.7787039,36.6032173 44.1795113,36.2518347 44.5879228,35.8940751 C43.5578265,33.6673221 43.054336,31.7228817 43.0851299,30.0663185 L43.4586121,28.2029859 L44.4706798,27.3951003 C43.3240637,29.285184 43.5224451,31.9600045 45.1008571,35.444952 C45.4695587,35.1229422 45.8425565,34.8059771 46.2198505,34.4940564 C45.0783989,31.3074453 45.0983,28.705786 46.2973732,26.714427 L46.5049541,27.7500639 C45.8055083,29.420475 45.8864916,31.5166677 46.7588601,34.0542267 C47.0362941,33.8307876 47.3160021,33.6100179 47.5979835,33.3919183 C46.9571102,31.6571777 46.655576,30.0932656 46.6961965,28.7041872 L46.7039135,28.7426881 L47.6891672,25.3018321 C47.7712672,25.1728086 47.8584537,25.0464192 47.9507313,24.9226709 C48.3192819,24.8294531 48.6788805,24.7438571 49.0295269,24.665883 C47.1437977,26.5668379 46.8376566,29.3217552 48.1429182,32.9758924 C48.4351843,32.7556605 48.7298433,32.5382383 49.0268951,32.323626 C48.2991555,29.066248 48.6541453,26.4333435 50.106089,24.4451684 C50.4384599,24.3831219 50.7618491,24.3287226 51.076256,24.2819706 C49.4289109,26.1076102 48.9336985,28.6418366 49.6080558,31.9094819 C50.020936,31.6192862 50.4383437,31.3344067 50.8602791,31.0548435 C50.3198943,28.3407692 50.7246633,26.0344164 52.0786134,24.1557111 C52.3806112,24.1249961 52.6731765,24.102312 52.9563093,24.0876586 C51.4872782,25.8358479 50.9849769,28.0212464 51.4540536,30.6668589 C51.9319322,30.3589342 52.4155041,30.057694 52.9047693,29.7631386 C53.1015373,27.4437931 53.9452994,25.5855819 55.4360196,24.2023407 C55.7111139,24.2495545 55.9716338,24.3091769 56.2175796,24.3812077 C54.7495604,25.5901389 53.8797486,27.2406539 53.6081083,29.346592 C54.1196876,29.0485691 54.6373554,28.7576953 55.1611118,28.4739703 C55.579606,27.0067246 56.2876886,25.7877239 57.2849455,24.8215561 C57.4838912,24.9330054 57.6683242,25.0568106 57.838245,25.1929715 C57.0196004,25.9580892 56.4042225,26.9036202 55.9918362,28.032612 C56.9469452,27.534999 57.9218154,27.0605886 58.9164468,26.609381 C58.9249078,26.628726 58.933239,26.6481817 58.9414402,26.6677477 L58.1892393,27.2504129 C53.1750546,29.9660147 49.2985344,32.519448 46.5596778,34.9107131 C43.6749654,37.429323 40.0690751,40.6675362 35.7420065,44.6253521 C35.6053454,44.434406 35.4771,44.2425641 35.3572703,44.0498265 L35.3572703,44.0498265 Z" id="Path" fill="#A1E0FF"></path>
                        <path d="M30.3532928,50.5391918 C22.7243756,49.4808845 19.9502239,50.0100381 22.0308377,52.1266529 C25.1517583,55.3015755 32.4339065,60.5931126 36.595134,57.9473442 C40.7563618,55.3015755 39.1959013,47.3642695 36.595134,46.3059619 C34.8612893,45.6004238 32.7806754,47.0115003 30.3532928,50.5391918 Z" id="Shape" fill="#60C9FF"></path>
                        <path d="M30.500475,50.3272813 C30.6415635,50.3896838 30.8052977,50.4949543 30.986769,50.6431999 C31.0777238,50.7175019 31.1970722,50.8239436 31.3378503,50.9578731 C33.6408453,48.4252319 35.7353575,47.1389894 37.6221969,47.1324197 C37.7505742,47.2924818 37.8732258,47.4699017 37.9892381,47.6623039 C36.1861427,47.4859054 34.0912841,48.6917117 31.7056883,51.3219019 C31.8355628,51.4548977 31.9747392,51.6017833 32.1201198,51.7604891 C34.4494632,49.7964208 36.6088083,48.8542546 38.5894909,48.9526143 C38.6502609,49.1229591 38.7068554,49.2984089 38.7589567,49.4781363 C36.8734866,49.3119705 34.7783521,50.1940142 32.4638253,52.1451777 C32.6636357,52.3744041 32.8699732,52.62107 33.075948,52.8805727 C34.9963935,51.515684 37.0059235,50.9365128 39.0929051,51.144752 C39.1129809,51.3166506 39.1289551,51.4899542 39.1406186,51.6641189 C37.1468974,51.4398429 35.2343656,51.9806711 33.3909058,53.2883667 C33.6553992,53.6406354 33.9133444,54.0105588 34.1496806,54.388076 C35.9118944,53.0971811 37.5846037,52.597142 39.1492905,52.8887208 C39.1399233,53.0603998 39.1259499,53.2316892 39.107174,53.4020771 C37.6535238,53.1109872 36.0960929,53.5874049 34.415158,54.8321424 C34.4933661,54.9696479 34.5680123,55.1076297 34.6383937,55.2456181 C34.8572727,55.674749 35.030233,56.0588662 35.1620914,56.388526 C36.2062042,55.2680233 37.428938,54.7609401 38.8134821,54.8637446 C38.7620852,55.033676 38.7046744,55.2009243 38.6410175,55.3648848 C37.4524183,55.3164992 36.4145859,55.7862798 35.5124855,56.7710675 C35.5406529,56.8411218 35.5371318,56.9226543 35.4957135,56.992917 C35.4731089,57.0312642 35.4419004,57.0617002 35.4058611,57.0832359 C35.6058065,57.7737751 35.4827213,57.9237529 35.1600544,57.2911374 C35.1141732,57.2011835 35.0673674,57.110866 35.019699,57.0202934 C33.2375661,56.0617982 31.4044549,56.2139579 29.4954829,57.4991803 C29.3187795,57.4166723 29.1423522,57.3307848 28.9664437,57.2418537 C30.8821571,55.8703126 32.7678203,55.5373292 34.6033052,56.2610309 C34.3490269,55.8151815 34.0782144,55.3703996 33.7980852,54.9393051 C30.7189888,54.4356742 28.5029732,54.8590505 27.1208921,56.1930193 C26.9711204,56.0988656 26.8224325,56.0032605 26.6749973,55.9064368 C28.1091032,54.4558855 30.3639223,53.946736 33.4130723,54.3641307 C33.2081014,54.0670136 33.0000445,53.7797828 32.7915286,53.5070322 C32.7412538,53.5353898 32.6810615,53.547568 32.6193592,53.5376477 C28.5274893,52.8797637 26.1042764,53.3638016 25.2787401,54.9286206 C25.1365589,54.8228232 24.9963059,54.7165339 24.8581677,54.6100109 C25.8144078,52.9061728 28.3397892,52.3812122 32.3722268,52.9816506 C32.1929403,52.7695353 32.014184,52.5754962 31.8396323,52.3979006 C31.7861384,52.4819021 31.6851418,52.5312116 31.5789385,52.515338 C27.0470582,51.8379838 24.595732,52.3702244 24.1181042,54.0210844 C23.9711727,53.9004427 23.8273949,53.7801095 23.6870418,53.6604586 C24.3670383,51.8817806 26.9669914,51.3443284 31.3974286,51.9719263 C31.1268123,51.724656 30.8761969,51.5180544 30.6619407,51.3448496 C26.4036945,50.4248571 23.8274758,50.9327009 22.8734916,52.8030672 C22.8575925,52.8342385 22.8360747,52.8608352 22.8107431,52.8822672 C22.6801494,52.7612651 22.5540241,52.6419386 22.4326846,52.5247259 C23.4713563,50.5599378 25.9931453,49.9629667 29.949992,50.6813157 C29.9456601,50.6679881 29.9434476,50.6552967 29.9434476,50.6431999 C29.9434476,50.5837191 29.9490691,50.5311369 29.9599925,50.4854598 C30.0896267,50.5028913 30.2207267,50.5208019 30.3532928,50.5391918 C30.402496,50.4676854 30.4515566,50.3970485 30.500475,50.3272813 Z" id="Path" fill="#86D7FF"></path>
                        <path d="M31.5175287,76.2315242 C31.7179954,75.8841136 32.060792,75.655147 32.45,75.655147 C33.0679876,75.655147 33.5689655,76.2324022 33.5689655,76.9444829 C33.5689655,77.6565637 33.0679876,78.2338189 32.45,78.2338189 C32.060792,78.2338189 31.7179954,78.0048523 31.5175287,77.6574416 C31.3170622,78.0048523 30.9742656,78.2338189 30.5850576,78.2338189 C30.1958493,78.2338189 29.8530529,78.0048523 29.6525862,77.6574416 C29.4521195,78.0048523 29.1093231,78.2338189 28.7201149,78.2338189 C28.2400636,78.2338189 27.8306174,77.8854945 27.6717548,77.3962264 C27.4675937,77.6472202 27.1772768,77.8040402 26.8551724,77.8040402 C26.533068,77.8040402 26.2427511,77.6472202 26.03859,77.3962264 C25.8797274,77.8854945 25.4702812,78.2338189 24.9902299,78.2338189 C24.7036425,78.2338189 24.4422189,78.109676 24.2442529,77.9055137 C24.0462868,78.109676 23.7848632,78.2338189 23.4982759,78.2338189 C22.8802883,78.2338189 22.3793103,77.6565637 22.3793103,76.9444829 C22.3793103,76.2324022 22.8802883,75.655147 23.4982759,75.655147 C23.7848632,75.655147 24.0462868,75.7792899 24.2442529,75.9834522 C24.4422189,75.7792899 24.7036425,75.655147 24.9902299,75.655147 C25.3123342,75.655147 25.602651,75.811967 25.8068123,76.0629608 C25.9656749,75.5736927 26.3751209,75.2253682 26.8551724,75.2253682 C27.3352239,75.2253682 27.7446699,75.5736927 27.9035325,76.0629608 C28.1076938,75.811967 28.3980107,75.655147 28.7201149,75.655147 C29.1093231,75.655147 29.4521195,75.8841136 29.6525862,76.2315242 C29.8530529,75.8841136 30.1958493,75.655147 30.5850576,75.655147 C30.9742656,75.655147 31.3170622,75.8841136 31.5175287,76.2315242 L31.5175287,76.2315242 Z" id="Shape" fill="#60C9FF"></path>
                        <polygon id="Shape" fill="#CCEEFF" points="21.362069 76.7295936 35.6034483 76.7295936 33.6096552 88.7633964 23.6406897 88.7633964"></polygon>
                        <polygon id="Path" fill="#A1E0FF" points="34.6434738 82.5236467 34.1587249 85.4494129 23.0131813 85.4494129 22.4591826 82.5236467"></polygon>
                        <polygon id="Shape" fill="#A1E0FF" points="19.8362069 76.2281851 36.6206897 76.2281851 35.7814655 79.2366358 20.675431 79.2366358"></polygon>
                    </g>
                </g>
            </g>
        </g>
    </g>
</svg>
