<svg width="384" height="303" viewBox="0 0 384 303" fill="none" xmlns="http://www.w3.org/2000/svg">
<path d="M379.851 207.072C384.362 209.504 384.061 215.179 379.55 217.611L214.742 300.027C210.531 302.189 205.719 303 200.907 303H185.569L189.479 286.246L137.751 258.144L307.071 168.161L379.851 207.072Z" fill="#E2E9FB"/>
<path d="M39.7077 217.611L1.21227 103.849C-0.892948 97.9047 2.11451 91.4195 8.12942 88.4471L184.667 1.1668C192.186 -2.34603 199.404 2.7881 200.607 7.11158L235.493 124.116C236.997 128.169 234.892 132.493 230.681 134.654L55.0458 225.447C50.8353 227.609 42.4144 226.258 39.7077 217.611Z" fill="#445393"/>
<path d="M45.4219 221.124L5.42272 102.228C3.91899 98.1749 6.02421 93.8514 10.2346 91.6897L189.78 3.05836C193.99 0.896617 199.103 2.78814 200.607 7.11162L240.606 125.737C242.11 129.79 240.004 134.114 235.794 136.276L56.2487 224.907C52.0383 227.069 46.9256 225.177 45.4219 221.124Z" fill="#E2E9FB"/>
<path d="M59.2559 222.205L238.801 137.898C244.816 134.925 252.034 135.195 257.748 138.168L372.031 194.373C376.843 197.075 380.151 207.614 371.129 212.748L195.193 300.569C189.178 303.541 181.96 303.541 176.246 300.298L60.1582 240.85C53.8425 237.338 54.1433 225.989 59.2559 222.205Z" fill="#445393"/>
<path d="M371.129 208.424L195.193 296.245C189.178 299.217 181.96 299.217 176.246 295.974L60.1583 236.526C53.8426 233.014 53.8426 224.907 60.459 221.664L90.8344 206.532L221.96 141.68L238.501 133.573C244.515 130.601 251.733 130.871 257.448 133.844L371.129 193.562C377.746 197.075 377.445 205.181 371.129 208.424Z" fill="#E2E9FB"/>
<path d="M227.975 149.517L104.368 210.856C102.564 211.667 100.458 211.667 98.9546 210.856L90.8345 206.533L221.96 141.681L227.975 144.923C230.08 146.004 229.779 148.436 227.975 149.517Z" fill="#445393"/>
<path d="M187.073 221.124H189.178L230.982 200.317C231.884 199.776 233.388 199.776 234.29 200.047L237.899 201.668H240.305V203.289C240.305 203.559 240.004 203.83 239.402 204.1L196.095 225.717C195.193 226.258 193.689 226.258 192.787 225.988L187.373 223.285C187.073 223.015 187.073 222.745 187.073 222.475V221.124Z" fill="#343C6B"/>
<path d="M263.763 183.023H265.568L270.68 180.321C271.583 179.78 273.086 179.78 273.988 180.051L277.297 181.672H279.703V183.293C279.703 183.563 279.402 183.834 278.8 184.104L272.485 187.346C271.582 187.887 270.079 187.887 269.177 187.617L263.763 184.914C263.462 184.644 263.162 184.644 263.162 184.374L263.763 183.023Z" fill="#343C6B"/>
<path d="M250.53 189.508H252.335L257.447 186.806C258.35 186.266 259.853 186.266 260.756 186.536L264.064 188.157H266.47V189.779C266.47 190.049 266.169 190.319 265.567 190.589L259.252 193.832C258.65 194.643 257.147 194.643 256.244 194.372L250.831 191.67C250.53 191.4 250.229 191.4 250.229 191.13L250.53 189.508Z" fill="#343C6B"/>
<path d="M287.823 172.484V171.133H289.627L295.041 168.431C295.943 167.891 297.447 167.891 298.349 168.161L301.958 170.052H304.063V171.404C304.063 171.674 303.762 171.944 303.161 172.214L296.845 175.727C295.943 176.268 294.439 176.268 293.537 175.997L288.123 173.295C287.823 173.025 287.823 172.755 287.823 172.484Z" fill="#343C6B"/>
<path d="M260.756 175.187V173.836H262.56L283.312 163.297C284.214 162.757 285.717 162.757 286.62 163.027L290.229 164.919H292.635V166.54C292.635 166.81 292.334 167.08 291.732 167.351L270.079 178.159C269.176 178.7 267.673 178.7 266.771 178.43L261.357 175.727C261.056 175.727 260.756 175.457 260.756 175.187Z" fill="#343C6B"/>
<path d="M247.222 180.591H249.026L254.139 177.889C255.041 177.349 256.545 177.349 257.447 177.619L260.755 179.24H263.161V180.862C263.161 181.132 262.861 181.402 262.259 181.672L256.244 185.185C255.342 185.726 253.838 185.726 252.936 185.455L247.523 182.753C247.222 182.483 247.222 182.483 247.222 182.213V180.591Z" fill="#343C6B"/>
<path d="M233.989 187.076H235.794L240.906 184.374C241.809 183.834 243.312 183.834 244.215 184.104L247.523 185.725H249.929V187.346C249.929 187.617 249.628 187.887 249.027 188.157L243.012 191.94C242.109 192.481 240.606 192.481 239.703 192.21L234.29 189.508C233.989 189.238 233.688 189.238 233.688 188.968L233.989 187.076Z" fill="#343C6B"/>
<path d="M220.756 193.832H222.561L227.673 191.129C228.576 190.589 230.079 190.589 230.982 190.859L234.29 192.48H236.696V194.102C236.696 194.372 236.395 194.642 235.794 194.912L229.478 198.155C228.576 198.696 227.072 198.696 226.17 198.425L220.756 195.723C220.456 195.453 220.155 195.453 220.155 195.183L220.756 193.832Z" fill="#343C6B"/>
<path d="M207.223 200.317H209.027L214.14 197.615C215.042 197.074 216.546 197.074 217.448 197.344L220.756 198.966H223.162V200.587C223.162 200.857 222.862 201.128 222.26 201.398L215.944 204.64C215.042 205.181 213.538 205.181 212.636 204.911L207.223 202.208C206.922 201.938 206.621 201.938 206.621 201.668L207.223 200.317Z" fill="#343C6B"/>
<path d="M193.99 207.073H195.795L200.907 204.371C201.81 203.83 203.313 203.83 204.216 204.1L207.524 205.722H209.93V207.343C209.93 207.613 209.629 207.883 209.027 208.154L202.712 211.396C201.81 211.937 200.306 211.937 199.404 211.667L193.99 208.964C193.689 208.694 193.389 208.694 193.389 208.424L193.99 207.073Z" fill="#343C6B"/>
<path d="M180.757 213.558H182.562L187.674 210.855C188.577 210.315 190.08 210.315 190.983 210.585L194.291 212.207H196.697V213.828C196.697 214.098 196.396 214.368 195.795 214.639L189.479 217.881C188.577 218.422 187.073 218.422 186.171 218.151L180.757 215.449C180.457 215.179 180.156 215.179 180.156 214.909L180.757 213.558Z" fill="#343C6B"/>
<path d="M167.524 220.313H169.329L174.442 217.611C175.344 217.07 176.848 217.07 177.75 217.341L181.058 218.962H183.464V220.583C183.464 220.853 183.163 221.124 182.562 221.394L176.246 224.637C175.344 225.177 173.84 225.177 172.938 224.907L167.524 222.205C167.224 221.934 166.923 221.934 166.923 221.664L167.524 220.313Z" fill="#343C6B"/>
<path d="M173.239 228.15H175.043L180.156 225.448C181.058 224.907 182.562 224.907 183.464 225.177L187.073 227.069H189.479V228.69C189.479 228.961 189.178 229.231 188.577 229.501L182.261 232.744C181.359 233.284 179.855 233.284 178.953 233.014L173.539 230.312C173.239 230.041 172.938 230.041 172.938 229.771L173.239 228.15Z" fill="#343C6B"/>
<path d="M160.307 234.634H162.111L167.224 231.932C168.126 231.392 169.63 231.392 170.532 231.662L173.84 233.283H176.246V234.905C176.246 235.175 175.945 235.445 175.344 235.715L169.028 238.958C168.126 239.498 166.622 239.498 165.72 239.228L160.307 236.526C160.006 236.256 159.705 236.256 159.705 235.985L160.307 234.634Z" fill="#343C6B"/>
<path d="M147.375 240.85H149.179L154.292 238.148C155.194 237.607 156.698 237.607 157.6 237.878L160.908 239.499H163.314V241.12C163.314 241.39 163.013 241.661 162.412 241.931L156.096 245.173C155.194 245.714 153.69 245.714 152.788 245.444L147.375 242.741C147.074 242.471 146.773 242.471 146.773 242.201L147.375 240.85Z" fill="#343C6B"/>
<path d="M153.991 226.798H155.795L160.908 224.096C161.81 223.556 163.314 223.556 164.216 223.826L167.524 225.447H169.93V227.069C169.93 227.339 169.63 227.609 169.028 227.879L163.013 231.392C162.111 231.933 160.607 231.933 159.705 231.662L154.292 228.96C153.991 228.69 153.69 228.69 153.69 228.42L153.991 226.798Z" fill="#343C6B"/>
<path d="M140.758 233.554H142.562L147.675 230.852C148.577 230.312 150.081 230.312 150.983 230.582L154.292 232.203H156.698V233.824C156.698 234.095 156.397 234.365 155.795 234.635L149.48 237.878C148.577 238.418 147.074 238.418 146.171 238.148L140.758 235.446C140.457 235.176 140.156 235.176 140.156 234.905L140.758 233.554Z" fill="#343C6B"/>
<path d="M123.315 231.392H125.119L130.232 228.69C131.134 228.149 132.638 228.149 133.54 228.42L136.848 230.041H139.254V231.662C139.254 231.933 138.954 232.203 138.352 232.473L132.036 235.716C131.134 236.256 129.631 236.256 128.728 235.986L123.315 233.284C123.014 233.013 122.713 233.013 122.713 232.743L123.315 231.392Z" fill="#343C6B"/>
<path d="M129.029 217.881H130.833L135.946 215.179C136.848 214.639 138.352 214.639 139.254 214.909L142.562 216.53H144.968V218.152C144.968 218.422 144.668 218.692 144.066 218.962L137.75 222.205C136.848 222.745 135.344 222.745 134.442 222.475L129.029 219.773C128.728 219.503 128.427 219.503 128.427 219.232L129.029 217.881Z" fill="#343C6B"/>
<path d="M136.548 224.907H138.352L143.465 222.205C144.367 221.664 145.871 221.664 146.773 221.934L150.081 223.556H152.487V225.177C152.487 225.447 152.186 225.717 151.585 225.988L145.269 229.23C144.367 229.771 142.863 229.771 141.961 229.5L136.548 226.798C136.247 226.528 135.946 226.528 135.946 226.258L136.548 224.907Z" fill="#343C6B"/>
<path d="M115.796 224.637H117.601L122.713 221.935C123.616 221.394 125.119 221.394 126.022 221.664L129.33 223.286H131.736V224.907C131.736 225.177 131.435 225.447 130.834 225.718L124.518 228.96C123.616 229.501 122.112 229.501 121.21 229.23L115.796 226.528C115.496 226.258 115.195 226.258 115.195 225.988L115.796 224.637Z" fill="#343C6B"/>
<path d="M102.263 231.122H104.067L109.18 228.419C110.082 227.879 111.586 227.879 112.488 228.149L115.796 229.77H118.202V231.392C118.202 231.662 117.901 231.932 117.3 232.202L110.984 235.445C110.082 235.986 108.578 235.986 107.676 235.715L102.263 233.013C101.962 232.743 101.661 232.743 101.661 232.473L102.263 231.122Z" fill="#343C6B"/>
<path d="M89.3305 237.877H91.135L96.2476 235.175C97.1498 234.635 98.6535 234.635 99.5558 234.905L102.864 236.526H105.27V238.148C105.27 238.418 104.969 238.688 104.368 238.958L98.0521 242.201C97.1498 242.741 95.6461 242.741 94.7439 242.471L89.3305 239.769C89.0297 239.499 88.729 239.499 88.729 239.229L89.3305 237.877Z" fill="#343C6B"/>
<path d="M101.06 242.742H102.864L116.097 236.256C116.999 235.716 118.503 235.716 119.104 235.986L122.412 237.607H124.818V238.958C124.818 239.229 124.518 239.499 123.916 239.769L109.48 247.065C108.578 247.605 107.074 247.605 106.473 247.335L101.36 244.903C101.06 244.633 100.759 244.633 100.759 244.363L101.06 242.742Z" fill="#343C6B"/>
<path d="M110.984 247.876H113.09L133.841 237.607C134.743 237.067 136.247 237.067 137.149 237.337L140.758 238.958H143.164V240.58C143.164 240.85 142.863 241.12 142.262 241.39L120.307 252.199C119.405 252.739 117.902 252.739 116.999 252.469L111.586 249.767C111.285 249.497 110.984 249.227 110.984 249.227V247.876Z" fill="#343C6B"/>
<path d="M81.5112 233.284H83.3157L94.1425 227.879C95.0447 227.339 96.5484 227.339 97.1499 227.609L98.0522 228.15H100.458V229.501C100.458 229.771 100.157 230.041 99.5559 230.311L87.5261 236.256C86.6239 236.797 85.1201 236.797 84.5186 236.526L81.8119 235.175C81.5112 234.905 81.2104 234.905 81.2104 234.635L81.5112 233.284Z" fill="#343C6B"/>
<path d="M203.313 191.67H205.118L210.231 188.968C211.133 188.428 212.637 188.428 213.539 188.698L216.847 190.319H219.253V191.941C219.253 192.211 218.952 192.481 218.351 192.751L212.035 195.994C211.133 196.534 209.629 196.534 208.727 196.264L203.313 193.562C203.013 193.292 202.712 193.292 202.712 193.022L203.313 191.67Z" fill="#343C6B"/>
<path d="M216.546 185.185H218.351L223.463 182.483C224.365 181.942 225.869 181.942 226.771 182.213L230.08 183.834H232.486V185.455C232.486 185.726 232.185 185.996 231.583 186.266L225.268 189.509C224.365 190.049 222.862 190.049 221.959 189.779L216.546 187.077C216.245 186.806 215.945 186.806 215.945 186.536L216.546 185.185Z" fill="#343C6B"/>
<path d="M195.494 184.915H197.298L202.411 182.212C203.313 181.672 204.817 181.672 205.719 181.942L209.027 183.563H211.433V185.185C211.433 185.455 211.133 185.725 210.531 185.995L204.215 189.238C203.313 189.779 201.809 189.779 200.907 189.508L195.494 186.806C195.193 186.536 194.892 186.536 194.892 186.266L195.494 184.915Z" fill="#343C6B"/>
<path d="M182.261 191.4H184.066L189.178 188.698C190.081 188.157 191.584 188.157 192.486 188.427L195.795 190.049H198.201V191.67C198.201 191.94 197.9 192.211 197.298 192.481L190.983 195.723C190.081 196.264 188.577 196.264 187.675 195.994L182.261 193.291C181.96 193.021 181.66 193.021 181.66 192.751L182.261 191.4Z" fill="#343C6B"/>
<path d="M189.78 198.426H191.584L196.697 195.724C197.599 195.183 199.103 195.183 200.005 195.453L203.313 197.075H205.719V198.696C205.719 198.966 205.418 199.236 204.817 199.507L198.501 202.749C197.599 203.29 196.095 203.29 195.193 203.02L189.78 200.317C190.08 200.317 189.78 200.047 189.78 200.047V198.426Z" fill="#343C6B"/>
<path d="M176.547 204.911H178.351L183.464 202.208C184.366 201.668 185.87 201.668 186.772 201.938L190.08 203.56H192.486V205.181C192.486 205.451 192.186 205.721 191.584 205.992L185.268 209.234C184.366 209.775 182.862 209.775 181.96 209.504L176.547 206.802C176.246 206.532 175.945 206.532 175.945 206.262L176.547 204.911Z" fill="#343C6B"/>
<path d="M169.028 198.155H170.833L175.945 195.453C176.847 194.913 178.351 194.913 179.253 195.183L182.562 196.804H184.968V198.426C184.968 198.696 184.667 198.966 184.065 199.236L178.05 202.749C177.148 203.29 175.644 203.29 174.742 203.019L169.329 200.317C169.028 200.047 169.028 199.777 169.028 199.777V198.155Z" fill="#343C6B"/>
<path d="M155.795 204.64H157.6L162.712 201.938C163.615 201.398 165.118 201.398 166.021 201.668L169.329 203.289H171.735V204.91C171.735 205.181 171.434 205.451 170.833 205.721L164.517 208.964C163.615 209.504 162.111 209.504 161.209 209.234L155.795 206.532C155.495 206.261 155.194 206.261 155.194 205.991L155.795 204.64Z" fill="#343C6B"/>
<path d="M163.314 211.666H165.118L170.231 208.964C171.133 208.424 172.637 208.424 173.539 208.694L176.848 210.315H179.254V211.937C179.254 212.207 178.953 212.477 178.351 212.747L172.336 216.26C171.434 216.8 169.93 216.8 169.028 216.53L163.615 213.828C163.314 213.558 163.013 213.558 163.013 213.288L163.314 211.666Z" fill="#343C6B"/>
<path d="M142.262 211.396H144.066L149.179 208.694C150.081 208.153 151.585 208.153 152.487 208.424L155.795 210.045H158.201V211.666C158.201 211.936 157.901 212.207 157.299 212.477L150.983 215.72C150.081 216.26 148.578 216.26 147.675 215.99L142.262 213.288C141.961 213.017 141.66 213.017 141.66 212.747L142.262 211.396Z" fill="#343C6B"/>
<path d="M209.028 178.16H210.832L215.945 175.457C216.847 174.917 218.351 174.917 219.253 175.187L222.561 176.809H224.967V178.43C224.967 178.7 224.666 178.97 224.065 179.241L217.749 182.483C216.847 183.024 215.343 183.024 214.441 182.753L209.028 180.051C208.727 179.781 208.426 179.781 208.426 179.511L209.028 178.16Z" fill="#343C6B"/>
<path d="M207.524 170.593H209.328L214.441 167.891C215.343 167.351 216.847 167.351 217.749 167.621L218.952 168.161H221.358V169.783C221.358 170.053 221.057 170.323 220.456 170.593L214.14 174.106C213.238 174.646 211.734 174.646 210.832 174.376L207.824 173.025C207.524 172.755 207.223 172.755 207.223 172.485L207.524 170.593Z" fill="#343C6B"/>
<path d="M194.291 177.349H196.095L201.208 174.646C202.11 174.106 203.614 174.106 204.516 174.376L205.719 174.917H208.125V176.538C208.125 176.808 207.825 177.078 207.223 177.349L200.907 180.591C200.005 181.132 198.501 181.132 197.599 180.861L194.592 179.51C194.291 179.24 193.99 179.24 193.99 178.97L194.291 177.349Z" fill="#343C6B"/>
<path d="M180.757 183.834L187.975 181.402C188.877 180.861 190.381 180.861 191.283 181.132L192.486 181.672H194.892V183.293C194.892 183.564 194.592 183.834 193.99 184.104L187.674 187.346C186.772 187.887 185.268 187.887 184.366 187.617L181.359 186.266C181.058 185.995 180.757 185.995 180.757 185.725V183.834Z" fill="#343C6B"/>
<path d="M167.524 190.589H169.329L174.442 187.887C175.344 187.347 176.847 187.347 177.75 187.617L178.953 188.157H181.359V189.779C181.359 190.049 181.058 190.319 180.456 190.589L174.141 193.832C173.239 194.372 171.735 194.372 170.833 194.102L167.825 192.751C167.524 192.481 167.224 192.481 167.224 192.211L167.524 190.589Z" fill="#343C6B"/>
<path d="M154.291 197.075H156.096L161.209 194.373C162.111 193.832 163.615 193.832 164.517 194.102L165.72 194.643H168.126V196.264C168.126 196.534 167.825 196.804 167.224 197.075L160.908 200.317C160.006 200.858 158.502 200.858 157.6 200.587L154.592 199.236C154.291 198.966 153.991 198.966 153.991 198.696L154.291 197.075Z" fill="#343C6B"/>
<path d="M141.059 203.83H142.863L147.976 201.128C148.878 200.587 150.382 200.587 151.284 200.858L152.487 201.398H154.893V203.019C154.893 203.29 154.592 203.56 153.991 203.83L147.675 207.073C146.773 207.613 145.269 207.613 144.367 207.343L141.36 205.992C141.059 205.721 140.758 205.721 140.758 205.451L141.059 203.83Z" fill="#343C6B"/>
<path d="M127.525 210.315H129.33L134.443 207.613C135.345 207.072 136.849 207.072 137.751 207.343L138.954 208.153H141.36V209.774C141.36 210.045 141.059 210.315 140.458 210.585L134.142 213.828C133.24 214.368 131.736 214.368 130.834 214.098L127.826 212.747C127.525 212.477 127.225 212.477 127.225 212.206L127.525 210.315Z" fill="#343C6B"/>
<path d="M114.292 217.071H116.097L121.21 214.369C122.112 213.828 123.616 213.828 124.518 214.098L125.721 214.639H128.127V216.26C128.127 216.53 127.826 216.801 127.225 217.071L120.909 220.584C120.007 221.124 118.503 221.124 117.601 220.854L114.593 219.503C114.292 219.232 113.992 219.232 113.992 218.962L114.292 217.071Z" fill="#343C6B"/>
<path d="M101.06 223.556H102.864L107.977 220.853C108.879 220.313 110.383 220.313 111.285 220.583L112.488 221.124H114.894V222.745C114.894 223.015 114.593 223.285 113.992 223.556L107.676 227.068C106.774 227.609 105.27 227.609 104.368 227.339L101.36 225.988C101.06 225.717 100.759 225.717 100.759 225.447L101.06 223.556Z" fill="#343C6B"/>
<path d="M149.78 218.151H151.585L156.698 215.449C157.6 214.909 159.104 214.909 160.006 215.179L163.314 216.8H165.72V218.422C165.72 218.692 165.419 218.962 164.818 219.232L158.502 222.475C157.6 223.015 156.096 223.015 155.194 222.745L149.78 220.043C149.48 219.773 149.179 219.773 149.179 219.502L149.78 218.151Z" fill="#343C6B"/>
<path d="M229.779 178.429H231.583L236.696 175.727C237.598 175.187 239.102 175.187 240.004 175.457L243.312 177.078H245.718V178.699C245.718 178.97 245.418 179.24 244.816 179.51L238.5 182.753C237.598 183.293 236.094 183.293 235.192 183.023L229.779 180.321C229.478 180.051 229.177 180.051 229.177 179.78L229.779 178.429Z" fill="#343C6B"/>
<path d="M222.26 171.674H224.065L229.177 168.972C230.08 168.431 231.583 168.431 232.486 168.701L235.794 170.323H238.2V171.944C238.2 172.214 237.899 172.485 237.297 172.755L230.982 175.997C230.08 176.538 228.576 176.538 227.674 176.268L222.26 173.565C221.959 173.295 221.659 173.295 221.659 173.025L222.26 171.674Z" fill="#343C6B"/>
<path d="M220.757 164.108H222.561L227.674 161.406C228.576 160.865 230.08 160.865 230.982 161.135L232.185 161.676H234.591V163.297C234.591 163.567 234.29 163.838 233.689 164.108L227.373 167.621C226.471 168.161 224.967 168.161 224.065 167.891L221.057 166.54C220.757 166.27 220.456 166.27 220.456 165.999L220.757 164.108Z" fill="#343C6B"/>
<path d="M249.327 159.784V158.433H250.831L261.959 152.759C262.861 152.218 264.365 152.218 264.966 152.489L268.575 154.11H270.68V155.461C270.68 155.731 270.38 156.001 269.778 156.272L257.748 162.216C256.846 162.757 255.342 162.757 254.741 162.487L249.628 160.055C249.628 160.325 249.327 160.055 249.327 159.784Z" fill="#343C6B"/>
<path d="M235.493 164.918H237.298L242.41 162.216C243.312 161.676 244.816 161.676 245.718 161.946L249.027 163.567H251.433V165.189C251.433 165.459 251.132 165.729 250.53 165.999L244.215 169.242C243.312 169.782 241.809 169.782 240.907 169.512L235.493 166.81C235.192 166.54 234.892 166.54 234.892 166.27L235.493 164.918Z" fill="#343C6B"/>
<path d="M257.448 166.54V165.189H259.252L272.786 158.434C273.688 157.893 275.191 157.893 275.793 158.163L279.402 159.785H281.507V161.136C281.507 161.406 281.206 161.676 280.605 161.946L266.169 169.242C265.267 169.783 263.763 169.783 263.162 169.512L258.049 167.08C257.748 166.81 257.448 166.54 257.448 166.54Z" fill="#343C6B"/>
<path d="M243.012 171.944H244.816L249.929 169.242C250.831 168.702 252.335 168.702 253.237 168.972L256.545 170.593H258.951V172.215C258.951 172.485 258.65 172.755 258.049 173.025L251.733 176.268C250.831 176.808 249.327 176.808 248.425 176.538L243.012 173.836C242.711 173.566 242.41 173.566 242.41 173.295L243.012 171.944Z" fill="#343C6B"/>
<path d="M233.989 157.352H235.794L240.906 154.65C241.809 154.109 243.312 154.109 244.215 154.38L245.418 154.92H247.824V156.541C247.824 156.812 247.523 157.082 246.921 157.352L240.606 160.595C239.703 161.135 238.2 161.135 237.297 160.865L234.29 159.514C233.989 159.243 233.688 159.243 233.688 158.973L233.989 157.352Z" fill="#343C6B"/>
<path d="M247.222 150.867H249.027L254.139 148.165C255.042 147.625 256.545 147.625 257.448 147.895L258.651 148.435H261.056V150.057C261.056 150.327 260.756 150.597 260.154 150.867L253.839 154.11C252.936 154.65 251.433 154.65 250.53 154.38L247.523 153.029C247.222 152.759 246.921 152.759 246.921 152.489L247.222 150.867Z" fill="#343C6B"/>
<path d="M134.443 247.334H136.247L141.36 244.632C142.262 244.092 143.766 244.092 144.668 244.362L147.976 245.983H150.382V247.605C150.382 247.875 150.081 248.145 149.48 248.415L143.164 251.658C142.262 252.198 140.758 252.198 139.856 251.928L134.443 249.226C134.142 248.956 133.841 248.956 133.841 248.686L134.443 247.334Z" fill="#343C6B"/>
<path d="M121.811 253.82H123.616L128.728 251.118C129.631 250.577 131.134 250.577 132.037 250.847L135.345 252.469H137.751V254.09C137.751 254.36 137.45 254.63 136.849 254.901L130.533 258.143C129.631 258.684 128.127 258.684 127.225 258.414L121.811 255.711C121.51 255.441 121.21 255.441 121.21 255.171L121.811 253.82Z" fill="#343C6B"/>
<path d="M156.397 244.093L162.713 240.85C163.615 240.31 163.916 239.769 163.014 239.229L157.6 236.527C156.698 236.256 155.495 236.256 154.292 236.797L147.976 240.039C147.074 240.58 146.773 241.12 147.676 241.661L153.089 244.363C153.991 244.633 155.495 244.633 156.397 244.093Z" fill="#445393"/>
<path d="M143.465 250.578L149.781 247.335C150.683 246.795 150.984 246.254 150.081 245.714L144.969 243.282C144.066 243.012 142.863 243.012 141.66 243.552L135.345 246.795C134.443 247.335 134.142 247.876 135.044 248.416L140.457 251.118C141.059 251.118 142.563 251.118 143.465 250.578Z" fill="#445393"/>
<path d="M130.834 257.063L137.149 253.82C138.052 253.28 138.352 252.739 137.45 252.199L132.037 249.497C131.134 249.227 129.931 249.227 128.729 249.767L122.413 253.01C121.511 253.55 121.21 254.091 122.112 254.631L127.526 257.333C128.428 257.603 129.631 257.603 130.834 257.063Z" fill="#445393"/>
<path d="M182.261 231.122L188.577 227.879C189.479 227.339 189.78 226.799 188.878 226.258L183.464 223.556C182.562 223.286 181.359 223.286 180.156 223.826L173.84 227.069C172.938 227.609 172.637 228.15 173.54 228.69L178.953 231.392C179.855 231.933 181.359 231.662 182.261 231.122Z" fill="#445393"/>
<path d="M169.329 237.607L175.645 234.365C176.547 233.824 176.848 233.284 175.946 232.743L170.532 230.041C169.63 229.771 168.427 229.771 167.224 230.311L160.908 233.554C160.006 234.095 159.705 234.635 160.608 235.175L166.021 237.878C166.923 238.148 168.427 238.148 169.329 237.607Z" fill="#445393"/>
<path d="M272.786 186.266L279.101 183.023C280.004 182.483 280.304 181.943 279.402 181.402L273.989 178.7C273.086 178.43 271.883 178.43 270.68 178.97L264.365 182.213C263.463 182.753 263.162 183.294 264.064 183.834L269.477 186.536C270.38 186.806 271.583 186.536 272.786 186.266Z" fill="#445393"/>
<path d="M259.553 192.751L265.869 189.509C266.771 188.968 267.072 188.428 266.169 187.887L260.756 185.185C259.854 184.915 258.651 184.915 257.448 185.456L251.132 188.698C250.23 189.239 249.929 189.779 250.831 190.319L256.245 193.021C257.147 193.292 258.651 193.292 259.553 192.751Z" fill="#445393"/>
<path d="M237.298 196.264H239.102L244.215 193.562C245.117 193.022 246.621 193.022 247.523 193.292L250.831 194.913H253.237V196.534C253.237 196.805 252.937 197.075 252.335 197.345L246.019 200.588C245.117 201.128 243.613 201.128 242.711 200.858L237.298 198.156C236.997 197.885 236.696 197.885 236.696 197.615L237.298 196.264Z" fill="#343C6B"/>
<path d="M246.32 199.237L252.636 195.994C253.538 195.454 253.839 194.913 252.937 194.373L247.523 191.671C246.621 191.4 245.418 191.4 244.215 191.941L238.2 195.183C237.298 195.724 236.997 196.264 237.9 196.805L243.313 199.507C243.914 199.777 245.418 199.777 246.32 199.237Z" fill="#445393"/>
<path d="M196.096 224.097L239.102 202.75C240.004 202.209 240.305 201.669 239.403 201.128L233.989 198.426C233.087 198.156 231.884 198.156 230.681 198.696L187.675 220.043C186.772 220.584 186.472 221.124 187.374 221.665L192.787 224.367C193.69 224.637 195.193 224.637 196.096 224.097Z" fill="#445393"/>
<path d="M296.845 174.106L303.161 170.864C304.063 170.323 304.364 169.783 303.462 169.242L298.048 166.54C297.146 166.27 295.943 166.27 294.74 166.811L288.424 170.053C287.522 170.594 287.221 171.134 288.124 171.674L293.537 174.377C294.439 174.647 295.943 174.647 296.845 174.106Z" fill="#445393"/>
<path d="M87.8267 235.175L99.8566 229.23C100.759 228.69 100.759 228.15 100.157 227.609L97.4506 226.258C96.5484 225.988 95.3454 225.988 94.4432 226.528L82.4133 232.473C81.5111 233.014 81.5111 233.554 82.1126 234.094L84.8193 235.446C85.7215 235.716 86.9245 235.716 87.8267 235.175Z" fill="#445393"/>
<path d="M227.373 166L233.689 162.757C234.591 162.217 234.892 161.676 233.99 161.136L230.982 159.785C230.08 159.515 228.877 159.515 227.674 160.055L221.358 163.298C220.456 163.838 220.155 164.379 221.057 164.919L224.065 166.27C224.967 166.54 226.471 166.54 227.373 166Z" fill="#445393"/>
<path d="M214.14 172.755L220.456 169.513C221.358 168.972 221.659 168.432 220.757 167.891L217.749 166.54C216.847 166.27 215.644 166.27 214.441 166.811L208.126 170.053C207.223 170.594 206.923 171.134 207.825 171.674L210.832 173.026C211.734 173.296 213.238 173.026 214.14 172.755Z" fill="#445393"/>
<path d="M200.908 179.24L207.223 175.998C208.125 175.457 208.426 174.917 207.524 174.376L204.517 173.025C203.614 172.755 202.411 172.755 201.208 173.295L194.893 176.538C193.99 177.078 193.69 177.619 194.592 178.159L197.599 179.51C198.502 179.781 200.005 179.781 200.908 179.24Z" fill="#445393"/>
<path d="M187.675 185.996L193.99 182.753C194.893 182.212 195.193 181.672 194.291 181.132L191.284 179.781C190.382 179.51 189.179 179.51 187.976 180.051L181.66 183.293C180.758 183.834 180.457 184.374 181.359 184.915L184.367 186.266C185.269 186.536 186.472 186.266 187.675 185.996Z" fill="#445393"/>
<path d="M174.141 192.481L180.457 189.239C181.359 188.698 181.66 188.158 180.758 187.617L177.75 186.266C176.848 185.996 175.645 185.996 174.442 186.537L168.126 189.779C167.224 190.32 166.923 190.86 167.826 191.401L170.833 192.752C171.735 193.022 173.239 193.022 174.141 192.481Z" fill="#445393"/>
<path d="M160.908 198.966L167.224 195.724C168.126 195.183 168.427 194.643 167.525 194.102L164.517 192.751C163.615 192.481 162.412 192.481 161.209 193.021L154.893 196.264C153.991 196.804 153.991 197.345 154.893 197.885L157.901 199.236C158.502 199.777 160.006 199.507 160.908 198.966Z" fill="#445393"/>
<path d="M147.675 205.722L153.991 202.479C154.893 201.939 155.194 201.398 154.292 200.858L151.284 199.507C150.382 199.236 149.179 199.236 147.976 199.777L141.66 202.749C140.758 203.29 140.457 203.83 141.36 204.371L144.367 205.722C145.269 206.262 146.773 206.262 147.675 205.722Z" fill="#445393"/>
<path d="M134.142 212.207L140.458 208.964C141.36 208.424 141.661 207.884 140.758 207.343L137.751 205.992C136.849 205.722 135.646 205.722 134.443 206.262L128.127 209.505C127.225 210.045 126.924 210.586 127.826 211.126L130.834 212.477C132.037 212.748 133.24 212.748 134.142 212.207Z" fill="#445393"/>
<path d="M120.909 218.962L127.225 215.72C128.127 215.179 128.428 214.639 127.526 214.098L124.518 212.747C123.616 212.477 122.413 212.477 121.21 213.018L114.894 216.26C113.992 216.801 113.691 217.341 114.594 217.882L117.601 219.233C118.503 219.503 120.007 219.503 120.909 218.962Z" fill="#445393"/>
<path d="M107.677 225.448L113.992 222.205C114.894 221.665 115.195 221.124 114.293 220.584L111.285 219.233C110.383 218.962 109.18 218.962 107.977 219.503L101.662 222.746C100.759 223.286 100.459 223.826 101.361 224.367L104.368 225.718C105.271 225.988 106.774 225.988 107.677 225.448Z" fill="#445393"/>
<path d="M253.839 153.029L260.154 149.787C261.057 149.246 261.357 148.706 260.455 148.165L257.448 146.814C256.545 146.544 255.342 146.544 254.139 147.084L247.824 150.327C246.922 150.867 246.621 151.408 247.523 151.948L250.531 153.299C251.433 153.57 252.636 153.57 253.839 153.029Z" fill="#445393"/>
<path d="M240.907 159.515L247.222 156.272C248.124 155.732 248.425 155.191 247.523 154.651L244.516 153.3C243.613 153.029 242.41 153.029 241.207 153.57L234.892 156.812C233.989 157.353 233.689 157.893 234.591 158.434L237.598 159.785C238.501 160.055 239.704 159.785 240.907 159.515Z" fill="#445393"/>
<path d="M231.283 174.647L237.599 171.404C238.501 170.864 238.802 170.323 237.9 169.783L232.486 167.081C231.584 166.811 230.381 166.811 229.178 167.351L223.163 170.594C222.261 171.134 221.96 171.675 222.862 172.215L228.276 174.917C228.877 175.187 230.381 175.187 231.283 174.647Z" fill="#445393"/>
<path d="M218.05 181.402L224.366 178.16C225.268 177.619 225.569 177.079 224.667 176.538L219.253 173.836C218.351 173.566 217.148 173.566 215.945 174.106L209.629 177.349C208.727 177.889 208.426 178.43 209.329 178.97L214.742 181.672C215.644 181.943 217.148 181.943 218.05 181.402Z" fill="#445393"/>
<path d="M204.517 187.887L210.833 184.644C211.735 184.104 212.036 183.564 211.133 183.023L205.72 180.321C204.818 180.051 203.615 180.051 202.412 180.591L196.096 183.834C195.194 184.374 194.893 184.915 195.795 185.455L201.209 188.157C202.111 188.427 203.615 188.427 204.517 187.887Z" fill="#445393"/>
<path d="M191.284 194.643L197.6 191.4C198.502 190.86 198.803 190.319 197.9 189.779L192.487 187.077C191.585 186.807 190.382 186.807 189.179 187.347L182.863 190.59C181.961 191.13 181.66 191.671 182.562 192.211L187.976 194.913C188.878 195.183 190.382 195.183 191.284 194.643Z" fill="#445393"/>
<path d="M178.051 201.128L184.367 197.886C185.269 197.345 185.57 196.805 184.668 196.264L179.254 193.562C178.352 193.292 177.149 193.292 175.946 193.832L169.931 197.345C169.029 197.886 168.728 198.426 169.63 198.967L175.044 201.669C175.645 201.669 177.149 201.669 178.051 201.128Z" fill="#445393"/>
<path d="M164.518 207.884L170.833 204.641C171.735 204.101 172.036 203.56 171.134 203.02L165.721 200.318C164.818 200.047 163.615 200.047 162.412 200.588L156.097 203.83C155.195 204.371 154.894 204.911 155.796 205.452L161.209 208.154C162.412 208.424 163.615 208.424 164.518 207.884Z" fill="#445393"/>
<path d="M151.284 214.368L157.6 211.126C158.502 210.585 158.803 210.045 157.901 209.505L152.487 206.802C151.585 206.532 150.382 206.532 149.179 207.073L142.864 210.315C141.961 210.856 141.661 211.396 142.563 211.937L147.976 214.639C148.878 214.909 150.382 214.909 151.284 214.368Z" fill="#445393"/>
<path d="M138.052 221.124L144.368 217.882C145.27 217.341 145.571 216.801 144.669 216.26L139.255 213.558C138.353 213.288 137.15 213.288 135.947 213.829L129.932 217.071C129.03 217.612 128.729 218.152 129.631 218.692L135.045 221.395C135.646 221.665 137.15 221.665 138.052 221.124Z" fill="#445393"/>
<path d="M124.819 227.609L131.135 224.367C132.037 223.826 132.338 223.286 131.436 222.745L126.022 220.043C125.12 219.773 123.917 219.773 122.714 220.313L116.398 223.556C115.496 224.096 115.195 224.637 116.098 225.177L121.511 227.879C122.413 228.42 123.616 228.15 124.819 227.609Z" fill="#445393"/>
<path d="M111.285 234.365L117.601 231.122C118.503 230.582 118.804 230.041 117.902 229.501L112.488 226.799C111.586 226.528 110.383 226.528 109.18 227.069L102.865 230.311C101.962 230.852 101.662 231.392 102.564 231.933L107.977 234.635C108.879 234.905 110.383 234.905 111.285 234.365Z" fill="#445393"/>
<path d="M98.0528 240.85L104.368 237.607C105.271 237.067 105.571 236.527 104.669 235.986L99.2558 233.284C98.3535 233.014 97.1506 233.014 95.9476 233.554L89.6319 236.797C88.7297 237.337 88.4289 237.878 89.3311 238.418L94.7446 241.12C95.9476 241.39 97.1506 241.39 98.0528 240.85Z" fill="#445393"/>
<path d="M244.516 168.161L250.832 164.919C251.734 164.378 252.035 163.838 251.132 163.298L245.719 160.595C244.817 160.325 243.614 160.325 242.411 160.866L236.095 164.108C235.193 164.649 234.892 165.189 235.794 165.73L241.208 168.432C242.11 168.702 243.614 168.702 244.516 168.161Z" fill="#445393"/>
<path d="M258.05 161.406L270.079 155.461C270.982 154.921 270.982 154.38 270.38 153.84L265.268 151.408C264.365 151.138 263.162 151.138 262.26 151.678L250.23 157.623C249.328 158.163 249.328 158.704 249.929 159.244L255.042 161.676C255.644 161.946 257.147 161.676 258.05 161.406Z" fill="#445393"/>
<path d="M238.802 181.672L245.118 178.43C246.02 177.889 246.321 177.349 245.418 176.808L240.005 174.106C239.103 173.836 237.9 173.836 236.697 174.376L230.381 177.619C229.479 178.159 229.178 178.7 230.08 179.24L235.494 181.942C236.396 182.213 237.9 182.213 238.802 181.672Z" fill="#445393"/>
<path d="M225.569 188.158L231.885 184.915C232.787 184.375 233.088 183.834 232.186 183.294L226.772 180.592C225.87 180.321 224.667 180.321 223.464 180.862L217.148 184.104C216.246 184.645 215.945 185.185 216.848 185.726L222.261 188.428C223.163 188.698 224.667 188.698 225.569 188.158Z" fill="#445393"/>
<path d="M212.336 194.913L218.652 191.67C219.554 191.13 219.855 190.589 218.953 190.049L213.539 187.347C212.637 187.077 211.434 187.077 210.231 187.617L203.915 190.86C203.013 191.4 202.712 191.941 203.615 192.481L209.028 195.183C209.93 195.453 211.133 195.453 212.336 194.913Z" fill="#445393"/>
<path d="M198.803 201.398L205.118 198.156C206.02 197.615 206.321 197.075 205.419 196.534L200.006 193.832C199.103 193.562 197.9 193.562 196.697 194.102L190.682 197.345C189.78 197.885 189.479 198.426 190.382 198.966L195.795 201.668C196.397 201.939 197.9 201.939 198.803 201.398Z" fill="#445393"/>
<path d="M185.57 208.154L191.885 204.911C192.788 204.371 193.088 203.83 192.186 203.29L186.773 200.588C185.87 200.317 184.667 200.317 183.464 200.858L177.149 204.1C176.247 204.641 175.946 205.181 176.848 205.722L182.261 208.424C183.164 208.694 184.667 208.694 185.57 208.154Z" fill="#445393"/>
<path d="M172.337 214.639L178.653 211.396C179.555 210.856 179.856 210.316 178.953 209.775L173.54 207.073C172.638 206.803 171.435 206.803 170.232 207.343L163.916 210.586C163.014 211.126 162.713 211.667 163.615 212.207L169.029 214.909C169.931 215.179 171.435 215.179 172.337 214.639Z" fill="#445393"/>
<path d="M158.804 221.394L165.119 218.152C166.021 217.611 166.322 217.071 165.42 216.53L160.006 213.828C159.405 213.558 158.202 213.558 156.999 214.099L150.683 217.341C149.781 217.882 149.48 218.422 150.383 218.962L155.796 221.665C156.398 221.935 157.901 221.935 158.804 221.394Z" fill="#445393"/>
<path d="M145.571 227.88L151.886 224.637C152.789 224.097 153.089 223.556 152.187 223.016L146.774 220.314C145.872 220.044 144.669 220.044 143.466 220.584L137.15 223.826C136.248 224.367 135.947 224.907 136.849 225.448L142.263 228.15C143.165 228.42 144.669 228.42 145.571 227.88Z" fill="#445393"/>
<path d="M132.338 234.635L138.653 231.392C139.556 230.852 139.856 230.312 138.954 229.771L133.541 227.069C132.638 226.799 131.435 226.799 130.232 227.339L123.917 230.582C123.015 231.122 122.714 231.663 123.616 232.203L129.029 234.905C129.932 235.175 131.435 235.175 132.338 234.635Z" fill="#445393"/>
<path d="M109.481 245.714L123.917 238.418C124.819 237.878 125.12 237.337 124.218 236.797L119.105 234.365C118.203 234.095 117 234.095 116.097 234.635L101.662 241.931C100.759 242.472 100.459 243.012 101.361 243.552L106.474 245.984C107.376 246.255 108.579 246.255 109.481 245.714Z" fill="#445393"/>
<path d="M252.034 174.917L258.35 171.674C259.252 171.134 259.553 170.593 258.651 170.053L253.237 167.351C252.335 167.081 251.132 167.081 249.929 167.621L243.614 170.864C242.711 171.404 242.411 171.945 243.313 172.485L248.726 175.187C249.629 175.457 251.132 175.457 252.034 174.917Z" fill="#445393"/>
<path d="M266.17 167.891L280.605 160.596C281.508 160.055 281.808 159.515 280.906 158.974L275.793 156.542C274.891 156.272 273.688 156.272 272.786 156.812L258.35 164.108C257.448 164.649 257.147 165.189 258.049 165.73L263.162 168.162C263.764 168.432 265.267 168.432 266.17 167.891Z" fill="#445393"/>
<path d="M243.012 190.32L249.328 187.077C250.23 186.537 250.531 185.996 249.629 185.456L244.215 182.754C243.313 182.483 242.11 182.483 240.907 183.024L234.591 186.267C233.689 186.807 233.388 187.347 234.291 187.888L239.704 190.59C240.606 190.86 242.11 190.86 243.012 190.32Z" fill="#445393"/>
<path d="M229.479 196.805L235.794 193.562C236.697 193.022 236.997 192.481 236.095 191.941L230.682 189.239C229.78 188.968 228.577 188.968 227.374 189.509L221.058 192.751C220.156 193.292 219.855 193.832 220.757 194.373L226.171 197.075C227.374 197.345 228.577 197.345 229.479 196.805Z" fill="#445393"/>
<path d="M216.246 203.56L222.562 200.317C223.464 199.777 223.765 199.237 222.862 198.696L217.449 195.994C216.547 195.724 215.344 195.724 214.141 196.264L208.126 199.507C207.224 200.047 206.923 200.588 207.825 201.128L213.238 203.83C213.84 204.101 215.344 204.101 216.246 203.56Z" fill="#445393"/>
<path d="M203.013 210.045L209.329 206.803C210.231 206.262 210.532 205.722 209.629 205.181L204.216 202.479C203.314 202.209 202.111 202.209 200.908 202.749L194.592 205.992C193.69 206.533 193.389 207.073 194.291 207.613L199.705 210.316C200.607 210.586 202.111 210.586 203.013 210.045Z" fill="#445393"/>
<path d="M189.78 216.801L196.096 213.559C196.998 213.018 197.299 212.478 196.397 211.937L190.983 209.235C190.081 208.965 188.878 208.965 187.675 209.505L181.359 212.748C180.457 213.288 180.156 213.829 181.058 214.369L186.472 217.071C187.374 217.342 188.577 217.341 189.78 216.801Z" fill="#445393"/>
<path d="M176.247 223.286L182.562 220.043C183.465 219.503 183.765 218.963 182.863 218.422L177.45 215.72C176.547 215.45 175.344 215.45 174.141 215.99L167.826 219.233C166.923 219.773 166.623 220.314 167.525 220.854L172.938 223.556C173.841 223.826 175.344 223.826 176.247 223.286Z" fill="#445393"/>
<path d="M163.014 230.041L169.329 226.799C170.232 226.258 170.532 225.718 169.63 225.177L164.217 222.475C163.314 222.205 162.111 222.205 160.908 222.746L154.593 225.988C153.691 226.529 153.39 227.069 154.292 227.609L159.705 230.312C160.608 230.582 162.111 230.582 163.014 230.041Z" fill="#445393"/>
<path d="M149.781 236.527L156.097 233.284C156.999 232.744 157.3 232.203 156.397 231.663L150.984 228.961C150.082 228.69 148.879 228.69 147.676 229.231L141.661 232.473C140.759 233.014 140.458 233.554 141.36 234.095L146.774 236.797C147.375 237.067 148.879 237.067 149.781 236.527Z" fill="#445393"/>
<path d="M120.308 251.118L142.262 240.31C143.165 239.769 143.465 238.958 142.563 238.688L137.15 235.986C136.247 235.716 134.744 235.716 133.841 236.256L111.887 247.065C110.985 247.605 110.684 248.416 111.586 248.686L117 251.388C117.902 251.659 119.406 251.659 120.308 251.118Z" fill="#445393"/>
<path d="M256.245 183.564L262.561 180.321C263.463 179.781 263.764 179.24 262.861 178.7L257.448 175.998C256.546 175.728 255.343 175.728 254.14 176.268L247.824 179.511C246.922 180.051 246.621 180.592 247.523 181.132L252.937 183.834C253.839 184.104 255.343 184.104 256.245 183.564Z" fill="#445393"/>
<path d="M270.079 176.809L292.034 166C292.936 165.46 293.237 164.649 292.335 164.379L286.921 161.677C286.019 161.406 284.515 161.406 283.613 161.947L261.659 172.755C260.756 173.296 260.456 174.106 261.358 174.377L266.771 177.079C267.673 177.349 269.177 177.349 270.079 176.809Z" fill="#445393"/>
<path d="M282.109 180.591V179.24H283.613L287.522 177.349C288.124 177.079 289.026 176.808 289.928 177.079L291.432 176.538V177.889C291.432 178.159 291.131 178.43 290.83 178.7L285.718 181.132C284.816 181.672 283.613 181.672 282.71 181.402L282.41 181.132C282.109 180.862 282.109 180.862 282.109 180.591Z" fill="#343C6B"/>
<path d="M276.695 177.889V176.538H278.199L282.109 174.647C282.71 174.376 283.612 174.106 284.515 174.376L286.018 173.836V175.187C286.018 175.457 285.718 175.727 285.417 175.998L280.304 178.43C279.402 178.97 278.199 178.97 277.297 178.7L276.996 178.43C276.695 178.43 276.695 178.159 276.695 177.889Z" fill="#343C6B"/>
<path d="M280.304 177.079L284.815 174.917C285.718 174.377 285.718 173.836 285.116 173.566L284.815 173.296C284.214 173.025 282.71 173.025 282.109 173.566L277.297 175.728C276.394 176.268 276.394 176.808 276.996 177.079L277.297 177.349C278.199 177.619 279.402 177.619 280.304 177.079Z" fill="#445393"/>
<path d="M285.718 179.781L290.229 177.619C291.131 177.079 291.131 176.538 290.53 176.268L290.229 175.998C289.627 175.728 288.124 175.728 287.522 176.268L283.011 178.43C282.109 178.97 282.109 179.511 282.71 179.781L283.011 180.051C283.612 180.321 284.815 180.051 285.718 179.781Z" fill="#445393"/>
<path d="M187.674 19.272L115.495 54.6704L19.5576 102.229L53.8426 203.83L70.3836 195.454L221.959 120.874L187.674 19.272Z" fill="#819BEA"/>
<path d="M126.021 64.1279L88.4282 82.773L38.5044 107.363L56.2484 160.325L64.97 156.002L143.765 117.091L126.021 64.1279Z" fill="#E2E9FB"/>
<path d="M186.772 66.2896L149.179 84.6643L99.2554 109.254L116.999 162.217L125.721 157.893L204.516 118.982L186.772 66.2896Z" fill="#B8C9F5"/>
<path d="M294.439 231.393C294.439 241.661 274.59 250.308 249.929 250.308C225.268 250.308 205.418 241.931 205.418 231.393C205.418 221.124 225.268 212.478 249.929 212.478C274.59 212.478 294.439 220.854 294.439 231.393Z" fill="#E2E9FB"/>
<path d="M220.757 117.901C216.245 120.873 207.223 122.225 202.11 122.765C201.208 122.765 196.998 123.846 194.291 124.386C192.787 124.657 187.674 123.305 186.772 122.765C182.562 120.063 188.577 116.28 188.577 116.28C188.877 113.307 196.998 119.522 199.704 118.442C206.321 116.01 208.727 114.118 212.636 112.767C212.937 112.767 213.238 112.497 213.539 112.227L220.757 117.901Z" fill="#D4A181"/>
<path d="M189.479 120.062C189.479 120.062 189.78 120.062 189.78 119.792C190.08 119.522 190.08 119.252 189.78 118.982L176.246 108.713C175.945 108.443 175.645 108.443 175.344 108.713C175.043 108.984 175.043 109.254 175.344 109.524L188.878 119.792C189.178 120.062 189.479 120.062 189.479 120.062Z" fill="#343C6B"/>
<path d="M219.554 109.794L201.81 116.28C200.005 117.09 201.81 124.386 204.817 123.575C204.817 123.575 224.065 119.792 228.275 117.09C232.486 113.848 241.809 101.688 241.809 101.688L236.997 85.2046C236.997 85.2046 221.358 108.173 219.554 109.794Z" fill="#343C6B"/>
<path d="M263.463 228.69C262.56 225.718 259.854 223.556 257.748 224.097C255.643 224.637 255.042 227.339 255.643 230.582C255.643 231.122 255.944 231.663 256.245 232.203C256.846 233.284 257.147 234.365 257.147 235.446C257.147 236.257 257.147 237.338 257.448 238.148C258.049 239.769 259.252 240.85 260.756 241.661C262.56 242.742 264.966 242.201 265.568 240.31C266.47 238.689 267.071 236.257 265.869 234.635C265.568 234.095 263.763 229.231 263.463 228.69Z" fill="#343C6B"/>
<path d="M240.606 223.286C238.801 224.367 235.493 227.339 233.689 227.88C230.982 228.69 228.877 228.69 227.674 228.42C226.17 228.15 226.17 225.988 227.072 224.907C227.975 223.826 236.997 215.99 236.997 215.99C236.997 215.18 236.696 213.829 236.696 213.829C240.004 212.748 244.816 213.558 245.418 214.909V220.043C245.418 221.124 244.816 221.935 243.613 222.475C242.11 222.475 240.907 223.016 240.606 223.286Z" fill="#343C6B"/>
<path d="M269.177 116.55L268.876 126.819C268.876 128.44 264.064 227.34 264.064 227.34C264.064 229.771 253.538 230.042 253.538 226.799L251.433 154.651L248.124 153.57L245.418 215.99C245.418 218.963 233.689 217.882 234.29 215.72V133.304C234.29 131.953 234.591 130.331 234.892 128.98L269.177 116.55Z" fill="#819BEA"/>
<path d="M274.891 100.145L270.38 113.115L269.177 136.624C267.372 145.271 235.192 142.299 235.493 130.95L236.395 91.2278C236.395 84.4724 242.335 82.3107 247.748 82.8511C248.951 82.8511 249.547 82.2298 250.75 82.5C251.051 82.7702 255.042 81.5 255.342 81.5L264.365 86.3639C264.966 86.6341 265.568 86.9043 266.169 87.4448C271.583 90.9576 275.191 93.93 274.891 100.145Z" fill="#FFB1DF"/>
<path d="M262.56 161.406L262.861 157.083C262.861 156.542 263.162 156.002 263.462 155.461L264.064 154.381C264.665 153.3 265.267 151.949 265.267 150.597L264.966 126.278C264.966 125.197 264.966 124.386 264.966 123.305C264.665 118.982 263.462 107.633 263.462 104.12C263.462 103.309 264.064 102.499 265.267 102.499L272.786 102.229C273.688 102.229 274.59 103.039 274.59 103.85V124.386C274.59 125.197 274.59 126.008 274.59 126.548L271.282 153.029C271.282 153.84 271.883 155.461 272.485 156.812C273.086 158.704 273.086 160.596 272.184 162.217C271.282 164.379 270.079 166.54 268.274 166.811C265.868 166.811 265.267 159.785 265.267 159.785C265.267 159.785 264.966 161.406 264.665 162.217C264.365 162.757 263.763 163.568 263.162 163.298C262.26 163.028 262.259 162.217 262.56 161.406Z" fill="#D4A181"/>
<path d="M231.583 135.736C231.583 139.519 237.899 143.842 238.801 143.302C239.703 142.761 238.5 120.063 240.906 104.931C242.109 97.3647 243.914 90.6092 246.921 86.2858C248.425 84.124 250.831 82.5027 250.831 82.5027C250.831 82.5027 250.229 82.2325 249.628 82.2325C246.921 81.4218 244.215 81.1516 240.906 82.7729C237.598 84.124 235.192 86.556 235.192 90.8795L233.989 107.363L231.583 135.736Z" fill="#343B65"/>
<path d="M261.057 74.396L260.756 85.7452C260.756 86.2856 260.455 86.8261 259.854 87.0963C258.049 88.1771 255.042 88.1771 252.937 87.3665C251.734 86.826 250.831 86.2856 250.831 85.475L251.132 76.5577L255.944 71.1533H256.545L261.057 74.396Z" fill="#D4A181"/>
<path d="M269.177 143.842L270.379 112.497L276.695 100.337C276.695 94.1221 271.582 90.339 265.868 87.0964C265.267 86.8262 264.665 86.556 264.064 86.0155L260.756 84.124L261.056 85.7453C261.357 88.7177 254.44 100.337 252.335 108.173C249.327 118.712 247.523 146.004 248.124 146.274C249.327 147.625 268.274 148.706 269.177 143.842Z" fill="#343B65"/>
<path d="M261.357 104.931C261.658 108.443 262.861 121.684 263.162 124.927C263.162 125.737 263.162 126.548 263.162 127.359L263.463 148.976C263.463 151.138 272.485 151.678 272.485 149.787L275.492 127.899C275.492 127.088 275.492 126.278 275.492 125.467L276.395 100.337L261.357 104.931Z" fill="#343B65"/>
<path d="M261.057 74.3966V74.9371C261.057 79.2606 257.147 82.7734 252.335 82.5032C252.034 82.5032 251.433 82.5032 251.132 82.233H250.831V76.5584L255.643 71.154L255.944 70.8838L256.245 71.154L261.057 74.3966Z" fill="black" fill-opacity="0.1"/>
<path d="M246.922 63.3174C244.516 66.8303 242.711 73.3155 244.516 77.0986C245.719 79.2604 247.523 80.6114 249.929 80.6114C250.831 80.6114 255.643 80.3412 258.951 78.1795C261.057 76.8284 262.861 75.2071 264.064 73.856C268.274 68.1814 266.771 62.5068 261.658 59.5343C252.936 54.13 250.23 58.7237 246.922 63.3174Z" fill="#D4A181"/>
<path d="M270.981 67.911C270.68 71.9643 267.071 76.8282 260.756 78.99V76.8282C261.658 76.2878 262.259 75.4772 262.861 74.3963C263.162 73.8558 261.959 73.3154 261.056 73.8558C261.056 73.8558 261.056 73.8558 260.756 73.8558C260.154 74.1261 259.553 74.1261 258.951 73.8558C257.748 73.5856 257.147 72.5047 257.748 71.4239C261.056 64.6684 252.034 62.7769 249.929 60.6151C249.027 61.4258 246.921 63.5875 246.921 63.5875C247.222 62.5067 247.824 61.4258 248.425 60.3449C249.929 57.1023 253.538 55.481 257.147 55.7512C257.748 55.7512 258.35 56.0214 258.951 56.0214C268.274 57.913 271.282 63.8578 270.981 67.911Z" fill="#343C6B"/>
<path d="M258.951 73.3158C257.147 74.6668 256.545 76.5584 257.447 77.6392C258.35 78.7201 260.756 78.4499 262.56 77.0988C264.365 75.7477 264.966 73.8562 264.064 72.7753C262.861 71.6945 260.756 71.9647 258.951 73.3158Z" fill="#D4A181"/>
</svg>
