<svg width="334" height="369" viewBox="0 0 334 369" fill="none" xmlns="http://www.w3.org/2000/svg">
<path d="M3.3105 280.622C-0.937037 283.166 -0.937037 289.1 3.3105 291.361L130.453 364.834C134.418 367.095 138.665 368.225 143.196 367.942L157.638 368.225L154.24 350.987L202.945 322.728L71.8374 241.342L3.3105 280.622Z" fill="#E2E9FB"/>
<path d="M185.67 42.6823L27.9465 134.524C20.5842 138.763 16.3367 146.393 16.3367 154.87V271.58V279.21C16.3367 288.252 26.2475 293.904 33.893 289.383L191.334 196.693C198.413 192.455 202.944 184.825 202.944 176.347V161.935V52.5729C203.227 43.8126 193.316 38.1608 185.67 42.6823Z" fill="#445393"/>
<path d="M189.918 44.6603L32.1939 136.501C24.8316 140.74 20.5841 148.37 20.5841 156.848V273.556V281.186C20.5841 290.229 30.4949 295.881 38.1404 291.359L195.864 198.953C202.943 194.714 207.474 187.085 207.474 178.607V164.195V54.8335C207.474 45.7907 197.563 40.4215 189.918 44.6603Z" fill="#E2E9FB"/>
<path d="M188.785 62.7451V186.237L36.1583 275.817V151.761L188.785 62.7451Z" fill="#819BEA"/>
<path d="M46.3519 196.413V241.063L79.4824 222.129V177.479L46.3519 196.413Z" fill="#E2E9FB"/>
<path d="M142.912 106.83V151.479L179.724 130.002V85.6362L142.912 106.83Z" fill="#E2E9FB"/>
<path d="M142.912 163.63V178.042L179.724 156.565V142.436L142.912 163.63Z" fill="#B8C9F5"/>
<path d="M127.904 114.459L46.3518 161.369V164.195L127.904 117.285V114.459Z" fill="#B8C9F5"/>
<path d="M127.904 125.2L46.3518 172.11V175.218L127.904 128.026V125.2Z" fill="#3E5AFF"/>
<path d="M127.904 135.937L46.3518 182.846V185.955L127.904 139.045V135.937Z" fill="#B8C9F5"/>
<path d="M37.8585 286.556L203.511 196.409C208.891 193.301 215.687 193.301 221.35 196.409L328.954 252.645C333.484 255.471 336.882 266.209 328.387 271.578L165.85 365.398C160.47 368.506 153.674 368.506 148.01 365.398L38.9912 305.489C33.0447 302.381 33.0447 290.512 37.8585 286.556Z" fill="#445393"/>
<path d="M328.104 266.492L165.567 360.312C160.186 363.42 153.39 363.42 147.727 360.312L38.7079 300.403C32.7614 297.012 32.7614 288.252 38.7079 284.86L66.7415 268.753L188.22 199.801L203.511 191.041C209.174 187.932 215.687 187.932 221.35 191.041L328.104 251.232C334.051 254.623 334.051 263.101 328.104 266.492Z" fill="#E2E9FB"/>
<path d="M181.99 295.034L223.898 271.014C225.314 270.166 227.013 270.166 228.429 271.014L262.126 290.512C263.542 291.36 263.542 293.621 262.126 294.469L220.5 318.489C219.085 319.337 217.386 319.337 215.97 318.489L181.99 298.99C180.291 298.142 180.291 295.882 181.99 295.034Z" fill="#B8C9F5"/>
<path d="M193.883 207.714L79.4841 273.275C77.7851 274.123 75.8029 274.123 74.3871 273.275L67.0248 269.036L188.22 199.802L193.883 202.91C195.582 204.041 195.582 206.584 193.883 207.714Z" fill="#445393"/>
<path d="M244.571 239.082V237.669H245.987L249.668 235.691C250.235 235.408 251.084 235.126 251.651 235.408L253.066 234.843V236.256C253.066 236.539 252.783 236.821 252.5 237.104L248.253 239.647C247.403 240.213 246.27 240.213 245.704 239.93L245.421 239.647C244.855 239.365 244.571 239.365 244.571 239.082Z" fill="#343C6B"/>
<path d="M239.474 236.254V234.842H240.89L244.571 232.863C245.137 232.581 245.987 232.298 246.553 232.581L247.969 232.016V233.429C247.969 233.711 247.686 233.994 247.402 234.276L243.155 236.82C242.305 237.385 241.173 237.385 240.606 237.102L240.323 236.82C239.757 236.82 239.757 236.537 239.474 236.254Z" fill="#343C6B"/>
<path d="M243.156 235.408L247.403 232.865C248.253 232.3 248.253 231.735 247.687 231.452L247.403 231.17C246.837 230.887 245.421 230.887 244.855 231.452L240.607 233.995C239.758 234.561 239.758 235.126 240.324 235.408L240.607 235.691C241.174 235.974 242.306 235.974 243.156 235.408Z" fill="#445393"/>
<path d="M248.253 238.234L252.5 235.692C253.35 235.127 253.35 234.562 252.784 234.28L252.5 233.997C251.934 233.715 250.518 233.715 249.952 234.28L245.705 236.822C244.856 237.387 244.856 237.952 245.422 238.234L245.705 238.517C246.271 238.799 247.404 238.517 248.253 238.234Z" fill="#445393"/>
<path d="M108.366 310.576H110.065L114.88 307.75C115.729 307.185 117.145 307.185 117.995 307.467L121.11 309.163H123.375V310.858C123.375 311.141 123.092 311.424 122.526 311.706L116.579 315.097C115.729 315.662 114.313 315.662 113.747 315.38L108.649 312.837C108.366 312.554 108.083 312.554 108.083 312.271L108.366 310.576Z" fill="#343C6B"/>
<path d="M96.4748 317.641H98.1739L102.988 314.815C103.838 314.25 105.254 314.25 106.103 314.532L109.219 316.228H111.484V317.923C111.484 318.206 111.201 318.489 110.635 318.771L104.687 322.162C103.838 322.727 102.422 322.727 101.855 322.445L96.7579 319.902C96.4748 319.619 96.1915 319.619 96.1915 319.336L96.4748 317.641Z" fill="#343C6B"/>
<path d="M156.789 282.32H158.488L196.998 260.28C197.848 259.715 199.264 259.715 200.113 259.997L203.511 261.693H205.777V263.388C205.777 263.671 205.493 263.953 204.927 264.236L165.284 287.124C164.434 287.689 163.018 287.689 162.169 287.407L157.072 284.864C156.789 284.581 156.506 284.581 156.506 284.298L156.789 282.32Z" fill="#343C6B"/>
<path d="M227.581 241.91H229.28L234.094 239.084C234.944 238.519 236.359 238.519 236.926 238.801L240.041 240.497H242.306V242.192C242.306 242.475 242.023 242.758 241.456 243.04L235.51 246.431C234.66 246.996 233.245 246.997 232.395 246.714L227.298 244.171C227.015 243.888 226.732 243.888 226.732 243.605L227.581 241.91Z" fill="#343C6B"/>
<path d="M215.405 248.973H217.104L221.918 246.147C222.768 245.582 224.183 245.582 224.75 245.864L227.865 247.56H230.13V249.255C230.13 249.538 229.847 249.821 229.28 250.103L223.334 253.494C222.484 254.059 221.069 254.06 220.502 253.777L215.405 251.234C215.122 250.951 214.839 250.951 214.839 250.668L215.405 248.973Z" fill="#343C6B"/>
<path d="M212.29 239.648H213.989L218.803 236.822C219.653 236.257 221.069 236.257 221.635 236.539L224.75 238.235H227.015V239.93C227.015 240.213 226.732 240.495 226.166 240.778L220.219 244.169C219.37 244.734 217.954 244.734 217.387 244.452L212.29 241.908C212.007 241.626 211.724 241.626 211.724 241.343L212.29 239.648Z" fill="#343C6B"/>
<path d="M200.113 246.715H201.812L206.626 243.89C207.476 243.324 208.892 243.324 209.458 243.607L212.573 245.303H214.838V246.998C214.838 247.281 214.555 247.563 213.989 247.846L208.042 251.237C207.192 251.802 205.777 251.802 205.21 251.519L200.113 248.976C199.83 248.694 199.547 248.694 199.547 248.411L200.113 246.715Z" fill="#343C6B"/>
<path d="M187.654 253.778H189.353L194.167 250.953C195.016 250.387 196.432 250.387 197.282 250.67L200.397 252.366H202.662V254.061C202.662 254.344 202.379 254.626 201.812 254.909L195.866 258.3C195.016 258.865 193.601 258.865 193.034 258.582L187.937 256.039C187.654 255.757 187.371 255.757 187.371 255.474L187.654 253.778Z" fill="#343C6B"/>
<path d="M175.478 260.841H177.177L181.991 258.016C182.84 257.45 184.256 257.45 184.822 257.733L187.937 259.429H190.203V261.124C190.203 261.407 189.919 261.689 189.353 261.972L183.407 265.363C182.557 265.928 181.141 265.928 180.575 265.645L175.478 263.102C175.195 262.82 174.912 262.82 174.912 262.537L175.478 260.841Z" fill="#343C6B"/>
<path d="M163.017 267.909H164.716L169.531 265.083C170.38 264.518 171.796 264.518 172.363 264.801L175.478 266.496H177.743V268.191C177.743 268.474 177.46 268.756 176.894 269.039L170.947 272.429C170.097 272.994 168.681 272.994 168.115 272.712L163.017 270.169C162.734 269.886 162.451 269.886 162.451 269.604L163.017 267.909Z" fill="#343C6B"/>
<path d="M150.843 274.973H152.542L157.355 272.147C158.205 271.582 159.621 271.582 160.187 271.864L163.585 273.56H165.85V275.255C165.85 275.538 165.567 275.821 165.001 276.103L159.054 279.494C158.205 280.059 156.789 280.059 155.94 279.777L150.843 277.233C150.559 276.951 150.276 276.951 150.276 276.668L150.843 274.973Z" fill="#343C6B"/>
<path d="M138.383 282.037H140.082L144.896 279.211C145.745 278.646 147.161 278.646 148.011 278.929L151.126 280.624H153.391V282.32C153.391 282.602 153.108 282.885 152.541 283.168L146.595 286.559C145.745 287.124 144.33 287.124 143.763 286.841L138.666 284.298C138.383 284.015 138.1 284.015 138.1 283.733L138.383 282.037Z" fill="#343C6B"/>
<path d="M144.046 289.947H145.745L150.56 287.121C151.409 286.556 152.825 286.556 153.675 286.838L156.79 288.534H159.056V290.23C159.056 290.512 158.772 290.795 158.206 291.077L152.259 294.468C151.409 295.034 149.993 295.034 149.427 294.751L144.329 292.208C144.046 291.925 143.763 291.925 143.763 291.643L144.046 289.947Z" fill="#343C6B"/>
<path d="M132.152 296.733H133.851L138.666 293.907C139.515 293.342 140.931 293.342 141.498 293.624L144.613 295.32H146.878V297.015C146.878 297.298 146.595 297.58 146.029 297.863L140.082 301.254C139.232 301.819 137.816 301.819 136.967 301.537L131.869 298.993C131.586 298.711 131.303 298.711 131.303 298.428L132.152 296.733Z" fill="#343C6B"/>
<path d="M120.261 303.798H121.96L126.774 300.972C127.624 300.406 129.04 300.406 129.606 300.689L132.721 302.385H134.987V304.08C134.987 304.363 134.704 304.645 134.137 304.928L128.19 308.319C127.34 308.884 125.924 308.884 125.358 308.601L120.261 306.058C119.977 305.776 119.694 305.776 119.694 305.493L120.261 303.798Z" fill="#343C6B"/>
<path d="M126.207 289.102H127.906L132.72 286.276C133.569 285.711 134.985 285.711 135.551 285.994L138.666 287.689H140.932V289.385C140.932 289.667 140.648 289.95 140.082 290.233L134.136 293.624C133.286 294.189 131.87 294.189 131.021 293.906L125.924 291.363C125.641 291.08 125.357 291.08 125.357 290.798L126.207 289.102Z" fill="#343C6B"/>
<path d="M114.031 296.167H115.73L120.544 293.341C121.393 292.776 122.809 292.776 123.658 293.058L126.773 294.754H129.039V296.449C129.039 296.732 128.755 297.014 128.189 297.297L122.243 300.688C121.393 301.253 119.977 301.253 119.128 300.971L114.031 298.427C113.748 298.145 113.464 298.145 113.464 297.862L114.031 296.167Z" fill="#343C6B"/>
<path d="M97.6069 294.186H99.3059L104.12 291.36C104.969 290.795 106.385 290.795 107.235 291.077L110.349 292.773H112.615V294.468C112.615 294.751 112.332 295.033 111.765 295.316L105.819 298.707C104.969 299.272 103.553 299.272 102.987 298.99L97.8901 296.446C97.6069 296.164 97.3237 296.164 97.3237 295.881L97.6069 294.186Z" fill="#343C6B"/>
<path d="M102.704 280.339H104.403L109.217 277.513C110.066 276.948 111.482 276.948 112.332 277.231L115.447 278.926H117.712V280.622C117.712 280.904 117.429 281.187 116.862 281.469L110.916 284.861C110.066 285.426 108.651 285.426 108.084 285.143L102.987 282.6C102.704 282.317 102.421 282.317 102.421 282.035L102.704 280.339Z" fill="#343C6B"/>
<path d="M90.2461 287.403H91.9449L96.7583 284.578C97.6077 284.012 99.0234 284.012 99.5896 284.295L102.704 285.991H104.969V287.686C104.969 287.969 104.686 288.251 104.12 288.534L98.174 291.925C97.3246 292.49 95.9089 292.49 95.3426 292.208L90.2461 289.664C89.963 289.382 89.6799 289.382 89.6799 289.099L90.2461 287.403Z" fill="#343C6B"/>
<path d="M78.0688 294.472H79.7678L84.5816 291.646C85.4311 291.081 86.847 291.081 87.6965 291.363L90.8113 293.059H93.0767V294.754C93.0767 295.037 92.7935 295.32 92.2272 295.602L86.2806 298.993C85.4311 299.559 84.0153 299.559 83.449 299.276L78.6351 296.733C78.352 296.45 78.0688 296.45 78.0688 296.167V294.472Z" fill="#343C6B"/>
<path d="M76.9357 306.341H78.6347L91.0941 299.276C91.9436 298.711 93.3594 298.711 93.9257 298.993L97.0406 300.689H99.3059V302.102C99.3059 302.384 99.0227 302.667 98.4564 302.949L85.1476 310.579C84.2981 311.145 82.8822 311.145 82.3159 310.862L77.5021 308.319C77.2189 308.036 76.9357 308.036 76.9357 307.754V306.341Z" fill="#343C6B"/>
<path d="M86.5634 311.427H88.5456L107.518 300.406C108.367 299.841 109.783 299.841 110.633 300.123L114.031 301.819H116.296V303.514C116.296 303.797 116.013 304.079 115.446 304.362L95.3416 315.948C94.4921 316.513 93.0762 316.513 92.2267 316.231L87.1297 313.405C86.8466 313.122 86.5634 313.122 86.5634 312.84V311.427Z" fill="#343C6B"/>
<path d="M65.8924 301.25H67.5916L72.4059 298.424C73.2555 297.859 74.6715 297.859 75.5211 298.142L78.6363 299.837H80.9019V301.533C80.9019 301.815 80.6186 302.098 80.0523 302.381L74.1051 305.772C73.2555 306.337 71.8395 306.337 71.2731 306.054L66.1756 303.511C65.8924 303.228 65.6092 303.228 65.6092 302.946L65.8924 301.25Z" fill="#343C6B"/>
<path d="M58.8115 297.012H60.5106L70.7055 291.36C71.5551 290.795 72.9711 290.795 73.5375 291.077L74.387 291.642H76.6526V293.055C76.6526 293.338 76.3694 293.621 75.803 293.903L64.7585 300.403C63.9089 300.968 62.493 300.968 61.9266 300.685L59.3779 299.272C59.0947 298.99 58.8115 298.99 58.8115 298.707V297.012Z" fill="#343C6B"/>
<path d="M109.782 287.121H111.481L116.295 284.295C117.145 283.73 118.561 283.73 119.411 284.012L122.526 285.708H124.791V287.403C124.791 287.686 124.508 287.969 123.942 288.251L117.995 291.642C117.145 292.207 115.729 292.207 115.163 291.925L110.065 289.382C109.782 289.099 109.499 289.099 109.499 288.816L109.782 287.121Z" fill="#343C6B"/>
<path d="M171.514 251.8H173.213L178.026 248.974C178.876 248.409 180.292 248.409 180.858 248.692L183.973 250.387H186.238V252.082C186.238 252.365 185.955 252.647 185.389 252.93L179.442 256.32C178.593 256.886 177.177 256.886 176.611 256.603L171.514 254.06C171.23 253.778 170.947 253.778 170.947 253.495L171.514 251.8Z" fill="#343C6B"/>
<path d="M183.69 244.733H185.389L190.202 241.908C191.052 241.343 192.468 241.343 193.034 241.626L196.149 243.321H198.414V245.016C198.414 245.299 198.131 245.581 197.565 245.864L191.618 249.254C190.769 249.819 189.353 249.819 188.787 249.537L183.69 246.994C183.406 246.711 183.123 246.711 183.123 246.429L183.69 244.733Z" fill="#343C6B"/>
<path d="M164.15 244.733H165.849L170.663 241.908C171.513 241.343 172.929 241.343 173.495 241.626L176.61 243.321H178.876V245.016C178.876 245.299 178.593 245.581 178.026 245.864L172.079 249.254C171.23 249.819 169.814 249.819 169.247 249.537L164.15 246.994C163.867 246.711 163.583 246.711 163.583 246.429L164.15 244.733Z" fill="#343C6B"/>
<path d="M151.975 251.8H153.674L158.488 248.975C159.338 248.693 160.753 248.693 161.603 248.975L164.718 250.67H166.983V252.365C166.983 252.647 166.7 252.93 166.134 253.212L160.187 256.602C159.338 257.167 157.922 257.167 157.355 256.885L152.258 254.342C151.975 254.06 151.692 254.06 151.692 253.777L151.975 251.8Z" fill="#343C6B"/>
<path d="M159.054 258.867H160.753L165.567 256.041C166.417 255.476 167.833 255.476 168.399 255.759L171.514 257.454H173.779V259.149C173.779 259.432 173.496 259.714 172.93 259.997L166.983 263.387C166.134 263.952 164.718 263.952 164.151 263.67L159.054 261.127C158.771 260.844 158.488 260.844 158.488 260.562L159.054 258.867Z" fill="#343C6B"/>
<path d="M146.878 265.927H148.577L153.392 263.101C154.241 262.535 155.657 262.535 156.507 262.818L159.622 264.514H161.887V266.21C161.887 266.492 161.604 266.775 161.038 267.058L155.091 270.449C154.241 271.015 152.825 271.015 152.259 270.732L147.161 268.188C146.878 267.906 146.595 267.906 146.595 267.623L146.878 265.927Z" fill="#343C6B"/>
<path d="M139.516 258.867H141.215L146.029 256.041C146.878 255.476 148.294 255.476 148.86 255.759L151.975 257.454H154.24V259.149C154.24 259.432 153.957 259.714 153.391 259.997L147.444 263.387C146.595 263.952 145.179 263.952 144.613 263.67L139.516 261.127C139.233 260.844 138.949 260.844 138.949 260.562L139.516 258.867Z" fill="#343C6B"/>
<path d="M127.34 265.927H129.039L133.852 263.101C134.702 262.535 136.118 262.535 136.967 262.818L140.082 264.514H142.347V266.21C142.347 266.492 142.064 266.775 141.498 267.058L135.551 270.449C134.702 271.015 133.286 271.015 132.72 270.732L127.623 268.188C127.34 267.906 127.056 267.906 127.056 267.623L127.34 265.927Z" fill="#343C6B"/>
<path d="M134.417 272.993H136.116L140.931 270.167C141.78 269.602 143.196 269.602 144.046 269.884L147.161 271.58H149.427V273.276C149.427 273.559 149.143 273.841 148.577 274.124L142.63 277.516C141.78 278.081 140.364 278.081 139.798 277.798L134.7 275.255C134.417 274.972 134.134 274.972 134.134 274.689L134.417 272.993Z" fill="#343C6B"/>
<path d="M114.882 272.993H116.581L121.394 270.167C122.243 269.602 123.659 269.602 124.509 269.884L127.623 271.58H129.888V273.276C129.888 273.559 129.605 273.841 129.039 274.124L123.093 277.516C122.243 278.081 120.828 278.081 120.262 277.798L115.165 275.255C114.882 274.972 114.599 274.972 114.599 274.689L114.882 272.993Z" fill="#343C6B"/>
<path d="M176.611 237.67H178.31L183.123 234.845C183.973 234.28 185.389 234.28 185.955 234.563L189.07 236.258H191.335V237.953C191.335 238.235 191.052 238.518 190.486 238.801L184.539 242.191C183.69 242.756 182.274 242.756 181.708 242.473L176.611 239.931C176.327 239.648 176.044 239.648 176.044 239.366L176.611 237.67Z" fill="#343C6B"/>
<path d="M174.912 230.038H176.611L181.424 227.212C182.274 226.647 183.69 226.647 184.256 226.929L185.389 227.494H187.654V229.19C187.654 229.473 187.371 229.755 186.805 230.038L180.858 233.429C180.009 233.994 178.593 233.994 178.026 233.711L175.195 232.298C174.912 232.016 174.628 232.016 174.628 231.733L174.912 230.038Z" fill="#343C6B"/>
<path d="M162.736 237.105H164.435L169.248 234.28C170.098 233.715 171.514 233.715 172.363 233.997L173.496 234.562H175.761V236.257C175.761 236.54 175.478 236.822 174.912 237.105L168.965 240.495C168.116 241.06 166.7 241.06 166.134 240.778L163.302 239.365C163.019 239.083 162.736 239.083 162.736 238.8V237.105Z" fill="#343C6B"/>
<path d="M150.557 244.169L157.071 241.343C157.921 240.778 159.337 240.778 160.186 241.061L161.319 241.626H163.585V243.321C163.585 243.604 163.302 243.887 162.735 244.169L156.788 247.56C155.938 248.125 154.522 248.125 153.956 247.843L151.124 246.43C150.841 246.147 150.557 246.147 150.557 245.865V244.169Z" fill="#343C6B"/>
<path d="M138.1 251.235H139.799L144.613 248.41C145.462 247.844 146.878 247.844 147.445 248.127L148.86 248.692H151.126V250.388C151.126 250.67 150.843 250.953 150.276 251.235L144.33 254.627C143.48 255.192 142.064 255.192 141.498 254.909L138.666 253.496C138.383 253.214 138.1 253.214 138.1 252.931V251.235Z" fill="#343C6B"/>
<path d="M125.925 258.301H127.624L132.437 255.476C133.287 254.911 134.702 254.911 135.552 255.193L136.684 255.758H138.949V257.454C138.949 257.736 138.666 258.019 138.1 258.301L132.154 261.691C131.305 262.256 129.889 262.256 129.04 261.974L126.208 260.561C125.925 260.279 125.642 260.279 125.642 259.996L125.925 258.301Z" fill="#343C6B"/>
<path d="M113.464 265.363H115.163L119.977 262.536C120.827 261.971 122.242 261.971 122.809 262.254L124.225 262.819H126.49V264.515C126.49 264.798 126.207 265.081 125.64 265.363L119.694 268.756C118.845 269.321 117.429 269.321 116.862 269.039L114.031 267.625C113.748 267.342 113.464 267.342 113.464 267.06V265.363Z" fill="#343C6B"/>
<path d="M101.29 272.429H102.989L107.802 269.603C108.652 269.038 110.067 269.038 110.917 269.321L112.049 269.886H114.314V271.582C114.314 271.864 114.031 272.147 113.465 272.429L107.519 275.82C106.67 276.386 105.254 276.386 104.688 276.103L101.856 274.69C101.29 274.407 101.29 274.125 101.29 273.842V272.429Z" fill="#343C6B"/>
<path d="M88.8291 279.494H90.5281L95.3419 276.668C96.1914 276.103 97.6073 276.103 98.4568 276.386L99.5894 276.951H101.855V278.647C101.855 278.929 101.572 279.212 101.005 279.494L95.0588 282.885C94.2093 283.451 92.7934 283.451 92.2271 283.168L89.3954 281.755C89.1123 281.472 88.8291 281.472 88.8291 281.19V279.494Z" fill="#343C6B"/>
<path d="M76.6528 286.559H78.3518L83.1656 283.733C84.0151 283.168 85.431 283.168 86.2805 283.45L87.4131 284.015H89.6785V285.711C89.6785 285.994 89.3953 286.276 88.829 286.559L82.8825 289.95C82.033 290.515 80.6171 290.515 80.0508 290.232L77.2191 288.82C76.936 288.537 76.6528 288.537 76.6528 288.254V286.559Z" fill="#343C6B"/>
<path d="M122.243 280.056H123.942L128.755 277.23C129.605 276.665 131.021 276.665 131.87 276.947L134.985 278.643H137.25V280.338C137.25 280.621 136.967 280.904 136.401 281.186L130.454 284.577C129.605 285.142 128.189 285.142 127.623 284.86L122.526 282.317C122.243 282.034 121.959 282.034 121.959 281.751L122.243 280.056Z" fill="#343C6B"/>
<path d="M196.149 237.671H197.848L202.662 234.845C203.511 234.28 204.927 234.28 205.777 234.563L208.892 236.541H211.157V238.236C211.157 238.519 210.874 238.801 210.307 239.084L204.361 242.475C203.511 243.04 202.096 243.04 201.529 242.758L196.432 240.214C196.149 239.932 195.866 239.932 195.866 239.649L196.149 237.671Z" fill="#343C6B"/>
<path d="M188.787 230.603H190.486L195.299 227.777C196.149 227.212 197.565 227.212 198.131 227.494L201.246 229.19H203.511V230.885C203.511 231.168 203.228 231.451 202.661 231.733L196.715 235.124C195.866 235.689 194.45 235.689 193.884 235.407L188.787 232.863C188.504 232.581 188.221 232.581 188.221 232.298L188.787 230.603Z" fill="#343C6B"/>
<path d="M249.951 230.606V229.194H251.65L256.747 226.369C257.596 225.803 259.012 225.803 259.579 226.086L262.977 227.781H264.959V229.194C264.959 229.476 264.676 229.759 264.109 230.041L258.163 233.432C257.313 233.997 255.897 233.997 255.331 233.714L250.234 231.172C249.951 231.172 249.951 230.889 249.951 230.606Z" fill="#343C6B"/>
<path d="M224.748 233.715V232.302H226.447L245.702 221.281C246.552 220.716 247.968 220.716 248.817 220.998L252.215 222.976H254.197V224.672C254.197 224.954 253.914 225.237 253.348 225.52L233.243 237.106C232.393 237.671 230.978 237.671 230.128 237.388L225.031 234.845C225.031 234.28 224.748 233.997 224.748 233.715Z" fill="#343C6B"/>
<path d="M201.246 223.538H202.945L207.758 220.712C208.608 220.147 210.024 220.147 210.59 220.43L213.705 222.125H215.97V223.821C215.97 224.103 215.687 224.386 215.12 224.669L209.174 228.06C208.325 228.625 206.909 228.625 206.343 228.342L201.246 225.799C200.963 225.516 200.68 225.516 200.68 225.234L201.246 223.538Z" fill="#343C6B"/>
<path d="M208.326 230.603H210.025L214.839 227.777C215.688 227.212 217.104 227.212 217.671 227.494L220.785 229.19H223.051V230.885C223.051 231.168 222.768 231.451 222.201 231.733L216.255 235.124C215.405 235.689 213.989 235.689 213.423 235.407L208.326 232.863C208.043 232.581 207.76 232.581 207.76 232.298L208.326 230.603Z" fill="#343C6B"/>
<path d="M187.371 222.973H189.07L193.884 220.147C194.734 219.582 196.149 219.582 196.716 219.865L197.849 220.43H200.114V222.126C200.114 222.408 199.831 222.691 199.264 222.973L193.318 226.364C192.468 226.929 191.052 226.929 190.486 226.647L187.654 225.234C187.371 224.951 187.088 224.951 187.088 224.669L187.371 222.973Z" fill="#343C6B"/>
<path d="M213.988 218.172V216.759H215.404L225.599 210.824C226.448 210.258 227.864 210.258 228.431 210.541L231.829 212.237H233.811V213.65C233.811 213.933 233.528 214.215 232.961 214.498L221.918 220.998C221.068 221.564 219.652 221.564 219.086 221.281L214.272 218.737C213.989 218.455 213.988 218.455 213.988 218.172Z" fill="#343C6B"/>
<path d="M221.634 224.673V223.26H223.333L235.793 216.196C236.642 215.631 238.058 215.631 238.624 215.914L241.739 217.609H243.721V219.022C243.721 219.304 243.438 219.587 242.872 219.869L229.563 227.498C228.713 228.063 227.298 228.063 226.731 227.781L221.917 225.238C221.634 225.238 221.634 224.955 221.634 224.673Z" fill="#343C6B"/>
<path d="M199.546 215.91H201.245L206.059 213.084C206.909 212.519 208.324 212.519 208.891 212.802L210.023 213.367H212.289V215.063C212.289 215.345 212.006 215.628 211.439 215.91L205.493 219.301C204.643 219.867 203.227 219.866 202.661 219.584L199.829 218.171C199.546 217.888 199.263 217.888 199.263 217.606L199.546 215.91Z" fill="#343C6B"/>
<path d="M211.722 208.845H213.421L218.235 206.019C219.085 205.454 220.5 205.454 221.067 205.737L222.2 206.302H224.465V207.998C224.465 208.28 224.182 208.563 223.615 208.845L217.669 212.236C216.819 212.802 215.403 212.802 214.837 212.519L212.005 211.106C211.722 210.823 211.439 210.823 211.439 210.541L211.722 208.845Z" fill="#343C6B"/>
<path d="M128.757 306.902L134.703 303.511C135.552 302.946 135.835 302.381 134.986 301.816L129.889 299.273C129.04 298.99 127.907 298.99 127.058 299.555L121.112 302.946C120.263 303.511 119.979 304.077 120.829 304.642L125.925 307.185C126.492 307.468 127.907 307.185 128.757 306.902Z" fill="#445393"/>
<path d="M116.862 313.687L122.808 310.296C123.657 309.731 123.941 309.166 123.091 308.601L117.995 306.057C117.145 305.775 116.013 305.775 114.88 306.34L108.934 309.731C108.085 310.296 107.802 310.861 108.651 311.426L113.748 313.97C114.597 314.252 116.013 314.252 116.862 313.687Z" fill="#445393"/>
<path d="M104.97 320.752L110.916 317.361C111.766 316.796 112.049 316.231 111.199 315.665L106.102 313.122C105.253 312.84 104.12 312.84 102.988 313.405L97.0411 316.796C96.1916 317.361 95.9085 317.926 96.758 318.491L101.855 321.035C102.704 321.317 104.12 321.035 104.97 320.752Z" fill="#445393"/>
<path d="M152.542 293.058L158.488 289.667C159.338 289.102 159.621 288.537 158.771 287.972L153.674 285.428C152.825 285.146 151.692 285.146 150.559 285.711L144.613 289.102C143.763 289.667 143.48 290.232 144.33 290.798L149.427 293.341C150.276 293.623 151.692 293.623 152.542 293.058Z" fill="#445393"/>
<path d="M140.649 299.837L146.595 296.446C147.445 295.881 147.728 295.316 146.878 294.751L141.781 292.208C140.932 291.925 139.799 291.925 138.95 292.49L133.003 295.881C132.154 296.446 131.871 297.012 132.72 297.577L137.817 300.12C138.383 300.685 139.799 300.403 140.649 299.837Z" fill="#445393"/>
<path d="M203.23 256.039H204.929L209.742 253.213C210.592 252.648 212.007 252.648 212.857 252.931L215.972 254.626H218.237V256.322C218.237 256.604 217.954 256.887 217.387 257.17L211.441 260.561C210.592 261.126 209.176 261.126 208.61 260.843L203.513 258.3C203.23 258.017 202.947 258.017 202.947 257.735L203.23 256.039Z" fill="#343C6B"/>
<path d="M236.076 245.015L242.023 241.624C242.873 241.058 243.156 240.493 242.306 239.928L237.209 237.385C236.36 237.102 235.227 237.102 234.377 237.667L228.431 241.058C227.581 241.624 227.298 242.189 228.148 242.754L233.245 245.297C233.811 245.58 235.227 245.58 236.076 245.015Z" fill="#445393"/>
<path d="M223.899 252.081L229.846 248.69C230.695 248.125 230.978 247.56 230.129 246.995L225.032 244.451C224.183 244.169 223.05 244.169 222.2 244.734L216.254 248.125C215.405 248.69 215.122 249.255 215.971 249.82L221.068 252.364C221.634 252.646 223.05 252.364 223.899 252.081Z" fill="#445393"/>
<path d="M211.725 259.148L217.671 255.758C218.521 255.193 218.804 254.627 217.955 254.062L212.857 251.52C212.008 251.237 210.875 251.237 209.742 251.802L203.795 255.193C202.946 255.758 202.663 256.323 203.512 256.888L208.893 259.148C209.459 259.713 210.875 259.431 211.725 259.148Z" fill="#445393"/>
<path d="M165.567 285.707L205.212 262.818C206.061 262.252 206.345 261.687 205.495 261.122L200.398 258.579C199.548 258.296 198.416 258.296 197.283 258.861L157.638 281.751C156.789 282.316 156.506 282.881 157.355 283.447L162.452 285.99C163.302 286.272 164.435 286.272 165.567 285.707Z" fill="#445393"/>
<path d="M258.446 232.017L264.393 228.627C265.242 228.062 265.525 227.497 264.676 226.932L259.579 224.39C258.729 224.107 257.596 224.107 256.747 224.672L250.8 228.062C249.951 228.627 249.668 229.192 250.517 229.757L255.614 232.299C256.181 232.864 257.596 232.582 258.446 232.017Z" fill="#445393"/>
<path d="M193.602 224.955L199.548 221.564C200.398 220.998 200.681 220.433 199.831 219.868L197 218.455C196.15 218.173 195.018 218.173 194.168 218.738L188.222 222.129C187.373 222.694 187.09 223.259 187.939 223.824L190.771 225.237C191.337 225.52 192.753 225.237 193.602 224.955Z" fill="#445393"/>
<path d="M181.426 232.019L187.372 228.629C188.222 228.064 188.505 227.499 187.656 226.934L184.824 225.521C183.974 225.239 182.842 225.239 181.992 225.804L176.046 229.194C175.196 229.759 174.913 230.324 175.762 230.889L178.594 232.302C179.16 232.584 180.293 232.302 181.426 232.019Z" fill="#445393"/>
<path d="M168.966 239.084L174.913 235.691C175.762 235.126 176.046 234.56 175.196 233.995L172.364 232.581C171.514 232.298 170.382 232.298 169.532 232.864L163.585 236.257C162.735 236.822 162.452 237.387 163.302 237.953L166.134 239.366C166.7 239.649 168.116 239.366 168.966 239.084Z" fill="#445393"/>
<path d="M156.789 246.147L162.735 242.756C163.585 242.191 163.868 241.626 163.019 241.06L160.187 239.648C159.337 239.365 158.205 239.365 157.355 239.93L151.409 243.321C150.559 243.886 150.276 244.451 151.126 245.017L153.957 246.43C154.524 246.712 155.939 246.43 156.789 246.147Z" fill="#445393"/>
<path d="M144.33 253.213L150.278 249.823C151.127 249.258 151.41 248.693 150.561 248.128L147.729 246.715C146.879 246.433 145.746 246.433 144.897 246.998L138.949 250.388C138.1 250.953 137.817 251.518 138.666 252.083L141.498 253.496C142.065 253.779 143.481 253.496 144.33 253.213Z" fill="#445393"/>
<path d="M132.153 260.277L138.1 256.885C138.949 256.319 139.233 255.754 138.383 255.189L135.551 253.776C134.702 253.493 133.569 253.493 132.437 254.058L126.49 257.45C125.641 258.015 125.357 258.581 126.207 259.146L129.039 260.559C129.888 260.842 131.304 260.559 132.153 260.277Z" fill="#445393"/>
<path d="M119.695 267.34L125.642 263.95C126.492 263.385 126.775 262.82 125.925 262.254L123.093 260.842C122.244 260.559 121.111 260.559 120.261 261.124L114.314 264.515C113.465 265.08 113.181 265.645 114.031 266.21L116.863 267.622C117.713 267.905 118.845 267.622 119.695 267.34Z" fill="#445393"/>
<path d="M107.518 274.404L113.464 271.014C114.314 270.449 114.597 269.884 113.747 269.319L110.916 267.906C110.067 267.624 108.934 267.624 107.802 268.189L101.856 271.579C101.006 272.144 100.723 272.709 101.573 273.274L104.404 274.687C105.253 274.969 106.669 274.687 107.518 274.404Z" fill="#445393"/>
<path d="M95.3417 281.469L101.288 278.078C102.138 277.513 102.421 276.947 101.571 276.382L98.7396 274.969C97.8901 274.687 96.7575 274.687 95.6248 275.252L89.6784 278.643C88.8289 279.208 88.5457 279.773 89.3952 280.338L92.2268 281.751C93.0763 282.034 94.209 281.751 95.3417 281.469Z" fill="#445393"/>
<path d="M82.8824 288.534L88.8289 285.143C89.6784 284.578 89.9616 284.012 89.1121 283.447L86.2804 282.034C85.4309 281.752 84.2982 281.752 83.1656 282.317L77.2191 285.708C76.3696 286.273 76.0864 286.838 76.9359 287.403L79.7676 288.816C80.6171 289.099 82.0329 288.816 82.8824 288.534Z" fill="#445393"/>
<path d="M64.7588 298.707L75.8024 292.207C76.6519 291.642 76.6519 291.077 76.0855 290.512L73.537 289.099C72.6875 288.816 71.5548 288.816 70.7053 289.381L59.6619 295.881C58.8124 296.446 58.8123 297.011 59.3787 297.576L61.9272 298.989C62.4935 299.272 63.9093 299.272 64.7588 298.707Z" fill="#445393"/>
<path d="M217.954 210.823L223.9 207.433C224.75 206.868 225.033 206.303 224.183 205.738L221.352 204.325C220.502 204.043 219.37 204.043 218.52 204.608L212.574 207.998C211.725 208.563 211.442 209.128 212.291 209.693L215.123 211.106C215.689 211.388 217.105 211.388 217.954 210.823Z" fill="#445393"/>
<path d="M205.778 217.887L211.724 214.496C212.574 213.931 212.857 213.366 212.007 212.801L209.176 211.389C208.326 211.106 207.193 211.106 206.344 211.671L200.397 214.779C199.548 215.344 199.265 215.909 200.114 216.474L202.946 217.887C203.795 218.452 204.928 218.169 205.778 217.887Z" fill="#445393"/>
<path d="M197.282 233.715L203.229 230.325C204.079 229.76 204.362 229.195 203.512 228.63L198.415 226.087C197.566 225.804 196.433 225.804 195.583 226.369L189.637 229.76C188.787 230.325 188.504 230.89 189.353 231.455L194.451 233.998C195.017 234.563 196.433 234.281 197.282 233.715Z" fill="#445393"/>
<path d="M185.106 240.779L190.769 237.387C191.618 236.821 191.902 236.256 191.052 235.69L185.955 233.146C185.106 232.863 183.973 232.863 182.84 233.429L176.894 236.821C176.044 237.387 175.761 237.952 176.61 238.517L181.708 241.062C182.84 241.627 183.973 241.344 185.106 240.779Z" fill="#445393"/>
<path d="M172.647 247.842L178.593 244.451C179.443 243.886 179.726 243.321 178.876 242.756L173.779 240.212C172.93 239.93 171.797 239.93 170.948 240.495L165.001 243.886C164.152 244.451 163.869 245.017 164.718 245.582L169.815 248.125C170.381 248.69 171.797 248.408 172.647 247.842Z" fill="#445393"/>
<path d="M160.47 254.906L166.417 251.798C167.266 251.232 167.549 250.667 166.7 250.102L161.603 247.559C160.753 247.276 159.621 247.276 158.488 247.841L152.542 251.232C151.692 251.798 151.409 252.363 152.258 252.928L157.355 255.471C158.205 255.754 159.621 255.471 160.47 254.906Z" fill="#445393"/>
<path d="M148.012 262.255L153.959 258.865C154.809 258.299 155.092 257.734 154.242 257.169L149.145 254.627C148.295 254.344 147.162 254.344 146.313 254.909L140.365 258.299C139.516 258.865 139.233 259.43 140.082 259.995L145.18 262.538C145.746 262.82 147.162 262.538 148.012 262.255Z" fill="#445393"/>
<path d="M135.835 269.318L141.782 265.928C142.631 265.363 142.914 264.798 142.065 264.233L136.968 261.69C136.118 261.407 134.986 261.407 133.853 261.973L127.906 265.363C127.057 265.928 126.774 266.493 127.623 267.058L132.72 269.601C133.57 269.884 134.986 269.601 135.835 269.318Z" fill="#445393"/>
<path d="M123.377 276.386L129.324 272.995C130.173 272.43 130.456 271.865 129.607 271.3L124.51 268.756C123.66 268.474 122.528 268.474 121.395 269.039L115.448 272.43C114.599 272.995 114.316 273.56 115.165 274.126L120.262 276.669C121.112 276.951 122.528 276.669 123.377 276.386Z" fill="#445393"/>
<path d="M111.199 283.451L117.146 280.06C117.995 279.495 118.278 278.93 117.429 278.365L112.332 275.821C111.482 275.539 110.35 275.539 109.217 276.104L103.271 279.495C102.421 280.06 102.138 280.625 102.987 281.191L108.084 283.734C108.934 284.016 110.35 283.734 111.199 283.451Z" fill="#445393"/>
<path d="M98.7403 290.515L104.686 287.124C105.536 286.559 105.819 285.994 104.969 285.429L99.8729 282.885C99.0235 282.603 97.8909 282.603 97.0415 283.168L91.0957 286.559C90.2462 287.124 89.9631 287.689 90.8125 288.255L95.909 290.798C96.4752 291.08 97.8909 290.798 98.7403 290.515Z" fill="#445393"/>
<path d="M86.5638 297.58L92.5103 294.189C93.3598 293.624 93.643 293.059 92.7935 292.494L87.6965 289.95C86.847 289.668 85.7143 289.668 84.8648 290.233L78.9183 293.624C78.0688 294.189 77.7856 294.754 78.6351 295.319L83.7321 297.863C84.2985 298.145 85.7143 297.863 86.5638 297.58Z" fill="#445393"/>
<path d="M74.3876 304.362L80.334 300.971C81.1835 300.406 81.4667 299.841 80.6172 299.276L75.5202 296.732C74.6707 296.45 73.5381 296.45 72.4054 297.015L66.4589 300.406C65.6094 300.971 65.3262 301.536 66.1757 302.102L71.2727 304.645C72.1222 304.928 73.5381 304.928 74.3876 304.362Z" fill="#445393"/>
<path d="M209.741 226.65L215.405 223.259C216.254 222.694 216.538 222.129 215.688 221.564L210.591 219.021C209.741 218.738 208.609 218.738 207.759 219.303L201.813 222.694C200.963 223.259 200.68 223.825 201.53 224.39L206.627 226.933C207.476 227.498 208.609 227.216 209.741 226.65Z" fill="#445393"/>
<path d="M221.917 219.584L232.961 213.085C233.811 212.52 233.811 211.955 233.244 211.39L228.713 209.129C227.864 208.847 226.731 208.847 225.882 209.412L214.838 215.911C213.988 216.476 213.988 217.041 214.554 217.606L219.368 220.149C219.935 220.149 221.068 219.866 221.917 219.584Z" fill="#445393"/>
<path d="M204.362 240.78L210.308 237.389C211.158 236.824 211.441 236.259 210.592 235.694L205.494 233.15C204.645 232.868 203.512 232.868 202.662 233.433L196.716 236.824C195.866 237.389 195.583 237.954 196.432 238.52L201.53 241.063C202.379 241.346 203.512 241.345 204.362 240.78Z" fill="#445393"/>
<path d="M192.186 247.844L198.133 244.453C198.982 243.888 199.265 243.323 198.416 242.758L193.319 240.215C192.469 239.933 191.337 239.933 190.487 240.498L184.541 243.888C183.691 244.453 183.408 245.018 184.257 245.584L189.071 248.126C189.921 248.409 191.337 248.409 192.186 247.844Z" fill="#445393"/>
<path d="M179.726 254.91L185.672 251.52C186.521 250.955 186.804 250.39 185.955 249.825L180.858 247.282C180.009 246.999 178.876 246.999 178.027 247.564L172.081 250.955C171.232 251.52 170.949 252.085 171.798 252.65L176.895 255.193C177.744 255.475 178.876 255.475 179.726 254.91Z" fill="#445393"/>
<path d="M167.549 261.974L173.496 258.583C174.345 258.018 174.629 257.452 173.779 256.887L168.682 254.344C167.833 254.061 166.7 254.061 165.85 254.626L159.904 258.018C159.054 258.583 158.771 259.148 159.621 259.713L164.718 262.256C165.284 262.539 166.7 262.539 167.549 261.974Z" fill="#445393"/>
<path d="M155.374 269.038L161.037 265.647C161.886 265.082 162.169 264.517 161.32 263.952L156.223 261.408C155.374 261.126 154.241 261.126 153.392 261.691L147.446 265.082C146.597 265.647 146.313 266.212 147.163 266.777L152.259 269.321C153.109 269.603 154.241 269.603 155.374 269.038Z" fill="#445393"/>
<path d="M142.914 276.1L148.862 272.71C149.711 272.145 149.994 271.58 149.145 271.015L144.047 268.473C143.198 268.19 142.065 268.19 141.215 268.755L135.268 272.145C134.419 272.71 134.135 273.275 134.985 273.84L140.082 276.382C140.649 276.665 142.065 276.665 142.914 276.1Z" fill="#445393"/>
<path d="M130.738 283.167L136.684 279.776C137.534 279.211 137.817 278.646 136.967 278.081L131.871 275.537C131.021 275.255 129.889 275.255 129.04 275.82L123.094 279.211C122.244 279.776 121.961 280.341 122.811 280.906L127.907 283.45C128.473 283.732 129.889 283.732 130.738 283.167Z" fill="#445393"/>
<path d="M118.28 290.232L124.226 286.841C125.076 286.276 125.359 285.711 124.51 285.146L119.413 282.603C118.563 282.32 117.43 282.32 116.298 282.885L110.351 286.276C109.502 286.841 109.219 287.407 110.068 287.972L115.165 290.515C116.015 290.798 117.43 290.798 118.28 290.232Z" fill="#445393"/>
<path d="M106.102 297.297L112.048 293.906C112.898 293.341 113.181 292.776 112.332 292.21L107.235 289.667C106.385 289.384 105.252 289.384 104.12 289.95L98.1732 293.341C97.3237 293.906 97.0406 294.471 97.8901 295.036L102.987 297.58C103.837 297.862 105.252 297.862 106.102 297.297Z" fill="#445393"/>
<path d="M85.1486 309.165L98.4574 301.535C99.3069 300.97 99.3069 300.405 98.7406 299.84L93.9267 297.296C93.0772 297.014 91.9446 297.014 91.0951 297.579L77.7862 305.209C76.9367 305.774 76.9367 306.339 77.5031 306.904L82.3169 309.448C82.8832 309.73 84.2991 309.73 85.1486 309.165Z" fill="#445393"/>
<path d="M216.821 233.714L222.768 230.324C223.617 229.759 223.9 229.194 223.051 228.629L217.954 226.086C217.105 225.803 215.972 225.803 215.123 226.369L209.176 229.759C208.327 230.324 208.044 230.889 208.893 231.454L213.99 233.997C214.556 234.279 215.972 234.279 216.821 233.714Z" fill="#445393"/>
<path d="M229.848 226.085L243.156 218.455C244.006 217.89 244.006 217.324 243.44 216.759L238.626 214.216C237.776 213.933 236.644 213.933 235.794 214.498L222.485 222.128C221.636 222.694 221.636 223.259 222.202 223.824L227.016 226.367C227.582 226.65 228.998 226.65 229.848 226.085Z" fill="#445393"/>
<path d="M208.327 249.82L214.273 246.428C215.123 245.863 215.406 245.298 214.556 244.733L209.46 242.19C208.61 241.907 207.478 241.907 206.628 242.472L200.682 245.863C199.833 246.428 199.549 246.994 200.399 247.559L205.496 250.102C206.345 250.385 207.478 250.385 208.327 249.82Z" fill="#445393"/>
<path d="M196.15 256.886L202.097 253.496C202.946 252.931 203.229 252.366 202.38 251.801L197.283 249.258C196.434 248.975 195.301 248.975 194.451 249.54L188.505 252.931C187.656 253.496 187.373 254.061 188.222 254.626L193.319 257.169C193.885 257.451 195.301 257.451 196.15 256.886Z" fill="#445393"/>
<path d="M183.974 263.949L189.921 260.558C190.77 259.993 191.054 259.428 190.204 258.863L185.107 256.32C184.257 256.038 183.124 256.038 182.275 256.603L176.327 259.993C175.478 260.558 175.195 261.123 176.044 261.688L181.142 264.231C181.708 264.514 182.841 264.514 183.974 263.949Z" fill="#445393"/>
<path d="M171.515 271.013L177.462 267.622C178.311 267.057 178.594 266.492 177.745 265.927L172.648 263.383C171.798 263.101 170.666 263.101 169.816 263.666L163.87 267.057C163.02 267.622 162.737 268.187 163.587 268.753L168.684 271.296C169.25 271.579 170.666 271.579 171.515 271.013Z" fill="#445393"/>
<path d="M159.337 278.078L165.284 274.687C166.133 274.122 166.417 273.557 165.567 272.992L160.47 270.448C159.621 270.166 158.488 270.166 157.638 270.731L151.692 274.122C150.842 274.687 150.559 275.252 151.409 275.817L156.506 278.361C157.072 278.643 158.488 278.643 159.337 278.078Z" fill="#445393"/>
<path d="M146.879 285.143L152.825 281.752C153.674 281.187 153.957 280.622 153.108 280.057L148.012 277.513C147.162 277.231 146.03 277.231 144.897 277.796L138.951 281.187C138.102 281.752 137.819 282.317 138.668 282.882L143.764 285.426C144.614 285.708 146.03 285.708 146.879 285.143Z" fill="#445393"/>
<path d="M134.702 292.208L140.648 288.817C141.498 288.252 141.781 287.687 140.932 287.121L135.835 284.578C134.985 284.296 133.852 284.296 133.003 284.861L127.056 288.252C126.207 288.817 125.924 289.382 126.773 289.947L131.87 292.491C132.437 292.773 133.853 292.773 134.702 292.208Z" fill="#445393"/>
<path d="M122.243 299.272L128.189 295.881C129.039 295.316 129.322 294.751 128.472 294.185L123.375 291.642C122.526 291.36 121.393 291.36 120.26 291.925L114.314 295.316C113.464 295.881 113.181 296.446 114.031 297.011L119.128 299.555C120.26 299.837 121.393 299.555 122.243 299.272Z" fill="#445393"/>
<path d="M95.3434 314.815L115.447 303.229C116.297 302.663 116.58 301.816 115.73 301.533L110.634 298.707C109.784 298.425 108.368 298.425 107.519 298.99L87.4152 310.576C86.5657 311.141 86.2826 311.989 87.132 312.271L92.2287 315.097C92.795 315.38 94.2108 315.38 95.3434 314.815Z" fill="#445393"/>
<path d="M220.787 242.755L226.733 239.363C227.582 238.798 227.865 238.233 227.016 237.668L221.919 235.125C221.07 234.842 219.937 234.842 219.088 235.407L213.141 238.798C212.292 239.363 212.009 239.929 212.858 240.494L217.672 243.037C218.521 243.32 219.937 243.32 220.787 242.755Z" fill="#445393"/>
<path d="M233.528 235.407L253.633 223.821C254.482 223.256 254.766 222.408 253.916 222.125L248.819 219.299C247.97 219.017 246.554 219.017 245.704 219.582L225.599 231.168C224.75 231.733 224.467 232.581 225.316 232.864L230.413 235.69C231.263 235.972 232.679 235.972 233.528 235.407Z" fill="#445393"/>
<path d="M103.269 168.999C103.269 165.608 105.251 159.391 105.251 159.391C106.384 160.521 112.047 159.391 112.047 159.391C113.463 162.5 114.596 165.608 117.144 168.151C119.693 170.695 123.657 172.955 123.94 173.521C125.073 174.934 124.223 176.629 122.524 177.194C121.392 177.759 119.976 177.759 118.56 177.759C117.144 177.759 116.011 177.194 114.879 176.629L104.402 171.825C103.835 171.542 103.269 170.977 103.269 170.129C103.269 169.564 103.269 169.282 103.269 168.999Z" fill="#343C6B"/>
<path d="M118.843 160.521C118.559 157.413 119.975 151.196 119.975 151.196C121.108 152.043 125.639 150.913 125.639 150.913C127.338 153.739 129.32 156.282 132.152 158.26C134.984 160.239 138.949 162.217 139.232 162.782C140.648 164.195 139.798 165.89 138.382 166.455C137.25 167.021 135.834 167.303 134.701 167.303C133.285 167.303 132.152 167.021 130.736 166.738L119.975 163.064C119.409 162.782 118.843 162.217 118.559 161.651C118.843 161.086 118.843 160.804 118.843 160.521Z" fill="#343C6B"/>
<path d="M110.349 73.4845C114.313 76.593 118.277 79.4189 120.542 80.8318C120.825 81.1144 123.091 82.2448 125.356 83.0925C125.922 82.5273 126.488 81.9622 127.055 81.6796L135.549 76.8755C134.983 76.593 134.133 76.593 133.567 76.593C131.019 76.8755 127.055 76.8755 125.073 76.0278C124.789 75.7452 124.506 75.7452 123.94 75.4626C121.675 74.0496 119.693 71.7889 117.428 69.2456L110.349 73.4845Z" fill="#EF8F9B"/>
<path d="M98.7397 32.791L105.819 40.1383C105.819 40.1383 109.217 59.3543 110.066 60.2021C112.048 62.4628 121.11 71.5056 124.791 76.027L118.561 79.7007C112.898 76.027 100.722 67.2668 98.7397 64.1583C97.0407 61.615 94.7753 35.6169 94.7753 35.6169C94.7753 34.4865 97.8902 32.5084 98.7397 32.791Z" fill="#3E5AFF"/>
<path d="M90.527 93.8319L87.1292 74.8982C91.6596 74.6156 96.4733 74.333 99.8712 74.333C103.552 74.333 106.384 78.8545 106.384 79.1371C106.384 79.1371 131.302 101.179 131.302 106.831C131.302 113.896 129.603 143.003 128.47 153.176C128.187 155.72 119.409 155.72 119.126 153.459C117.144 143.285 116.294 121.243 116.011 112.2L90.527 93.8319Z" fill="#343B65"/>
<path d="M71.8375 80.5489L72.1207 79.4186C76.085 79.136 81.182 82.5271 84.2968 82.5271C85.9958 82.5271 87.6948 81.1141 89.3938 82.5271C89.9602 82.8097 94.2076 80.5489 94.4908 80.8315C94.774 81.1141 94.774 81.6793 94.774 82.5271C93.9245 89.0266 114.029 106.83 114.029 113.612C114.029 128.307 115.162 151.479 114.029 161.652C113.746 164.195 103.835 163.348 103.835 161.935C102.419 152.327 98.172 127.741 98.172 118.699L81.182 104.569C72.9702 98.0695 69.0058 90.157 71.8375 80.5489Z" fill="#424E7F"/>
<path d="M83.73 86.7654C77.7842 86.7654 73.5373 85.3524 70.9891 84.2221C71.2722 82.8092 71.5553 81.6788 71.5553 80.2659L75.5192 75.7445L77.218 53.9854L80.3324 71.2231L83.1637 81.3962C83.1637 81.3962 83.73 86.7654 83.73 86.7654Z" fill="#3E5AFF"/>
<path d="M107.516 81.6782C105.534 83.3738 97.8887 87.33 91.3759 88.1777C88.8274 88.4603 86.2789 88.7429 84.0135 88.7429C77.7839 88.7429 72.97 87.6126 70.7047 85.3519C70.7047 85.0693 70.7047 84.7867 70.9879 84.5041C71.271 83.0912 71.5542 81.9608 71.5542 80.5479C71.5542 79.7001 71.5542 78.8524 71.5542 78.0046V74.8961L72.1205 61.0494L65.6077 49.1807C65.6077 42.6812 71.271 37.8772 76.9344 34.4861C77.5007 34.2035 77.7839 33.9209 78.3502 33.6384L78.6334 33.3558L83.164 30.8125L87.1284 28.5518C87.4115 28.2692 90.8095 29.9647 91.0927 29.9647C92.2254 29.3996 93.358 29.117 94.4907 29.117C99.5877 28.5518 106.101 33.6384 106.101 40.703L104.118 66.1359C102.703 74.0484 107.516 81.6782 107.516 81.6782Z" fill="#5278FF"/>
<path d="M80.3333 95.2426C80.3333 94.3949 80.6164 93.5471 81.4659 93.2645L112.897 75.1788C114.313 74.331 116.012 74.331 117.428 75.1788L136.4 86.1998C137.25 86.765 137.533 87.3301 137.533 88.1779V89.3083C137.533 90.156 137.25 90.7212 136.4 91.0038L104.969 109.09C103.553 109.937 101.854 109.937 100.438 109.09L81.4659 98.0685C80.8996 97.7859 80.3333 96.9382 80.3333 96.373C80.3333 96.0904 80.3333 96.0904 80.3333 96.0904V95.2426Z" fill="#F7F9FF"/>
<path d="M102.136 105.982L110.914 84.5053C111.48 83.0923 112.33 82.2446 113.746 81.3968L141.214 65.8545C141.78 65.5719 142.63 65.5719 143.479 65.8545L144.329 66.4197C145.745 66.9849 146.311 68.6804 145.745 69.8107L137.533 91.0048C136.966 92.1351 136.4 92.9829 135.267 93.548L106.666 110.221C106.1 110.503 105.251 110.503 104.684 110.221L103.268 109.373C102.136 108.525 101.569 107.112 102.136 105.982Z" fill="#A2B7E8"/>
<path d="M94.209 89.8748C88.8289 87.6141 73.5378 82.5274 69.0072 78.8538C67.025 77.1582 67.025 50.5948 67.025 50.5948C67.025 49.7471 67.5914 49.1819 68.4409 48.8993L74.3874 48.6167C75.2369 48.6167 75.8032 49.1819 75.8032 50.0296C76.0864 53.4207 76.0863 68.398 76.3695 72.0716C76.3695 72.9194 76.9358 73.7672 77.7853 74.0498C81.7497 75.1801 88.2625 81.1145 94.4922 83.3752C95.0585 83.6578 95.6249 83.6578 95.908 83.6578C99.0229 84.223 104.686 79.419 105.536 82.5274C105.536 82.5274 111.765 85.9185 108.084 89.3096C107.518 89.8748 102.421 91.8529 101.005 91.5703C97.8902 91.5703 95.0585 90.1574 94.209 89.8748Z" fill="#FCBAC0"/>
<path d="M95.9082 83.6587C94.2091 84.2239 93.0764 88.4628 93.9259 89.8757C93.9259 89.8757 72.9705 85.3543 67.8732 78.8546C65.3246 75.7461 65.6078 59.6384 65.3246 50.0303C65.3246 46.9218 67.8732 44.0958 70.9882 44.3784C73.82 44.3784 76.0855 46.6392 76.3687 49.7477C76.6518 56.2473 77.2182 68.9639 77.2182 71.5073C77.2182 71.7898 77.5014 72.0724 77.7846 72.355C79.4837 72.6376 95.9082 83.6587 95.9082 83.6587Z" fill="#5278FF"/>
<path d="M81.4649 31.6614V18.6621H90.8094V31.944C90.8094 31.944 94.4905 35.6176 91.6589 37.3132C87.4114 40.1391 81.4649 35.6176 81.4649 31.6614Z" fill="#FCBAC0"/>
<path d="M84.2984 14.4232C86.5637 17.2492 87.1301 20.6403 85.4311 22.3358C83.7321 23.7488 80.9004 22.901 78.0688 19.7925C75.5203 16.9666 75.2371 13.5755 75.2371 13.5755C75.2371 13.5755 81.7499 11.5973 84.2984 14.4232Z" fill="#CC7F7F"/>
<path d="M81.1819 18.6614C82.3145 20.357 82.3145 22.3351 81.465 23.1829C80.3324 24.0307 78.6334 23.1829 77.2175 21.4874C76.0849 19.7918 76.0849 17.8137 77.2175 16.9659C78.3502 16.1181 80.0492 16.9659 81.1819 18.6614Z" fill="#FCBAC0"/>
<path d="M91.0942 20.6392V31.3776C91.0942 32.508 88.8289 33.0732 86.8467 32.508C84.0151 31.3776 81.7497 29.1169 81.7497 26.5736V20.6392H91.0942Z" fill="#EF8F9B"/>
<path d="M97.0406 24.0313C95.6248 31.6613 90.5278 32.509 85.714 30.2483C82.5991 28.8353 79.7675 26.292 78.918 22.9009C78.3516 20.6402 76.6526 18.662 76.6526 16.9665C76.0863 9.90169 80.3338 5.38023 86.2803 4.81504C99.3059 3.68468 97.607 21.2054 97.0406 24.0313Z" fill="#FCBAC0"/>
<path d="M98.7382 5.09791C99.0214 5.3805 99.3046 5.94567 99.3046 6.51085C100.154 11.0323 97.1658 14.5547 97.1658 14.5547L96.7053 13.0002L96.4438 11.8625C96.0294 11.5176 95.4526 11.3149 94.7742 11.3149C92.509 11.5974 89.3943 11.3149 87.1292 12.4452C85.9966 13.0104 84.5808 12.7278 83.7314 12.1626L81.7493 10.7497L83.7314 13.0104C84.2977 13.8581 84.1948 15.0002 84.1948 15.0002C84.1948 16.1305 82.5988 19.2273 81.4662 18.9447C80.6167 18.6621 80.0505 18.3796 79.7673 18.097C79.201 17.2492 77.7853 17.2492 77.7853 17.8144C77.219 19.7925 77.219 20.6403 77.5021 21.2054C76.6527 20.3577 75.5201 19.5099 74.9538 17.8144C74.3875 16.1189 73.8212 13.8581 74.1043 10.7497C74.3875 6.22826 78.9178 1.70685 84.864 1.14167C86.5629 0.859086 88.2617 0.859086 90.2438 1.42426C93.9247 2.27203 97.3225 3.11979 98.7382 5.09791Z" fill="#C4C4C4"/>
<path d="M83.1641 21.4882C83.1641 18.3797 81.4651 14.9886 78.9166 13.5756C77.7839 13.0105 76.9344 13.0105 76.0849 13.293L74.3859 14.1408L74.9522 14.4234C74.6691 14.9886 74.6691 15.5538 74.6691 16.4015C74.6691 19.51 76.3681 22.9011 78.9166 24.3141C79.4829 24.5967 79.7661 24.5967 80.0492 24.8793L79.7661 25.7271L81.4651 24.5967C82.5977 24.3141 83.1641 23.1837 83.1641 21.4882Z" fill="#343C6B"/>
<path d="M72.9717 17.5315C72.9717 14.423 74.6704 13.0101 77.2184 14.423C79.4833 15.836 81.4651 19.2271 81.4651 22.3356C81.4651 25.4442 79.4833 26.8571 77.2184 25.4442C74.6704 24.0312 72.9717 20.3575 72.9717 17.5315Z" fill="#343B65"/>
<path d="M74.1044 18.3792C74.1044 16.4011 75.2367 15.5533 76.9352 16.4011C78.6338 17.2489 79.7661 19.5096 79.7661 21.4877C79.7661 23.4659 78.6338 24.3136 76.9352 23.4659C75.2367 22.6181 74.1044 20.3574 74.1044 18.3792Z" fill="#424E7F"/>
<path d="M99.8726 14.4227C99.8726 16.1182 99.3062 17.2486 98.4567 17.8137L97.4191 18.4401C97.4191 16.7445 96.9513 13.824 96.9513 13.824C96.9513 13.824 98.4567 12.162 99.3062 9.61865C99.5894 10.1838 99.8726 13.5749 99.8726 14.4227Z" fill="#343C6B"/>
<path d="M91.9438 1.98905C91.9438 1.98905 88.2627 1.70646 86.5637 2.83682L82.3162 5.09753C79.7677 6.51048 78.0687 9.61896 78.0687 12.4448V14.1404L75.8033 13.8578V12.4448C75.8033 8.4886 77.7855 5.09753 81.1835 2.83682L85.7142 0.576106C87.9795 -0.55425 90.528 0.0109283 91.9438 1.98905Z" fill="#343C6B"/>
</svg>
