<svg width="135" height="176" viewBox="0 0 135 176" fill="none" xmlns="http://www.w3.org/2000/svg">
<g clip-path="url(#clip0)">
<path d="M124.375 105.452C124.375 123.274 118.28 135.757 108.643 140.767L75.9428 159.492L74.9544 160.067L79.3198 150.787C81.4614 147.912 83.1087 144.381 84.2619 140.192L84.509 139.782C85.5797 135.429 86.1563 130.501 86.1563 125.081C86.1563 94.6936 67.706 59.3786 45.055 46.3202C39.7011 43.2815 34.6767 41.7211 29.9818 41.7211C29.1581 41.7211 28.2521 41.8032 27.4284 41.8853L19.7683 39.9964H19.6035L52.9623 21.0249C60.5401 16.6721 70.4241 17.0006 81.2966 23.2423C105.018 36.8755 124.375 73.7509 124.375 105.452Z" fill="#819BEA"/>
<path d="M71.9067 68.7412L68.3649 70.7123C78.6608 86.6451 85.3325 106.684 85.3325 124.999C85.3325 130.419 84.756 135.347 83.6028 139.7C83.5204 139.864 83.5204 140.028 83.4381 140.192C82.2849 144.381 80.6376 147.912 78.496 150.787C74.7071 155.797 69.6004 158.589 63.4228 158.589C58.7279 158.589 53.6211 157.029 48.3496 153.99C34.1001 145.777 21.5802 128.859 14.1672 109.887C12.8493 113.994 13.3435 118.429 15.3203 122.289C23.1452 137.564 34.1824 150.541 46.2904 157.521C56.9158 163.599 66.6351 164.092 74.1306 160.067C74.46 159.903 74.7895 159.657 75.119 159.492C83.9323 154.072 89.4509 141.999 89.4509 124.999C89.4509 106.109 82.532 85.331 71.9067 68.7412Z" fill="#81A0EA"/>
<path d="M84.8381 133.047C84.591 135.429 84.0968 137.646 83.6026 139.699C83.5203 139.863 83.5203 140.028 83.4379 140.192C82.2848 144.381 80.6374 147.912 78.4959 150.787C75.9425 154.236 72.6478 156.7 68.9412 157.849C63.3403 158.999 57.3275 157.521 49.7497 153.168C27.181 140.192 8.48364 105.698 8.48364 75.6395C8.48364 62.3348 11.9431 51.8224 17.8735 45.6628C20.4269 43.6096 23.3921 42.2956 26.6868 41.885C27.5105 41.7207 28.3342 41.7207 29.2402 41.7207C33.8528 41.7207 38.8772 43.199 44.2311 46.3199C43.984 47.716 43.7369 49.1943 43.5721 50.7548C43.325 52.808 43.2427 54.9433 43.2427 57.0786C43.2427 85.3306 60.128 118.1 81.0492 130.994C81.4611 131.24 81.7906 131.486 82.2024 131.733C82.9437 132.143 83.9321 132.636 84.8381 133.047Z" fill="#819BEA"/>
<path d="M44.1488 46.32C44.0664 46.32 44.0664 46.2378 43.984 46.2378C38.7125 43.1991 33.6881 41.6387 28.9932 41.6387C28.1695 41.6387 27.2635 41.7208 26.4398 41.8029C23.1451 42.2136 20.1799 43.5276 17.6265 45.5808C11.0371 50.9191 7.0835 61.4315 7.0835 75.229C7.0835 105.534 25.5338 140.931 48.2671 153.99C53.621 157.028 58.6454 158.589 63.3404 158.589C65.2348 158.589 67.0469 158.342 68.6942 157.767C72.5655 156.618 75.7778 154.154 78.3312 150.704C80.4728 147.83 82.1201 144.299 83.2732 140.11C83.3556 139.946 83.3556 139.781 83.438 139.617C84.0146 137.564 84.4264 135.347 84.6735 132.965C85.003 130.419 85.1677 127.791 85.1677 124.916C85.3324 94.6933 66.7998 59.2962 44.1488 46.32ZM79.5667 138.55C79.5667 138.632 79.402 139.124 79.402 139.124C78.4136 142.82 76.931 145.941 75.1189 148.405C72.0713 152.511 68.1177 154.564 63.4227 154.564C59.4691 154.564 55.1036 153.168 50.4087 150.458C28.8285 138.057 11.2842 104.302 11.2842 75.3111C11.2842 58.4749 17.297 47.2234 27.0988 45.9914C27.7577 45.9093 28.4166 45.8272 29.0756 45.8272C33.0292 45.8272 37.477 47.2234 42.0896 49.8515C42.5014 50.0978 42.9133 50.3442 43.4075 50.6727C64.3288 63.6489 81.2141 96.5822 81.2141 125.081C81.2141 127.134 81.1317 129.105 80.967 130.912C80.6375 133.622 80.2257 136.168 79.5667 138.55Z" fill="#B8C9F5"/>
<path d="M114.49 35.2328L104.524 39.1749L67.2117 17.411C60.7046 13.6332 52.6326 13.6332 46.1256 17.411L15.7321 34.8222L6.17749 30.6336V41.7209C6.17749 46.895 8.97798 51.7405 13.4258 54.2865L53.5387 77.6108C60.0457 81.3887 68.1177 81.3887 74.6247 77.6108L107.242 58.475C111.69 55.8469 114.49 51.0835 114.49 45.9094V35.2328Z" fill="#343C6B"/>
<path d="M10.3782 23.3244L46.0433 2.7924C52.5503 -0.985486 60.6223 -0.985486 67.1293 2.7924L110.29 27.9235C115.891 31.1265 115.891 39.2572 110.29 42.5423L74.6247 63.0743C68.1177 66.8521 60.0457 66.8521 53.5387 63.0743L10.3782 37.9431C4.77725 34.658 4.77725 26.6095 10.3782 23.3244Z" fill="#E2E9FB"/>
<path d="M12.1079 22.503L46.4551 2.71022C52.715 -0.903406 60.5399 -0.903406 66.7998 2.71022L108.56 27.0201C113.996 30.1409 113.996 37.9431 108.56 41.0639L74.2952 60.8567C68.0353 64.4704 60.2928 64.4704 53.9505 60.8567L12.1079 36.5469C6.75406 33.426 6.75406 25.6239 12.1079 22.503Z" fill="#1F2849"/>
<path d="M106.666 25.9524L66.5527 2.62812C66.388 2.54599 66.2232 2.46386 66.0585 2.38173C60.0457 -0.821252 52.8797 -0.739124 47.0316 2.62812L14.0847 21.5997C8.89559 24.5563 8.89559 32.112 14.0847 35.0686L54.1976 58.3929C57.8218 60.5283 62.0225 61.2674 66.0585 60.8568C68.6942 60.6104 71.33 59.7891 73.7186 58.3929L106.666 39.4214C111.855 36.4648 111.855 28.9912 106.666 25.9524Z" fill="#343C6B"/>
<path d="M68.6117 137.482C67.7057 136.743 66.1407 136.168 64.3286 136.168C62.6813 136.168 61.1986 136.661 60.2926 137.318L59.3042 136.661V139.042C59.3042 140.603 61.6105 141.835 64.411 141.835C67.2115 141.835 69.5177 140.603 69.5177 139.042V136.661L68.6117 137.482Z" fill="#343C6B"/>
<path d="M59.2219 136.661C59.2219 138.221 61.5282 139.453 64.3287 139.453C67.1292 139.453 69.4355 138.221 69.4355 136.661C69.4355 135.1 67.1292 133.868 64.3287 133.868C61.5282 133.786 59.2219 135.1 59.2219 136.661Z" fill="#445393"/>
<path d="M53.3739 123.603C52.4679 122.863 50.9029 122.289 49.0908 122.289C47.4435 122.289 45.9609 122.781 45.0548 123.438L44.0664 122.781V125.163C44.0664 126.723 46.3727 127.955 49.1732 127.955C51.9737 127.955 54.2799 126.723 54.2799 125.163V122.781L53.3739 123.603Z" fill="#343C6B"/>
<path d="M44.0664 122.781C44.0664 124.342 46.3727 125.573 49.1732 125.573C51.9737 125.573 54.2799 124.342 54.2799 122.781C54.2799 121.221 51.9737 119.989 49.1732 119.989C46.2903 119.989 44.0664 121.221 44.0664 122.781Z" fill="#445393"/>
<path d="M60.128 24.3097C66.5877 24.3097 71.8242 21.4049 71.8242 17.8216C71.8242 14.2383 66.5877 11.3335 60.128 11.3335C53.6684 11.3335 48.4319 14.2383 48.4319 17.8216C48.4319 21.4049 53.6684 24.3097 60.128 24.3097Z" fill="#2DDDF0"/>
<path d="M27.3459 30.0586C27.3459 33.6722 32.6175 36.5467 39.0421 36.5467C45.4668 36.5467 50.7383 33.6722 50.7383 30.0586C50.7383 26.445 45.4668 23.5705 39.0421 23.5705C32.5351 23.4884 27.3459 26.445 27.3459 30.0586Z" fill="#FFB1DF"/>
<path d="M81.7084 36.8751C88.168 36.8751 93.4045 33.9703 93.4045 30.387C93.4045 26.8037 88.168 23.8989 81.7084 23.8989C75.2488 23.8989 70.0122 26.8037 70.0122 30.387C70.0122 33.9703 75.2488 36.8751 81.7084 36.8751Z" fill="#F8D483"/>
<path d="M48.9263 42.6238C48.9263 46.2375 54.1978 49.1119 60.6224 49.1119C67.0471 49.1119 72.3186 46.2375 72.3186 42.6238C72.3186 39.0102 67.0471 36.1357 60.6224 36.1357C54.1154 36.1357 48.9263 39.0923 48.9263 42.6238Z" fill="#2DDD7D"/>
<path d="M27.1811 51.0014L21.7448 47.8806C19.6033 46.7308 16.9675 48.2912 16.9675 50.0159L17.3794 49.441C17.3794 51.0836 18.862 52.8082 20.2622 53.7116L25.1219 57.5716C26.3574 58.5572 29.5697 57.4074 29.5697 55.0257V54.8614C29.5697 53.2189 28.6637 51.8227 27.1811 51.0014Z" fill="#1F2849"/>
<path d="M26.1927 51.5764L20.427 48.2092C18.862 47.3058 16.9675 48.4555 16.9675 50.1802C16.9675 51.8228 17.8736 53.3832 19.2738 54.2045L25.0395 57.5717C26.6045 58.4751 28.4989 57.3254 28.4989 55.6007C28.4989 53.9581 27.5929 52.4798 26.1927 51.5764Z" fill="#445393"/>
<path d="M48.3495 63.3208L42.9133 60.1999C40.7717 59.0501 38.136 60.6105 38.136 62.3352L38.5478 61.7603C38.5478 63.4029 40.0304 65.1276 41.4307 66.031L46.2903 69.891C47.5259 70.8765 50.7382 69.7267 50.7382 67.345V67.1808C50.7382 65.5382 49.8321 64.142 48.3495 63.3208Z" fill="#1F2849"/>
<path d="M47.3611 63.9778L41.5954 60.6105C40.0304 59.7071 38.136 60.8569 38.136 62.5816C38.136 64.2242 39.042 65.7846 40.4423 66.6059L46.208 69.9731C47.773 70.8765 49.6674 69.7267 49.6674 68.002C49.6674 66.3595 48.7614 64.7991 47.3611 63.9778Z" fill="#445393"/>
<path d="M102.465 53.6295L104.689 55.6827C105.018 55.9291 105.348 56.1754 105.677 56.3397L106.419 56.6682C107.242 56.9967 107.901 57.5716 108.395 58.3108L109.796 60.364L112.678 57.818L110.207 55.1078C109.713 54.2044 109.137 53.2188 108.56 52.3154L105.76 47.9626C105.595 47.7163 105.265 47.6341 105.018 47.7984C104.854 47.8805 104.771 48.0448 104.771 48.1269C104.195 47.7163 103.618 47.552 103.206 47.7163C101.724 48.3733 104.524 52.9725 104.689 53.301C104.524 53.2188 103.618 52.5618 103.289 52.3976C102.877 52.1512 102.465 52.2333 102.218 52.3976C101.724 52.9725 102.135 53.4652 102.465 53.6295Z" fill="#FCBAC0"/>
<path d="M107.654 58.6393L114.491 68.3304C114.738 68.741 115.067 69.0695 115.479 69.4802L124.622 78.5142L131.294 73.7508C131.294 73.7508 127.834 71.5334 127.258 71.0406C124.457 68.5768 121.162 65.7023 120.586 65.2095C120.174 64.881 119.844 64.4704 119.433 64.0597L111.608 55.6827C110.043 55.5184 107.572 57.818 107.654 58.6393Z" fill="#B8C9F5"/>
<path d="M85.1678 46.5664L88.792 50.7549C89.5333 51.6583 90.357 52.5617 91.1806 53.3009L92.828 56.1753L97.8524 56.2575L95.0519 52.2332C94.4753 51.494 94.0635 50.5906 93.8988 49.6872L93.8164 48.8659C93.734 48.4553 93.6517 48.0447 93.4046 47.634L91.0983 45.2523C91.0983 45.2523 90.4393 44.6774 90.1922 44.9238C89.9451 45.1702 89.7804 45.4166 89.9451 45.9093C90.1099 46.32 91.0983 47.0591 91.0983 47.0591C91.0983 47.0591 86.8975 42.46 85.7444 43.8561C85.4149 44.2668 85.4149 44.8417 85.662 45.5808C85.4973 45.5808 85.4149 45.663 85.2502 45.7451C84.9207 45.9915 84.9207 46.32 85.1678 46.5664Z" fill="#FCBAC0"/>
<path d="M125.033 112.762L123.798 133.294C123.716 132.883 123.716 132.39 123.633 131.98L122.233 108.737L134.011 106.191C132.364 110.873 125.033 112.762 125.033 112.762Z" fill="#FCBAC0"/>
<path d="M134.918 162.12C135 163.27 134.011 164.256 132.858 164.173C132.117 164.173 131.458 163.763 130.964 163.27C130.058 162.367 128.987 161.627 127.916 160.888C127.504 160.642 127.175 160.396 126.928 160.231C126.516 159.903 126.187 159.574 125.939 159.328C125.033 158.26 125.033 157.275 125.033 157.275C125.033 157.193 125.033 157.11 125.116 157.028C125.198 156.7 125.445 156.371 125.775 156.207C126.022 156.043 126.269 155.961 126.516 155.961H126.928C127.175 155.961 127.34 155.961 127.587 155.961C128.246 155.961 129.234 156.453 129.811 156.782L127.916 149.473L133.6 146.68C133.929 150.458 134.176 153.825 134.259 155.961C134.341 157.11 134.423 158.26 134.588 159.41C134.67 159.903 134.753 160.478 134.835 160.97C134.835 161.053 134.835 161.135 134.835 161.217C134.835 161.381 134.835 161.463 134.835 161.545C134.918 161.792 134.918 161.956 134.918 162.12Z" fill="#FCBAC0"/>
<path d="M125.033 157.275C125.033 157.275 125.033 158.835 126.928 160.231C127.175 160.396 127.587 160.642 127.916 160.888C128.987 161.546 129.975 162.367 130.964 163.27C131.458 163.763 132.117 164.091 132.858 164.174C134.011 164.256 135.082 163.845 134.918 162.12C134.918 162.038 134.917 161.792 134.835 161.546C134.835 161.463 134.835 161.381 134.835 161.299C134.835 161.135 134.835 161.135 134.835 161.053C134.67 161.628 134.011 161.792 133.517 161.792C132.776 161.792 132.035 161.546 131.54 161.053C130.634 160.149 123.88 156.371 128.081 156.125L127.587 156.043C125.61 155.797 125.281 156.454 125.116 157.029C125.033 157.111 125.033 157.193 125.033 157.275Z" fill="#FF4A59"/>
<path d="M126.516 166.801C126.681 167.787 126.516 169.183 126.022 169.84C125.116 171.236 122.974 170.744 121.327 170.415L116.467 169.43C114.655 169.101 113.502 167.787 113.173 166.719C113.09 165.98 113.584 165.323 114.326 165.159L118.115 164.83C119.103 164.83 120.091 164.338 120.75 163.598C121.08 163.27 121.162 162.777 121.08 162.367C120.668 160.724 120.009 157.685 119.268 153.907L125.445 150.869C125.61 152.675 125.692 154.482 125.857 156.207C125.939 157.275 126.022 158.342 126.104 159.328C126.187 163.188 126.434 166.062 126.516 166.801Z" fill="#FCBAC0"/>
<path d="M134.011 106.191C132.364 110.873 125.033 112.762 125.033 112.762L123.798 133.294C123.716 132.883 123.716 132.39 123.633 131.98L122.233 108.737L134.011 106.191Z" fill="#FCBAC0"/>
<path d="M125.775 156.207C125.857 157.275 125.939 158.342 126.022 159.328C125.116 158.26 125.116 157.275 125.116 157.275C125.116 157.193 125.116 157.11 125.198 157.028C125.198 156.7 125.445 156.371 125.775 156.207Z" fill="#363B5B"/>
<path d="M134.012 106.191C135.824 101.017 132.282 93.2971 132.282 93.2971C132.282 93.2971 119.597 82.3741 113.749 94.6112C108.725 105.124 120.833 161.463 120.833 161.463C121.492 162.942 125.528 162.777 126.104 161.381C126.351 160.806 124.539 138.385 123.798 133.868V133.293C123.88 134.115 124.045 134.936 124.292 135.675L129.152 154.154C129.976 155.139 134.176 154.811 134.094 152.84C134.094 152.84 132.858 137.236 131.046 131.404L134.012 106.191Z" fill="#445393"/>
<path d="M114.326 165.241L116.714 165.077C115.726 165.323 115.396 166.226 116.385 166.883C117.456 167.623 126.434 168.937 126.516 166.883C126.516 167.294 126.598 167.623 126.598 167.787C126.681 168.526 126.516 169.347 126.104 169.922C125.198 171.4 123.057 170.826 121.409 170.497L116.55 169.512C114.737 169.183 113.584 167.869 113.255 166.801C113.09 165.98 113.584 165.323 114.326 165.241Z" fill="#FF4A59"/>
<path d="M117.044 56.586C116.056 60.7745 118.444 62.3349 121.409 62.3349C124.704 62.2528 127.834 59.8711 129.07 57.6536C130.964 54.2864 129.811 50.9191 127.01 49.3587C120.586 45.8272 117.456 55.1077 117.044 56.586Z" fill="#FCBAC0"/>
<path d="M124.375 57.5715L124.21 66.0307C124.21 66.4413 123.798 66.7698 123.139 67.0162C121.986 67.4268 120.339 67.2626 119.515 66.6877C119.185 66.4413 119.021 66.1949 119.021 65.8664L119.185 57.4072L124.375 57.5715Z" fill="#FCBAC0"/>
<path d="M116.385 66.6056C116.385 66.6056 117.044 65.3737 117.868 64.9631C118.691 64.6345 124.951 65.3737 124.951 64.3882C124.951 64.2239 124.375 63.9775 124.375 63.9775V63.1562C124.375 63.1562 125.363 63.5669 125.61 63.8133C126.187 64.306 126.599 65.538 125.775 66.4414C123.221 68.9873 116.385 66.6056 116.385 66.6056Z" fill="#E2E9FB"/>
<path d="M124.045 129.023L125.034 111.529L128.987 109.887L124.045 129.023Z" fill="#343C6B"/>
<path d="M130.799 89.0264C130.305 83.9344 132.199 69.4799 132.199 69.4799C132.282 65.6199 130.387 63.6489 127.504 63.5667C127.257 63.5667 127.01 63.5667 126.681 63.5667C126.022 63.6489 125.363 63.8131 124.704 64.0595C124.457 64.1416 122.562 63.074 122.315 63.2382L119.103 65.045L119.021 65.1272L117.209 66.1127C116.879 66.277 116.55 66.5233 116.22 66.6876C114.49 66.8518 112.843 66.3591 111.443 65.2914C108.478 63.074 105.018 60.4459 104.359 60.0352C103.947 59.7067 103.536 59.3782 103.124 58.9676L94.6399 51.2476C93.075 51.2476 90.7687 53.7935 90.9334 54.5327L98.5112 63.6489C98.8407 63.9774 99.1701 64.388 99.582 64.7165L110.29 73.8327C111.69 74.9825 112.267 76.8714 112.019 78.5961C111.525 79.3353 111.278 80.2387 111.278 81.2242C111.278 82.374 111.69 83.4417 112.349 84.3451C112.431 85.0021 112.596 85.577 112.678 86.234C114.161 93.2149 112.019 97.4034 112.019 97.4034C112.019 99.2102 133.764 99.1281 133.929 94.6932C133.929 94.6111 130.964 91.326 130.799 89.0264Z" fill="#E2E9FB"/>
<path d="M119.021 56.2572C118.032 56.75 117.456 57.6534 117.785 58.3104C118.115 58.9674 119.185 59.1317 120.174 58.6389C121.162 58.1462 121.739 57.2428 121.409 56.5857C121.08 55.9287 120.009 55.7645 119.021 56.2572Z" fill="#FCBAC0"/>
<path d="M36.2415 58.8858L34.0176 60.939C33.6881 61.1854 33.3586 61.4318 33.0291 61.596L32.2878 61.9245C31.4642 62.2531 30.8052 62.828 30.311 63.5671L28.8284 65.6203L25.9456 63.0743L28.4166 60.3641C28.9108 59.4607 29.4874 58.4752 30.0639 57.5718L32.8644 53.219C33.0291 52.9726 33.3586 52.8905 33.6057 53.0547C33.7704 53.1369 33.8528 53.3011 33.8528 53.3833C34.4294 52.9726 35.006 52.8084 35.4178 52.9726C36.9004 53.6296 34.0999 58.2288 33.9352 58.5573C34.0999 58.4752 35.006 57.8182 35.3354 57.6539C35.7473 57.4075 36.1591 57.4896 36.4062 57.6539C36.9828 58.2288 36.4886 58.7216 36.2415 58.8858Z" fill="#D4A181"/>
<path d="M30.97 63.8956L24.1335 73.5867C23.8864 73.9974 23.5569 74.3259 23.1451 74.7365L14.0023 83.7706L7.33057 79.0072C7.33057 79.0072 10.79 76.7897 11.3666 76.2969C14.1671 73.8331 17.4617 70.9586 18.0383 70.4659C18.4502 70.1374 18.7796 69.7267 19.1915 69.3161L27.0163 60.939C28.5813 60.7748 31.1347 63.0744 30.97 63.8956Z" fill="#B8C9F5"/>
<path d="M53.5386 51.7406L49.9144 55.9291C49.1731 56.8325 48.3494 57.7359 47.5258 58.4751L45.8784 61.3495L40.854 61.4317L43.6545 57.4895C44.2311 56.7504 44.6429 55.847 44.8076 54.9436L44.89 54.1223C44.9724 53.7117 45.0547 53.301 45.3018 52.8904L47.6081 50.5087C47.6081 50.5087 48.2671 49.9338 48.5142 50.1802C48.7613 50.4265 48.926 50.6729 48.7613 51.1657C48.5965 51.5763 47.6081 52.3155 47.6081 52.3155C47.6081 52.3155 51.8089 47.7163 52.962 49.1125C53.2915 49.5231 53.2915 50.098 53.0444 50.8372C53.2091 50.8372 53.2915 50.9193 53.4562 51.0014C53.7033 51.1657 53.7857 51.4942 53.5386 51.7406Z" fill="#D4A181"/>
<path d="M13.5906 118.018L14.8261 138.55C14.9085 138.139 14.9085 137.647 14.9908 137.236L16.3911 113.994L4.61255 111.448C6.34226 116.047 13.5906 118.018 13.5906 118.018Z" fill="#FCBAC0"/>
<path d="M3.70646 167.295C3.6241 168.444 4.61251 169.43 5.76565 169.348C6.50695 169.348 7.16589 168.937 7.6601 168.444C8.56614 167.541 9.63691 166.802 10.7077 166.063C11.1195 165.816 11.449 165.57 11.6961 165.406C12.1079 165.077 12.4374 164.749 12.6845 164.502C13.5905 163.435 13.5905 162.449 13.5905 162.449C13.5905 162.367 13.5905 162.285 13.5082 162.203C13.4258 161.874 13.1787 161.546 12.8492 161.381C12.6021 161.217 12.355 161.135 12.1079 161.135H11.6961C11.449 161.135 11.2843 161.135 11.0372 161.135C10.3782 161.135 9.38981 161.628 8.81324 161.956L10.7077 154.647L5.10671 153.826C4.94197 155.632 4.69487 156.864 4.61251 157.932C4.53014 159.082 4.44777 160.067 4.44777 161.135C4.3654 162.285 4.28304 163.435 4.1183 164.584C4.03593 165.077 3.95357 165.652 3.8712 166.145C3.8712 166.227 3.8712 166.309 3.8712 166.391C3.8712 166.556 3.8712 166.638 3.8712 166.72C3.70646 166.966 3.70646 167.213 3.70646 167.295Z" fill="#D4A181"/>
<path d="M13.6729 162.531C13.6729 162.531 13.6729 164.092 11.7784 165.488C11.5313 165.652 11.1195 165.898 10.79 166.145C9.71925 166.802 8.73084 167.623 7.74243 168.527C7.24823 169.019 6.58929 169.348 5.84799 169.43C4.69485 169.512 3.62407 169.101 3.7888 167.377C3.7888 167.295 3.7888 167.048 3.87117 166.802C3.87117 166.72 3.87117 166.638 3.87117 166.555C3.87117 166.391 3.87117 166.391 3.87117 166.309C4.03591 166.884 4.69485 167.048 5.18905 167.048C5.93035 167.048 6.67166 166.802 7.16586 166.309C8.0719 165.406 14.826 161.628 10.6253 161.381L11.1195 161.299C13.0963 161.053 13.4258 161.71 13.5905 162.285C13.5905 162.285 13.6729 162.449 13.6729 162.531Z" fill="#FF4A59"/>
<path d="M12.1079 171.976C11.9432 172.961 12.1079 174.358 12.6021 175.015C13.5082 176.411 15.6497 175.918 17.2971 175.589L22.1567 174.604C23.9688 174.275 25.122 172.961 25.4514 171.894C25.5338 171.155 25.0396 170.498 24.2983 170.333L20.5094 170.005C19.521 170.005 18.5326 169.512 17.8736 168.773C17.5442 168.444 17.4618 167.952 17.5442 167.541C17.956 165.898 18.1207 162.942 18.9444 159.082L13.2611 155.961C13.0963 157.768 13.014 159.575 12.8492 161.299C12.7669 162.367 12.6845 163.435 12.6021 164.42C12.4374 168.362 12.2727 171.319 12.1079 171.976Z" fill="#D4A181"/>
<path d="M4.69482 111.448C6.34217 116.129 13.6729 118.018 13.6729 118.018L14.9084 138.55C14.9907 138.139 14.9907 137.647 15.0731 137.236L16.4733 113.994L4.69482 111.448Z" fill="#FCBAC0"/>
<path d="M12.9317 161.381C12.8493 162.449 12.7669 163.517 12.6846 164.502C13.5906 163.435 13.5906 162.449 13.5906 162.449C13.5906 162.367 13.5906 162.285 13.5082 162.203C13.5082 161.874 13.2611 161.628 12.9317 161.381Z" fill="#363B5B"/>
<path d="M4.69481 111.448C2.88273 106.273 6.42452 98.5535 6.42452 98.5535C6.42452 98.5535 19.1091 87.6305 24.9572 99.8675C29.9816 110.38 17.8736 166.72 17.8736 166.72C17.2146 168.198 13.1786 168.034 12.6021 166.637C12.355 166.063 14.167 143.642 14.9084 139.125V138.55C14.826 139.371 14.6613 140.192 14.4141 140.931L9.55448 159.41C8.7308 160.396 4.53007 160.067 4.61244 158.096C4.61244 158.096 5.84795 142.492 7.66003 136.661L4.69481 111.448Z" fill="#445393"/>
<path d="M24.3807 170.415L21.9921 170.251C22.9805 170.497 23.3099 171.401 22.3215 172.058C21.2508 172.797 12.2727 174.111 12.1904 172.058C12.1904 172.468 12.108 172.797 12.108 172.961C12.0256 173.7 12.1904 174.522 12.6022 175.097C13.5082 176.575 15.6498 176 17.2971 175.671L22.1568 174.686C23.9689 174.357 25.122 173.043 25.4515 171.976C25.5339 171.237 25.0397 170.579 24.3807 170.415Z" fill="#FF4A59"/>
<path d="M21.5802 61.8423C22.5686 66.0308 20.1799 67.5913 17.2147 67.5913C13.92 67.5091 10.7901 65.1274 9.55457 62.91C7.66012 59.5427 8.81326 56.1755 11.6137 54.6151C18.1208 51.0836 21.2507 60.364 21.5802 61.8423Z" fill="#D4A181"/>
<path d="M14.3318 62.7458L14.4965 71.205C14.4965 71.6156 14.9084 71.9441 15.5673 72.1905C16.7204 72.6011 18.3678 72.4369 19.1915 71.862C19.5209 71.6156 19.6857 71.3692 19.6857 71.0407L19.5209 62.5815L14.3318 62.7458Z" fill="#FCBAC0"/>
<path d="M22.3216 71.862C22.3216 71.862 21.6626 70.63 20.839 70.2194C20.0153 69.8909 13.7554 70.63 13.7554 69.6445C13.7554 69.4803 14.332 69.2339 14.332 69.2339V68.4126C14.332 68.4126 13.3435 68.8232 13.0964 69.0696C12.5199 69.5624 12.108 70.7943 12.9317 71.6977C15.4027 74.1615 22.3216 71.862 22.3216 71.862Z" fill="#343C6B"/>
<path d="M14.6613 134.197L13.5905 116.786L9.71924 115.061L14.6613 134.197Z" fill="#343C6B"/>
<path d="M7.9073 94.2827C8.40151 89.1908 6.50706 74.7363 6.50706 74.7363C6.42469 70.8763 8.31914 68.9052 11.202 68.8231C11.4491 68.8231 11.6962 68.8231 12.0257 68.8231C12.6846 68.9052 13.3435 69.0695 14.0025 69.3159C14.2496 69.398 16.144 68.3303 16.3911 68.4946L19.6035 70.3014L19.6858 70.3835L21.4979 71.369C21.8274 71.5333 22.1568 71.7797 22.4863 71.9439C24.216 72.1082 25.8634 71.6154 27.2636 70.5478C30.2288 68.3303 33.6883 65.7022 34.3472 65.2916C34.759 64.9631 35.1709 64.6346 35.5827 64.2239L44.0665 56.5039C45.6315 56.5039 47.9378 59.0499 47.7731 59.789L40.1953 68.9052C39.8658 69.2337 39.5363 69.6444 39.1245 69.9729L28.4168 79.0891C27.0165 80.2389 26.4399 82.1278 26.687 83.8525C27.1813 84.5916 27.4284 85.495 27.4284 86.4806C27.4284 87.6304 27.0165 88.698 26.3576 89.6014C26.2752 90.2585 26.1105 90.8334 26.0281 91.4904C24.5455 98.4712 26.687 102.66 26.687 102.66C26.687 104.467 4.94208 104.384 4.77734 99.9495C4.77734 99.7853 7.74257 96.5002 7.9073 94.2827Z" fill="#E2E9FB"/>
<path d="M16.6381 50.755C13.2611 49.1124 4.77725 51.5763 1.72966 58.3929C1.56492 58.7214 1.48256 59.132 1.23545 59.4605C0.329414 60.8567 -0.16479 62.7456 -0.0824226 64.7988C0.164679 66.5235 0.74125 68.1661 1.64729 69.4801C2.05913 70.1371 2.14149 70.8763 1.97676 71.6154C1.81203 72.1903 1.81203 72.9295 1.81203 73.5865C2.05913 76.461 3.87121 78.8427 6.09512 79.3355C6.34223 79.4176 6.6717 79.4176 6.9188 79.4176C7.24827 79.4176 7.57774 79.4176 7.82484 79.3355C8.56614 81.2244 9.96639 82.7027 11.6961 83.1133C11.9432 83.1955 12.2727 83.1955 12.5198 83.1955C14.6613 83.1955 16.3087 81.3887 16.7205 78.9248C16.8029 78.9248 16.8852 78.9248 16.9676 78.9248C20.5094 78.9248 23.0628 75.3933 22.7333 71.0406C22.4862 68.1661 21.1683 65.7022 19.1915 64.3061C18.8621 64.0597 18.5326 63.8954 18.2031 63.7312C18.615 62.2529 18.7797 60.7746 18.615 59.2963C18.5326 58.6392 18.6973 58.0644 19.0268 57.4895C19.1092 57.4073 19.1092 57.2431 19.1915 57.1609C20.3447 54.9435 19.1915 51.9869 16.6381 50.755Z" fill="#FFB1DF"/>
<path d="M19.6858 61.5137C20.6742 62.0065 21.2508 62.9099 20.9213 63.5669C20.5919 64.2239 19.5211 64.3882 18.5327 63.8954C17.5443 63.4027 16.9677 62.4993 17.2972 61.8422C17.6266 61.1031 18.6974 61.021 19.6858 61.5137Z" fill="#D4A181"/>
<path d="M128.474 60.2319C131.532 58.4712 132.463 54.3691 130.552 51.0696C128.642 47.7701 124.614 46.5226 121.555 48.2833C118.497 50.0439 117.566 54.146 119.477 57.4455C121.388 60.745 125.416 61.9925 128.474 60.2319Z" fill="#9571AF"/>
<path d="M129.996 64.8872C132.168 64.8872 133.929 63.1314 133.929 60.9656C133.929 58.7997 132.168 57.0439 129.996 57.0439C127.824 57.0439 126.063 58.7997 126.063 60.9656C126.063 63.1314 127.824 64.8872 129.996 64.8872Z" fill="#9571AF"/>
</g>
<defs>
<clipPath id="clip0">
<rect width="135" height="176" fill="white"/>
</clipPath>
</defs>
</svg>
