<svg width="558" height="405" viewBox="0 0 558 405" fill="none" xmlns="http://www.w3.org/2000/svg">
<path d="M159.769 307.933C154.225 311.149 154.225 325.619 159.829 328.835L267.733 390.708C270.296 392.196 273.456 392.196 276.019 390.708L383.923 328.835C389.527 325.619 389.527 311.149 383.983 307.933" fill="#2B917D"/>
<path d="M159.769 322.285L267.673 384.157C270.237 385.646 273.396 385.646 275.96 384.157L383.864 322.285C389.467 319.069 389.467 311.03 383.864 307.814L276.019 245.465C273.456 243.976 270.237 243.976 267.673 245.465L159.769 307.814C154.225 311.03 154.225 319.069 159.769 322.285Z" fill="#2DDD7D"/>
<path d="M330.09 286.555L320.79 281.195C320.075 280.779 319.24 280.779 318.525 281.195C317.988 281.493 317.988 282.267 318.525 282.625L327.885 288.044C328.54 288.401 329.375 288.401 330.031 288.044C330.627 287.686 330.627 286.912 330.09 286.555Z" fill="#2B917D"/>
<path d="M272.085 337.291C248.417 337.291 229.937 327.406 229.937 314.841C229.937 302.216 248.477 292.391 272.085 292.391C295.692 292.391 314.233 302.276 314.233 314.841C314.233 327.466 295.692 337.291 272.085 337.291ZM272.085 292.986C248.775 292.986 230.533 302.574 230.533 314.841C230.533 327.108 248.775 336.696 272.085 336.696C295.394 336.696 313.637 327.108 313.637 314.841C313.577 302.633 295.335 292.986 272.085 292.986Z" fill="black" fill-opacity="0.1"/>
<path d="M272.085 333.837C293.156 333.837 310.238 325.332 310.238 314.841C310.238 304.349 293.156 295.844 272.085 295.844C251.013 295.844 233.931 304.349 233.931 314.841C233.931 325.332 251.013 333.837 272.085 333.837Z" fill="black" fill-opacity="0.1"/>
<path d="M265.765 270.357C265.229 271.965 263.798 272.918 262.606 272.561C261.413 272.204 260.877 270.536 261.473 268.928C262.01 267.32 264.096 264.343 265.288 264.76C266.481 265.177 266.302 268.75 265.765 270.357Z" fill="#D4A181"/>
<path d="M262.367 266.129C262.129 267.856 265.646 268.987 266.362 267.677C266.362 267.677 271.31 256.72 272.502 254.219L272.562 254.159C274.052 251.48 276.377 242.964 276.377 242.964L269.283 240.165L262.367 266.129Z" fill="#8799A2"/>
<path d="M288.3 314.841C287.763 313.174 286.452 312.102 285.379 312.4C284.306 312.757 284.127 314.305 284.306 316.032C284.365 316.39 284.544 316.628 284.663 316.926C284.962 317.461 285.14 318.116 285.14 318.772C285.14 319.248 285.2 319.784 285.379 320.32C285.737 321.451 286.869 322.225 287.704 322.642C288.419 323 289.254 322.702 289.612 321.987C290.088 320.975 290.327 319.486 289.671 318.295C289.373 317.819 288.419 315.139 288.3 314.841Z" fill="#4E7771"/>
<path d="M275.244 313.948C274.946 314.126 274.589 314.603 274.29 314.901C273.635 315.556 272.74 315.973 271.787 316.33C270.535 316.806 269.462 316.866 268.746 316.687C268.031 316.508 267.733 315.675 268.15 315.079C268.567 314.484 269.283 313.71 270.296 312.816C270.892 312.34 271.429 311.864 271.846 311.506C272.442 310.97 272.86 310.256 272.919 309.482C272.979 309.065 273.038 308.648 273.098 308.648C274.648 308.052 276.854 308.41 277.271 309.124C277.271 309.124 277.689 311.447 277.689 311.983C277.689 312.34 277.569 312.935 276.914 313.233C276.496 313.293 275.84 313.471 275.244 313.948Z" fill="#4E7771"/>
<path d="M289.254 272.263C289.254 286.972 289.313 302.931 288.479 313.948C288.419 315.139 284.246 315.556 284.067 314.126C281.742 296.5 280.609 276.312 280.609 276.312C280.55 275.776 280.252 275.3 279.775 275.002L279.477 274.823C278.583 274.347 278.463 274.942 278.463 275.955L278.821 287.388C278.821 287.388 278.881 302.812 277.629 309.541C277.45 310.613 272.919 310.613 272.8 309.362C271.548 297.035 271.429 269.464 271.429 269.464L271.608 263.628C271.608 263.39 272.919 263.33 274.827 263.39C277.152 263.449 280.311 263.628 283.113 263.806C286.392 263.985 289.134 264.223 289.134 264.223C289.194 266.427 289.254 267.975 289.254 272.263Z" fill="#E2E9FB"/>
<path d="M272.8 266.725C272.323 267.082 271.906 267.32 271.369 267.439L271.488 261.603C271.488 261.365 272.8 261.306 274.708 261.365C275.006 263.509 274.35 265.534 272.8 266.725Z" fill="#323858"/>
<path d="M279.954 275.121L278.225 274.228C277.808 273.99 277.271 274.347 277.45 275.419L278.702 289.83L279.954 275.121Z" fill="#B8C9F5"/>
<path d="M289.373 263.271C289.552 264.462 289.671 265.653 289.612 265.891C288.36 269.821 273.277 269.285 270.952 266.427L271.369 259.578C271.548 257.613 271.429 255.589 271.071 253.683L268.985 242.071C268.627 238.319 271.667 235.401 274.469 235.401C275.065 235.401 275.662 235.52 276.258 235.699C276.496 235.758 278.046 234.686 278.285 234.746L280.431 235.758L282.935 236.89C282.994 236.949 283.054 236.949 283.113 237.009C283.352 237.128 283.59 237.247 283.829 237.366C286.929 238.855 289.91 240.641 290.208 244.095C288.956 247.49 288.3 251.063 288.3 254.636C288.3 255.886 288.36 257.137 288.538 258.447L288.598 259.042L288.777 260.233C288.896 260.174 289.135 261.782 289.373 263.271Z" fill="#98AAB4"/>
<path d="M289.373 263.271C288.181 263.628 286.869 263.926 285.439 264.164C281.802 264.819 278.583 264.819 276.019 264.64L284.246 259.579H279.954C282.1 255.231 282.279 254.755 282.279 254.755C283.054 253.028 283.829 250.348 283.948 246.656L286.035 258.507L287.704 257.494L288.717 258.983L288.896 260.174C288.896 260.174 289.135 261.782 289.373 263.271Z" fill="#8799A2"/>
<path d="M283.173 236.949C283.114 236.949 283.054 236.89 282.994 236.83L281.265 236.056L280.61 228.851L275.721 229.327L276.377 236.175C276.377 236.175 276.079 236.294 275.96 236.354C275.006 236.83 274.469 237.485 274.469 238.081C274.469 238.676 274.946 239.093 275.363 239.331C276.317 239.927 277.808 240.225 279.298 240.046C280.312 239.927 281.206 239.689 281.981 239.272C282.935 238.795 283.471 238.14 283.471 237.545C283.471 237.426 283.352 237.188 283.173 236.949Z" fill="#D4A181"/>
<path d="M275.781 230.28L276.317 235.937C276.377 236.533 277.629 236.771 278.523 236.295C279.954 235.521 281.086 234.27 280.967 233.019L280.669 229.863L275.781 230.28Z" fill="#D4A181"/>
<path d="M272.8 232.364C273.933 236.294 276.615 236.473 279.059 235.044C280.669 234.091 282.04 232.721 282.219 230.935C282.338 229.744 283.113 228.612 283.113 227.66C283.054 223.968 280.55 221.824 277.509 221.824C270.594 221.943 272.383 231.054 272.8 232.364Z" fill="#D4A181"/>
<path d="M284.127 224.385C283.531 221.288 279.596 218.727 275.304 220.276C273.039 221.109 271.012 221.645 270.833 223.432C270.594 225.754 272.442 226.945 272.442 226.945L272.502 226.647C272.562 226.111 273.039 225.754 273.575 225.754C274.708 225.754 276.317 225.516 277.569 225.992C278.165 226.231 278.821 226.052 279.298 225.635L280.252 224.801L279.298 226.111C279 226.469 279 227.005 279.239 227.362C279.298 227.422 279.298 227.541 279.358 227.66C279.477 227.898 279.537 228.196 279.596 228.493C279.715 229.089 280.312 229.446 280.848 229.208C281.206 229.089 281.504 228.91 281.623 228.672C281.981 228.136 282.577 228.017 282.637 228.374C282.875 229.327 282.935 229.804 282.875 230.042C283.292 229.684 283.71 229.089 284.008 228.196C284.306 227.243 284.425 226.052 284.127 224.385Z" fill="#915B3C"/>
<path d="M280.729 228.91C280.192 229.863 280.252 230.875 280.848 231.233C281.444 231.59 282.398 231.114 282.935 230.161C283.471 229.208 283.412 228.196 282.815 227.838C282.16 227.481 281.265 227.957 280.729 228.91Z" fill="#D4A181"/>
<path d="M272.263 251.896C270.952 251.361 269.461 252.016 268.925 253.326L245.377 312.28C244.96 313.352 245.079 314.424 245.615 315.317L245.317 316.151C245.019 316.985 245.198 317.878 245.794 318.474L244.96 320.498C244.84 320.856 244.9 321.213 245.138 321.391C245.198 321.451 245.317 321.511 245.436 321.57C245.854 321.749 246.39 321.511 246.569 321.094L247.344 319.129C248.238 319.129 249.073 318.593 249.431 317.759L249.729 316.985C250.742 316.687 251.636 315.972 252.054 314.9L275.661 256.005C276.198 254.695 275.542 253.207 274.231 252.671L272.263 251.896Z" fill="#2B917D"/>
<path d="M266.54 264.819C266.838 265.117 269.342 266.129 270.117 266.129C271.667 266.129 273.098 265.533 273.515 265.355C274.588 264.997 276.377 264.402 278.344 263.806L277.271 260.293C276.079 261.008 274.767 261.603 273.575 261.96C273.277 262.079 273.038 262.139 272.86 262.139C271.25 262.318 268.448 259.876 268.031 261.424C267.971 261.424 264.752 262.973 266.54 264.819Z" fill="#D4A181"/>
<path d="M273.515 261.96C274.41 262.258 274.946 264.521 274.41 265.295C274.41 265.295 285.498 263.271 288.36 260.055C289.731 258.507 290.565 249.634 290.267 244.036C290.267 244.036 289.015 241.654 287.287 241.654C285.796 241.654 284.485 242.785 284.365 244.334C284.067 247.728 284.008 255.231 283.59 256.541C283.412 257.315 273.515 261.96 273.515 261.96Z" fill="#90A4AE"/>
<path d="M4.17297 219.204C-1.37126 222.419 -1.37126 236.89 4.23258 240.106L112.136 301.978C114.7 303.467 117.86 303.467 120.423 301.978L228.327 240.106C233.931 236.89 233.931 222.419 228.386 219.204" fill="#C56BC5"/>
<path d="M4.17307 233.555L112.077 295.428C114.64 296.917 117.8 296.917 120.363 295.428L228.267 233.555C233.871 230.34 233.871 222.3 228.267 219.085L120.423 156.736C117.86 155.247 114.64 155.247 112.077 156.736L4.17307 219.085C-1.37116 222.3 -1.37116 230.34 4.17307 233.555Z" fill="#FFB1DF"/>
<path d="M174.494 197.825L165.194 192.466C164.479 192.049 163.644 192.049 162.929 192.466C162.392 192.764 162.392 193.538 162.929 193.895L172.289 199.314C172.944 199.671 173.779 199.671 174.435 199.314C175.031 198.957 175.031 198.183 174.494 197.825Z" fill="#C56BC5"/>
<path opacity="0.3" d="M116.488 248.562C92.8211 248.562 74.3403 238.677 74.3403 226.112C74.3403 213.487 92.8807 203.661 116.488 203.661C140.096 203.661 158.636 213.546 158.636 226.112C158.636 238.736 140.096 248.562 116.488 248.562ZM116.488 204.257C93.1788 204.257 74.9365 213.844 74.9365 226.112C74.9365 238.379 93.1788 247.966 116.488 247.966C139.798 247.966 158.04 238.379 158.04 226.112C157.981 213.904 139.738 204.257 116.488 204.257Z" fill="#C56BC5"/>
<path opacity="0.3" d="M116.488 245.108C137.56 245.108 154.642 236.603 154.642 226.112C154.642 215.62 137.56 207.115 116.488 207.115C95.4165 207.115 78.3345 215.62 78.3345 226.112C78.3345 236.603 95.4165 245.108 116.488 245.108Z" fill="#C56BC5"/>
<path d="M321.327 214.439C315.783 217.655 315.783 232.126 321.387 235.342L429.291 297.214C431.854 298.703 435.014 298.703 437.577 297.214L545.481 235.342C551.085 232.126 551.085 217.655 545.541 214.439" fill="#F8BE50"/>
<path d="M321.327 228.791L429.231 290.664C431.795 292.152 434.954 292.152 437.518 290.664L545.422 228.791C551.025 225.575 551.025 217.536 545.422 214.32L437.577 151.972C435.014 150.483 431.795 150.483 429.231 151.972L321.327 214.32C315.783 217.536 315.783 225.575 321.327 228.791Z" fill="#F8D483"/>
<path d="M491.648 193.061L482.348 187.701C481.633 187.284 480.798 187.284 480.083 187.701C479.546 187.999 479.546 188.773 480.083 189.13L489.442 194.55C490.098 194.907 490.933 194.907 491.589 194.55C492.185 194.192 492.185 193.418 491.648 193.061Z" fill="#F8BE50"/>
<path opacity="0.5" d="M433.642 243.798C409.975 243.798 391.494 233.912 391.494 221.347C391.494 208.723 410.035 198.897 433.642 198.897C457.25 198.897 475.791 208.782 475.791 221.347C475.791 233.972 457.25 243.798 433.642 243.798ZM433.642 199.492C410.333 199.492 392.091 209.08 392.091 221.347C392.091 233.615 410.333 243.202 433.642 243.202C456.952 243.202 475.194 233.615 475.194 221.347C475.135 209.14 456.893 199.492 433.642 199.492Z" fill="#F8BE50"/>
<path opacity="0.5" d="M433.643 240.344C454.714 240.344 471.796 231.839 471.796 221.347C471.796 210.856 454.714 202.351 433.643 202.351C412.571 202.351 395.489 210.856 395.489 221.347C395.489 231.839 412.571 240.344 433.643 240.344Z" fill="#F8C208"/>
<path d="M393.998 139.109L394.058 96.2926H327.825L281.981 69.7928C279.417 68.3041 276.198 68.3041 273.635 69.7928L227.85 96.2926H161.617V139.109C161.498 142.027 162.869 145.005 165.79 146.672L273.694 208.545C276.258 210.033 279.417 210.033 281.981 208.545L389.885 146.672C391.852 145.541 393.163 143.754 393.7 141.848V141.789C393.938 140.836 394.058 140.002 393.998 139.109Z" fill="#2B499C"/>
<path d="M165.731 103.736L273.635 165.609C276.198 167.098 279.358 167.098 281.921 165.609L389.825 103.736C395.429 100.521 395.429 92.4815 389.825 89.2658L281.981 26.9169C279.417 25.4281 276.198 25.4281 273.635 26.9169L165.731 89.2658C160.186 92.4815 160.186 100.521 165.731 103.736Z" fill="#2DDDF0"/>
<path d="M336.052 68.0061L326.752 62.6466C326.037 62.2298 325.202 62.2298 324.487 62.6466C323.95 62.9444 323.95 63.7185 324.487 64.0758L333.846 69.4949C334.502 69.8522 335.337 69.8522 335.992 69.4949C336.588 69.1376 336.588 68.3634 336.052 68.0061Z" fill="#343C6B"/>
<path d="M278.046 118.743C254.379 118.743 235.898 108.858 235.898 96.2927C235.898 83.668 254.438 73.8423 278.046 73.8423C301.654 73.8423 320.194 83.7276 320.194 96.2927C320.194 108.917 301.654 118.743 278.046 118.743ZM278.046 74.4378C254.736 74.4378 236.494 84.0254 236.494 96.2927C236.494 108.56 254.736 118.148 278.046 118.148C301.356 118.148 319.598 108.56 319.598 96.2927C319.538 84.0849 301.296 74.4378 278.046 74.4378Z" fill="black" fill-opacity="0.1"/>
<path d="M278.046 115.289C299.118 115.289 316.2 106.784 316.2 96.2924C316.2 85.8009 299.118 77.2959 278.046 77.2959C256.974 77.2959 239.892 85.8009 239.892 96.2924C239.892 106.784 256.974 115.289 278.046 115.289Z" fill="black" fill-opacity="0.1"/>
<path d="M274.887 38.2907C292.831 38.2907 307.317 45.4963 307.317 54.4288V29.1796C307.317 20.2471 292.771 13.0415 274.887 13.0415C256.942 13.0415 242.456 20.2471 242.456 29.1796V54.3693C242.456 45.4963 257.002 38.2907 274.887 38.2907Z" fill="#C1F0FF"/>
<path d="M268.806 10.7193C269.998 7.62271 272.86 6.07441 275.185 7.20586C275.423 7.32496 275.662 7.50361 275.9 7.68226C277.033 8.63506 277.689 10.1834 277.748 11.9103C278.166 11.553 278.702 11.3148 279.239 11.2553C279.298 11.2553 279.358 11.2553 279.418 11.2553C279.418 11.1362 279.477 11.0766 279.477 10.9575C279.656 10.3025 279.894 9.70696 280.252 9.17101C279.537 8.51596 279 7.68226 278.702 6.66991C278.046 4.40701 279 2.26321 280.789 1.90591C280.967 1.84636 279.954 0.893555 279.954 0.893555C281.742 1.13175 284.723 3.39466 285.319 5.41936C285.558 6.25306 285.617 7.08676 285.439 7.80136C286.929 8.93281 287.704 11.3744 287.108 13.7564C286.81 14.8283 286.333 15.7811 285.617 16.4361C286.452 19.5327 285.141 22.4507 282.637 22.8675C281.742 23.0462 280.789 22.8675 279.954 22.4507C278.344 21.6765 276.914 20.0091 276.317 17.9249C276.198 17.5676 276.139 17.2698 276.079 16.9125C274.648 18.699 272.562 19.3541 270.833 18.4608C269.998 18.044 269.402 17.3294 268.985 16.4957C268.15 14.8878 268.031 12.6845 268.806 10.7193Z" fill="#101030"/>
<path d="M268.985 95.9354C268.687 96.2927 268.031 96.8882 268.448 97.3051C269.521 98.4365 271.429 98.1388 274.529 95.8759C274.887 95.5781 275.483 95.6972 276.079 95.3399C276.616 95.0422 277.033 94.6253 277.212 94.0894C277.391 93.5534 277.271 93.2557 277.271 93.2557C277.271 93.077 277.152 92.8388 277.033 92.4815C276.973 92.422 276.973 92.3029 276.973 92.2433C276.735 91.4096 276.735 90.2782 276.735 90.2782C276.735 90.2782 276.675 71.9368 275.006 64.9099L276.496 49.7246L267.494 48.2358L268.687 65.1481C268.687 65.1481 273.575 89.504 273.635 90.8141C273.754 92.3624 271.429 94.0298 270.058 95.1017C269.521 95.459 269.104 95.7568 268.985 95.9354Z" fill="#B28B67"/>
<path d="M283.352 50.5579L281.146 66.2196L281.265 68.7803C283.769 76.7004 282.935 88.0149 282.875 93.4935C282.875 95.6969 284.067 97.007 284.067 100.104C284.067 101.711 283.352 103.438 281.385 103.379C279.358 103.319 279.656 98.198 280.192 95.1609C280.252 94.7441 280.252 94.3868 280.192 93.9699L275.602 71.6387L274.708 69.9117C274.469 69.3162 274.41 68.7207 274.41 68.1252V50.0815L283.352 50.5579Z" fill="#B5906D"/>
<path d="M279.894 97.8412C279.894 97.8412 279.715 100.283 281.921 100.283C283.59 100.283 283.948 99.0322 283.829 97.603C284.365 99.1513 284.067 101.236 283.888 101.712C283.531 102.843 282.756 103.498 281.325 103.439C280.729 103.439 280.312 103.26 280.073 102.427C279.656 101.295 279.656 99.5682 279.894 97.8412Z" fill="#343C6B"/>
<path d="M268.448 97.3054C269.521 98.4368 271.429 98.1391 274.529 95.8762C274.887 95.5784 275.483 95.6976 276.079 95.3403C276.616 95.0425 277.033 94.6257 277.212 94.0897C277.391 93.5538 277.271 93.256 277.271 93.256C277.271 93.0774 277.152 92.8392 277.033 92.4819C276.973 92.4223 276.973 92.3032 276.973 92.2437C276.735 93.6728 271.608 96.3526 270.654 96.3526C269.76 96.3526 269.581 95.6975 270.058 95.102C269.521 95.4593 269.164 95.7571 268.985 95.8762C268.687 96.2335 268.031 96.8885 268.448 97.3054Z" fill="#343C6B"/>
<path d="M271.191 19.8897L268.21 19.2942C267.793 19.2347 267.435 19.4729 267.375 19.8897C267.077 21.4976 266.004 28.8818 265.706 30.7278C265.646 31.1447 265.289 31.502 264.871 31.5615C262.844 31.9188 258.612 33.7649 256.346 33.0503C255.81 32.8716 255.273 32.5739 254.737 32.4548C254.737 32.4548 253.425 32.0975 252.948 32.2761C252.591 32.3952 252.292 32.5739 252.054 32.8716C251.935 33.0503 251.875 33.1694 251.875 33.1694C251.339 33.2289 249.55 32.6334 249.431 32.9312C249.014 33.884 253.187 34.8963 253.187 34.8963C253.187 34.8963 252.293 35.0154 251.994 35.075C251.637 35.1345 251.398 35.3727 251.339 35.5514C251.279 35.9682 251.816 36.0873 252.054 36.0873L254.2 36.1469C254.498 36.1469 254.796 36.0873 255.035 36.0278L255.571 35.8491C255.869 35.73 256.525 35.6109 257.36 35.5514C257.36 35.5514 266.898 36.2064 268.985 34.5986C270.058 33.7649 271.787 20.783 271.787 20.783C271.846 20.3661 271.608 19.9493 271.191 19.8897Z" fill="#B28B67"/>
<path d="M261.712 32.217C261.712 33.6462 263.202 35.3136 262.725 36.0877C262.725 36.0877 268.389 36.0282 269.402 35.0754C270.475 34.1226 271.846 24.8327 272.383 20.8429C272.442 20.5451 272.383 20.1878 272.204 19.8901C272.025 19.5923 271.667 19.3541 271.31 19.2946C271.31 19.2946 267.435 17.8654 267.375 18.5204C267.077 20.1878 265.348 29.0013 265.11 30.7282C265.11 30.9069 264.991 30.9664 264.812 31.026C264.156 31.2642 261.712 32.217 261.712 32.217Z" fill="#3E5AFF"/>
<path d="M266.898 42.8168C267.077 49.7842 268.21 65.7436 268.21 65.7436C268.866 69.0188 277.152 69.5548 280.491 68.3042C280.61 68.2447 280.729 68.1851 280.848 68.1851C281.385 67.9469 281.802 67.5896 281.862 67.2323L283.412 52.9999C285.319 46.628 284.842 44.1269 282.875 40.0775C282.875 40.0775 282.756 39.8393 282.577 39.5416L281.862 39.4225C281.802 39.4225 268.329 36.8618 268.329 36.8618C267.375 38.6483 266.839 40.7326 266.898 42.8168Z" fill="#343C6B"/>
<path d="M268.925 33.7648C268.985 34.0625 268.985 34.3603 268.925 34.658C268.865 35.4322 267.912 36.1468 268.329 36.8018C270.773 40.4939 276.198 40.4939 279.596 40.0771C281.325 39.8389 282.577 39.5411 282.577 39.5411C281.981 38.4097 281.623 37.1591 281.623 35.9086C281.623 35.3726 281.683 34.8367 281.742 34.3603C281.802 34.1816 281.802 34.003 281.862 33.7648C281.921 33.5265 281.981 33.2883 282.1 33.0501L283.114 30.549L285.081 23.8199C285.081 20.6637 283.471 19.2941 280.848 17.6862C280.55 17.5076 280.312 17.3289 280.014 17.1503L275.9 14.7683C275.721 14.6492 274.171 15.5424 273.933 15.4233C273.456 15.2447 272.979 15.066 272.442 15.0065C269.879 14.6492 267.256 16.1975 267.256 19.7109L267.494 21.4974C267.614 22.5098 267.554 23.5221 267.196 24.4154C267.017 24.8918 266.898 25.3682 266.898 25.9041C266.898 27.2142 267.494 28.3457 268.389 29.1198L268.806 32.5142L268.925 33.7648Z" fill="#5278FF"/>
<path d="M279.298 34.599C279.239 36.5641 279.537 38.4102 279.596 40.0776C281.325 39.8394 282.577 39.5416 282.577 39.5416C281.981 38.4102 281.623 37.1596 281.623 35.9091C281.623 35.3731 281.683 34.8372 281.743 34.3608L279.954 25.4878C280.014 28.4057 279.418 31.2642 279.298 34.599Z" fill="#3E5AFF"/>
<path d="M272.86 16.9123C272.323 18.0438 272.681 21.7954 272.681 21.7954C272.681 21.7954 277.748 19.9494 279.298 18.4011C279.835 17.8651 279.716 16.9123 279 16.4955L276.019 14.7685C275.721 14.709 275.304 14.6494 275.006 14.6494C273.754 15.0067 273.277 15.9595 272.86 16.9123Z" fill="#B28B67"/>
<path d="M273.933 9.52832V16.9125C273.933 17.2698 274.231 17.5676 274.827 17.8058C275.841 18.1631 277.272 18.1035 277.987 17.5676C278.285 17.3889 278.464 17.1507 278.464 16.9125V9.52832H273.933V9.52832Z" fill="#B28B67"/>
<path d="M273.933 9.82617V14.9475C273.933 15.8407 274.887 16.4362 275.662 16.0789C276.556 15.6621 277.331 15.007 277.987 14.2924C278.345 13.8756 278.524 13.3992 278.524 12.8632V9.82617H273.933Z" fill="#B28B67"/>
<path d="M271.072 11.9102C271.787 15.6023 274.291 15.9596 276.616 14.8877C279.179 13.6372 280.789 10.6001 280.968 8.39679C281.206 5.00243 279.06 2.79908 276.258 2.62043C269.879 2.08448 270.833 10.6001 271.072 11.9102Z" fill="#B28B67"/>
<path d="M281.683 1.84627C280.193 0.476614 277.629 0.297963 275.602 0.0597632C273.158 -0.237987 271.012 1.54852 270.893 4.04962C270.833 5.35972 270.833 6.72937 270.952 7.68217C270.952 7.68217 271.131 6.43162 271.548 5.41927C271.548 5.41927 271.906 5.89567 273.516 6.13387C274.589 6.31252 275.483 6.13387 276.377 6.13387C277.391 6.13387 278.285 6.84847 278.523 7.86082C278.702 8.57542 278.822 9.52822 278.702 10.3619C278.702 10.3619 279 9.82597 279.418 9.34957C279.775 8.93272 280.848 8.69452 280.908 8.99227C281.147 9.82597 278.762 13.2799 278.762 13.2799C283.65 11.3147 284.127 3.99007 281.683 1.84627Z" fill="#101030"/>
<path d="M279.06 9.58795C278.464 10.3621 278.344 11.3149 278.821 11.6722C279.298 12.0891 280.193 11.7913 280.848 11.0172C281.444 10.243 281.564 9.2902 281.087 8.9329C280.55 8.51605 279.656 8.8138 279.06 9.58795Z" fill="#B28B67"/>
<path d="M280.61 54.9651L280.967 52.8213C281.027 52.5235 281.146 52.2258 281.266 51.9876L281.564 51.4516C281.862 50.9157 282.041 50.2606 281.981 49.6056L281.385 37.5764C281.385 37.1 281.325 36.6236 281.266 36.1472C280.967 34.063 280.192 27.7507 280.014 26.0237C279.954 25.6069 280.312 25.19 280.729 25.19L284.067 24.9518C284.485 24.8923 284.902 25.2496 284.902 25.6664L285.498 36.3854C285.498 36.7427 285.498 37.1596 285.498 37.5169L284.544 50.6179C284.664 51.3921 284.783 52.1662 284.783 52.9999L285.081 56.7516C285.081 56.9302 284.962 57.1684 284.723 57.1684C284.604 57.1684 284.485 57.1684 284.425 57.1089C284.246 57.5853 284.008 57.9426 283.65 58.0021C282.458 58.2999 282.041 54.0718 282.041 54.0718C282.041 54.0718 281.742 54.9651 281.623 55.2628C281.504 55.6201 281.206 55.7392 281.027 55.7392C280.431 55.7392 280.491 55.2033 280.61 54.9651Z" fill="#B28B67"/>
<path d="M285.141 23.2247L285.26 25.0112L286.095 36.4448C286.095 36.8617 286.095 37.2785 286.095 37.6358L285.498 43.0549C285.379 44.2459 282.518 43.6504 281.325 43.3526L280.789 37.6358C280.789 37.219 280.729 36.7426 280.729 36.3257C280.61 35.2538 278.583 20.6045 278.583 20.6045L285.141 23.2247Z" fill="#5278FF"/>
<path d="M275.125 44.0077C257.181 44.0077 242.694 36.8021 242.694 27.8696V53.0593C242.694 61.9918 257.24 69.1974 275.125 69.1974C293.069 69.1974 307.556 61.9918 307.556 53.0593V27.8696C307.615 36.8021 293.069 44.0077 275.125 44.0077Z" fill="#CAF2FF"/>
<path d="M107.785 226.41C108.321 224.743 109.633 223.671 110.706 223.969C111.779 224.326 111.958 225.874 111.779 227.601C111.719 227.958 111.54 228.197 111.421 228.494C111.123 229.03 110.944 229.685 110.944 230.34C110.944 230.817 110.884 231.353 110.706 231.889C110.348 233.02 109.215 233.794 108.381 234.211C107.665 234.568 106.831 234.271 106.473 233.556C105.996 232.544 105.758 231.055 106.413 229.864C106.711 229.388 107.725 226.708 107.785 226.41Z" fill="#343C6B"/>
<path d="M119.231 223.79C119.529 223.968 119.887 224.445 120.185 224.742C120.84 225.397 121.735 225.814 122.689 226.172C123.94 226.588 125.014 226.708 125.729 226.529C126.444 226.35 126.742 225.517 126.325 224.921C125.908 224.326 125.192 223.551 124.179 222.658C123.583 222.182 123.046 221.705 122.629 221.348C122.033 220.812 121.615 220.097 121.556 219.323C121.496 218.906 121.437 218.49 121.377 218.49C119.827 217.894 117.621 218.251 117.204 218.966C117.204 218.966 116.787 221.288 116.787 221.824C116.787 222.182 116.906 222.777 117.562 223.075C117.919 223.135 118.575 223.313 119.231 223.79Z" fill="#343C6B"/>
<path d="M106.056 164.538V170.135C106.056 170.969 107.486 224.862 107.486 224.862C107.486 226.231 112.733 226.351 112.733 224.564L115.475 185.321L116.548 218.609C116.548 220.276 122.39 219.86 122.271 218.49L123.106 173.887C123.106 173.113 123.046 172.279 122.867 171.505L106.056 164.538Z" fill="#B8C9F5"/>
<path d="M115.415 185.558L116.548 184.903C117.144 184.546 117.979 185.022 117.919 185.737L116.429 215.572L115.415 185.558Z" fill="#819BEA"/>
<path d="M133.777 164.954C133.777 164.954 134.135 165.609 133.956 167.336C133.837 168.527 133.181 169.48 133.181 169.48L131.929 168.527L132.704 165.252L133.777 164.954Z" fill="#343C6B"/>
<path d="M134.85 165.431C134.85 165.431 135.088 165.967 134.969 167.336C134.85 168.289 134.313 169.063 134.313 169.063L133.3 168.349L133.956 165.728L134.85 165.431Z" fill="#9BA1A7"/>
<path d="M141.408 167.932C141.11 168.229 138.606 169.063 137.831 169.063C136.281 169.004 133.538 168.765 133.121 168.706C132.823 168.646 132.525 168.587 132.167 168.587L132.942 165.252C133.36 165.371 133.717 165.55 134.135 165.669C134.433 165.788 134.611 165.788 134.79 165.847L135.208 165.073C135.386 164.776 135.625 164.478 135.923 164.359C135.923 164.359 136.758 163.942 137.354 163.704C138.069 163.406 138.606 163.049 138.844 163.346C139.083 163.644 138.546 164.121 138.308 164.299L137.056 165.252C138.546 164.537 140.036 163.704 140.215 164.716C140.215 164.537 143.256 166.264 141.408 167.932Z" fill="#915B3C"/>
<path d="M134.313 169.003C134.254 169.003 133.479 169.063 132.346 169.003L133.002 165.014C134.015 165.192 134.79 165.371 134.79 165.371C134.015 165.788 133.956 168.408 134.313 169.003Z" fill="#C6D0E9"/>
<path d="M133.777 164.954C132.704 165.431 132.644 168.706 133.121 169.48C133.121 169.48 122.509 169.48 120.781 167.991C119.529 166.979 117.74 156.617 117.025 152.211C116.965 151.853 117.025 151.436 117.204 151.139C117.442 150.781 117.74 150.543 118.157 150.484C118.157 150.484 122.867 149.888 122.986 150.603C123.344 152.449 125.073 161.143 125.431 163.049C125.431 163.227 125.609 163.346 125.788 163.406C126.563 163.585 133.777 164.954 133.777 164.954Z" fill="#101030"/>
<path d="M103.254 155.188L105.4 162.274L105.817 175.316C106.533 180.139 122.569 178.71 122.569 172.457V150.602C122.569 146.851 119.886 145.243 117.144 145.481C116.548 145.541 115.952 145.719 115.356 145.957C115.117 146.017 113.448 145.124 113.209 145.243L108.738 147.804C108.44 147.982 108.142 148.161 107.844 148.339C105.042 150.066 103.254 151.734 103.254 155.188Z" fill="#C6D0E9"/>
<path d="M110.467 141.432V147.625C110.467 147.923 110.646 148.161 110.944 148.34C111.779 148.876 113.329 148.995 114.402 148.578C115.058 148.34 115.415 147.983 115.415 147.625V142.683L113.09 139.646H112.852L110.467 141.432Z" fill="#915B3C"/>
<path d="M109.096 191.156C108.798 191.275 108.44 190.858 108.321 190.501C108.202 190.144 107.725 189.251 107.725 189.251C107.725 189.251 107.009 191.156 106.115 190.739C103.731 189.786 103.731 188.536 103.909 187.702C104.088 186.809 104.684 186.214 104.804 185.32L104.506 182.283H107.725L107.665 184.07C107.665 184.784 107.844 185.558 108.202 186.154L108.559 186.749C108.738 187.047 108.858 187.345 108.917 187.702L109.454 190.144C109.513 190.68 109.454 191.037 109.096 191.156Z" fill="#915B3C"/>
<path d="M124.417 175.376C124.417 177.4 121.138 179.842 120.721 179.544C120.244 179.246 121.079 166.681 120.065 158.404C119.529 154.235 118.694 150.424 117.204 148.042C116.488 146.851 115.296 145.958 115.415 145.958C116.071 145.839 115.892 145.541 116.369 145.422C116.429 145.422 117.025 145.422 117.085 145.422C119.886 145.422 122.927 146.792 122.927 150.484L123.344 159.654L124.417 175.376Z" fill="#121232"/>
<path d="M105.758 179.604L105.46 162.334L102.479 155.605C102.479 152.151 105.102 150.126 108.023 148.34C108.321 148.161 108.619 147.983 108.917 147.804L110.586 146.851C110.586 146.911 110.467 147.804 110.467 147.804C110.229 149.471 113.567 155.903 114.581 160.309C115.892 166.086 116.608 181.152 116.31 181.39C115.594 181.807 106.175 182.343 105.758 179.604Z" fill="#101030"/>
<path d="M103.492 157.332L103.135 169.48C103.135 169.897 103.135 170.313 103.194 170.73L104.625 184.367C104.863 185.141 107.844 184.963 107.904 184.01L108.261 170.611C108.261 170.135 108.261 169.599 108.321 169.122C108.56 167.038 109.335 160.071 109.454 158.106L103.492 157.332Z" fill="#C6D0E9"/>
<path d="M109.931 158.166C109.811 160.131 108.977 167.455 108.798 169.123C108.738 169.599 108.738 170.076 108.738 170.552L108.44 182.522C108.5 183.772 104.029 183.951 103.91 182.819L102.717 170.671C102.658 170.254 102.658 169.778 102.658 169.361L102.419 155.486L109.931 158.166Z" fill="#101030"/>
<path opacity="0.1" d="M110.467 141.432V141.73C110.467 144.052 112.375 146.077 114.76 145.898C114.998 145.898 115.117 145.839 115.296 145.839C115.356 145.839 115.415 145.839 115.415 145.779V142.623L113.09 139.586L112.971 139.467L112.792 139.586L110.467 141.432Z" fill="black"/>
<path d="M117.562 135.477C118.754 137.382 119.589 141.015 118.575 143.04C117.979 144.29 117.025 144.945 115.773 145.005C115.296 145.005 112.912 144.707 111.302 143.635C110.229 142.921 109.335 142.027 108.798 141.134C106.831 138.037 107.606 134.881 110.11 133.273C114.581 130.356 115.952 132.916 117.562 135.477Z" fill="#915B3C"/>
<path d="M105.579 137.74C105.758 140.062 107.427 142.682 110.467 143.992V142.742C110.05 142.385 109.692 141.968 109.513 141.432C109.394 141.075 109.931 140.896 110.467 141.134H110.527C110.765 141.253 111.123 141.253 111.481 141.134C112.077 141.015 112.375 140.419 112.136 139.884C110.527 136.072 114.998 135.179 116.131 133.929C116.608 134.405 117.561 135.536 117.561 135.536C117.442 135 117.085 134.345 116.846 133.69C116.131 131.963 114.342 130.891 112.494 131.13C112.196 131.189 111.898 131.249 111.54 131.308C107.069 132.321 105.4 135.417 105.579 137.74Z" fill="#101030"/>
<path d="M111.481 140.777C112.315 141.551 112.613 142.623 112.136 143.159C111.66 143.695 110.527 143.576 109.692 142.801C108.858 142.027 108.56 140.955 109.036 140.419C109.513 139.824 110.586 140.003 111.481 140.777Z" fill="#915B3C"/>
<path d="M179.979 127.914L133.896 154.771C131.81 156.021 130.498 158.225 130.498 160.666V194.789V196.992C130.498 199.612 133.36 201.279 135.625 199.969L181.708 172.993C183.794 171.743 185.106 169.539 185.106 167.098V162.87V130.891C185.165 128.271 182.304 126.604 179.979 127.914Z" fill="#C56BC5"/>
<path d="M181.708 129.045L135.625 155.902C133.538 157.153 132.227 159.356 132.227 161.798V195.92V198.123C132.227 200.744 135.088 202.411 137.354 201.101L183.436 174.125C185.523 172.874 186.835 170.671 186.835 168.229V164.001V132.023C186.835 129.343 184.033 127.735 181.708 129.045Z" fill="#E2E9FB"/>
<path d="M188.861 156.914L160.544 173.41C159.233 174.184 158.458 175.554 158.458 177.042V198.004V199.374C158.458 200.982 160.246 201.994 161.617 201.22L189.934 184.605C191.246 183.831 192.021 182.461 192.021 180.973V178.353V158.701C192.021 157.093 190.292 156.081 188.861 156.914Z" fill="#C56BC5"/>
<path d="M190.59 157.986L162.213 174.482C160.902 175.256 160.127 176.625 160.127 178.114V199.076V200.445C160.127 202.053 161.915 203.066 163.286 202.292L191.604 185.677C192.915 184.903 193.69 183.533 193.69 182.044V179.424V159.773C193.75 158.165 191.961 157.153 190.59 157.986Z" fill="#E2E9FB"/>
<path d="M66.8286 148.875L95.1459 165.371C96.4574 166.145 97.2324 167.515 97.2324 169.003V189.965V191.335C97.2324 192.942 95.4439 193.955 94.0728 193.181L65.7555 176.566C64.4439 175.792 63.6689 174.422 63.6689 172.934V170.313V150.662C63.6689 149.114 65.4574 148.101 66.8286 148.875Z" fill="#C56BC5"/>
<path d="M65.0402 149.947L93.3575 166.443C94.6691 167.217 95.4441 168.586 95.4441 170.075V191.037V192.406C95.4441 194.014 93.6556 195.027 92.2844 194.252L63.9672 177.638C62.6556 176.864 61.8806 175.494 61.8806 174.005V171.385V151.734C61.8806 150.126 63.6095 149.113 65.0402 149.947Z" fill="#E2E9FB"/>
<path d="M71.6576 189.191L90.0191 199.91C90.8538 200.386 91.3903 201.279 91.3903 202.292V215.929V216.822C91.3903 217.894 90.2576 218.549 89.3634 218.013L70.9422 207.175C70.1076 206.699 69.571 205.805 69.571 204.793V203.126V190.382C69.571 189.31 70.7037 188.655 71.6576 189.191Z" fill="#C56BC5"/>
<path d="M69.9883 190.084L88.3499 200.803C89.1845 201.279 89.721 202.173 89.721 203.185V216.762V217.656C89.721 218.727 88.5883 219.383 87.6941 218.847L69.3326 208.068C68.498 207.592 67.9614 206.698 67.9614 205.686V204.019V191.275C67.9614 190.203 69.0941 189.548 69.9883 190.084Z" fill="#E2E9FB"/>
<path d="M181.29 181.151L152.913 197.706C151.602 198.48 150.827 199.85 150.827 201.339V222.3V223.67C150.827 225.278 152.615 226.29 153.987 225.516L182.304 208.902C183.615 208.128 184.39 206.758 184.39 205.269V202.649V182.997C184.45 181.33 182.661 180.318 181.29 181.151Z" fill="#E2B5E2"/>
<path d="M61.3441 138.752L79.9441 149.59C80.7787 150.066 81.3152 151.019 81.3152 151.972V165.728V166.621C81.3152 167.693 80.1825 168.348 79.2287 167.812L60.6287 156.915C59.7941 156.438 59.2576 155.485 59.2576 154.533V152.806V139.943C59.2576 138.931 60.4499 138.216 61.3441 138.752Z" fill="#E2B5E2"/>
<path d="M156.61 132.261L138.01 143.099C137.175 143.575 136.638 144.528 136.638 145.481V159.237V160.13C136.638 161.202 137.771 161.857 138.725 161.321L157.325 150.424C158.16 149.947 158.696 148.995 158.696 148.042V146.315V133.392C158.696 132.44 157.504 131.725 156.61 132.261Z" fill="#E2B5E2"/>
<path d="M369.317 182.998V218.489L396.442 234.508L396.621 198.838L369.317 182.998Z" fill="#EAEFFC"/>
<path d="M424.998 166.8V190.203L449.083 203.84L449.202 168.11L424.998 166.8Z" fill="#6D83B1"/>
<path d="M450.633 167.276L423.389 151.496L369.317 182.998L396.621 198.838L450.633 167.276Z" fill="#E2E9FB"/>
<path d="M396.621 198.838L396.502 234.508L397.933 233.615L398.052 199.731L449.202 169.897L449.083 203.84L450.513 202.947L450.633 167.276L396.621 198.838Z" fill="#B8C9F5"/>
<path d="M395.727 177.579L392.329 166.383C392.15 165.788 392.389 165.133 392.925 164.835L408.425 156.26C409.081 155.902 409.737 156.438 409.856 156.855L412.896 168.348C413.015 168.765 412.837 169.182 412.479 169.361L397.039 178.293C396.681 178.591 395.966 178.472 395.727 177.579Z" fill="#B8C9F5"/>
<path d="M396.204 177.936L392.687 166.264C392.567 165.847 392.746 165.43 393.104 165.252L408.902 156.557C409.26 156.379 409.737 156.557 409.856 156.974L413.373 168.646C413.492 169.063 413.314 169.48 412.956 169.658L397.158 178.353C396.8 178.531 396.323 178.353 396.204 177.936Z" fill="#EDF1FC"/>
<path d="M397.754 176.745L394.535 166.145L408.365 158.522L411.525 169.122L397.754 176.745Z" fill="#B8C9F5"/>
<path d="M397.337 178.234L413.194 169.956C413.731 169.658 414.387 169.658 414.864 170.016L424.998 175.554C425.416 175.792 425.714 176.864 424.939 177.34L409.379 185.975C408.843 186.273 408.187 186.273 407.71 185.975L397.456 180.08C396.86 179.663 396.86 178.531 397.337 178.234Z" fill="#B8C9F5"/>
<path d="M424.938 176.686L409.379 185.32C408.842 185.618 408.187 185.618 407.71 185.32L397.456 179.425C396.919 179.067 396.919 178.293 397.456 177.936L400.139 176.447L411.764 170.075L413.254 169.242C413.79 168.944 414.446 168.944 414.923 169.301L424.938 175.137C425.535 175.554 425.475 176.388 424.938 176.686Z" fill="#EAEFFC"/>
<path d="M417.546 173.291L414.089 171.326C413.85 171.207 413.552 171.207 413.314 171.326L400.973 178.055C400.735 178.233 400.735 178.591 400.973 178.769L404.431 180.735C404.669 180.854 404.968 180.854 405.206 180.735L417.546 173.946C417.785 173.827 417.785 173.469 417.546 173.291Z" fill="#B8C9F5"/>
<path d="M418.977 195.92L424.402 194.669V194.967C425.773 199.374 426.548 214.142 426.727 214.976C426.787 215.333 427.204 216.822 427.264 217.179C427.264 217.239 427.264 217.299 427.264 217.358C427.264 217.477 427.264 217.537 427.264 217.596C427.264 217.775 427.264 217.894 427.323 218.013C427.383 218.906 426.667 219.621 425.773 219.561C425.177 219.561 424.76 219.264 424.342 218.906C423.627 218.251 422.912 217.656 422.077 217.12C421.779 216.941 421.481 216.763 421.302 216.584C421.004 216.346 420.706 216.108 420.527 215.869C419.871 215.036 419.871 214.381 419.871 214.381C419.871 214.321 419.931 214.261 419.931 214.202C419.991 213.964 420.169 213.726 420.408 213.606C420.587 213.487 420.766 213.428 421.004 213.428H421.302C421.481 213.428 421.66 213.428 421.839 213.428C422.375 213.428 423.031 213.785 423.508 214.083L419.335 198.183C419.156 197.587 419.037 196.992 418.977 196.396C418.917 196.218 418.917 196.039 418.917 195.86L418.977 195.92Z" fill="#FFB1DF"/>
<path d="M419.871 214.499C419.871 214.499 419.871 215.69 421.302 216.703C421.481 216.881 421.779 217.06 422.077 217.239C422.911 217.775 423.627 218.37 424.342 219.025C424.76 219.383 425.177 219.68 425.773 219.68C426.667 219.74 427.442 219.442 427.323 218.132C427.323 218.072 427.323 217.894 427.263 217.715C427.263 217.656 427.263 217.596 427.263 217.477C427.263 217.358 427.263 217.298 427.263 217.298C427.144 217.715 426.667 217.834 426.31 217.834C425.713 217.834 425.236 217.656 424.819 217.298C424.104 216.643 419.096 213.785 422.196 213.606L421.838 213.547C420.348 213.368 420.11 213.844 419.99 214.321C419.871 214.38 419.871 214.44 419.871 214.499Z" fill="#343C6B"/>
<path d="M409.617 217.894L412.419 217.954C413.194 218.013 413.91 217.716 414.506 217.239C414.744 217.001 414.864 216.644 414.804 216.346C414.744 216.108 414.744 215.87 414.685 215.572C414.685 215.572 413.194 205.031 412.539 196.218L418.858 194.193H418.977L418.917 194.729L418.858 195.146C419.037 197.647 418.5 210.391 418.321 216.941C418.321 217.954 418.441 218.966 418.619 219.919C418.679 220.753 418.441 221.765 418.083 222.241C417.308 223.194 415.698 222.718 414.506 222.361L410.929 221.289C409.617 220.872 408.842 219.859 408.664 219.026C408.664 218.371 409.081 217.954 409.617 217.894Z" fill="#FFB1DF"/>
<path d="M409.617 217.894H411.406C410.69 218.013 410.392 218.668 411.048 219.204C411.823 219.859 418.441 221.407 418.619 219.859C418.619 220.157 418.619 220.395 418.619 220.514C418.619 221.11 418.44 221.646 418.083 222.122C417.308 223.134 415.698 222.598 414.506 222.241L410.929 221.169C409.617 220.752 408.842 219.74 408.664 218.906C408.664 218.37 409.081 217.954 409.617 217.894Z" fill="#343C6B"/>
<path d="M423.925 230.698C423.925 231.294 423.448 231.77 422.852 231.77C422.256 231.77 421.779 231.294 421.779 230.698C421.779 230.103 422.256 229.626 422.852 229.626C423.448 229.567 423.925 230.043 423.925 230.698Z" fill="#343C6B"/>
<path d="M444.075 230.698C444.075 231.294 443.598 231.77 443.002 231.77C442.406 231.77 441.929 231.294 441.929 230.698C441.929 230.103 442.406 229.626 443.002 229.626C443.538 229.567 444.075 230.043 444.075 230.698Z" fill="#343C6B"/>
<path d="M423.984 219.204C423.984 219.8 423.507 220.276 422.911 220.276C422.315 220.276 421.838 219.8 421.838 219.204C421.838 218.609 422.315 218.132 422.911 218.132C423.448 218.073 423.984 218.549 423.984 219.204Z" fill="#343C6B"/>
<path d="M444.075 219.204C444.075 219.8 443.598 220.276 443.002 220.276C442.406 220.276 441.929 219.8 441.929 219.204C441.929 218.609 442.406 218.132 443.002 218.132C443.538 218.073 444.075 218.549 444.075 219.204Z" fill="#343C6B"/>
<path d="M443.836 218.014L437.517 221.646V222.956L443.836 219.324C444.79 218.788 445.208 217.656 444.85 216.704C444.671 217.24 444.313 217.716 443.836 218.014Z" fill="#343C6B"/>
<path d="M422.017 218.014C421.481 217.716 421.123 217.24 421.004 216.704C420.706 217.716 421.123 218.788 422.017 219.324L428.336 222.956V221.646L422.017 218.014Z" fill="#343C6B"/>
<path d="M444.671 228.435C444.254 229.15 443.479 229.566 442.704 229.566C442.346 229.566 441.929 229.447 441.571 229.269L432.927 224.267L424.283 229.269C423.925 229.447 423.508 229.566 423.15 229.566C422.375 229.566 421.6 229.15 421.183 228.435C421.123 228.256 421.004 228.137 421.004 227.959C420.825 228.554 420.884 229.209 421.183 229.745C421.6 230.46 422.375 230.877 423.15 230.877C423.508 230.877 423.925 230.757 424.283 230.579L432.927 225.577L441.571 230.579C441.929 230.757 442.346 230.877 442.704 230.877C443.479 230.877 444.254 230.46 444.671 229.745C445.029 229.15 445.029 228.554 444.85 227.959C444.79 228.137 444.731 228.316 444.671 228.435Z" fill="#343C6B"/>
<path d="M423.152 229.566C423.51 229.566 423.927 229.447 424.285 229.269L432.929 224.266L441.574 229.269C441.931 229.447 442.348 229.566 442.706 229.566C443.481 229.566 444.256 229.149 444.674 228.435C444.733 228.256 444.852 228.137 444.852 227.958C444.674 227.423 444.316 226.946 443.839 226.648L437.46 223.016V221.706L443.779 218.073C444.316 217.775 444.673 217.299 444.793 216.763C444.733 216.584 444.673 216.465 444.614 216.287C443.958 215.215 442.587 214.798 441.514 215.453L432.87 220.455L424.225 215.453C423.152 214.798 421.722 215.215 421.125 216.287C421.066 216.465 420.947 216.584 420.947 216.763C421.125 217.299 421.483 217.775 421.96 218.073L428.279 221.706V223.016L421.96 226.648C421.423 226.946 421.066 227.423 420.947 227.958C421.006 228.137 421.066 228.256 421.125 228.435C421.602 229.149 422.377 229.566 423.152 229.566Z" fill="#424E7F"/>
<path d="M434.775 217.418C434.715 217.656 434.477 217.954 434.059 218.133C433.702 218.252 433.344 218.311 432.927 218.311C432.271 218.311 431.675 218.133 431.317 217.835C431.138 217.716 431.019 217.477 431.019 217.358V221.944C430.959 222.182 431.138 222.361 431.317 222.48C431.675 222.778 432.271 222.956 432.927 222.956C433.344 222.956 433.761 222.897 434.059 222.778C434.477 222.599 434.715 222.361 434.775 222.122C434.775 222.063 434.775 222.003 434.775 222.003C434.775 222.003 434.775 217.358 434.775 217.418Z" fill="#343C6B"/>
<path d="M434.059 218.133C433.702 218.252 433.344 218.311 432.927 218.311C432.271 218.311 431.675 218.133 431.317 217.835C431.138 217.716 430.959 217.537 431.019 217.299C431.079 217.061 431.317 216.823 431.675 216.644C432.032 216.525 432.39 216.465 432.807 216.465C433.463 216.465 434 216.644 434.417 216.882C434.596 217.001 434.775 217.18 434.715 217.418C434.715 217.716 434.477 217.954 434.059 218.133Z" fill="#343B65"/>
<path d="M431.794 217.18C431.794 217.299 431.854 217.418 431.973 217.537C432.211 217.716 432.569 217.775 432.927 217.775C433.165 217.775 433.404 217.716 433.582 217.656C433.821 217.537 434 217.418 434 217.299C434 217.239 434 206.044 434 206.044H431.794V217.18Z" fill="#343C6B"/>
<path d="M450.335 203.781V202.233L449.619 202.173C449.44 201.995 449.261 201.816 448.963 201.697L437.756 195.206C436.086 194.253 434 194.253 432.331 195.206L416.771 204.138C416.413 204.377 416.115 204.674 415.877 204.972L415.4 204.853V206.461C415.4 207.414 415.877 208.307 416.771 208.843L427.979 215.334C429.648 216.287 431.735 216.287 433.404 215.334L448.963 206.401C449.977 205.806 450.454 204.793 450.335 203.781Z" fill="#343B65"/>
<path d="M449.024 199.97L437.816 193.479C436.147 192.526 434.06 192.526 432.391 193.479L416.832 202.411C415.043 203.424 414.983 206.044 416.832 207.116L428.039 213.607C429.708 214.56 431.795 214.56 433.464 213.607L449.024 204.674C450.812 203.602 450.812 200.982 449.024 199.97Z" fill="#424E7F"/>
<path d="M412.777 194.848C413.433 192.823 419.633 189.369 419.633 189.369C420.587 188.833 421.838 188.714 422.912 189.31L430.781 193.3C431.019 193.419 431.317 193.538 431.556 193.597C434.954 188.357 440.081 190.084 442.764 191.513C443.837 192.109 444.552 193.24 444.552 194.431C444.552 195.443 444.671 196.694 444.91 198.004C445.267 199.791 445.446 202.173 444.91 203.661C443.658 207.115 437.935 209.259 435.967 209.497C430.9 210.271 425.773 208.664 421.838 205.329C419.096 203.006 415.758 200.207 413.79 198.48C412.717 197.647 412.3 196.158 412.777 194.848Z" fill="#B8C9F5"/>
<path d="M445.864 185.26C445.148 193.061 444.91 196.336 444.612 196.694C440.677 200.743 434.417 201.22 431.079 198.778C430.304 198.242 429.887 197.349 430.125 196.456C430.364 195.384 430.781 193.954 431.019 192.585C431.019 192.525 431.019 192.406 431.079 192.347C431.317 190.977 431.258 189.548 430.9 188.178C430.9 188.119 430.84 187.999 430.84 187.94C429.767 187.285 428.992 186.153 428.992 184.784C428.992 184.307 429.052 183.891 429.231 183.474L427.502 177.995L427.442 177.876C427.621 176.566 428.098 175.613 428.873 174.779C429.648 173.946 430.662 173.231 431.914 172.457C431.973 172.457 432.033 172.397 432.092 172.397C432.331 172.278 432.569 172.1 432.867 171.921L433.106 171.742L433.702 171.385L434.358 170.968L436.385 169.777L436.862 169.479L437.16 169.301H437.219C437.339 169.301 437.577 169.36 437.815 169.479C438.352 169.718 439.067 170.075 439.246 170.015C439.783 169.777 440.319 169.658 440.796 169.599C442.167 169.42 443.539 169.718 444.552 170.611C445.864 171.742 446.102 173.469 446.221 174.839C446.639 179.484 446.102 182.938 445.864 185.26Z" fill="#5278FF"/>
<path d="M433.046 185.261C432.808 188.119 431.496 191.633 430.96 192.288C431.198 190.918 431.138 189.489 430.781 188.119C430.781 188.06 430.721 187.94 430.721 187.881C429.648 187.226 428.873 186.094 428.873 184.725C428.873 184.248 428.933 183.831 429.111 183.415L428.635 181.985L432.51 179.365C433.285 180.973 433.225 183.355 433.046 185.261Z" fill="#3754E0"/>
<path d="M430.483 165.966C431.436 169.897 434.059 170.135 436.444 168.884C439.127 167.455 440.677 164.18 440.796 161.857C440.915 158.284 438.59 156.021 435.609 155.902C428.813 155.604 430.184 164.597 430.483 165.966Z" fill="#FFB1DF"/>
<path d="M439.186 163.763V171.564C439.186 171.921 438.829 172.278 438.233 172.517C437.16 172.933 435.669 172.814 434.835 172.278C434.537 172.04 434.358 171.802 434.358 171.564V163.763H439.186V163.763Z" fill="#FFB1DF"/>
<path d="M441.154 164.656C440.438 167.753 437.219 167.932 435.55 167.396C432.867 166.502 431.556 162.989 431.496 160.786C431.377 157.451 433.583 155.307 436.385 155.188C442.704 155.009 441.452 163.406 441.154 164.656Z" fill="#FF8D35"/>
<path d="M419.871 184.069C418.083 183.533 415.996 182.819 414.923 182.461L414.088 182.164C412.658 181.985 410.631 177.995 409.975 179.246C409.975 179.246 407.829 179.365 408.723 181.509C408.962 182.044 410.154 182.878 411.048 183.414C411.764 183.831 412.3 183.95 412.837 184.069C412.956 184.069 413.015 184.129 413.135 184.129C413.254 184.248 415.758 186.213 418.739 187.88L419.871 184.069Z" fill="#FFB1DF"/>
<path d="M428.217 175.494C428.217 175.494 421.958 182.759 421.421 183.831C421.302 184.01 416.95 182.997 416.95 182.997C415.817 183.295 414.804 185.082 415.102 186.213C415.102 186.213 420.169 189.905 422.315 189.429C423.389 189.191 432.629 181.568 433.046 179.782L432.45 174.184C431.377 174.482 428.217 175.494 428.217 175.494Z" fill="#5278FF"/>
<path d="M432.092 164.001C431.556 164.716 431.496 165.609 431.973 165.966C432.45 166.324 433.285 166.026 433.821 165.311C434.358 164.597 434.417 163.704 433.94 163.346C433.463 162.989 432.629 163.287 432.092 164.001Z" fill="#FFB1DF"/>
<path d="M430.125 157.153C431.258 155.605 435.252 155.188 436.384 155.188C436.563 155.188 435.013 155.843 435.192 155.962C436.742 157.034 436.981 159.356 435.729 161.083C434.954 162.215 433.702 162.81 432.51 162.81C431.913 164.299 432.271 165.967 433.404 166.919C433.106 166.8 432.808 166.681 432.569 166.502C431.317 165.669 430.9 164.061 431.258 162.572C431.079 162.513 430.9 162.394 430.721 162.274C429.111 161.203 428.873 158.94 430.125 157.153Z" fill="#FF8D35"/>
<path d="M442.525 158.761C441.75 159.892 440.558 160.488 439.365 160.428C438.709 160.428 438.113 160.19 437.517 159.773C435.908 158.582 435.609 156.2 436.742 154.473C437.815 152.925 439.663 152.389 441.213 153.163C441.392 153.223 441.571 153.342 441.75 153.461C443.36 154.652 443.717 157.034 442.525 158.761Z" fill="#FF8D35"/>
<path d="M440.021 212.356C440.021 212.475 440.081 212.594 440.2 212.713C440.439 212.892 440.796 212.951 441.154 212.951C441.392 212.951 441.631 212.892 441.81 212.832C442.048 212.713 442.227 212.594 442.227 212.475C442.227 212.415 442.227 201.22 442.227 201.22H440.021V212.356Z" fill="#343C6B"/>
<path d="M452.898 187.166L451.587 186.452C451.11 186.213 450.514 186.213 449.977 186.452L434.596 194.61C433.344 195.265 432.331 196.873 431.914 198.778L429.469 209.378C429.29 210.272 429.648 211.224 430.483 211.641L431.854 212.356L431.735 210.986C431.794 210.986 431.854 210.986 431.914 210.927L447.831 202.232C449.083 201.577 450.096 199.969 450.514 198.064L452.66 188.774C452.719 188.476 452.779 188.179 452.779 187.881L452.898 187.166Z" fill="#343B65"/>
<path d="M453.554 190.084L451.408 199.374C450.991 201.28 449.977 202.828 448.725 203.542L432.808 212.237C431.496 212.951 430.423 211.344 430.84 209.319L432.987 200.029C433.404 198.123 434.417 196.575 435.669 195.861L451.587 187.166C452.958 186.452 454.031 188.06 453.554 190.084Z" fill="#445393"/>
</svg>
