<svg xmlns="http://www.w3.org/2000/svg" viewBox="0 0 114.73 114.73"><defs><style>.cls-1{fill:#223653;}.cls-2{fill:#fff;}</style></defs><title>Fichier 18</title><g id="Calque_2" data-name="Calque 2"><g id="Calque_1-2" data-name="Calque 1"><rect class="cls-1" width="114.73" height="114.73"/><path id="White" class="cls-2" d="M97.82,12.75H18.43a4.92,4.92,0,0,0-4.92,4.92V97.06A4.92,4.92,0,0,0,18.43,102H61.17V67.43H49.54V54H61.17V44c0-11.53,7-17.81,17.32-17.81a92.76,92.76,0,0,1,10.39.54v12H81.75c-5.59,0-6.67,2.66-6.67,6.56V54H88.41L86.68,67.43H75.08V102H97.82a4.92,4.92,0,0,0,4.92-4.92V17.67A4.92,4.92,0,0,0,97.82,12.75Z"/></g></g></svg>