<svg xmlns="http://www.w3.org/2000/svg" width="138.39mm" height="25.39mm" viewBox="0 0 392.29 71.98"><defs><style>.cls-1{fill:#fff;}.cls-2{fill:#f09686;}</style></defs><title>Fichier 4</title><g id="Calque_2" data-name="Calque 2"><g id="Calque_1-2" data-name="Calque 1"><path class="cls-1" d="M59.65,31.05a34.24,34.24,0,0,1-.81,7.54,30.48,30.48,0,0,1-2.34,6.74,28.39,28.39,0,0,1-3.72,5.76,26.42,26.42,0,0,1-5,4.61L62.7,72h-9a11,11,0,0,1-3.52-.53,6.88,6.88,0,0,1-2.87-2L38.66,60a31.79,31.79,0,0,1-4.26.85,34.84,34.84,0,0,1-4.53.29,32,32,0,0,1-12.19-2.26,27.61,27.61,0,0,1-9.44-6.29A28,28,0,0,1,2.16,43,32.58,32.58,0,0,1,0,31.05a32.59,32.59,0,0,1,2.16-12A28.16,28.16,0,0,1,8.24,9.52a27.76,27.76,0,0,1,9.44-6.29A32,32,0,0,1,29.87,1,31.4,31.4,0,0,1,42,3.26a27.61,27.61,0,0,1,9.4,6.28,28.16,28.16,0,0,1,6.07,9.52A32.8,32.8,0,0,1,59.65,31.05Zm-11.23,0a27.52,27.52,0,0,0-1.28-8.69,18.33,18.33,0,0,0-3.68-6.53,15.88,15.88,0,0,0-5.84-4.11,20.08,20.08,0,0,0-7.75-1.43,20.27,20.27,0,0,0-7.78,1.43,16,16,0,0,0-5.87,4.11,18.42,18.42,0,0,0-3.73,6.53,27,27,0,0,0-1.3,8.69,26.93,26.93,0,0,0,1.3,8.68,18.08,18.08,0,0,0,3.73,6.51,16.06,16.06,0,0,0,5.87,4.09,20.27,20.27,0,0,0,7.78,1.43,20.08,20.08,0,0,0,7.75-1.43,16,16,0,0,0,5.84-4.09,18,18,0,0,0,3.68-6.51A27.5,27.5,0,0,0,48.42,31.05Z"/><path class="cls-1" d="M78.94,18.72V45.25a8.92,8.92,0,0,0,1.77,5.92A6.55,6.55,0,0,0,86,53.26,10.51,10.51,0,0,0,90.9,52.1a17,17,0,0,0,4.32-3.19V18.72h10V60.47H99.12a2.47,2.47,0,0,1-2.56-1.84l-.69-3.33a29.58,29.58,0,0,1-2.69,2.38,15.77,15.77,0,0,1-3,1.83,16.84,16.84,0,0,1-3.38,1.18,17.08,17.08,0,0,1-3.88.43,14.86,14.86,0,0,1-6-1.16,12.18,12.18,0,0,1-4.42-3.28,14.53,14.53,0,0,1-2.71-5,21.31,21.31,0,0,1-.91-6.41V18.72Z"/><path class="cls-1" d="M135.3,18.07a20.28,20.28,0,0,1,7.26,1.26A16,16,0,0,1,148.28,23,16.82,16.82,0,0,1,152,29a22.59,22.59,0,0,1,1.34,8,14.15,14.15,0,0,1-.1,1.89,3,3,0,0,1-.37,1.18,1.46,1.46,0,0,1-.71.61,3.1,3.1,0,0,1-1.14.18h-25.8q.45,6.43,3.46,9.44a10.78,10.78,0,0,0,8,3,13.79,13.79,0,0,0,4.21-.57A18.86,18.86,0,0,0,144,51.47c.88-.46,1.66-.88,2.32-1.26a3.91,3.91,0,0,1,1.94-.57,2.09,2.09,0,0,1,1,.25,2.32,2.32,0,0,1,.78.69L153,54.24a17.1,17.1,0,0,1-3.75,3.28,21.13,21.13,0,0,1-4.33,2.11,23.93,23.93,0,0,1-4.6,1.12,32.47,32.47,0,0,1-4.54.33,22.32,22.32,0,0,1-8.09-1.45,18.07,18.07,0,0,1-6.51-4.27,20.06,20.06,0,0,1-4.36-7,27,27,0,0,1-1.58-9.66,23.18,23.18,0,0,1,1.38-8,19.18,19.18,0,0,1,4-6.55,18.7,18.7,0,0,1,6.3-4.42A20.89,20.89,0,0,1,135.3,18.07Zm.2,7.2a9.33,9.33,0,0,0-6.88,2.48,12.25,12.25,0,0,0-3.17,7h18.88a12.59,12.59,0,0,0-.53-3.68,8.36,8.36,0,0,0-1.63-3A7.64,7.64,0,0,0,139.41,26,9.5,9.5,0,0,0,135.5,25.27ZM149.62,1,139.57,11.6a4.63,4.63,0,0,1-1.49,1.11,4.6,4.6,0,0,1-1.85.31h-6L136,3.13a4.66,4.66,0,0,1,1.42-1.6A4.36,4.36,0,0,1,139.85,1Z"/><path class="cls-1" d="M163.7,60.47V0h10.05V23.84a19.87,19.87,0,0,1,5.61-4.21,16.25,16.25,0,0,1,7.33-1.56,13.75,13.75,0,0,1,6.24,1.4,13.93,13.93,0,0,1,4.89,4.09A19.85,19.85,0,0,1,201,30.19a33.22,33.22,0,0,1,1.12,9.08,28.59,28.59,0,0,1-1.26,8.66,21.15,21.15,0,0,1-3.6,6.92,16.72,16.72,0,0,1-5.66,4.58,16.45,16.45,0,0,1-7.43,1.65,14.71,14.71,0,0,1-3.5-.39,12.46,12.46,0,0,1-2.88-1.08,12.17,12.17,0,0,1-2.43-1.69,20.5,20.5,0,0,1-2.13-2.22l-.45,2.81a2.53,2.53,0,0,1-.83,1.51,2.61,2.61,0,0,1-1.61.45Zm19.53-34.59a10.28,10.28,0,0,0-5.35,1.32,15.34,15.34,0,0,0-4.13,3.72V49.64a9.53,9.53,0,0,0,3.72,3,11.23,11.23,0,0,0,4.37.84,9.6,9.6,0,0,0,4.11-.86,8.17,8.17,0,0,0,3.12-2.6,13,13,0,0,0,2-4.42,25.22,25.22,0,0,0,.69-6.28,27.54,27.54,0,0,0-.59-6.21,11.84,11.84,0,0,0-1.69-4.13,6.67,6.67,0,0,0-2.66-2.32A8.3,8.3,0,0,0,183.23,25.88Z"/><path class="cls-1" d="M229.25,18.07a20.28,20.28,0,0,1,7.26,1.26A16,16,0,0,1,242.23,23,16.68,16.68,0,0,1,246,29a22.37,22.37,0,0,1,1.34,8,14.15,14.15,0,0,1-.1,1.89,3.23,3.23,0,0,1-.36,1.18,1.55,1.55,0,0,1-.71.61,3.1,3.1,0,0,1-1.14.18H219.2q.45,6.43,3.46,9.44a10.74,10.74,0,0,0,8,3,13.79,13.79,0,0,0,4.21-.57,19.37,19.37,0,0,0,3.1-1.26c.88-.46,1.65-.88,2.32-1.26a3.85,3.85,0,0,1,1.93-.57,2.13,2.13,0,0,1,1.06.25,2.39,2.39,0,0,1,.77.69L247,54.24a17.05,17.05,0,0,1-3.74,3.28,21.21,21.21,0,0,1-4.34,2.11,23.75,23.75,0,0,1-4.6,1.12,32.44,32.44,0,0,1-4.53.33,22.33,22.33,0,0,1-8.1-1.45,18.07,18.07,0,0,1-6.51-4.27,19.9,19.9,0,0,1-4.35-7,27,27,0,0,1-1.59-9.66,23.18,23.18,0,0,1,1.38-8,19.34,19.34,0,0,1,4-6.55,18.64,18.64,0,0,1,6.31-4.42A20.84,20.84,0,0,1,229.25,18.07Zm.2,7.2a9.33,9.33,0,0,0-6.88,2.48,12.25,12.25,0,0,0-3.17,7h18.88a12.59,12.59,0,0,0-.53-3.68,8.21,8.21,0,0,0-1.63-3A7.64,7.64,0,0,0,233.36,26,9.47,9.47,0,0,0,229.45,25.27Z"/><path class="cls-1" d="M286.86,27.55a4.62,4.62,0,0,1-.87.89,2,2,0,0,1-1.24.33,2.79,2.79,0,0,1-1.51-.47c-.49-.31-1.07-.66-1.75-1.06a13.8,13.8,0,0,0-2.42-1.06,11.16,11.16,0,0,0-3.48-.46,10.74,10.74,0,0,0-4.64,1,8.82,8.82,0,0,0-3.31,2.75,12.33,12.33,0,0,0-2,4.33,23,23,0,0,0-.66,5.76,22.32,22.32,0,0,0,.72,5.94,12.56,12.56,0,0,0,2,4.37A8.86,8.86,0,0,0,271,52.51a9.84,9.84,0,0,0,4.31.92,10.83,10.83,0,0,0,3.89-.59,12.36,12.36,0,0,0,2.5-1.31c.68-.47,1.27-.9,1.77-1.3a2.68,2.68,0,0,1,1.69-.59,2,2,0,0,1,1.83.94l2.89,3.66a18.56,18.56,0,0,1-3.63,3.28,19.74,19.74,0,0,1-4,2.11,20.82,20.82,0,0,1-4.34,1.12,30.33,30.33,0,0,1-4.43.33,18.6,18.6,0,0,1-7.29-1.45,17,17,0,0,1-6-4.21,20.34,20.34,0,0,1-4-6.77,26.23,26.23,0,0,1-1.48-9.14A26.56,26.56,0,0,1,256,31a19.26,19.26,0,0,1,3.89-6.8,17.87,17.87,0,0,1,6.35-4.5,21.92,21.92,0,0,1,8.7-1.62,20.76,20.76,0,0,1,8.2,1.5,20.11,20.11,0,0,1,6.33,4.31Z"/><path class="cls-2" d="M296,54.93a6.11,6.11,0,0,1,.47-2.4,5.61,5.61,0,0,1,1.3-2,6.26,6.26,0,0,1,2-1.3,6,6,0,0,1,2.44-.49,6,6,0,0,1,2.4.49,6,6,0,0,1,3.26,3.25,6.13,6.13,0,0,1,.49,2.4,6,6,0,0,1-.49,2.42,6.41,6.41,0,0,1-1.3,1.94,6,6,0,0,1-2,1.28,6.29,6.29,0,0,1-2.4.46,6.38,6.38,0,0,1-2.44-.46,6,6,0,0,1-2-1.28,5.76,5.76,0,0,1-1.3-1.94A6,6,0,0,1,296,54.93Z"/><path class="cls-1" d="M348.06,27.55a4.93,4.93,0,0,1-.87.89,2,2,0,0,1-1.24.33,2.79,2.79,0,0,1-1.51-.47c-.49-.31-1.07-.66-1.75-1.06a14.14,14.14,0,0,0-2.42-1.06,11.24,11.24,0,0,0-3.48-.46,10.74,10.74,0,0,0-4.64,1,8.82,8.82,0,0,0-3.31,2.75,12.34,12.34,0,0,0-2,4.33,23.53,23.53,0,0,0-.65,5.76,22.76,22.76,0,0,0,.71,5.94A12.57,12.57,0,0,0,329,49.82a8.83,8.83,0,0,0,3.25,2.69,9.92,9.92,0,0,0,4.32.92,10.73,10.73,0,0,0,3.88-.59,12.46,12.46,0,0,0,2.51-1.31c.67-.47,1.26-.9,1.77-1.3a2.67,2.67,0,0,1,1.68-.59,2,2,0,0,1,1.83.94l2.89,3.66a18.51,18.51,0,0,1-3.62,3.28,19.56,19.56,0,0,1-4.05,2.11,20.57,20.57,0,0,1-4.33,1.12,30.36,30.36,0,0,1-4.44.33,18.59,18.59,0,0,1-7.28-1.45,17,17,0,0,1-6-4.21,20.17,20.17,0,0,1-4-6.77,26.23,26.23,0,0,1-1.48-9.14A26.56,26.56,0,0,1,317.24,31a19.39,19.39,0,0,1,3.88-6.8,18,18,0,0,1,6.35-4.5,22,22,0,0,1,8.71-1.62,20.8,20.8,0,0,1,8.2,1.5,20.34,20.34,0,0,1,6.33,4.31Z"/><path class="cls-1" d="M392.29,60.47h-4.52a4.88,4.88,0,0,1-2.23-.43,2.73,2.73,0,0,1-1.22-1.73l-.9-3a35.86,35.86,0,0,1-3.11,2.5,18.9,18.9,0,0,1-3.16,1.81,15.62,15.62,0,0,1-3.45,1.1,21.14,21.14,0,0,1-4.07.37,15.87,15.87,0,0,1-4.89-.72,10.44,10.44,0,0,1-3.84-2.14,9.68,9.68,0,0,1-2.5-3.55,12.59,12.59,0,0,1-.9-4.94,9.76,9.76,0,0,1,1.24-4.68,11.76,11.76,0,0,1,4.13-4.16,26.19,26.19,0,0,1,7.69-3.08,48.94,48.94,0,0,1,11.92-1.23V34.16c0-2.81-.58-4.9-1.77-6.25a6.43,6.43,0,0,0-5.14-2,12.42,12.42,0,0,0-4.07.57,16,16,0,0,0-2.83,1.28c-.8.48-1.54.9-2.22,1.28a4.49,4.49,0,0,1-2.23.57,2.91,2.91,0,0,1-1.75-.53,4,4,0,0,1-1.18-1.3l-1.84-3.21a24.84,24.84,0,0,1,17.38-6.6,16.78,16.78,0,0,1,6.53,1.2,13.76,13.76,0,0,1,7.89,8.45,19.41,19.41,0,0,1,1,6.51ZM372.76,54.2a13.37,13.37,0,0,0,2.85-.28,11.15,11.15,0,0,0,2.46-.84,14.23,14.23,0,0,0,2.24-1.38,20,20,0,0,0,2.17-2v-7a40.7,40.7,0,0,0-7.34.55,19.55,19.55,0,0,0-4.74,1.41,6.19,6.19,0,0,0-2.54,2,5,5,0,0,0,.81,6.31A6.72,6.72,0,0,0,372.76,54.2Z"/></g></g></svg>