<svg xmlns="http://www.w3.org/2000/svg" viewBox="0 0 559.64 168.93"><defs><style>.cls-1,.cls-2{fill:#1d1d1b;}.cls-2,.cls-4{fill-rule:evenodd;}.cls-3{fill:#0062ae;}.cls-4{fill:#fff;}.cls-5{fill:none;}</style></defs><title>Fichier 1</title><g id="Calque_2" data-name="Calque 2"><g id="Signature"><path class="cls-1" d="M173.25,109.4V70.62H173c-1.38,1.27-6.48,1.37-8.64,1.37h-3.75v.31c4.33,2.66,3.74,6.59,3.74,11.48v16.41c0,8.2-8.06,14-14.56,14-8.56,0-12.11-6.08-12.11-15.89V70.62h-.3C136,71.89,130.85,72,128.68,72H125v.32c4.33,2.65,3.74,6.58,3.74,11.47v16.36c0,15,6.49,22.08,18.1,22.08,6.89,0,14-2.44,17.51-8.28V121H177v-.32C172.66,118.25,173.25,114.3,173.25,109.4Z"/><path class="cls-1" d="M192.91,88.66c1.18-6.66,6.1-10.89,12.7-10.89,7.09,0,11.62,3.49,12.7,10.89Zm35.74,6.19c.39-13.69-8.77-24-22.15-24-14.67,0-24.61,10.64-24.61,25.4s11.51,26.2,28.25,26.2a33.25,33.25,0,0,0,13.58-2.63l4.93-10h-.3a24.65,24.65,0,0,1-16.15,5.67c-11.12,0-19.49-7.59-19.68-20.64Z"/><path class="cls-1" d="M236.46,48.09c2.35,0,7.16-.15,8.62-1.58h.29v67.17a30.29,30.29,0,0,0,8.12,1.26c10.75,0,16.92-7.52,16.92-18,0-10.28-4.79-18.23-14.67-18.23A15.91,15.91,0,0,0,247.52,81l5.28-9a19.53,19.53,0,0,1,6.95-1.17c11.15,0,20.63,9.68,20.63,24.2,0,16.63-11.25,27.39-29,27.39-6.65,0-13-1.18-17.85-1.92v-.33c3.25-1.49,3-5,3-8.51V62.84c0-4.91.59-11.77-3.64-14.43v-.32Z"/><path class="cls-1" d="M297.86,88.66C299,82,304,77.77,310.56,77.77c7.09,0,11.61,3.49,12.7,10.89Zm35.73,6.19c.4-13.69-8.76-24-22.15-24-14.66,0-24.6,10.64-24.6,25.4s11.51,26.2,28.24,26.2a33.26,33.26,0,0,0,13.59-2.63l4.92-10h-.29a24.65,24.65,0,0,1-16.15,5.67c-11.12,0-19.49-7.59-19.69-20.64Z"/><path class="cls-1" d="M377.62,83h-.29c-2.86-3.52-7.59-5.23-12-5.23-9.55,0-16.43,7.25-16.43,17.37,0,12.25,9.54,20.35,20.47,20.35a24.18,24.18,0,0,0,14.37-5.22h.3l-5.12,10.06a34.51,34.51,0,0,1-13,2.1c-15.15,0-27-10.67-27-24.52,0-18.33,13.22-27.08,28.09-27.08a45.37,45.37,0,0,1,10.63,1.26Z"/><path class="cls-2" d="M216.36,62V51.38c-6.45,2.89-12.44,8.3-16.44,13.56v4.15C209.5,62.64,216.36,62.34,216.36,62Z"/><path class="cls-1" d="M84.46,115.11c-14.87,0-25.21-16.77-25.21-31,0-.14,0-1.46,0-1.6.18-13.8,9.12-26.75,24.71-26.75,16.4,0,24.86,15.52,25,30.23V87.5C109,103.17,99.23,115.11,84.46,115.11Zm51,16.3c-11,1.79-21.53-1.67-32.74-14.49,10.83-5.44,17.53-19,17.53-31.55V83.8c-.2-21.52-16.37-35.73-35.64-35.73S48.18,62.86,48,84.55V86c0,21.1,15.66,36.77,34.85,36.77A34.32,34.32,0,0,0,91,121.71c12.57,11.78,23.78,16.8,33.46,15.63,4.59-.55,9.45-2.38,12.36-6.16Z"/><rect class="cls-3" x="401.62" y="48.1" width="48.02" height="29.43"/><path class="cls-4" d="M425.63,49.64a32.42,32.42,0,0,1-2.45,3.24,5.76,5.76,0,0,0-.54,6,26.46,26.46,0,0,1,1.69,4.56,14.2,14.2,0,0,1,.21,4.41h-1.32c0-3.25-1-6.31-3.47-7.66A4,4,0,0,0,413.93,65c.58,1.82,1.6,2.43,1.89,2.43a3.05,3.05,0,0,1,1-3,2.75,2.75,0,0,1,3.84.77,6.14,6.14,0,0,1,.85,2.6H419v1.85h5A2.5,2.5,0,0,1,421.13,72s.34,2,2.89,1a3.74,3.74,0,0,0,1.61,3.23h0A3.76,3.76,0,0,0,427.25,73c2.55,1.07,2.89-1,2.89-1a2.5,2.5,0,0,1-2.89-2.37h5V67.81h-2.51a6.23,6.23,0,0,1,.86-2.6,2.74,2.74,0,0,1,3.83-.77,3,3,0,0,1,1,3c.29,0,1.31-.61,1.9-2.43a4.05,4.05,0,0,0-5.83-4.89c-2.45,1.35-3.46,4.41-3.46,7.66h-1.33a14.2,14.2,0,0,1,.21-4.41,26.46,26.46,0,0,1,1.69-4.56,5.78,5.78,0,0,0-.53-6A34.9,34.9,0,0,1,425.63,49.64Z"/><rect class="cls-3" x="463.63" y="48.1" width="48.03" height="29.43"/><path class="cls-4" d="M487.64,49.64a33.79,33.79,0,0,1-2.47,3.24,5.78,5.78,0,0,0-.53,6,25.77,25.77,0,0,1,1.7,4.56,14.57,14.57,0,0,1,.21,4.41h-1.33c0-3.25-1-6.31-3.47-7.66A4,4,0,0,0,475.94,65c.57,1.82,1.59,2.43,1.88,2.43a3.07,3.07,0,0,1,1-3,2.74,2.74,0,0,1,3.83.77,6.23,6.23,0,0,1,.86,2.6H481v1.85h5A2.49,2.49,0,0,1,483.13,72s.34,2,2.88,1a3.75,3.75,0,0,0,1.63,3.23h0A3.77,3.77,0,0,0,489.25,73c2.55,1.07,2.89-1,2.89-1a2.5,2.5,0,0,1-2.89-2.37h5V67.81h-2.51a6.4,6.4,0,0,1,.86-2.6,2.75,2.75,0,0,1,3.84-.77,3.1,3.1,0,0,1,1,3c.28,0,1.3-.61,1.86-2.43a4,4,0,0,0-5.81-4.89c-2.45,1.35-3.46,4.41-3.46,7.66h-1.33a14.39,14.39,0,0,1,.22-4.41,24.17,24.17,0,0,1,1.69-4.56,5.8,5.8,0,0,0-.54-6A32.42,32.42,0,0,1,487.64,49.64Z"/><rect class="cls-3" x="401.62" y="91.55" width="48.02" height="29.42"/><path class="cls-4" d="M425.63,93.09a32.71,32.71,0,0,1-2.45,3.23,5.76,5.76,0,0,0-.54,6,26.46,26.46,0,0,1,1.69,4.56,14.2,14.2,0,0,1,.21,4.41h-1.32c0-3.24-1-6.31-3.47-7.66a4,4,0,0,0-5.82,4.89c.58,1.82,1.6,2.44,1.89,2.44a3.07,3.07,0,0,1,1-3,2.76,2.76,0,0,1,3.84.76,6.2,6.2,0,0,1,.85,2.61H419v1.85h5a2.5,2.5,0,0,1-2.89,2.36s.34,2.05,2.89,1a3.77,3.77,0,0,0,1.61,3.25h0a3.79,3.79,0,0,0,1.62-3.25c2.55,1.08,2.89-1,2.89-1a2.5,2.5,0,0,1-2.89-2.36h5v-1.85h-2.51a6.29,6.29,0,0,1,.86-2.61,2.75,2.75,0,0,1,3.83-.76,3.06,3.06,0,0,1,1,3c.29,0,1.31-.62,1.9-2.44a4.05,4.05,0,0,0-5.83-4.89c-2.45,1.35-3.46,4.42-3.46,7.66h-1.33a14.2,14.2,0,0,1,.21-4.41,26.46,26.46,0,0,1,1.69-4.56,5.77,5.77,0,0,0-.53-6A35.24,35.24,0,0,1,425.63,93.09Z"/><rect class="cls-3" x="463.63" y="91.55" width="48.03" height="29.42"/><path class="cls-4" d="M487.64,93.09a34.12,34.12,0,0,1-2.47,3.23,5.77,5.77,0,0,0-.53,6,25.77,25.77,0,0,1,1.7,4.56,14.57,14.57,0,0,1,.21,4.41h-1.33c0-3.24-1-6.31-3.47-7.66a4,4,0,0,0-5.81,4.89c.57,1.82,1.59,2.44,1.88,2.44a3.08,3.08,0,0,1,1-3,2.75,2.75,0,0,1,3.83.76,6.29,6.29,0,0,1,.86,2.61H481v1.85h5a2.49,2.49,0,0,1-2.88,2.36s.34,2.05,2.88,1a3.79,3.79,0,0,0,1.63,3.25h0a3.8,3.8,0,0,0,1.61-3.25c2.55,1.08,2.89-1,2.89-1a2.5,2.5,0,0,1-2.89-2.36h5v-1.85h-2.51a6.47,6.47,0,0,1,.86-2.61,2.77,2.77,0,0,1,3.84-.76,3.12,3.12,0,0,1,1,3c.28,0,1.3-.62,1.86-2.44a4,4,0,0,0-5.81-4.89c-2.45,1.35-3.46,4.42-3.46,7.66h-1.33a14.39,14.39,0,0,1,.22-4.41,24.17,24.17,0,0,1,1.69-4.56,5.8,5.8,0,0,0-.54-6A32.71,32.71,0,0,1,487.64,93.09Z"/><rect class="cls-5" width="559.64" height="168.93"/></g></g></svg>