<svg xmlns="http://www.w3.org/2000/svg" viewBox="0 0 114.73 114.73"><defs><style>.cls-1{fill:#223653;}.cls-2{fill:#fff;}</style></defs><title>Fichier 19</title><g id="Calque_2" data-name="Calque 2"><g id="Calque_1-2" data-name="Calque 1"><rect class="cls-1" width="114.73" height="114.73"/><path class="cls-2" d="M36.34,105.11c41.91,0,64.83-34.72,64.83-64.83,0-1,0-2-.07-2.94a46.39,46.39,0,0,0,11.37-11.8,45.27,45.27,0,0,1-13.08,3.59,22.9,22.9,0,0,0,10-12.6,45.92,45.92,0,0,1-14.47,5.53A22.8,22.8,0,0,0,56.11,42.83,64.65,64.65,0,0,1,9.15,19a22.8,22.8,0,0,0,7,30.42A22.77,22.77,0,0,1,5.88,46.6v.29A22.79,22.79,0,0,0,24.16,69.22a22.94,22.94,0,0,1-6,.81,22.27,22.27,0,0,1-4.28-.42A22.81,22.81,0,0,0,35.15,85.44a45.72,45.72,0,0,1-28.3,9.75,46.44,46.44,0,0,1-5.43-.31,64.49,64.49,0,0,0,34.92,10.23"/></g></g></svg>