<svg xmlns="http://www.w3.org/2000/svg" viewBox="0 0 114.73 114.73"><defs><style>.cls-1{fill:#223653;}.cls-2{fill:#fff;}</style></defs><title>Fichier 19</title><g id="Calque_2" data-name="Calque 2"><g id="Calque_1-2" data-name="Calque 1"><rect class="cls-1" width="114.73" height="114.73"/><path class="cls-2" d="M109.46,31.43a13.66,13.66,0,0,0-9.59-9.66c-8.47-2.28-42.4-2.28-42.4-2.28s-33.93,0-42.39,2.28a13.66,13.66,0,0,0-9.6,9.66C3.21,39.94,3.21,57.71,3.21,57.71S3.21,75.49,5.48,84a13.66,13.66,0,0,0,9.6,9.66c8.46,2.28,42.39,2.28,42.39,2.28s33.93,0,42.4-2.28A13.66,13.66,0,0,0,109.46,84c2.27-8.51,2.27-26.29,2.27-26.29S111.73,39.94,109.46,31.43ZM46.37,73.85V41.58L74.73,57.72Z"/></g></g></svg>