<?xml version="1.0" encoding="UTF-8"?>
<svg width="250px" height="156px" viewBox="0 0 250 156" version="1.1" xmlns="http://www.w3.org/2000/svg" xmlns:xlink="http://www.w3.org/1999/xlink">
    <!-- Generator: Sketch 64 (93537) - https://sketch.com -->
    <title>cwu-learnmore</title>
    <desc>Created with Sketch.</desc>
    <g id="Designs:-Landing-Page-&amp;-Learn-More" stroke="none" stroke-width="1" fill="none" fill-rule="evenodd">
        <g id="D:-Learn-More---CWU---Public-Sector-Expanded" transform="translate(-853.000000, -262.000000)" fill-rule="nonzero">
            <g id="cwu-learnmore" transform="translate(853.000000, 262.000000)">
                <g id="Background-Element-2" transform="translate(158.854167, 34.320000)">
                    <path d="M2.13518087,0 L88.0762111,0 C89.2554389,0 90.2113919,0.940012013 90.2113919,2.0995756 L90.2113919,68.2362069 C90.2113919,69.3957704 89.2554389,70.3357824 88.0762111,70.3357824 L2.13518087,70.3357824 C0.955953039,70.3357824 0,69.3957704 0,68.2362069 L0,2.0995756 C0,0.940012013 0.955953039,0 2.13518087,0 Z" id="Shape" fill="#60C9FF"></path>
                    <path d="M5.1244341,4.19915119 L85.0869578,4.19915119 C85.5586489,4.19915119 85.9410302,4.575156 85.9410302,5.03898143 L85.9410302,65.296801 C85.9410302,65.7606264 85.5586489,66.1366313 85.0869578,66.1366313 L5.1244341,66.1366313 C4.65274296,66.1366313 4.27036175,65.7606264 4.27036175,65.296801 L4.27036175,5.03898143 C4.27036175,4.575156 4.65274296,4.19915119 5.1244341,4.19915119 Z" id="Shape" fill="#FFFFFF"></path>
                    <ellipse id="Shape" fill="#0F4C8B" cx="18.451615" cy="18.2453886" rx="5.10673457" ry="5.01806231"></ellipse>
                    <path d="M16.4321862,17.9621724 C16.1524925,17.7699337 15.7729334,17.8453071 15.5844172,18.1305238 C15.3959009,18.4157404 15.4698148,18.8027945 15.7495085,18.9950333 L17.74196,20.3644828 C18.0006808,20.5423065 18.3492413,20.4926768 18.5503017,20.2493872 L21.2080741,17.0333962 C21.4254331,16.7703847 21.3925531,16.377488 21.1346346,16.1558369 C20.876716,15.9341857 20.4914274,15.967715 20.2740684,16.2307265 L17.9697804,19.0189899 L16.4321862,17.9621724 Z" id="Shape" fill="#FFFFFF"></path>
                    <ellipse id="Shape" fill="#FCBA19" cx="18.451615" cy="35.0419933" rx="5.10673457" ry="5.01806231"></ellipse>
                    <path d="M16.4321862,34.7587771 C16.1524925,34.5665384 15.7729334,34.6419118 15.5844172,34.9271284 C15.3959009,35.2123453 15.4698148,35.5993994 15.7495085,35.7916381 L17.74196,37.1610876 C18.0006808,37.3389112 18.3492413,37.2892817 18.5503017,37.045992 L21.2080741,33.830001 C21.4254331,33.5669895 21.3925531,33.1740928 21.1346346,32.9524416 C20.876716,32.7307905 20.4914274,32.7643197 20.2740684,33.0273314 L17.9697804,35.8155948 L16.4321862,34.7587771 Z" id="Shape" fill="#FFFFFF"></path>
                    <ellipse id="Shape" fill="#1E98D2" cx="18.451615" cy="51.8385981" rx="5.10673457" ry="5.01806231"></ellipse>
                    <path d="M16.4321862,51.5553819 C16.1524925,51.3631432 15.7729334,51.4385166 15.5844172,51.7237332 C15.3959009,52.00895 15.4698148,52.3960042 15.7495085,52.5882429 L17.74196,53.9576924 C18.0006808,54.1355159 18.3492413,54.0858864 18.5503017,53.8425968 L21.2080741,50.6266057 C21.4254331,50.3635943 21.3925531,49.9706975 21.1346346,49.7490464 C20.876716,49.5273952 20.4914274,49.5609244 20.2740684,49.8239362 L17.9697804,52.6121996 L16.4321862,51.5553819 Z" id="Shape" fill="#FFFFFF"></path>
                    <path d="M32.0277131,14.0671565 L54.6606304,14.0671565 C55.3681671,14.0671565 55.9417389,14.6311637 55.9417389,15.3269018 C55.9417389,16.02264 55.3681671,16.5866472 54.6606304,16.5866472 L32.0277131,16.5866472 C31.3201764,16.5866472 30.7466046,16.02264 30.7466046,15.3269018 C30.7466046,14.6311637 31.3201764,14.0671565 32.0277131,14.0671565 Z" id="Shape" fill="#CCEEFF"></path>
                    <path d="M31.814195,19.9459682 L75.798921,19.9459682 C76.5064578,19.9459682 77.0800296,20.5099754 77.0800296,21.2057135 C77.0800296,21.9014517 76.5064578,22.4654589 75.798921,22.4654589 L31.814195,22.4654589 C31.1066583,22.4654589 30.5330865,21.9014517 30.5330865,21.2057135 C30.5330865,20.5099754 31.1066583,19.9459682 31.814195,19.9459682 Z" id="Shape" fill="#CCEEFF"></path>
                    <path d="M31.814195,31.2836764 L45.9063888,31.2836764 C46.6139256,31.2836764 47.1874973,31.8476835 47.1874973,32.5434217 C47.1874973,33.2391599 46.6139256,33.8031671 45.9063888,33.8031671 L31.814195,33.8031671 C31.1066583,33.8031671 30.5330865,33.2391599 30.5330865,32.5434217 C30.5330865,31.8476835 31.1066583,31.2836764 31.814195,31.2836764 Z" id="Shape" fill="#CCEEFF"></path>
                    <path d="M31.814195,36.9525305 L75.798921,36.9525305 C76.5064578,36.9525305 77.0800296,37.5165376 77.0800296,38.2122758 C77.0800296,38.908014 76.5064578,39.4720212 75.798921,39.4720212 L31.814195,39.4720212 C31.1066583,39.4720212 30.5330865,38.908014 30.5330865,38.2122758 C30.5330865,37.5165376 31.1066583,36.9525305 31.814195,36.9525305 Z" id="Shape" fill="#CCEEFF"></path>
                    <path d="M31.814195,47.8703236 L58.717474,47.8703236 C59.4250108,47.8703236 59.9985826,48.4343307 59.9985826,49.1300689 C59.9985826,49.8258071 59.4250108,50.3898143 58.717474,50.3898143 L31.814195,50.3898143 C31.1066583,50.3898143 30.5330865,49.8258071 30.5330865,49.1300689 C30.5330865,48.4343307 31.1066583,47.8703236 31.814195,47.8703236 Z" id="Shape" fill="#CCEEFF"></path>
                    <path d="M31.814195,53.5391777 L75.798921,53.5391777 C76.5064578,53.5391777 77.0800296,54.1031848 77.0800296,54.798923 C77.0800296,55.4946612 76.5064578,56.0586684 75.798921,56.0586684 L31.814195,56.0586684 C31.1066583,56.0586684 30.5330865,55.4946612 30.5330865,54.798923 C30.5330865,54.1031848 31.1066583,53.5391777 31.814195,53.5391777 Z" id="Shape" fill="#CCEEFF"></path>
                </g>
                <g id="Background-Element-1" transform="translate(0.520833, 13.520000)">
                    <path d="M3.19479077,0 L148.87725,0 C150.641684,0 152.072041,1.42401452 152.072041,3.18062546 L152.072041,124.680518 C152.072041,126.437129 150.641684,127.861143 148.87725,127.861143 L3.19479077,127.861143 C1.43035655,127.861143 0,126.437129 0,124.680518 L0,3.18062546 C0,1.42401452 1.43035655,0 3.19479077,0 Z" id="Shape" fill="#CCEEFF"></path>
                    <path d="M8.306456,19.0837527 L143.765585,19.0837527 C144.824245,19.0837527 145.682459,19.9381615 145.682459,20.992128 L145.682459,119.591517 C145.682459,120.645484 144.824245,121.499892 143.765585,121.499892 L8.306456,121.499892 C7.24779547,121.499892 6.38958154,120.645484 6.38958154,119.591517 L6.38958154,20.992128 C6.38958154,19.9381615 7.24779547,19.0837527 8.306456,19.0837527 Z" id="Shape" fill="#FFFFFF"></path>
                    <path d="M3.19479077,0 L148.87725,0 C150.641684,0 152.072041,1.42401452 152.072041,3.18062546 L152.072041,12.7225018 L0,12.7225018 L0,3.18062546 C0,1.42401452 1.43035655,0 3.19479077,0 Z" id="Shape" fill="#62C7FC"></path>
                    <ellipse id="Shape" fill="#FFFFFF" cx="7.66749785" cy="6.36125091" rx="2.55583262" ry="2.54450036"></ellipse>
                    <ellipse id="Shape" fill="#FFFFFF" cx="15.9739539" cy="6.36125091" rx="2.55583262" ry="2.54450036"></ellipse>
                    <ellipse id="Shape" fill="#FFFFFF" cx="24.2804099" cy="6.36125091" rx="2.55583262" ry="2.54450036"></ellipse>
                    <path d="M24.5998889,34.98688 L50.1582151,34.98688 C51.3933191,34.98688 52.3945686,35.9836902 52.3945686,37.2133178 C52.3945686,38.4429455 51.3933191,39.4397557 50.1582151,39.4397557 L24.5998889,39.4397557 C23.364785,39.4397557 22.3635354,38.4429455 22.3635354,37.2133178 C22.3635354,35.9836902 23.364785,34.98688 24.5998889,34.98688 Z" id="Shape" fill="#1E98D2"></path>
                    <path d="M24.5998889,45.8010066 L75.7165413,45.8010066 C76.9516452,45.8010066 77.9528948,46.7978167 77.9528948,48.0274444 C77.9528948,49.2570721 76.9516452,50.2538822 75.7165413,50.2538822 L24.5998889,50.2538822 C23.364785,50.2538822 22.3635354,49.2570721 22.3635354,48.0274444 C22.3635354,46.7978167 23.364785,45.8010066 24.5998889,45.8010066 Z" id="Shape" fill="#0F4C8B"></path>
                    <path d="M24.5998889,56.6151331 L56.5477966,56.6151331 C57.7829006,56.6151331 58.7841502,57.6119433 58.7841502,58.8415709 C58.7841502,60.0711986 57.7829006,61.0680088 56.5477966,61.0680088 L24.5998889,61.0680088 C23.364785,61.0680088 22.3635354,60.0711986 22.3635354,58.8415709 C22.3635354,57.6119433 23.364785,56.6151331 24.5998889,56.6151331 Z" id="Shape" fill="#1E98D2"></path>
                    <path d="M24.5998889,67.4292597 L75.7165413,67.4292597 C76.9516452,67.4292597 77.9528948,68.4260698 77.9528948,69.6556975 C77.9528948,70.8853252 76.9516452,71.8821353 75.7165413,71.8821353 L24.5998889,71.8821353 C23.364785,71.8821353 22.3635354,70.8853252 22.3635354,69.6556975 C22.3635354,68.4260698 23.364785,67.4292597 24.5998889,67.4292597 Z" id="Shape" fill="#0F4C8B"></path>
                    <path d="M24.5998889,78.2433862 L59.7425874,78.2433862 C60.9776914,78.2433862 61.978941,79.2401964 61.978941,80.469824 C61.978941,81.6994517 60.9776914,82.6962619 59.7425874,82.6962619 L24.5998889,82.6962619 C23.364785,82.6962619 22.3635354,81.6994517 22.3635354,80.469824 C22.3635354,79.2401964 23.364785,78.2433862 24.5998889,78.2433862 Z" id="Shape" fill="#FCBA19"></path>
                    <path d="M24.5998889,89.0575128 L75.7165413,89.0575128 C76.9516452,89.0575128 77.9528948,90.0543229 77.9528948,91.2839506 C77.9528948,92.5135783 76.9516452,93.5103884 75.7165413,93.5103884 L24.5998889,93.5103884 C23.364785,93.5103884 22.3635354,92.5135783 22.3635354,91.2839506 C22.3635354,90.0543229 23.364785,89.0575128 24.5998889,89.0575128 Z" id="Shape" fill="#1E98D2"></path>
                    <path d="M24.5998889,98.5993891 L43.7686336,98.5993891 C45.0037375,98.5993891 46.0049871,99.5961993 46.0049871,100.825827 C46.0049871,102.055455 45.0037375,103.052265 43.7686336,103.052265 L24.5998889,103.052265 C23.364785,103.052265 22.3635354,102.055455 22.3635354,100.825827 C22.3635354,99.5961993 23.364785,98.5993891 24.5998889,98.5993891 Z" id="Shape" fill="#FCBA19"></path>
                    <path d="M60.4880386,34.98688 L108.303407,34.98688 C109.538511,34.98688 110.539761,35.9836902 110.539761,37.2133178 C110.539761,38.4429455 109.538511,39.4397557 108.303407,39.4397557 L60.4880386,39.4397557 C59.2529346,39.4397557 58.2516851,38.4429455 58.2516851,37.2133178 C58.2516851,35.9836902 59.2529346,34.98688 60.4880386,34.98688 Z" id="Shape" fill="#0F4C8B"></path>
                    <path d="M86.0463648,45.8010066 L133.861733,45.8010066 C135.096837,45.8010066 136.098087,46.7978167 136.098087,48.0274444 C136.098087,49.2570721 135.096837,50.2538822 133.861733,50.2538822 L86.0463648,50.2538822 C84.8112608,50.2538822 83.8100112,49.2570721 83.8100112,48.0274444 C83.8100112,46.7978167 84.8112608,45.8010066 86.0463648,45.8010066 Z" id="Shape" fill="#FCBA19"></path>
                    <path d="M66.6113876,56.6151331 L121.08257,56.6151331 C122.317674,56.6151331 123.318924,57.6119433 123.318924,58.8415709 C123.318924,60.0711986 122.317674,61.0680088 121.08257,61.0680088 L66.6113876,61.0680088 C65.3762836,61.0680088 64.375034,60.0711986 64.375034,58.8415709 C64.375034,57.6119433 65.3762836,56.6151331 66.6113876,56.6151331 Z" id="Shape" fill="#FCBA19"></path>
                    <path d="M86.0463648,67.4292597 L133.861733,67.4292597 C135.096837,67.4292597 136.098087,68.4260698 136.098087,69.6556975 C136.098087,70.8853252 135.096837,71.8821353 133.861733,71.8821353 L86.0463648,71.8821353 C84.8112608,71.8821353 83.8100112,70.8853252 83.8100112,69.6556975 C83.8100112,68.4260698 84.8112608,67.4292597 86.0463648,67.4292597 Z" id="Shape" fill="#1E98D2"></path>
                    <path d="M70.0724109,78.2433862 L121.08257,78.2433862 C122.317674,78.2433862 123.318924,79.2401964 123.318924,80.469824 C123.318924,81.6994517 122.317674,82.6962619 121.08257,82.6962619 L70.0724109,82.6962619 C68.8373069,82.6962619 67.8360574,81.6994517 67.8360574,80.469824 C67.8360574,79.2401964 68.8373069,78.2433862 70.0724109,78.2433862 Z" id="Shape" fill="#0F4C8B"></path>
                    <path d="M86.0463648,89.0575128 L133.861733,89.0575128 C135.096837,89.0575128 136.098087,90.0543229 136.098087,91.2839506 C136.098087,92.5135783 135.096837,93.5103884 133.861733,93.5103884 L86.0463648,93.5103884 C84.8112608,93.5103884 83.8100112,92.5135783 83.8100112,91.2839506 C83.8100112,90.0543229 84.8112608,89.0575128 86.0463648,89.0575128 Z" id="Shape" fill="#FCBA19"></path>
                    <path d="M54.0984571,98.5993891 L117.887779,98.5993891 C119.122883,98.5993891 120.124133,99.5961993 120.124133,100.825827 C120.124133,102.055455 119.122883,103.052265 117.887779,103.052265 L54.0984571,103.052265 C52.8633531,103.052265 51.8621035,102.055455 51.8621035,100.825827 C51.8621035,99.5961993 52.8633531,98.5993891 54.0984571,98.5993891 Z" id="Shape" fill="#0F4C8B"></path>
                </g>
                <g id="Background-Element-4" transform="translate(135.937500, 118.560000)">
                    <path d="M2.13350754,0 L44.5369698,0 C45.7152735,0 46.6704773,0.95265083 46.6704773,2.12780518 L46.6704773,34.5768342 C46.6704773,35.7519886 45.7152735,36.7046394 44.5369698,36.7046394 L2.13350754,36.7046394 C0.95520386,36.7046394 0,35.7519886 0,34.5768342 L0,2.12780518 C0,0.95265083 0.95520386,0 2.13350754,0 Z" id="Shape" fill="#62C7FC"></path>
                    <path d="M2.66688442,1.06390259 L44.0035929,1.06390259 C44.8873205,1.06390259 45.6037236,1.77839071 45.6037236,2.65975648 L45.6037236,34.0448829 C45.6037236,34.9262486 44.8873205,35.6407368 44.0035929,35.6407368 L2.66688442,35.6407368 C1.78315666,35.6407368 1.06675377,34.9262486 1.06675377,34.0448829 L1.06675377,2.65975648 C1.06675377,1.77839071 1.78315666,1.06390259 2.66688442,1.06390259 Z" id="Shape" fill="#FFFFFF"></path>
                    <path d="M18.710219,12.9613984 C19.0830593,12.6738392 19.1515685,12.1392875 18.8632387,11.7674438 C18.5749089,11.3956001 18.0389247,11.3272739 17.6660844,11.6148331 L9.66543119,17.7854681 C9.22365024,18.1261989 9.22365024,18.7913026 9.66543119,19.1320334 L17.6660844,25.3026684 C18.0389247,25.5902276 18.5749089,25.5219014 18.8632387,25.1500577 C19.1515685,24.778214 19.0830593,24.2436623 18.710219,23.9561031 L11.5825231,18.4587508 L18.710219,12.9613984 Z" id="Path" fill="#0F4C8B"></path>
                    <path d="M37.3250723,12.9613984 C37.6979126,12.6738392 37.766422,12.1392875 37.4780923,11.7674438 C37.1897623,11.3956001 36.653778,11.3272739 36.280938,11.6148331 L28.2802847,17.7854681 C27.8385036,18.1261989 27.8385036,18.7913026 28.2802847,19.1320334 L36.280938,25.3026684 C36.653778,25.5902276 37.1897623,25.5219014 37.4780923,25.1500577 C37.766422,24.778214 37.6979126,24.2436623 37.3250723,23.9561031 L30.1973765,18.4587508 L37.3250723,12.9613984 Z" id="Path" fill="#0F4C8B" transform="translate(32.802699, 18.458751) scale(-1, 1) translate(-32.802699, -18.458751) "></path>
                    <ellipse id="Oval" fill="#0F4C8B" cx="20.0016331" cy="18.3523197" rx="1.06675377" ry="1.06390259"></ellipse>
                    <ellipse id="Oval" fill="#0F4C8B" cx="26.9355326" cy="18.3523197" rx="1.06675377" ry="1.06390259"></ellipse>
                    <ellipse id="Oval" fill="#0F4C8B" cx="23.4685829" cy="18.3523197" rx="1.06675377" ry="1.06390259"></ellipse>
                </g>
                <g id="Background-Element-3" transform="translate(158.854167, 0.000000)">
                    <path d="M2.50331551,0 L25.0331551,0 C26.4156982,0 27.5364706,1.11142597 27.5364706,2.48243938 L27.5364706,24.8243938 C27.5364706,26.1954073 26.4156982,27.3068332 25.0331551,27.3068332 L2.50331551,27.3068332 C1.12077253,27.3068332 0,26.1954073 0,24.8243938 L0,2.48243938 C0,1.11142597 1.12077253,0 2.50331551,0 Z" id="Shape" fill="#62C7FC"></path>
                    <path d="M7.62316145,8.99572724 L8.75846256,7.86989384 C8.846188,7.78289996 8.98236043,7.76627618 9.08874318,7.82957352 L10.0910856,8.4259636 C10.7431066,8.01013613 11.4755176,7.70752164 12.2600795,7.54612373 L12.5467048,6.40918371 C12.5767944,6.28982911 12.6849364,6.20609845 12.808999,6.20609845 L14.4145572,6.20609845 C14.5386197,6.20609845 14.6467618,6.28982911 14.6768514,6.40918371 L14.9636114,7.54665836 L14.9636114,7.56043458 C15.7379183,7.72838479 16.4602347,8.03416024 17.1030977,8.4505269 L17.120963,8.43281053 L18.134813,7.82957352 C18.2411957,7.76627618 18.3773682,7.78289996 18.4650936,7.86989384 L19.6003947,8.99572724 C19.6881202,9.0827211 19.7048837,9.21775794 19.6410541,9.32325352 L19.0327442,10.3286486 L19.0087939,10.3523991 C19.4223123,10.9891053 19.725077,11.703234 19.8900868,12.4680091 L19.9263484,12.4680091 L21.0733887,12.7523778 C21.193747,12.7822165 21.2781818,12.8894567 21.2781818,13.0124846 L21.2781818,14.6046535 C21.2781818,14.7276814 21.193747,14.8349216 21.0733887,14.8647603 L19.9263484,15.149129 L19.8923245,15.149129 C19.7283655,15.9152976 19.4261921,16.6308178 19.0129045,17.2688154 L19.0327442,17.2884896 L19.6410541,18.2938846 C19.7048837,18.3993802 19.6881202,18.534417 19.6003947,18.6214109 L18.4650936,19.7472443 C18.3773682,19.8342381 18.2411957,19.8508619 18.134813,19.7875646 L17.120963,19.1843276 L17.1094469,19.1729075 C16.4649921,19.591376 15.7404685,19.898614 14.9636114,20.0671173 L14.9636114,20.0704797 L14.6768514,21.2079544 C14.6467618,21.327309 14.5386197,21.4110397 14.4145572,21.4110397 L12.808999,21.4110397 C12.6849364,21.4110397 12.5767944,21.327309 12.5467048,21.2079544 L12.2628483,20.0819972 C11.4738531,19.9200467 10.7375498,19.6152906 10.0826454,19.1961964 L9.08874318,19.7875646 C8.98236043,19.8508619 8.846188,19.8342381 8.75846256,19.7472443 L7.62316145,18.6214109 C7.53543599,18.534417 7.5186724,18.3993802 7.58250205,18.2938846 L8.17404953,17.316194 C7.74326244,16.6638943 7.42933567,15.9288601 7.26176618,15.1403425 L6.15016744,14.8647603 C6.02980913,14.8349216 5.94537433,14.7276814 5.94537433,14.6046535 L5.94537433,13.0124846 C5.94537433,12.8894567 6.02980913,12.7822165 6.15016744,12.7523778 L7.26411312,12.4762138 C7.43268727,11.6898536 7.74686633,10.9568873 8.17733938,10.3063814 L7.58250205,9.32325352 C7.5186724,9.21775794 7.53543599,9.0827211 7.62316145,8.99572724 Z M13.6455739,17.1678071 C15.5135318,17.1678071 17.0278109,15.6661562 17.0278109,13.813776 C17.0278109,11.9613957 15.5135318,10.4597448 13.6455739,10.4597448 C11.777616,10.4597448 10.263337,11.9613957 10.263337,13.813776 C10.263337,15.6661562 11.777616,17.1678071 13.6455739,17.1678071 Z" id="Shape" fill="#FFFFFF"></path>
                </g>
            </g>
        </g>
    </g>
</svg>
