<?xml version="1.0" encoding="UTF-8"?>
<svg width="445px" height="263px" viewBox="0 0 445 263" version="1.1" xmlns="http://www.w3.org/2000/svg" xmlns:xlink="http://www.w3.org/1999/xlink">
    <!-- Generator: sketchtool 64 (101010) - https://sketch.com -->
    <title>BEF693DC-044C-4B1F-AEDC-3B39973DDD0F</title>
    <desc>Created with sketchtool.</desc>
    <g id="Designs:-Landing-Page-&amp;-Learn-More" stroke="none" stroke-width="1" fill="none" fill-rule="evenodd">
        <g id="D:-Landing-Page" transform="translate(-710.000000, -2101.000000)">
            <g id="benefits-&amp;-features" transform="translate(45.000000, 1732.000000)">
                <g id="vendors" transform="translate(0.000000, 295.000000)">
                    <g id="Collaboration-Work" transform="translate(665.000000, 74.000000)">
                        <g id="Background" transform="translate(94.000000, 0.000000)" fill-rule="nonzero">
                            <g id="Background-Element-1" transform="translate(36.581645, 0.000000)">
                                <path d="M3.81721513,0 L181.69944,0 C183.80763,0 185.516655,1.70595032 185.516655,3.81034669 L185.516655,127.265579 C185.516655,129.369976 183.80763,131.075926 181.69944,131.075926 L3.81721513,131.075926 C1.70902543,131.075926 0,129.369976 0,127.265579 L0,3.81034669 C0,1.70595032 1.70902543,0 3.81721513,0 Z" id="Shape" fill="#CCEEFF"></path>
                                <path d="M9.92475933,22.8620801 L175.210174,22.8620801 C176.475088,22.8620801 177.500503,23.8856503 177.500503,25.1482882 L177.500503,121.169025 C177.500503,122.431662 176.475088,123.455233 175.210174,123.455233 L9.92475933,123.455233 C8.65984551,123.455233 7.63443026,122.431662 7.63443026,121.169025 L7.63443026,25.1482882 C7.63443026,23.8856503 8.65984551,22.8620801 9.92475933,22.8620801 Z" id="Shape" fill="#FFFFFF"></path>
                                <ellipse id="Shape" fill="#E5F6FF" cx="23.5394933" cy="39.6911114" rx="7.63443026" ry="7.62069338"></ellipse>
                                <path d="M18.252492,45.1886776 C18.4436383,44.9318076 18.6914269,44.7144028 18.9842279,44.555901 L21.2051003,43.3541599 C21.4164578,43.2395672 21.5479028,43.0202608 21.5479028,42.7811968 L21.5479028,41.9639832 C21.3811071,41.7473932 20.9038722,41.0724325 20.6758351,40.1766835 C20.4408274,39.9897295 20.3031587,39.7094223 20.3031587,39.4088634 L20.3031587,38.4209958 C20.3031587,38.1831666 20.3927803,37.9527464 20.5521076,37.7727075 L20.5521076,36.4590905 C20.5381664,36.323259 20.4833977,35.5144421 21.0729084,34.8473847 C21.5842493,34.268988 22.4139957,33.9755913 23.5394933,33.9755913 C24.6649909,33.9755913 25.4947373,34.268988 26.0060781,34.8476314 C26.5955889,35.5146891 26.5408202,36.323259 26.526879,36.4590905 L26.526879,37.7727075 C26.6862063,37.9527464 26.7758278,38.1831666 26.7758278,38.4209958 L26.7758278,39.4088634 C26.7758278,39.7978363 26.5477908,40.1423552 26.196524,40.3021427 C26.0167829,40.8210201 25.7695768,41.302112 25.4611292,41.734304 C25.3991409,41.8212361 25.3391443,41.9000189 25.282135,41.9691694 L25.282135,42.8041646 C25.282135,43.0531072 25.4215463,43.2768594 25.6458492,43.3882412 L28.0240572,44.5677553 C28.3378407,44.7234486 28.6029372,44.9436241 28.8065395,45.2077357 C27.4365767,46.5114071 25.5816749,47.3118047 23.5394933,47.3118047 C21.4873789,47.3118047 19.6243706,46.5036023 18.252492,45.1886776 Z" id="Combined-Shape" fill="#00A7FF"></path>
                                <path d="M29.7071746,45.1915872 C31.015012,43.7313918 31.8101261,41.8039391 31.8101261,39.6911114 C31.8101261,37.5782836 31.015012,35.6508309 29.7071746,34.1906355 C31.0787651,32.8774281 32.9405383,32.070418 34.9911387,32.070418 C39.2075181,32.070418 42.6255689,35.4823186 42.6255689,39.6911114 C42.6255689,43.8999041 39.2075181,47.3118047 34.9911387,47.3118047 C32.9405383,47.3118047 31.0787651,46.5047946 29.7071746,45.1915872 Z" id="Combined-Shape" fill="#E5F6FF"></path>
                                <path d="M30.4730734,44.19351 C30.5518154,44.1671469 30.6320957,44.1436923 30.7138054,44.1232853 L32.867947,43.5855537 L32.9922238,43.0899447 C32.2235763,42.9618256 31.649906,42.7814914 31.2693044,42.6337449 C31.6187357,41.7196812 31.8101261,40.727707 31.8101261,39.6911114 C31.8101261,39.2187039 31.7703763,38.7555642 31.6940333,38.3048424 C31.6943076,38.2716753 31.6944463,38.2382281 31.6944463,38.2044989 C31.6944463,35.0551181 34.0116896,33.9948355 35.068241,33.9948355 C35.8824587,33.9948355 36.1855205,34.1665897 36.5892689,34.5561151 L36.7551384,34.5561151 C37.8746846,34.5561151 38.4420357,35.7836529 38.4420357,38.2044989 C38.4420357,41.0749366 39.4468731,41.9033983 39.456968,41.9112391 C39.5295046,41.9690693 39.5705699,42.059419 39.5643758,42.1514792 C39.5576283,42.2435391 39.5081282,42.328285 39.4282905,42.3748808 C39.3945527,42.3945345 38.6298347,42.839075 37.1436781,43.0888397 L37.2679551,43.58558 L39.4221229,44.1232853 C39.8998636,44.2425527 40.3287172,44.4659292 40.6869507,44.7656056 C39.2888703,46.3281345 37.2550857,47.3118047 34.9911387,47.3118047 C32.9405383,47.3118047 31.0787651,46.5047946 29.7071746,45.1915872 C29.9868397,44.8793423 30.2430597,44.5457312 30.4730734,44.19351 Z" id="Combined-Shape" fill="#00A7FF"></path>
                                <path d="M17.5591896,56.393131 L167.575744,56.393131 C168.840658,56.393131 169.866073,57.4167013 169.866073,58.679339 C169.866073,59.9419768 168.840658,60.965547 167.575744,60.965547 L17.5591896,60.965547 C16.2942758,60.965547 15.2688605,59.9419768 15.2688605,58.679339 C15.2688605,57.4167013 16.2942758,56.393131 17.5591896,56.393131 Z" id="Shape" fill="#E4F6FF"></path>
                                <path d="M17.5591896,69.3483098 L167.575744,69.3483098 C168.840658,69.3483098 169.866073,70.37188 169.866073,71.6345178 C169.866073,72.8971555 168.840658,73.9207258 167.575744,73.9207258 L17.5591896,73.9207258 C16.2942758,73.9207258 15.2688605,72.8971555 15.2688605,71.6345178 C15.2688605,70.37188 16.2942758,69.3483098 17.5591896,69.3483098 Z" id="Shape" fill="#E4F6FF"></path>
                                <path d="M17.5591896,95.2586672 L167.575744,95.2586672 C168.840658,95.2586672 169.866073,96.2822375 169.866073,97.5448753 C169.866073,98.807513 168.840658,99.8310833 167.575744,99.8310833 L17.5591896,99.8310833 C16.2942758,99.8310833 15.2688605,98.807513 15.2688605,97.5448753 C15.2688605,96.2822375 16.2942758,95.2586672 17.5591896,95.2586672 Z" id="Shape" fill="#E4F6FF"></path>
                                <path d="M17.5591896,82.3034885 L167.575744,82.3034885 C168.840658,82.3034885 169.866073,83.3270588 169.866073,84.5896965 C169.866073,85.8523343 168.840658,86.8759045 167.575744,86.8759045 L17.5591896,86.8759045 C16.2942758,86.8759045 15.2688605,85.8523343 15.2688605,84.5896965 C15.2688605,83.3270588 16.2942758,82.3034885 17.5591896,82.3034885 Z" id="Shape" fill="#E4F6FF"></path>
                                <path d="M3.81721513,0 L181.69944,0 C183.80763,0 185.516655,1.70595032 185.516655,3.81034669 L185.516655,15.2413868 L0,15.2413868 L0,3.81034669 C0,1.70595032 1.70902543,0 3.81721513,0 Z" id="Shape" fill="#62C7FC"></path>
                                <ellipse id="Shape" fill="#FFFFFF" cx="10.6882024" cy="7.62069338" rx="3.0537721" ry="3.04827735"></ellipse>
                                <ellipse id="Shape" fill="#FFFFFF" cx="20.6129617" cy="7.62069338" rx="3.0537721" ry="3.04827735"></ellipse>
                                <ellipse id="Shape" fill="#FFFFFF" cx="30.537721" cy="7.62069338" rx="3.0537721" ry="3.04827735"></ellipse>
                                <path d="M31.3011641,78.1121071 L66.4195432,78.1121071 C67.2628192,78.1121071 67.9464293,78.7944872 67.9464293,79.6362458 L67.9464293,85.3517658 C67.9464293,86.1935245 67.2628192,86.8759045 66.4195432,86.8759045 L31.3011641,86.8759045 C30.4578882,86.8759045 29.774278,86.1935245 29.774278,85.3517658 L29.774278,79.6362458 C29.774278,78.7944872 30.4578882,78.1121071 31.3011641,78.1121071 Z" id="Shape" fill="#01B681"></path>
                                <polygon id="Shape" fill="#00A7FF" points="66.8012648 76.5169274 66.8012648 69.3483098 66.0378217 69.3483098 66.0378217 76.5169274"></polygon>
                                <ellipse id="Shape" fill="#00A7FF" cx="66.4195432" cy="69.3483098" rx="1.52688605" ry="1.52413868"></ellipse>
                                <path d="M132.457365,65.1569284 L152.306884,65.1569284 C153.15016,65.1569284 153.83377,65.8393085 153.83377,66.6810671 L153.83377,72.3965871 C153.83377,73.2383457 153.15016,73.9207258 152.306884,73.9207258 L132.457365,73.9207258 C131.614089,73.9207258 130.930479,73.2383457 130.930479,72.3965871 L130.930479,66.6810671 C130.930479,65.8393085 131.614089,65.1569284 132.457365,65.1569284 Z" id="Shape" fill="#00A7FF"></path>
                                <path d="M101.919644,91.0672859 L137.038023,91.0672859 C137.881299,91.0672859 138.564909,91.7496659 138.564909,92.5914246 L138.564909,98.3069446 C138.564909,99.1487032 137.881299,99.8310833 137.038023,99.8310833 L101.919644,99.8310833 C101.076368,99.8310833 100.392758,99.1487032 100.392758,98.3069446 L100.392758,92.5914246 C100.392758,91.7496659 101.076368,91.0672859 101.919644,91.0672859 Z" id="Shape" fill="#DB2721"></path>
                                <polygon id="Shape" fill="#00A7FF" points="138.564909 89.4721062 138.564909 82.3034885 137.801466 82.3034885 137.801466 89.4721062"></polygon>
                                <ellipse id="Shape" fill="#00A7FF" cx="138.183188" cy="82.3034885" rx="1.52688605" ry="1.52413868"></ellipse>
                                <path d="M17.5591896,108.213846 L140.855238,108.213846 C142.120152,108.213846 143.145567,109.237416 143.145567,110.500054 C143.145567,111.762692 142.120152,112.786262 140.855238,112.786262 L17.5591896,112.786262 C16.2942758,112.786262 15.2688605,111.762692 15.2688605,110.500054 C15.2688605,109.237416 16.2942758,108.213846 17.5591896,108.213846 Z" id="Shape" fill="#E4F6FF"></path>
                                <path d="M45.0431385,104.022465 L68.7098723,104.022465 C69.5531483,104.022465 70.2367584,104.704845 70.2367584,105.546603 L70.2367584,111.262123 C70.2367584,112.103882 69.5531483,112.786262 68.7098723,112.786262 L45.0431385,112.786262 C44.1998626,112.786262 43.5162525,112.103882 43.5162525,111.262123 L43.5162525,105.546603 C43.5162525,104.704845 44.1998626,104.022465 45.0431385,104.022465 Z" id="Shape" fill="#FFAA0A"></path>
                                <polygon id="Shape" fill="#00A7FF" points="70.2367584 102.427285 70.2367584 95.2586672 69.4733153 95.2586672 69.4733153 102.427285"></polygon>
                                <ellipse id="Shape" fill="#00A7FF" cx="69.8550369" cy="95.2586672" rx="1.52688605" ry="1.52413868"></ellipse>
                                <polygon id="Shape" fill="#00A7FF" points="153.83377 63.5617487 153.83377 56.393131 153.070327 56.393131 153.070327 63.5617487"></polygon>
                                <ellipse id="Shape" fill="#00A7FF" cx="153.452048" cy="56.393131" rx="1.52688605" ry="1.52413868"></ellipse>
                            </g>
                            <g id="Check" transform="translate(211.219237, 29.847716)">
                                <path d="M6.36202521,0 L41.3531639,0 C44.8668134,0 47.7151891,2.84325053 47.7151891,6.35057782 L47.7151891,41.2787558 C47.7151891,44.7860831 44.8668134,47.6293336 41.3531639,47.6293336 L6.36202521,47.6293336 C2.84837571,47.6293336 0,44.7860831 0,41.2787558 L0,6.35057782 C0,2.84325053 2.84837571,0 6.36202521,0 Z" id="Shape" fill="#62C7FC"></path>
                                <path d="M6.36202521,0.952586672 C3.37542315,0.952586672 0.954303782,3.36934964 0.954303782,6.35057782 L0.954303782,41.2787558 C0.954303782,44.2599841 3.37542315,46.6767469 6.36202521,46.6767469 L41.3531639,46.6767469 C44.3397661,46.6767469 46.7608853,44.2599841 46.7608853,41.2787558 L46.7608853,6.35057782 C46.7608853,3.36934964 44.3397661,0.952586672 41.3531639,0.952586672 L6.36202521,0.952586672 Z" id="Path" fill="#FFFFFF"></path>
                                <g id="Background-Element-1" transform="translate(8.288960, 8.527919)">
                                    <ellipse id="Shape" fill="#2E8540" cx="15.1850747" cy="15.1803714" rx="15.1850747" ry="15.1803714"></ellipse>
                                    <path d="M9.07264333,14.514216 C8.23477356,13.9496587 7.09773986,14.1710117 6.53300759,15.008622 C5.96827527,15.8462323 6.18969695,16.9829138 7.02756677,17.5474712 L12.9962922,21.5692035 C13.7713341,22.0914274 14.8155062,21.9456772 15.4178165,21.2311964 L23.3796234,11.7866315 C24.0307593,11.0142321 23.9322617,9.86039234 23.1596231,9.20945821 C22.3869844,8.55852405 21.2327871,8.65699105 20.5816513,9.42939043 L13.6787667,17.6178259 L9.07264333,14.514216 Z" id="Shape" fill="#FFFFFF"></path>
                                </g>
                            </g>
                            <g id="Idea" transform="translate(0.000000, 46.676747)">
                                <path d="M6.36202521,0 L41.3531639,0 C44.8668134,0 47.7151891,2.84325053 47.7151891,6.35057782 L47.7151891,41.2787558 C47.7151891,44.7860831 44.8668134,47.6293336 41.3531639,47.6293336 L6.36202521,47.6293336 C2.84837571,47.6293336 0,44.7860831 0,41.2787558 L0,6.35057782 C0,2.84325053 2.84837571,0 6.36202521,0 Z" id="Shape" fill="#62C7FC"></path>
                                <path d="M6.36202521,0.952586672 C3.37542315,0.952586672 0.954303782,3.36934964 0.954303782,6.35057782 L0.954303782,41.2787558 C0.954303782,44.2599841 3.37542315,46.6767469 6.36202521,46.6767469 L41.3531639,46.6767469 C44.3397661,46.6767469 46.7608853,44.2599841 46.7608853,41.2787558 L46.7608853,6.35057782 C46.7608853,3.36934964 44.3397661,0.952586672 41.3531639,0.952586672 L6.36202521,0.952586672 Z" id="Path" fill="#FFFFFF"></path>
                                <g id="Group" transform="translate(12.786885, 8.754725)">
                                    <path d="M6.05304692,20.1741582 C2.47426264,18.4733995 -1.86673113e-15,14.8242442 -1.86673113e-15,10.5969683 C-1.86673113e-15,4.74442432 4.74257248,-9.33730017e-15 10.5928321,-9.33730017e-15 C16.4430917,-9.33730017e-15 21.1856642,4.74442432 21.1856642,10.5969683 C21.1856642,14.8242442 18.7114017,18.4733995 15.1326173,20.1741582 L15.1326173,25.7354945 C15.1326173,28.2437275 13.1000862,30.2770523 10.5928321,30.2770523 C8.08557797,30.2770523 6.05304692,28.2437275 6.05304692,25.7354945 L6.05304692,20.1741582 Z" id="Shape" fill="#FCBA19"></path>
                                    <path d="M6.05304692,20.1741582 L15.1326173,20.1741582 C15.4669179,20.1741582 15.737922,20.4452682 15.737922,20.7796993 L15.737922,21.3852403 C15.737922,21.7196716 15.4669179,21.9907813 15.1326173,21.9907813 L6.05304692,21.9907813 C5.71874636,21.9907813 5.44774223,21.7196716 5.44774223,21.3852403 L5.44774223,20.7796993 C5.44774223,20.4452682 5.71874636,20.1741582 6.05304692,20.1741582 Z" id="Shape" fill="#0E143F"></path>
                                    <path d="M6.05304692,23.0105598 L15.1326173,23.0105598 C15.4669179,23.0105598 15.737922,23.2816698 15.737922,23.6161008 L15.737922,24.2216419 C15.737922,24.5560729 15.4669179,24.8271829 15.1326173,24.8271829 L6.05304692,24.8271829 C5.71874636,24.8271829 5.44774223,24.5560729 5.44774223,24.2216419 L5.44774223,23.6161008 C5.44774223,23.2816698 5.71874636,23.0105598 6.05304692,23.0105598 Z" id="Shape" fill="#0E143F"></path>
                                </g>
                            </g>
                            <g id="Background-Element-2" transform="translate(144.099871, 139.077654)">
                                <path d="M2.54481009,0 L76.9805051,0 C78.3859649,0 79.5253152,1.13730021 79.5253152,2.54023113 L79.5253152,67.3161249 C79.5253152,68.7190558 78.3859649,69.856356 76.9805051,69.856356 L2.54481009,69.856356 C1.13935028,69.856356 0,68.7190558 0,67.3161249 L0,2.54023113 C0,1.13730021 1.13935028,0 2.54481009,0 Z" id="Rectangle" fill="#A1E0FF"></path>
                                <path d="M2.54481009,1.27011556 C1.84208018,1.27011556 1.27240504,1.83876567 1.27240504,2.54023113 L1.27240504,67.3161249 C1.27240504,68.0175903 1.84208018,68.5862404 2.54481009,68.5862404 L76.9805051,68.5862404 C77.683235,68.5862404 78.2529101,68.0175903 78.2529101,67.3161249 L78.2529101,2.54023113 C78.2529101,1.83876567 77.683235,1.27011556 76.9805051,1.27011556 L2.54481009,1.27011556 Z" id="Path" fill="#FFFFFF"></path>
                                <path d="M33.4006324,13.6537423 L50.5781005,13.6537423 C51.4565129,13.6537423 52.1686068,14.364555 52.1686068,15.2413868 C52.1686068,16.1182186 51.4565129,16.8290312 50.5781005,16.8290312 L33.4006324,16.8290312 C32.5222199,16.8290312 31.8101261,16.1182186 31.8101261,15.2413868 C31.8101261,14.364555 32.5222199,13.6537423 33.4006324,13.6537423 Z" id="Rectangle" fill="#A1E0FF"></path>
                                <path d="M33.4006324,20.0043201 L62.0297458,20.0043201 C62.9081583,20.0043201 63.6202521,20.7151328 63.6202521,21.5919646 C63.6202521,22.4687964 62.9081583,23.179609 62.0297458,23.179609 L33.4006324,23.179609 C32.5222199,23.179609 31.8101261,22.4687964 31.8101261,21.5919646 C31.8101261,20.7151328 32.5222199,20.0043201 33.4006324,20.0043201 Z" id="Rectangle-Copy-4" fill="#A1E0FF"></path>
                                <path d="M33.4006324,30.4827735 L50.5781005,30.4827735 C51.4565129,30.4827735 52.1686068,31.1935862 52.1686068,32.070418 C52.1686068,32.9472499 51.4565129,33.6580624 50.5781005,33.6580624 L33.4006324,33.6580624 C32.5222199,33.6580624 31.8101261,32.9472499 31.8101261,32.070418 C31.8101261,31.1935862 32.5222199,30.4827735 33.4006324,30.4827735 Z" id="Rectangle" fill="#A1E0FF"></path>
                                <path d="M33.4006324,36.8333513 L62.0297458,36.8333513 C62.9081583,36.8333513 63.6202521,37.5441639 63.6202521,38.4209958 C63.6202521,39.2978277 62.9081583,40.0086402 62.0297458,40.0086402 L33.4006324,40.0086402 C32.5222199,40.0086402 31.8101261,39.2978277 31.8101261,38.4209958 C31.8101261,37.5441639 32.5222199,36.8333513 33.4006324,36.8333513 Z" id="Rectangle-Copy-4" fill="#A1E0FF"></path>
                                <path d="M33.4006324,47.6293336 L50.5781005,47.6293336 C51.4565129,47.6293336 52.1686068,48.3401462 52.1686068,49.2169781 C52.1686068,50.09381 51.4565129,50.8046225 50.5781005,50.8046225 L33.4006324,50.8046225 C32.5222199,50.8046225 31.8101261,50.09381 31.8101261,49.2169781 C31.8101261,48.3401462 32.5222199,47.6293336 33.4006324,47.6293336 Z" id="Rectangle" fill="#A1E0FF"></path>
                                <path d="M33.4006324,53.9799114 L62.0297458,53.9799114 C62.9081583,53.9799114 63.6202521,54.690724 63.6202521,55.5675559 C63.6202521,56.4443878 62.9081583,57.1552003 62.0297458,57.1552003 L33.4006324,57.1552003 C32.5222199,57.1552003 31.8101261,56.4443878 31.8101261,55.5675559 C31.8101261,54.690724 32.5222199,53.9799114 33.4006324,53.9799114 Z" id="Rectangle-Copy-4" fill="#A1E0FF"></path>
                                <path d="M15.905063,12.7011556 L24.1756958,12.7011556 C24.8784257,12.7011556 25.4481009,13.2698057 25.4481009,13.9712712 L25.4481009,22.2270224 C25.4481009,22.9284878 24.8784257,23.4971379 24.1756958,23.4971379 L15.905063,23.4971379 C15.2023331,23.4971379 14.632658,22.9284878 14.632658,22.2270224 L14.632658,13.9712712 C14.632658,13.2698057 15.2023331,12.7011556 15.905063,12.7011556 Z" id="Rectangle" fill="#DB2721"></path>
                                <path d="M15.905063,29.8477157 L24.1756958,29.8477157 C24.8784257,29.8477157 25.4481009,30.4163658 25.4481009,31.1178313 L25.4481009,39.3735825 C25.4481009,40.0750479 24.8784257,40.643698 24.1756958,40.643698 L15.905063,40.643698 C15.2023331,40.643698 14.632658,40.0750479 14.632658,39.3735825 L14.632658,31.1178313 C14.632658,30.4163658 15.2023331,29.8477157 15.905063,29.8477157 Z" id="Rectangle" fill="#FFAA0A"></path>
                                <path d="M15.905063,46.6767469 L24.1756958,46.6767469 C24.8784257,46.6767469 25.4481009,47.2453971 25.4481009,47.9468625 L25.4481009,56.2026137 C25.4481009,56.9040791 24.8784257,57.4727292 24.1756958,57.4727292 L15.905063,57.4727292 C15.2023331,57.4727292 14.632658,56.9040791 14.632658,56.2026137 L14.632658,47.9468625 C14.632658,47.2453971 15.2023331,46.6767469 15.905063,46.6767469 Z" id="Rectangle" fill="#60C9FF"></path>
                            </g>
                        </g>
                        <g id="bg" opacity="0.5" transform="translate(0.000000, 178.000000)" fill-rule="nonzero">
                            <path d="M400.196553,27.6155273 C372.056273,20.3302148 358.069802,30.4411559 326.20812,44.3300993 C294.346441,58.2190427 255.001604,62.6727454 210.086279,36.7521106 C165.170954,10.8314757 114.844706,20.3302148 94.3802833,49.254731 C80.7373352,68.537742 49.2772407,79.786165 0,83 L445,83 C433.891223,50.9338932 418.956737,32.4724023 400.196553,27.6155273 Z" id="Shape" fill="#CCEEFF"></path>
                            <path d="M0.634807418,83 C15.8638725,45.0459747 45.6602442,32.3946332 90.0239218,45.0459747 C156.569439,64.0229875 195.471349,49.7902279 230.194523,21.324709 C264.917697,-7.14080985 305.721498,-10.9362124 353.752506,33.6597672 C385.773179,63.3904203 416.189011,79.8371645 445,83 L0.634807418,83 Z" id="Shape" fill="#E5F6FF"></path>
                        </g>
                        <g id="Man-Standing-1" transform="translate(20.000000, 69.000000)">
                            <g id="Head-Front/-Man/2" transform="translate(11.446023, 0.233446)">
                                <path d="M3.19809363,17.9837757 C2.00097412,17.9856158 0.88158507,17.2359926 0.470054677,16.0419498 C0.0938385958,14.9503705 0.412682512,13.7876007 1.19177619,13.0346183 C0.987502365,11.6901659 0.802207017,10.4599573 0.635890152,9.34399248 C0.635890152,4.71007666 4.47930936,0.953545631 9.2204072,0.953545631 C13.961505,0.953545631 17.8049242,4.71007666 17.8049242,9.34399248 L17.8049242,14.7093122 C17.8049242,18.4503102 16.1915569,21.5491942 14.3539538,22.7121714 C14.7410258,24.2202784 15.2770432,25.4716741 15.9620059,26.4663586 C17.2231981,28.2978278 17.201614,30.2825588 15.8972538,32.4205514 L3.49739583,32.4205514 L4.45123106,18.5910684 C4.34845725,18.4948314 3.29476537,18.0804634 3.19809363,17.9837757 Z" id="Shape" fill="#FFB5B9"></path>
                                <path d="M15.2613636,11.7603961 C15.2613636,11.5848532 15.1190148,11.4425476 14.9434186,11.4425476 C14.7678224,11.4425476 14.6254735,11.5848532 14.6254735,11.7603961 L14.6254735,14.2401044 C14.6254735,14.3995567 14.7436509,14.5343319 14.9017778,14.5552151 C15.4922706,14.6331993 15.7328228,14.7580289 15.7328228,14.8147405 C15.7328228,14.9416657 15.4241677,15.2420529 14.782562,15.6182583 C14.6310967,15.7070699 14.5803278,15.9018156 14.6691664,16.0532349 C14.758005,16.2046542 14.9528098,16.2554077 15.1042751,16.1665961 C15.9391352,15.677076 16.368713,15.2590053 16.368713,14.8147405 C16.368713,14.3564628 15.9738254,14.1014824 15.2613636,13.9685453 L15.2613636,11.7603961 Z" id="Shape" fill="#F97A80" fill-rule="nonzero"></path>
                                <path d="M10.8134199,16.8915611 C11.0195729,18.3136003 12.0367547,18.9318976 13.7138868,18.7071145 C13.8879259,18.6837884 14.0100971,18.5238351 13.9867638,18.3498489 C13.9634306,18.1758627 13.8034287,18.0537286 13.6293897,18.0770547 C12.2729043,18.2588621 11.594379,17.8464182 11.4427354,16.8003846 C11.4175501,16.6266566 11.2562563,16.5062329 11.0824756,16.5314106 C10.9086948,16.5565883 10.7882345,16.7178331 10.8134199,16.8915611 Z" id="Shape" fill="#F97A80" fill-rule="nonzero"></path>
                                <path d="M10.1534776,10.4818271 C9.36704652,10.8358133 8.66764048,10.9125297 8.59131048,10.6531779 C8.51498049,10.3938261 9.09063114,9.8966174 9.87706218,9.54263117 C10.6634933,9.1886449 11.3628993,9.11192849 11.4392293,9.37128032 C11.5155593,9.63063211 10.9399086,10.1278408 10.1534776,10.4818271 Z M16.4354609,10.6517517 C15.5591679,10.4219566 14.8925263,10.0204998 14.9464752,9.75507265 C15.000424,9.48964553 15.754534,9.46076002 16.630827,9.69055508 C17.5071199,9.92035014 18.1737615,10.321807 18.1198127,10.5872341 C18.0658639,10.8526613 17.3117539,10.8815468 16.4354609,10.6517517 Z M11.6049953,13.0317903 C11.3416009,13.0317903 11.1280777,12.8183318 11.1280777,12.5550175 C11.1280777,12.2917031 11.3416009,12.0782447 11.6049953,12.0782447 C11.8683896,12.0782447 12.0819129,12.2917031 12.0819129,12.5550175 C12.0819129,12.8183318 11.8683896,13.0317903 11.6049953,13.0317903 Z M16.6921165,13.0317903 C16.4287222,13.0317903 16.2151989,12.8183318 16.2151989,12.5550175 C16.2151989,12.2917031 16.4287222,12.0782447 16.6921165,12.0782447 C16.9555108,12.0782447 17.1690341,12.2917031 17.1690341,12.5550175 C17.1690341,12.8183318 16.9555108,13.0317903 16.6921165,13.0317903 Z M2.38080094,12.8247608 C2.22851391,12.7292338 1.65459621,12.6244768 1.06316587,13.1844717 C0.243309733,10.7002526 0.483730061,9.28405969 0.551825648,7.87977593 C0.707074213,4.67820239 4.43142229,-0.319875937 10.6936379,0.312181558 C16.9558535,0.944239025 17.4615628,5.11820245 17.072841,5.76195751 C16.6841193,6.40571253 15.513513,7.21348081 14.0014002,7.30743486 C12.9829401,7.37071616 10.9865932,7.1346488 8.01235952,6.59923281 C7.69301664,7.82357414 7.33210618,8.63911483 6.92962819,9.04585487 C6.74704406,9.23037247 6.27690704,9.49435004 6.11807618,9.59027272 C5.92678933,9.70579652 2.82281406,8.86475987 2.81932813,9.03840482 C2.81584219,9.2120498 5.87368881,9.95789177 5.86204423,10.119425 C5.85025495,10.2829658 5.83790066,10.4415554 5.82498131,10.5951937 C5.81019871,10.7709904 2.77803079,9.93939708 2.75038779,10.0849087 C2.72274478,10.2304204 5.72867031,11.0487433 5.71248487,11.1873704 C5.5167994,12.8634036 5.24912879,14.0880525 4.87098212,14.1652069 C4.11703934,14.3190362 3.52939907,13.0900316 2.38080094,12.8247608 Z" id="Shape" fill="#732213"></path>
                                <path d="M4.13808463,14.8792789 C3.09185762,13.8695846 2.15975035,13.9972079 1.6397127,15.2584159 C1.57279298,15.4207113 1.65015016,15.6065103 1.8124948,15.6734098 C1.97483944,15.7403092 2.16069493,15.6629755 2.22761465,15.5006801 C2.56725275,14.6769814 2.9575421,14.6235434 3.6964326,15.3366329 C3.82276579,15.4585548 4.02404622,15.4550097 4.14600506,15.3287149 C4.26796393,15.2024201 4.26441782,15.0012007 4.13808463,14.8792789 Z" id="Shape" fill="#F97A80" fill-rule="nonzero"></path>
                                <path d="M13.8527462,22.5899789 C13.0340235,23.2049356 12.3265344,23.4373564 11.7259336,23.3149481 C11.0644091,23.180123 9.5048208,22.4765872 7.09183308,21.2164485 C6.93619372,21.1351687 6.74411277,21.1954108 6.66280827,21.3510029 C6.5815038,21.506595 6.64176412,21.6986176 6.79740348,21.7798974 C9.26968767,23.0710026 10.8553006,23.7862782 11.5989066,23.9378323 C12.4034363,24.1018033 13.2834885,23.8126929 14.2347179,23.0982082 C14.3751041,22.9927617 14.4034024,22.7935094 14.2979239,22.6531657 C14.1924453,22.5128221 13.9931325,22.4845324 13.8527462,22.5899789 Z" id="Shape" fill="#F97A80" fill-rule="nonzero"></path>
                            </g>
                            <g id="Front-Bottom/-Standing/-Long-Pants-2" transform="translate(0.000000, 78.033116)">
                                <path d="M2.98573079,96.4354731 L9.53990489,97.7090884 L5.55700801,111.165626 L0.316392447,110.163859 L2.98573079,96.4354731 Z M43.366799,98.0383532 L49.9938773,97.2248974 L50.3654791,111.253234 L45.0717003,111.919444 L43.366799,98.0383532 Z" id="Shape" fill="#FFB5B9"></path>
                                <path d="M0.280913111,109.137564 C0.842739333,108.584223 3.47380383,110.198419 4.56961498,110.201544 C5.30015576,110.203628 5.77598753,109.854401 5.99711032,109.153865 C10.5442828,111.013249 13.2323347,112.191272 14.0612661,112.687932 C14.8901974,113.184592 15.134938,113.763773 14.7954876,114.425476 L0.280913111,114.425476 C-0.0936377035,111.269095 -0.0936377035,109.506458 0.280913111,109.137564 Z M44.4752786,109.210787 C45.0371047,108.657446 47.6681692,110.271642 48.7639806,110.274768 C49.4945214,110.276851 49.9703532,109.927624 50.1914758,109.227088 C54.7386483,111.086472 57.4267003,112.264495 58.2556315,112.761155 C59.0845629,113.257815 59.3293034,113.836996 58.9898531,114.498699 L44.4752786,114.498699 C44.1007278,111.342319 44.1007278,109.579681 44.4752786,109.210787 Z" id="Shape" fill="#021768"></path>
                                <path d="M26.3139063,37.2889543 L13.3135677,103.65792 L0.44453313,102.76374 L6.00462158,55.6279946 L10.1269583,1.66246586 L15.987926,1.95741821 L40.2525788,0 L52.4528779,58.6989617 L54.1744116,101.744424 L42.713957,103.420851 C40.8308316,84.3106634 39.3423183,70.7158034 38.2484178,62.6362721 C34.5126121,55.3069796 30.5344417,46.8578737 26.3139063,37.2889543 Z" id="Shape" fill="#134DBD"></path>
                                <path d="M38.9040221,7.80407658 C39.0074767,7.66223546 38.9763238,7.46340928 38.8344395,7.35998585 C38.6925552,7.25656238 38.4936685,7.28770607 38.3902139,7.42954719 L28.0140404,21.6557344 C27.9832133,21.6979997 27.9632967,21.7472176 27.9560573,21.7990222 L25.8340171,36.9842196 C25.809722,37.1580741 25.9310066,37.3187002 26.104914,37.3429879 C26.2788214,37.3672757 26.4394963,37.2460279 26.4637914,37.0721733 L28.5748046,21.965885 L38.9040221,7.80407658 Z" id="Shape" fill="#0E143F" fill-rule="nonzero"></path>
                            </g>
                            <g id="Front-body/-Man/-Pose2/-Shirt" transform="translate(0.635890, 0.105486)">
                                <path d="M27.358294,26.513079 C29.685224,26.016173 43.522829,27.1929355 51.284102,27.7805853 C53.7312724,27.9658744 56.2645866,40.1259068 53.8073859,40.8116522 C50.1189051,41.8410181 44.8699871,42.7453445 40.0313905,43.3419991 C40.5304943,50.2174986 40.1546587,57.5865373 40.8524356,62.4605416 C42.0594283,70.8914411 45.9091778,74.9779954 43.8835825,79.8336932 C42.2794949,83.6789648 14.796137,86.2568926 10.0945479,82.17673 C7.12541966,79.6000424 9.72372077,73.1217961 10.8382088,67.8808217 C9.92867433,65.0149584 8.88156534,61.4855695 7.48091662,57.9601892 C7.25290953,57.3863038 5.71816617,58.5993807 4.91546912,56.9079831 C4.11277207,55.2165854 -0.717259164,40.081497 0.190513739,37.5430142 C1.05275557,35.1318539 1.94011863,33.2609856 3.2741747,32.2152421 C3.68335329,31.729062 4.22246983,31.2649396 4.92255828,30.8152106 C5.87593156,30.2027744 9.00762573,28.9106059 14.3176408,26.9387052 C14.5663177,26.8463578 14.7888568,26.273716 14.9852579,25.2207799 C16.7487898,26.8641158 20.22711,28.8467743 25.4202185,31.1687555 C25.7400095,28.2832725 25.8440994,26.0960242 25.7324879,24.6070106 C26.2477669,25.6601245 26.789702,26.2954806 27.358294,26.513079 L27.358294,26.513079 Z" id="Shape" fill="#FFAA0A"></path>
                                <path d="M23.8435492,50.9467075 L21.72839,54.941614 L17.9368082,53.3824393 C17.7736385,53.3153405 17.5887661,53.3977412 17.5238844,53.5664863 C17.4590026,53.7352314 17.5386808,53.9264206 17.7018506,53.9935193 L21.754734,55.6601466 C21.9039427,55.7215044 22.0739705,55.6581772 22.1510888,55.512524 L24.4554679,51.1602376 C24.4905092,51.0940546 24.5024741,51.0174214 24.4893548,50.9431964 L23.4715789,45.1849724 C23.4368567,44.9885279 23.2422108,44.8691868 23.0588935,44.9319474 L16.4332216,47.2003179 C16.2665225,47.2573891 16.176123,47.4434082 16.2313086,47.6158031 C16.2864942,47.7881981 16.4663673,47.8816865 16.6330663,47.8246152 L22.9117714,45.6750326 L23.8435492,50.9467075 Z" id="Shape" fill="#0E143F" fill-rule="nonzero"></path>
                                <path d="M32.3158448,81.6747969 C32.2158338,61.6720483 31.7324333,49.6867617 30.8585641,45.6649111 C29.986731,41.652432 28.3742506,36.9849345 26.0216745,31.6603056 C25.9486976,31.4951351 25.7600646,31.4224189 25.6003512,31.4978897 C25.4406379,31.5733603 25.3703243,31.7684387 25.4433013,31.9336092 C27.7788527,37.2197062 29.3769499,41.8455694 30.2381442,45.8090858 C31.0973024,49.7632309 31.5802628,61.7376097 31.6799545,81.6781969 C31.6808626,81.8597905 31.8239455,82.0062401 31.9995392,82.0053101 C32.1751333,82.0043623 32.3167441,81.8563904 32.3158448,81.6747969 Z" id="Shape" fill="#0E143F" fill-rule="nonzero"></path>
                                <path d="M25.7620384,32.124343 C25.9368745,32.1074653 26.065377,31.9472076 26.0490569,31.7663975 C26.0327368,31.5855874 25.8777739,31.452694 25.7029378,31.4695718 L22.4510229,31.7834946 C22.3560953,31.7926584 22.2701541,31.8453933 22.216885,31.9271658 L19.9670188,35.3808853 L14.6216714,26.7979683 L15.1387833,25.5981903 C15.2102722,25.4323251 15.1382077,25.2379313 14.9778227,25.1639997 C14.8174376,25.0900681 14.6294666,25.164595 14.5579777,25.3304602 L13.9708643,26.6926522 C13.9271857,26.7939933 13.9358727,26.9112807 13.993966,27.0045601 L19.6937491,36.1565871 C19.8174094,36.3551459 20.0971391,36.3581337 20.2247384,36.1622586 L22.6601007,32.4237878 L25.7620384,32.124343 Z" id="Shape" fill="#0E143F" fill-rule="nonzero"></path>
                                <path d="M27.5204768,30.3357036 C27.4184988,30.2857359 27.2985515,30.2954123 27.2052995,30.3611297 L25.5534448,31.5252394 C25.4083372,31.6275009 25.3708645,31.8320526 25.4697473,31.9821183 C25.5686301,32.1321841 25.7664235,32.170937 25.9115314,32.0686755 L27.4128407,31.0106593 L30.4785262,32.5128004 C30.7705705,32.6558979 31.0588405,32.3094704 30.8784849,32.0321513 L26.0577607,24.6196928 C25.959762,24.4690079 25.7622002,24.4290117 25.6164939,24.5303587 C25.4707876,24.6317057 25.4321131,24.8360179 25.5301114,24.9867028 L29.7049802,31.4060783 L27.5204768,30.3357036 Z" id="Shape" fill="#0E143F" fill-rule="nonzero"></path>
                                <path d="M39.4356399,39.7661607 C39.8755363,41.8257105 40.0505018,44.2875406 39.8370475,46.1381428 C39.8162491,46.3184606 39.9407354,46.4820737 40.1150956,46.5035827 C40.2894557,46.5250918 40.4476629,46.3963519 40.4684613,46.2160341 C40.691062,44.2861342 40.5109314,41.7516288 40.0565625,39.6243207 C40.0186886,39.4469989 39.8489876,39.3350032 39.6775243,39.3741712 C39.5060613,39.4133392 39.397766,39.5888389 39.4356399,39.7661607 Z" id="Shape" fill="#0E143F" fill-rule="nonzero"></path>
                                <path d="M75.2904807,7.17869495 C75.8693874,5.17108177 76.7072058,3.16688336 77.0679529,2.72841164 C77.4287001,2.2899399 77.7389608,2.48515259 77.9987352,3.31404968 C80.3797668,1.05752819 81.7495924,0.026289253 82.1082122,0.220332769 C82.8231213,0.607159024 80.5349084,2.88112725 80.3933281,3.4192955 C80.8235548,3.29656147 81.2016494,2.99030702 81.6613872,3.43534689 C81.9678789,3.73204013 81.8441369,4.20868577 81.2901608,4.86528382 C81.8676702,4.45288538 82.4475744,4.32544108 82.6994578,4.69903288 C82.9513412,5.07262469 83.0552539,5.39489279 82.1666849,6.16533852 C81.8416,6.44720782 82.8499988,5.9977402 82.9991716,6.40987457 C83.1483447,6.82200894 83.1483447,7.09900635 82.317552,7.668663 C81.156705,8.46463086 79.7806343,9.00264816 78.1487649,9.2469222 L77.6202407,10.0602614 C77.7364795,10.2028151 60.5125023,37.5423212 58.4840029,38.0786492 C58.0262325,38.1996821 56.9043315,38.5816668 54.8098811,39.1690565 C54.6079983,34.7184881 54.4290569,32.7932146 52.2823401,28.4786495 C54.3960476,28.6362996 55.6382342,28.749955 56.2620364,28.7474349 C57.1264976,24.5700552 67.5286131,16.7988455 75.2904807,7.17869495 Z M17.3818003,54.0285665 C17.6987331,55.2617066 18.2513045,57.2945683 18.5200851,58.4197114 C22.3019594,54.4717769 37.4724048,46.5580289 38.9992406,45.2192389 L40.9685018,43.464942 C43.237886,41.4482466 44.6500225,40.4167771 45.2049117,40.3705335 C45.7598012,40.3242899 45.3501998,41.2708316 43.9761083,43.2101585 C47.9475383,43.4340493 49.9937063,43.745723 50.1146125,44.1451794 C50.3556394,44.9414968 47.1828162,44.8761391 46.7147346,45.1531484 C47.1028692,45.3809733 50.859562,45.9071469 50.8806328,46.5580289 C50.8942126,46.9919503 49.3874966,47.0830877 46.3602048,46.8314413 C48.9508798,47.5509621 50.1816007,48.0976561 50.0523668,48.4715232 C49.858516,49.0323239 47.2461973,48.496687 46.0910961,48.3916926 C45.6685001,48.3532802 48.5799953,49.4566332 48.403682,49.8571416 C48.2273688,50.2576501 47.2153989,49.966621 45.1698862,49.5650277 C43.8062109,49.2972989 42.4639097,48.6531317 41.1429827,47.6325261 C25.1663927,66.152743 17.4038798,73.3803691 15.4003474,71.7629447 C13.7301621,70.4146267 10.067521,64.4131847 7.31273674,57.6676668 C13.0719173,57.6676668 17.9909654,53.2787887 17.3818003,54.0285665 Z" id="Shape" fill="#FFB5B9"></path>
                                <path d="M17.900104,53.6377847 C18.7156623,53.0494456 19.0065919,52.2331017 18.7442497,51.2600864 C18.4357336,50.1158138 18.059198,49.3533212 17.2559778,48.0504142 C17.2449018,48.0324478 17.0975071,47.7937402 17.0543302,47.7235532 C16.3724709,46.6151429 16.0168482,45.9173196 15.7017768,44.9462284 C15.6459183,44.7740654 15.4656816,44.6813291 15.2992068,44.7390962 C15.132732,44.7968633 15.0430597,44.9832585 15.0989182,45.1554215 C15.4337624,46.1874551 15.8106389,46.9269838 16.5178115,48.0765427 C16.5613342,48.1472918 16.7089706,48.3863909 16.7197895,48.4039402 C17.4920197,49.6565781 17.843876,50.3690949 18.1317247,51.4367126 C18.3209516,52.1385466 18.1320245,52.6686732 17.5362996,53.0984257 C17.3922807,53.2023201 17.3569706,53.4072828 17.4574324,53.5562227 C17.5578942,53.7051626 17.756085,53.7416792 17.900104,53.6377847 Z" id="Shape" fill="#0E143F" fill-rule="nonzero"></path>
                            </g>
                        </g>
                        <g id="Man-Standing-1" transform="translate(372.000000, 163.000000) scale(-1, 1) translate(-372.000000, -163.000000) translate(326.000000, 64.000000)">
                            <g id="Head-Back/-Man/1-" transform="translate(25.875000, 0.550930)">
                                <path d="M14.1466295,26.3250421 C13.9496571,28.5304148 13.9405979,29.8141091 14.119452,30.1761252 C14.5024731,30.9513931 16.1449092,33.8048881 14.0555556,36.210718 C11.9662019,38.6165479 4.01557016,40.0007242 1.5960611,36.1263718 C1.72055491,33.2256395 2.54620662,28.3037019 4.07301624,21.3605589 C3.05779269,20.4819229 2.35888982,19.5821489 2.23023523,18.7465082 C1.88183561,16.4835735 1.35076484,14.4061302 0.637022934,12.5141782 C0.637022934,7.88333365 4.49856697,4.1292924 9.26202295,4.1292924 C14.0254789,4.1292924 17.887023,7.88333365 17.887023,12.5141782 L17.887023,17.8759418 C17.887023,22.5067864 17.3279477,26.1847068 15.0062758,26.3891126 C14.7843225,26.4086539 14.492817,26.3856325 14.1466295,26.3250421 L14.1466295,26.3250421 Z" id="Shape" fill="#944300"></path>
                                <path d="M14.2683926,28.0694182 C14.2813641,26.0388692 14.2561313,24.8551792 14.1880645,24.4667964 C14.1819759,24.4320558 14.1758989,24.4042189 14.1677481,24.3779978 C14.1586238,24.3482512 14.1586238,24.3482512 14.1257778,24.2875144 C14.0385553,24.1578197 14.0385553,24.1578197 13.6867296,24.187695 C13.5530224,24.3248403 13.5530224,24.3248403 13.5435048,24.3765024 C13.5341897,24.4137742 13.5341897,24.4137742 13.5306558,24.4380531 C13.5272271,24.4629177 13.5250254,24.4911378 13.5234341,24.5255413 C13.5182506,24.6376072 13.5190447,24.8416395 13.5254933,25.1441474 C13.5381492,25.7378448 13.5729073,26.7162515 13.6297842,28.0805565 C13.6470087,28.4937196 14.265751,28.4829278 14.2683926,28.0694182 Z" id="Shape" fill="#4A2D00" fill-rule="nonzero"></path>
                                <path d="M3.7462033,22.9598069 C7.81476386,23.5486996 10.1097021,23.4455354 10.6310179,22.6503141 C11.4129917,21.4574821 10.4440506,16.1048368 12.9294481,15.0377637 C15.4148456,13.9706906 15.4100437,17.2026514 16.1675419,17.048924 C16.9250401,16.8951967 15.1420175,10.5287364 17.450757,10.1676119 C18.0988841,10.0662343 18.6819615,9.92598463 19.1999891,9.74686298 C23.7038467,8.18953611 26.2499289,5.62217693 25.3866893,3.8389663 C24.8111962,2.65015922 22.6779995,2.34064272 18.987099,2.91041679 C20.3955178,0.885633043 19.7441235,-0.0826656228 17.0329162,0.00552079089 C14.7260087,0.0805566979 8.95770656,2.89465864 5.75301249,3.14830008 C3.61654977,3.31739437 2.40870048,4.42901084 2.12946462,6.48314951 C0.817811463,7.03332684 0.109991323,8.37489935 0.00600419824,10.5078671 C-0.0979829264,12.6408348 1.14875011,16.7914814 3.7462033,22.9598069 Z" id="Shape" fill="#441006"></path>
                                <path d="M15.1667112,16.9426016 C14.1155504,15.9335764 13.1790475,16.0611151 12.6565575,17.3214873 C12.5893222,17.4836751 12.6670441,17.669351 12.8301544,17.736206 C12.9932646,17.8030611 13.1799965,17.7257787 13.2472318,17.5635909 C13.5884716,16.7404382 13.9806015,16.6870355 14.7229765,17.3996524 C14.8499054,17.5214934 15.052135,17.5179508 15.174669,17.3917397 C15.297203,17.2655286 15.2936402,17.0644426 15.1667112,16.9426016 Z" id="Shape" fill="#4A2D00" fill-rule="nonzero"></path>
                            </g>
                            <g id="Back-Bottom/-Standing/-Long-Pants" transform="translate(14.694444, 82.110689)" fill-rule="nonzero">
                                <path d="M2.99981093,96.3715568 L9.58489328,97.644328 L5.58321381,111.091947 L0.317884494,110.090844 L2.99981093,96.3715568 Z M43.5713086,97.9733745 L50.229639,97.1604578 L50.6029932,111.179497 L45.2842499,111.845265 L43.5713086,97.9733745 Z" id="Shape" fill="#944300"></path>
                                <path d="M26.3136587,32.2487204 L9.35444944,104.502862 L0.638126762,102.943094 C2.18419762,73.6503757 5.0896385,57.7444379 9.35444944,55.2252818 C7.03833417,38.7480999 7.31175606,20.8934608 10.1747151,1.661364 L16.0633221,1.95612085 L40.4424023,-9.02781144e-15 L51.1111111,54.4888317 L50.8886289,104.983552 L42.7822821,106.524321 C38.2014679,78.3375835 37.7184328,62.5432979 41.3331764,59.1414639 C36.7618951,51.8305876 31.755389,42.8663398 26.3136587,32.2487204 Z" id="Shape" fill="#134DBD"></path>
                                <path d="M0.282237844,108.820766 C0.846713532,108.267791 3.49018563,109.880918 4.59116442,109.884041 C5.32515029,109.886123 5.80322599,109.537128 6.02539155,108.837056 C10.5940076,110.695208 13.2947359,111.872449 14.1275763,112.36878 C14.9604168,112.865111 15.2063115,113.443909 14.8652603,114.105172 L0.282237844,114.105172 C-0.0940792811,110.950884 -0.0940792811,109.189415 0.282237844,108.820766 Z M44.6850156,109.138404 C45.2494912,108.585429 47.8929632,110.198556 48.9939423,110.201679 C49.7279282,110.20376 50.2060039,109.854765 50.4281692,109.154694 C54.9967854,111.012845 57.6975138,112.190087 58.530354,112.686418 C59.3631945,113.182749 59.6090891,113.761546 59.2680381,114.42281 L44.6850156,114.42281 C44.3086985,111.268522 44.3086985,109.507053 44.6850156,109.138404 Z" id="Shape" fill="#021768"></path>
                            </g>
                            <g id="Back-body/-Man/-Pose1/-Vest" transform="translate(0.000000, 0.105416)">
                                <path d="M84.1547498,6.8001476 C84.5641815,4.74935511 84.9308685,3.48945502 85.2548108,3.02044738 C85.578753,2.55143975 85.90582,2.71783425 86.2360118,3.51963094 C88.428101,1.05871706 89.7118306,-0.0913024985 90.0872008,0.0695722242 C90.8355017,0.390276355 88.7377918,2.8601985 88.6416537,3.4087162 C89.061872,3.24777802 89.4143726,2.90883468 89.9122037,3.31047678 C90.2440912,3.57823817 90.1605977,4.06390128 89.6617238,4.76746606 C90.2048292,4.30489066 90.5737722,4.24483871 90.7685528,4.58731018 C91.0607241,5.10101741 91.4732364,5.13572103 90.6491107,5.98276323 C90.3476024,6.29265553 91.3188432,5.75436457 91.503046,6.1512219 C91.6872492,6.54807927 92.5473118,6.10433293 90.9274043,7.46578531 C89.8474658,8.37342027 88.5011752,9.02232383 86.8885327,9.41249603 L84.1933164,14.4342477 L80.9314612,12.2185647 L84.1547498,6.8001476 Z" id="Shape" fill="#944300"></path>
                                <path d="M53.1393798,45.924023 C54.0831293,54.7955311 53.4385303,63.6925508 54.2582225,69.3874889 C54.9503146,74.1959044 57.4830797,75.0051025 58.281556,77.1555354 C58.8821709,78.7730939 50.3502551,87.7108933 41.8420776,90.0886739 C33.3339,92.4664542 28.2069061,89.8866187 23.2393741,86.3022579 C22.8827134,86.0449068 22.7354747,85.3877521 22.724491,84.4566364 C17.9485841,81.7634131 0.535078577,72.0050073 0.0178154806,67.9535388 C-0.560037123,63.427502 13.0761515,36.1571848 18.0938392,34.8985593 C18.1339743,34.8884919 18.1739611,34.8791689 18.2137997,34.8705904 C19.3975055,34.1767347 22.5700822,32.8039194 27.7315297,30.7521446 C27.7315297,30.4503426 27.7187979,28.3891548 28.2774072,28.5382059 C30.4886011,29.1282081 39.0980019,28.6457413 39.914776,28.5382059 C40.7315504,28.4306704 40.4543847,31.1966095 40.3981459,30.4503426 C43.9769034,30.668381 46.6023425,31.125223 48.2744636,31.8208684 C56.0251873,30.2432854 65.1604777,29.1223415 66.7752729,30.1128458 C67.6214001,24.1007334 74.6722757,20.7635964 82.6498998,8.21556355 C83.6080226,6.70852871 85.3293225,7.26324095 87.8137991,9.87970025 C80.9918064,26.0645188 71.6997304,40.1815344 71.5130084,40.3490527 C69.3281512,42.3092061 60.7854622,44.7442607 53.1393798,45.924023 L53.1393798,45.924023 Z M19.4151505,56.2610919 C16.3961745,60.2957784 13.6445337,63.1590745 11.160228,64.8509803 C15.1343633,68.7379715 16.4819299,70.0496251 23.4942247,77.926764 C24.1232761,74.0119956 24.8305516,69.6927157 24.3142113,67.208002 C23.7107995,64.3042868 21.4364023,60.4967679 19.4151505,56.2610919 L19.4151505,56.2610919 Z" id="Shape" fill="#89D8FF"></path>
                                <path d="M27.8584538,29.8996673 C29.1500249,30.5514363 34.1341233,31.494506 40.4389718,29.7301576 C40.6262941,29.8450446 45.2493493,30.4799528 48.2252778,31.826286 C45.5947659,34.4480919 46,50.4356723 49.6198524,52.3914854 C53.2397049,54.3472984 53.3058788,47.6179271 53.3751334,48.545756 C53.9702542,56.5188222 53.5193485,64.2540482 54.2582225,69.3874889 C54.9503146,74.1959044 57.4830797,75.0051025 58.281556,77.1555354 C58.8821709,78.7730939 50.3502551,87.7108933 41.8420776,90.0886739 C33.3339,92.4664542 28.2069061,89.8866187 23.2393741,86.3022579 C21.3433572,84.9341725 25.3656295,72.267597 24.3142113,67.208002 C23.2627931,62.1484073 17.138011,54.3447291 16.1192051,46.3133061 C15.4327721,40.9020366 13.8119796,37.6781866 18.0429944,34.9747805 C19.5807301,33.9922445 26.7020527,30.0758151 27.8584538,29.8996673 Z" id="Shape" fill="#134DBD"></path>
                                <path d="M52.5389661,45.5801039 C51.3283618,46.2202704 50.6347597,46.7251523 50.4208003,47.165613 C49.868662,48.3022553 49.8095932,49.3415946 50.0462542,50.2023101 C50.0953573,50.3808946 50.1463605,50.5104738 50.1844711,50.5864082 C50.265403,50.7476627 50.4580951,50.8108986 50.6148609,50.7276495 C50.771627,50.6444004 50.8331028,50.446191 50.7521709,50.2849365 C50.7329413,50.2466222 50.697934,50.1576821 50.6610273,50.0234547 C50.4657148,49.3131206 50.5152549,48.4414441 50.9923152,47.459359 C51.1216972,47.1930103 51.7470678,46.7377951 52.831068,46.1645766 C52.9879734,46.0816053 53.0497808,45.8835051 52.9691192,45.7221074 C52.8884572,45.5607097 52.6958712,45.4971326 52.5389661,45.5801039 Z" id="Shape" fill="#0E143F" fill-rule="nonzero"></path>
                                <path d="M23.1958566,86.8288091 C24.3590588,88.508353 28.5699586,89.9789354 35.9132321,91.3317227 C36.0868933,91.3637149 36.2528862,91.2448383 36.283988,91.0662048 C36.3150894,90.8875713 36.1995221,90.7168254 36.0258609,90.6848332 C28.8700558,89.3665817 24.738612,87.9237482 23.7162055,86.4474985 C22.695463,84.9736514 22.695463,82.6599098 23.7579947,79.4933505 L23.7676614,79.4583757 C25.3920286,72.0434768 25.1243854,66.3383733 22.9426249,62.3453466 C20.815854,58.4529611 18.9999912,54.2365839 17.495142,49.6959727 C17.4382145,49.5242041 17.2566956,49.4324283 17.0897082,49.4909859 C16.9227208,49.5495434 16.8334997,49.7362596 16.8904272,49.9080283 C18.407676,54.486053 20.23939,58.7392364 22.3856749,62.6673362 C24.4752755,66.491693 24.7368248,72.033901 23.1482694,79.2962352 C22.030994,82.6346185 22.0329985,85.1497619 23.1958566,86.8288091 Z" id="Shape" fill="#0E143F" fill-rule="nonzero"></path>
                                <path d="M83.8279055,10.9744483 C85.1074629,11.4866059 85.8614099,12.1058479 86.1138962,12.8104621 C86.174912,12.9807391 86.3585696,13.0678966 86.524107,13.0051338 C86.689644,12.9423709 86.7743754,12.7534548 86.7133596,12.5831777 C86.3857594,11.6689424 85.4931192,10.9357871 84.059588,10.3619997 C83.8951728,10.2961905 83.7100237,10.3799429 83.6460464,10.5490659 C83.582069,10.718189 83.6634903,10.9086391 83.8279055,10.9744483 Z" id="Shape" fill="#0E143F" fill-rule="nonzero"></path>
                            </g>
                        </g>
                        <g id="Woman-Kneeling-1" transform="translate(105.000000, 116.000000)">
                            <g id="Back-Bottom/-Sit/-Pants1" transform="translate(0.000000, 73.236899)">
                                <path d="M116.811497,53.4134642 C116.438449,56.7250077 115.793481,62.0646705 114.876592,69.4324531 L110.19309,69.7278006 C109.384582,63.3913197 108.488283,57.952219 107.626959,53.2010484 C104.625923,36.646965 120.288278,22.5500665 116.811497,53.4134642 Z M21.3065024,68.9056671 C17.6645342,68.2629556 11.6981749,67.1698549 3.40742443,65.6263654 L3.76590126,60.9610509 C9.7633921,60.6928992 15.3889054,60.1365145 20.5699031,59.5633283 C34.1254849,58.0636417 48.861816,73.7684557 21.3065024,68.9056671 Z" id="Shape" fill="#F79474"></path>
                                <path d="M70.265843,34.2223194 C68.8287943,56.8777679 67.2565087,68.9550796 65.5489865,70.4542543 C63.4095425,72.3326487 44.0879804,73.9690874 10.7848563,67.8596199 C7.9085191,67.3319551 8.0767796,60.4515427 10.7848563,60.2189746 C28.4093762,58.7053885 44.6959017,54.5520572 52.0887726,58.3043185 C49.6023153,51.9975888 40.4159869,15.800613 39.9062738,10.297569 C39.2562947,3.28016423 49.8775259,1.69283217 71.7699673,5.5355728 C71.7443469,6.1151096 71.7186768,6.69077568 71.6929575,7.26257107 C99.0872218,0.85906103 114.306754,-1.30990104 117.351553,0.755684887 C120.725458,3.04453542 120.692776,24.9971449 116.34021,60.9748565 C116.024835,63.5816997 107.924045,62.4310654 107.864558,60.2769909 C107.242508,37.7518659 102.783838,28.4122904 106.370419,18.1378933 C96.7845281,23.5543398 84.3032994,28.3021686 70.265843,34.2223194 L70.265843,34.2223194 Z" id="Shape" fill="#021768"></path>
                                <path d="M70.0353613,33.7095579 C64.1700032,36.1842575 60.5662885,37.2288215 59.3821229,36.8517537 C59.2137398,36.7981364 59.0336441,36.8907688 58.9798677,37.058654 C58.9260914,37.2265392 59.0189985,37.4061025 59.1873815,37.4597199 C60.5897667,37.9062742 64.2362778,36.8493053 70.2848204,34.297317 C70.447607,34.2286345 70.5237281,34.041382 70.4548419,33.8790768 C70.3859557,33.7167716 70.198148,33.6408754 70.0353613,33.7095579 Z" id="Shape" fill="#0E143F" fill-rule="nonzero"></path>
                                <path d="M5.32462935,60.1773279 C5.88181279,60.7412117 4.25640791,63.3819108 4.25326128,64.4817345 C4.25116354,65.2149505 4.6028149,65.6925247 5.30821533,65.9144573 C4.47850268,67.7126522 3.89529968,69.0044247 3.55860628,69.7897742 C4.75828741,70.6711453 5.62320035,71.6010344 5.30821533,72.1250346 C4.8081065,72.9570015 4.22490346,73.2026381 3.55860628,72.8619449 L0,71.5012546 L0,60.1773279 C3.17829727,59.8014056 4.95317372,59.8014056 5.32462935,60.1773279 Z M109.421737,66.3935451 C109.987292,65.8380089 112.635822,67.4586083 113.738907,67.4617458 C114.474297,67.4638372 114.953288,67.1132254 115.175878,66.4099106 C119.753235,68.2766703 122.45913,69.4593655 123.293564,69.9579959 C124.127998,70.4566259 124.374363,71.0381048 124.032659,71.702432 L109.421737,71.702432 C109.0447,68.5335317 109.0447,66.7639025 109.421737,66.3935451 Z" id="Shape" fill="#191844"></path>
                            </g>
                            <g id="Back-body/-Woman/-Pose1/-Shirt" transform="translate(20.163503, 0.105904)">
                                <path d="M17.1682891,35.0602282 C12.1410017,36.3246844 -0.25890254,63.7656863 0.320055598,68.3126901 C0.89901374,72.8596936 21.3422849,84.5175382 22.9205493,85.485896 C24.4988137,86.4542537 27.7565728,84.1431448 26.2015615,82.3815804 C15.9026755,70.7146893 13.7325002,70.4529712 9.1460906,65.9549558 C12.4167478,62.1798077 17.4101641,55.1335035 24.1263395,44.8160429 C22.8391642,37.4691957 20.5198141,34.2172574 17.1682891,35.0602282 Z" id="Shape" fill="#F79474"></path>
                                <path d="M81.2571955,3.03443972 C81.5817575,2.56325939 81.9094503,2.73042473 82.2402738,3.53593576 C84.4365568,1.06362161 85.7227425,-0.0917254608 86.0988308,0.0698945203 C86.8485633,0.392084325 84.7468401,2.87344848 84.6505181,3.42450721 C85.0715404,3.26282347 85.4247153,2.92230996 85.9234989,3.32581269 C86.2560213,3.5948145 86.1723681,4.08272746 85.6725398,4.78955153 C86.2166843,4.32483323 86.5863331,4.26450309 86.7814864,4.60856107 C87.0742166,5.12464807 87.4875182,5.15951245 86.6618157,6.01047861 C86.3597306,6.3218065 87.3328295,5.78102188 87.5173848,6.17971767 C87.7019404,6.5784135 88.5636485,6.13261149 86.9406417,7.50037085 C85.9425077,8.34153004 84.7172798,8.96149396 83.2649581,9.36026263 C83.4458855,9.53661978 67.6761819,40.3676769 67.4891027,40.5359713 C63.7289609,43.9185534 40.8831631,46.051715 36.3703542,43.4401365 C31.8575453,40.8285581 29.8736007,41.1268107 32.8456987,35.5932524 C34.1058104,33.2471312 60.4082931,29.7971043 63.2340301,31.5350962 C64.0817758,25.4951324 70.8211542,22.0912444 79.7955653,7.43755734 C80.5536109,4.81626584 81.0408207,3.34855995 81.2571955,3.03443972 Z" id="Shape" fill="#F79474"></path>
                                <path d="M50.0855342,45.9749145 C51.1371809,47.6858697 51.4424611,49.3770671 51.0634228,52.4600077 C50.6666252,55.6873928 48.5325982,60.7697295 49.1786784,66.4688932 C49.8247583,72.1680569 53.4323322,75.3525665 54.2323361,77.5129614 C54.8341002,79.1380133 46.2858613,88.1172174 37.7614061,90.5060132 C29.2369509,92.8948086 24.1001481,90.303022 19.1231124,86.7020565 C17.223468,85.3276334 24.4539917,72.6023794 23.4005619,67.5193457 C22.7987831,64.6156287 20.1851041,61.0091493 17.8642392,56.9462464 C16.6322069,58.5319404 15.5775275,59.760117 14.700201,60.6307759 C13.5927152,61.729845 4.22385794,58.6779304 3.98254052,54.0876582 C3.97368315,53.9188301 14.0670747,35.8402412 17.1682891,35.0602282 C17.2044175,35.0511413 17.2404259,35.042658 17.2763144,35.0347784 C18.3594367,34.3385567 20.475286,32.9584989 23.6238622,30.8946051 C23.9480931,31.1959358 23.7311675,29.5004238 24.2214669,29.7148461 C27.0561987,30.9545573 33.9170884,29.7993517 35.9272372,29.1651955 C36.4248376,29.0082138 36.6641361,30.6520598 36.6347675,30.2612918 C40.1378288,30.6168095 42.6998678,31.1780145 44.3208838,31.9449068 C49.3284026,30.9276091 54.8925558,30.103801 58.6334101,29.9169411 C60.675225,29.8149501 62.9522864,42.9249993 58.9347898,44.0322495 C56.1820316,44.7909289 53.089785,45.4725613 50.0855342,45.9749145 L50.0855342,45.9749145 Z" id="Shape" fill="#1E98D2"></path>
                                <path d="M15.2682424,54.2665571 C17.7005686,57.8027615 19.9843226,61.5300251 22.1194967,65.4483962 C23.2193081,67.4667185 23.0494733,70.5441541 21.884581,74.8776635 C21.6033016,75.9240496 21.2767583,77.0066657 20.8393469,78.3712755 C20.696111,78.8181342 20.067265,80.749241 19.9103424,81.241405 C19.5767265,82.2877406 19.3439144,83.0703971 19.1673385,83.7594238 C18.7171328,85.5161976 18.6498446,86.6089681 19.0795116,87.2310469 C20.2449392,88.9183714 24.4638952,90.3957663 31.8212177,91.7548205 C31.9952111,91.7869608 32.1615216,91.6675335 32.1926829,91.4880725 C32.2238438,91.3086115 32.1080554,91.1370745 31.934062,91.1049342 C24.7645665,89.7805758 20.6252186,88.3310583 19.6008561,86.8479698 C19.326917,86.4513565 19.3861678,85.4891151 19.7861962,83.9281417 C19.958884,83.2542864 20.1884203,82.4826427 20.5184161,81.447661 C20.6745429,80.9579928 21.3031721,79.0275517 21.447104,78.5785217 C21.8875071,77.2045786 22.2168921,76.1125411 22.5014223,75.0540617 C23.7088846,70.562188 23.8865087,67.343609 22.6775123,65.1249154 C20.5314555,61.1865725 18.2357252,57.4397629 15.7903136,53.8845345 C15.6880351,53.7358382 15.4882523,53.7008147 15.3440863,53.8063073 C15.1999203,53.9117999 15.1659638,54.1178608 15.2682424,54.2665571 Z" id="Shape" fill="#0E143F" fill-rule="nonzero"></path>
                                <path d="M24.2699885,31.598259 C26.7990205,32.8907365 29.7326789,32.9626413 33.0544825,31.8251175 C33.22224,31.7676703 33.313083,31.5808323 33.2573862,31.4078031 C33.2016892,31.2347739 33.0205435,31.1410761 32.852786,31.1985233 C29.6823162,32.2842242 26.9216085,32.2165585 24.5541818,31.0066704 C24.3957962,30.9257264 24.2037806,30.9925401 24.1253027,31.1559027 C24.046825,31.3192654 24.111603,31.5173151 24.2699885,31.598259 Z" id="Shape" fill="#0E143F" fill-rule="nonzero"></path>
                                <path d="M48.4787597,45.7912555 C47.2658392,46.4343876 46.5709102,46.9416084 46.3565414,47.3841095 C45.8033468,48.5260174 45.744165,49.5701714 45.9812788,50.4348742 C46.0304758,50.614286 46.0815765,50.7444655 46.1197601,50.8207517 C46.2008469,50.9827532 46.3939076,51.0462821 46.5509733,50.9626473 C46.7080393,50.8790125 46.7696327,50.6798849 46.688546,50.5178834 C46.6692796,50.4793916 46.6342053,50.3900395 46.597228,50.2551903 C46.4015419,49.5415656 46.4511768,48.6658509 46.9291497,47.6792163 C47.0587793,47.4116337 47.6853463,46.9543097 48.7714205,46.3784357 C48.928626,46.2950801 48.9905516,46.0960622 48.9097357,45.9339168 C48.8289194,45.7717715 48.6359649,45.7078998 48.4787597,45.7912555 Z" id="Shape" fill="#0E143F" fill-rule="nonzero"></path>
                            </g>
                            <g id="Head-Back/-Women/-4" transform="translate(28.164893, 1.510810)">
                                <path d="M23.0421336,3.19109347 C27.8147029,3.19109347 31.6836347,6.96252545 31.6836347,11.6148225 L31.6836347,17.0014248 C31.6836347,21.6537219 29.3644787,25.587955 28.7973761,25.5542508 C28.7172729,25.5494286 28.4148558,25.4608134 27.9530511,25.3025627 C27.739387,27.6327552 27.7246723,28.9847744 27.9088557,29.3585892 L27.9545728,29.4499121 C28.4053819,30.3416402 29.8634255,33.0904831 27.844837,35.4211375 C25.7514861,37.8381125 17.7856434,39.2287011 15.3615054,35.3364006 C16.2702382,32.4981776 17.6363035,27.8520298 19.4597015,21.3979566 C17.6082094,20.257693 16.1726131,19.0204652 15.9968928,17.876024 C15.6478266,15.6026063 15.1157398,13.5155391 14.4006324,11.6148225 C14.4006324,6.96252545 18.2695642,3.19109347 23.0421336,3.19109347 Z" id="Shape" fill="#F79474"></path>
                                <path d="M28.0580813,27.2421228 C28.0710776,25.2021673 28.0457966,24.0129937 27.9775995,23.6228117 C27.9714993,23.5879102 27.9654106,23.5599443 27.9572443,23.5336017 C27.9481024,23.5037173 27.9481024,23.5037173 27.9151937,23.4426992 C27.8278042,23.3124037 27.8278042,23.3124037 27.4753055,23.3424174 C27.3413424,23.480198 27.3413424,23.480198 27.3318066,23.5320994 C27.3224737,23.5695439 27.3224737,23.5695439 27.318933,23.5939353 C27.3154978,23.6189151 27.3132919,23.6472659 27.3116976,23.6818288 C27.3065041,23.7944139 27.3072998,23.9993913 27.3137607,24.3033006 C27.3264408,24.8997483 27.3612654,25.8826875 27.4182511,27.2533127 C27.4355086,27.6683898 28.0554346,27.657548 28.0580813,27.2421228 Z" id="Shape" fill="#F97A80" fill-rule="nonzero"></path>
                                <path d="M5.99724331,38.0048864 C0.58619495,40.2673545 -0.0575373551,33.7820126 2.79464557,32.3697776 C-0.269825208,32.3697776 -1.98238987,28.2457642 3.98453524,25.7232457 C3.17274715,24.1502029 3.18312319,21.4096539 7.51231581,20.5115628 C6.50031003,19.8032152 5.39814215,16.8506057 11.0644832,16.5034407 C12.3233955,15.9052184 11.1957381,12.0296648 12.4242672,8.23005318 C13.4156053,5.16402945 16.3906919,2.01415789 18.1591582,2.22720514 C18.3281997,2.09664258 18.5155425,1.98004153 18.7211864,1.877402 C18.8319925,1.82209726 18.9439818,1.77085121 19.0570661,1.72353901 C22.7194289,-2.27061393 27.389134,1.92856935 31.6170321,1.92856935 C35.4576993,1.92856935 34.3754558,5.99789577 33.9518779,6.55462479 C34.8220969,7.7598033 34.0609675,9.57560968 31.6684896,12.0020439 C31.5979179,11.5843625 31.5626321,10.7931068 31.5626321,9.62827683 C31.2411029,9.65828182 30.8819084,9.69938987 30.4990907,9.72906905 C29.3827626,11.2851373 30.6138047,16.0377078 29.960864,16.1705758 C29.2019166,16.3250153 29.2067277,13.0780823 26.7165752,14.1500987 C24.2264227,15.222115 25.5431849,19.8378721 27.8183507,21.2393904 C27.8518594,21.260032 27.8807476,21.2803463 27.9051457,21.3003206 C29.8981778,22.1681264 29.2132489,23.9376592 28.5734904,24.4416742 C32.0268527,25.2480166 32.0351296,27.7085924 31.3875727,29.1209339 C36.1473411,31.385753 34.781242,35.088459 32.3367382,35.088459 C33.4738056,37.7527064 31.3875727,41.9928524 28.5734904,38.7036268 C28.4445899,41.4629848 25.6578985,43.2230818 23.2060724,40.9425819 C23.088873,40.8335719 20.7867855,45.2925005 17.5948177,41.8076605 C15.1123968,47.3370603 11.102351,42.7162615 10.9087257,41.9565847 C6.22650192,43.7783618 4.58934114,42.4611288 5.99724331,38.0048864 Z" id="Shape" fill="#000000"></path>
                                <path d="M28.9581186,16.0637608 C27.9049467,15.0500613 26.9666521,15.1781908 26.4431624,16.4444017 C26.3757985,16.6073408 26.4536692,16.7938769 26.6170914,16.8610417 C26.7805137,16.9282064 26.9676029,16.850566 27.0349669,16.6876269 C27.3768595,15.8606609 27.7697396,15.8070108 28.5135348,16.522929 C28.6407066,16.6453344 28.8433232,16.6417753 28.9660916,16.5149795 C29.08886,16.3881837 29.0852904,16.1861662 28.9581186,16.0637608 Z" id="Shape" fill="#E2643B" fill-rule="nonzero"></path>
                            </g>
                        </g>
                    </g>
                </g>
            </g>
        </g>
    </g>
</svg>
