<?xml version="1.0" encoding="UTF-8"?>
<svg width="445px" height="263px" viewBox="0 0 445 263" version="1.1" xmlns="http://www.w3.org/2000/svg" xmlns:xlink="http://www.w3.org/1999/xlink">
    <!-- Generator: sketchtool 64 (101010) - https://sketch.com -->
    <title>F1DF5737-1B48-4890-9247-40E4AF73F924</title>
    <desc>Created with sketchtool.</desc>
    <g id="Designs:-Landing-Page-&amp;-Learn-More" stroke="none" stroke-width="1" fill="none" fill-rule="evenodd">
        <g id="D:-Landing-Page" transform="translate(-45.000000, -2583.000000)">
            <g id="benefits-&amp;-features" transform="translate(45.000000, 1732.000000)">
                <g id="public-service" transform="translate(0.000000, 777.000000)">
                    <g id="Consultation" transform="translate(0.000000, 74.000000)">
                        <g id="bg" opacity="0.5" transform="translate(222.500000, 220.015625) scale(-1, 1) translate(-222.500000, -220.015625) translate(0.000000, 178.760417)" fill-rule="nonzero">
                            <path d="M400.196553,27.4526346 C372.056273,20.2102951 358.069802,30.2615958 326.20812,44.0686141 C294.346441,57.8756322 255.001604,62.3030643 210.086279,36.5353248 C165.170954,10.7675852 114.844706,20.2102951 94.3802833,48.9641973 C80.7373352,68.1334656 49.2772407,79.3155387 0,82.5104167 L445,82.5104167 C433.891223,50.6334548 418.956737,32.2808608 400.196553,27.4526346 Z" id="Shape" fill="#CCEEFF"></path>
                            <path d="M0.634807418,82.5104167 C15.8638725,44.7802667 45.6602442,32.2035504 90.0239218,44.7802667 C156.569439,63.6453419 195.471349,49.4965356 230.194523,21.1989232 C264.917697,-7.09868911 305.721498,-10.8717041 353.752506,33.4612219 C385.773179,63.0165059 416.189011,79.3662374 445,82.5104167 L0.634807418,82.5104167 Z" id="Shape" fill="#E5F6FF"></path>
                        </g>
                        <g id="Group-2" transform="translate(280.906250, 170.416667)" fill-rule="nonzero">
                            <path d="M24.256252,0 L60.2360216,0 C60.9086234,0 61.4650616,0.524384221 61.5061164,1.19693065 L64.8132682,55.373363 C64.8561641,56.0760693 64.3222975,56.680562 63.6208436,56.7235347 C63.5949838,56.7251189 63.5690818,56.7259115 63.5431734,56.7259115 L27.5634037,56.7259115 C26.890802,56.7259115 26.3343641,56.2015273 26.293309,55.5289807 L22.9861573,1.35254852 C22.9432612,0.649842016 23.4771278,0.0453495975 24.1785817,0.00237690905 C24.2044416,0.000792672526 24.2303438,0 24.256252,0 Z" id="Shape" fill="#86D8FF" transform="translate(43.899713, 28.362956) scale(-1, 1) translate(-43.899713, -28.362956) "></path>
                            <path d="M7.75840854,58.9618731 L59.6800872,58.9618731 C60.3841064,58.9618731 60.9548267,59.5315761 60.9548267,60.2343404 L60.9548267,63.476799 C60.9548267,64.1795633 60.3841064,64.7492663 59.6800872,64.7492663 L7.75840854,64.7492663 L7.75840854,64.7492663 L7.75840854,58.9618731 Z" id="Shape" fill="#A1E0FF" transform="translate(34.356618, 61.855570) rotate(90.000000) translate(-34.356618, -61.855570) "></path>
                            <path d="M31.647796,51.012411 L35.7906997,51.012411 C36.4947189,51.012411 37.0654393,51.582114 37.0654393,52.2848783 L37.0654393,61.8896735 C37.0654393,62.5924378 36.4947189,63.1621408 35.7906997,63.1621408 L31.647796,63.1621408 L31.647796,63.1621408 L31.647796,51.012411 Z" id="Shape" fill="#00A7FF" transform="translate(34.356618, 57.087276) rotate(90.000000) translate(-34.356618, -57.087276) "></path>
                            <path d="M24.1761012,0 L56.9747025,0 C57.6473043,0 58.2037425,0.524384221 58.2447974,1.19693065 L61.6345141,56.7259115 L61.6345141,56.7259115 L27.4832529,56.7259115 C26.8106512,56.7259115 26.2542133,56.2015273 26.2131583,55.5289807 L22.9060065,1.35254852 C22.8631104,0.649842016 23.396977,0.0453495975 24.0984309,0.00237690905 C24.1242909,0.000792672526 24.150193,0 24.1761012,0 Z" id="Shape" fill="#CCEEFF" transform="translate(42.269053, 28.362956) scale(-1, 1) translate(-42.269053, -28.362956) "></path>
                            <path d="M0.150528112,50.3522135 L58.3419913,50.3522135 C59.0447556,50.3522135 59.6144587,50.9229339 59.6144587,51.6269531 L59.6144587,55.4511719 C59.6144587,56.1551911 59.0447556,56.7259115 58.3419913,56.7259115 L0.150528112,56.7259115 L0.150528112,56.7259115 L0.150528112,50.3522135 Z" id="Shape" fill="#86D8FF" transform="translate(29.882493, 53.539062) scale(-1, 1) translate(-29.882493, -53.539062) "></path>
                            <path d="M31.647796,78.7260172 L35.7906997,78.7260172 C36.4947189,78.7260172 37.0654393,79.2957203 37.0654393,79.9984846 L37.0654393,89.6032798 C37.0654393,90.3060441 36.4947189,90.8757471 35.7906997,90.8757471 L31.647796,90.8757471 L31.647796,90.8757471 L31.647796,78.7260172 Z" id="Shape" fill="#00A7FF" transform="translate(34.356618, 84.800882) scale(-1, 1) rotate(-90.000000) translate(-34.356618, -84.800882) "></path>
                            <path d="M21.3138276,87.3196615 L47.3994077,87.3196615 C48.6292451,87.3196615 49.6262255,88.3184222 49.6262255,89.5504557 C49.6262255,90.7824893 48.6292451,91.78125 47.3994077,91.78125 L21.3138276,91.78125 C20.0839901,91.78125 19.0870098,90.7824893 19.0870098,89.5504557 C19.0870098,88.3184222 20.0839901,87.3196615 21.3138276,87.3196615 Z" id="Shape" fill="#86D7FF"></path>
                        </g>
                        <g id="Man-Sitting-1" transform="translate(298.947917, 188.437500) scale(-1, 1) translate(-298.947917, -188.437500) translate(253.947917, 112.937500)">
                            <g id="Head-Front/-Man/1" transform="translate(10.842272, 0.000000)">
                                <path d="M3.20760196,21.1440723 C2.00692327,21.1459108 0.884206134,20.3969319 0.471452209,19.2039154 C0.0941175897,18.1132743 0.413909469,16.9515039 1.19531949,16.1991687 C0.990438333,14.8558718 0.804592079,13.6267205 0.637780733,12.5117149 C0.637780733,7.88178192 4.49262691,4.12847961 9.24782063,4.12847961 C14.0030143,4.12847961 17.8578605,7.88178192 17.8578605,12.5117149 L17.8578605,17.8724232 C17.8578605,21.6102058 16.2396965,24.7064264 14.3966299,25.868404 C14.7848527,27.3752148 15.3224637,28.6255349 16.009463,29.6193645 C17.2744048,31.4492595 17.2527565,33.4322847 15.9445183,35.5684397 L3.50779403,35.5684397 L4.46446513,21.750843 C4.36138576,21.6546887 3.30456112,21.2406769 3.20760196,21.1440723 Z" id="Shape" fill="#F79474"></path>
                                <path d="M15.3067376,14.9260417 C15.3067376,14.7506497 15.1639655,14.6084663 14.9878472,14.6084663 C14.811729,14.6084663 14.6689569,14.7506497 14.6689569,14.9260417 L14.6689569,17.4036186 C14.6689569,17.5629339 14.7874856,17.6975933 14.9460826,17.7184585 C15.5383311,17.7963757 15.7795985,17.921098 15.7795985,17.9777608 C15.7795985,18.104577 15.4700257,18.404706 14.8265124,18.780588 C14.6745968,18.8693233 14.6236769,19.0639016 14.7127797,19.2151908 C14.8018824,19.3664799 14.9972664,19.4171898 15.149182,19.3284545 C15.9865243,18.8393552 16.4173792,18.4216438 16.4173792,17.9777608 C16.4173792,17.5198771 16.0213175,17.2651158 15.3067376,17.132293 L15.3067376,14.9260417 Z" id="Shape" fill="#E2643B" fill-rule="nonzero"></path>
                                <path d="M10.8455695,20.0527964 C11.0523355,21.4736134 12.0725414,22.0913793 13.7546599,21.8667894 C13.9292164,21.8434833 14.0517508,21.6836675 14.0283482,21.5098309 C14.0049456,21.3359942 13.8444681,21.2139651 13.6699116,21.2372712 C12.3093932,21.4189222 11.6288505,21.0068328 11.4767561,19.9616983 C11.4514959,19.7881196 11.2897225,19.6677994 11.1154251,19.6929555 C10.9411278,19.7181115 10.8203093,19.8792178 10.8455695,20.0527964 Z" id="Shape" fill="#E2643B" fill-rule="nonzero"></path>
                                <path d="M10.1836652,13.6485716 C9.39489592,14.0022536 8.69341046,14.078904 8.61685353,13.8197751 C8.54029659,13.5606462 9.11765873,13.0638649 9.90642793,12.7101829 C10.6951972,12.3565009 11.3966826,12.2798504 11.4732396,12.5389793 C11.5497965,12.7981082 10.9724344,13.2948896 10.1836652,13.6485716 Z M16.4843256,13.8183501 C15.6054273,13.5887526 14.9368037,13.1876407 14.9909129,12.9224418 C15.0450222,12.6572428 15.8013742,12.6283821 16.6802725,12.8579797 C17.5591708,13.0875772 18.2277944,13.488689 18.1736852,13.753888 C18.1195759,14.019087 17.3632239,14.0479477 16.4843256,13.8183501 Z M11.6394984,16.1963431 C11.375321,16.1963431 11.1611628,15.9830681 11.1611628,15.7199801 C11.1611628,15.456892 11.375321,15.243617 11.6394984,15.243617 C11.9036758,15.243617 12.1178339,15.456892 12.1178339,15.7199801 C12.1178339,15.9830681 11.9036758,16.1963431 11.6394984,16.1963431 Z M16.7417442,16.1963431 C16.4775668,16.1963431 16.2634087,15.9830681 16.2634087,15.7199801 C16.2634087,15.456892 16.4775668,15.243617 16.7417442,15.243617 C17.0059217,15.243617 17.2200798,15.456892 17.2200798,15.7199801 C17.2200798,15.9830681 17.0059217,16.1963431 16.7417442,16.1963431 Z M2.38787936,15.9894915 C2.23513956,15.8940467 1.65951553,15.7893797 1.06632679,16.3488933 C0.244033123,13.8668093 -0.0604415444,11.9088755 0.00785650196,10.5057988 C0.11166326,8.37325087 0.81825568,7.03194243 2.12763377,6.48187339 C2.40638529,4.42813905 3.61213955,3.31674138 5.74489659,3.14768038 C8.94403211,2.89408887 14.7023291,0.0805408405 17.0052352,0.00551970375 C19.71174,-0.0826493522 20.3620044,0.885458719 18.9560285,2.90984392 C22.6405271,2.34018199 24.7700238,2.64963757 25.3445187,3.83821065 C26.206261,5.62107028 23.664595,8.18792412 19.1685494,9.74494444 C16.809318,10.5619671 13.0985286,10.5700904 8.03618128,9.76931435 C7.71588894,10.9926034 7.35390545,11.8074431 6.95023084,12.2138336 C6.5465562,12.620224 6.20076319,12.8115525 5.91285175,12.787819 C5.73204955,15.7126653 5.38958703,17.2263208 4.88546416,17.3287856 C4.12927982,17.4824826 3.53989242,16.2545344 2.38787936,15.9894915 Z" id="Shape" fill="#000000"></path>
                                <path d="M4.15038768,18.0422438 C3.1010501,17.0334173 2.16617156,17.1609309 1.64458777,18.421055 C1.57746909,18.5832108 1.65505626,18.7688502 1.81788357,18.8356921 C1.98071088,18.902534 2.16711894,18.8252668 2.23423763,18.6631109 C2.57488551,17.8401202 2.96633525,17.7867281 3.70742256,18.4992047 C3.83413135,18.6210218 4.03601022,18.6174798 4.15833165,18.4912935 C4.28065312,18.3651073 4.27709647,18.1640608 4.15038768,18.0422438 Z" id="Shape" fill="#E2643B" fill-rule="nonzero"></path>
                                <path d="M13.8939322,25.7463165 C13.0727753,26.3607447 12.3631827,26.5929657 11.7607962,26.4706626 C11.0973049,26.3359534 9.53307983,25.6330222 7.11291799,24.3739667 C6.9568159,24.2927567 6.76416386,24.352947 6.68261763,24.5084053 C6.60107143,24.6638637 6.66151092,24.8557213 6.81761301,24.9369313 C9.29724761,26.2269267 10.8875748,26.9415876 11.6333916,27.0930115 C12.4403132,27.2568415 13.322982,26.9679796 14.2770395,26.254109 C14.4178431,26.1487531 14.4462256,25.949672 14.3404334,25.809449 C14.2346412,25.669226 14.0347358,25.6409606 13.8939322,25.7463165 Z" id="Shape" fill="#E2643B" fill-rule="nonzero"></path>
                            </g>
                            <g id="Front-Bottom/-Sit/-Pants-2" transform="translate(7.972259, 79.638254)">
                                <path d="M68.7351296,48.8258033 C68.1583297,52.4604145 67.1733826,58.4154214 65.7802883,66.6908245 L61.1291266,66.4154323 C60.7582236,60.4531621 60.1067918,54.8659951 59.4463338,49.7213718 C57.718309,36.2609607 73.0992275,21.3261527 68.7351296,48.8258033 Z M52.2058876,48.0806619 C51.7560025,51.7332339 50.9790194,57.7190644 49.8749383,66.0381528 L45.2170203,65.9256139 C44.6387263,59.9799491 43.7931359,54.4189709 42.9539354,49.3005826 C40.7582477,35.9088129 55.6097393,20.4451188 52.2058876,48.0806619 Z" id="Shape" fill="#F79474"></path>
                                <path d="M54.165533,18.8713908 C54.6545379,27.161801 53.3366527,41.1419958 50.6409589,60.7505765 C49.5961972,61.3232713 48.5783572,61.6096188 47.5874392,61.6096188 C46.5965209,61.6096188 45.2787192,61.3232713 43.6340338,60.7505765 C41.4955841,39.9090498 38.6838885,33.8527898 39.4841655,25.3643038 C33.9212047,27.0356536 27.6308639,27.868569 18.7181447,27.868569 C0.0686469233,27.868569 0.372436077,8.21043383 0.0111133293,3.84162082 C-0.342727932,-0.436732041 7.75299611,-1.14153404 24.2982855,1.72721483 C50.1200885,-0.177762805 64.9245712,0.149472652 68.7117339,2.70892117 C72.498897,5.26836968 72.3308736,24.3261843 68.2076642,59.8823649 C67.0553182,60.7939322 65.7583534,61.2947368 64.316769,61.3847789 C62.875185,61.4748211 61.3953819,61.1474546 59.8773601,60.40268 C58.0283451,28.8355091 56.0082078,30.6996733 57.5824971,16.8775363 C56.3223642,17.5868627 55.3316175,18.2309994 54.165533,18.8713908 Z" id="Shape" fill="#021768"></path>
                                <path d="M43.9817178,63.9548499 C44.5691929,63.3694626 47.320373,65.0771428 48.4662111,65.0804488 C49.2301031,65.0826527 49.7276579,64.7132011 49.9588757,63.9720946 C54.7136395,65.9391623 57.5244084,67.1854081 58.391183,67.7108314 C59.2579573,68.2362548 59.513871,68.8489786 59.1589237,69.5490027 L43.9817178,69.5490027 C43.5900678,66.2098255 43.5900678,64.3451078 43.9817178,63.9548499 Z M60.2451265,63.9548499 C60.8326016,63.3694626 63.5837817,65.0771428 64.7296198,65.0804488 C65.4935118,65.0826527 65.9910666,64.7132011 66.2222844,63.9720946 C70.9770482,65.9391623 73.7878171,67.1854081 74.6545917,67.7108314 C75.521366,68.2362548 75.7772797,68.8489786 75.4223324,69.5490027 L60.2451265,69.5490027 C59.8534765,66.2098255 59.8534765,64.3451078 60.2451265,63.9548499 Z" id="Shape" fill="#021768"></path>
                                <path d="M54.5337043,21.6248284 C54.9565179,17.1273919 55.1680334,13.8277531 55.1680334,11.7213334 C55.1680334,9.3634251 50.0114317,7.55473345 39.5868788,6.0372853 C39.4133154,6.01202059 39.2521336,6.13223941 39.2268685,6.30580155 C39.2016038,6.47936368 39.3218232,6.64054467 39.4953866,6.66580937 C49.4832664,8.11969328 54.5328813,9.89085901 54.5328813,11.7213334 C54.5328813,13.8032965 54.3224401,17.0861713 53.9013403,21.5653793 C53.8849238,21.7400007 54.0131751,21.8948674 54.1877976,21.9112838 C54.36242,21.9277002 54.5172879,21.7994498 54.5337043,21.6248284 Z" id="Shape" fill="#0E143F" fill-rule="nonzero"></path>
                            </g>
                            <g id="Front-body/-Man/-Pose6/-Long-sleeve-shirt-Tie" transform="translate(0.000000, 25.595754)">
                                <path d="M48.0236764,37.3396502 C50.681444,35.9038212 52.7285125,35.0919068 53.2808762,35.1758642 C53.83324,35.2598216 53.2264474,36.0861041 51.4604992,37.6547119 C55.2928012,38.7957856 57.2244572,39.574816 57.2554674,39.991803 C57.3172862,40.8230676 54.2308494,40.0219571 53.7129749,40.182835 C54.0425826,40.4948471 57.5990817,41.8802899 57.4773992,42.5187774 C57.3962776,42.9444354 55.903931,42.6829435 53.0003592,41.7343018 C55.3751658,43.0369486 56.4586388,43.8552383 56.2507781,44.1891717 C55.9389869,44.6900712 53.5029113,43.5614106 52.3969753,43.1907065 C51.9923662,43.0550837 54.596961,44.8059741 54.3372787,45.1549002 C54.0775964,45.5038266 53.1521243,44.9852807 51.2407257,44.1188627 C49.9664602,43.5412509 48.7952087,42.6021323 47.7269713,41.3015066 C46.2034231,41.3790153 45.2604257,41.5232803 44.8979797,41.7343018 C43.9675169,42.276031 43.4379909,38.2689456 44.1688136,38.0457304 C45.0222956,37.7850512 46.3072497,37.5496914 48.0236764,37.3396502 Z M74.1339767,8.79985556 C75.9950652,6.11028365 77.499251,4.40380271 78.6465337,3.6804128 C80.8705966,1.34964288 81.9307374,0.508420883 82.4629234,0.334424227 C82.9951096,0.160427571 82.8013225,1.17712335 81.8815623,3.38451158 C82.5825238,3.2587407 82.9332072,3.7965973 84.2032704,3.52685206 C86.0501743,3.13459323 89.1798205,2.05939345 89.8531323,2.7088225 C90.3358485,3.17441655 86.7653533,5.72663284 85.497648,6.23325438 C84.2299427,6.73987593 81.5732502,6.80145827 79.5466349,7.09488691 L76.951757,10.7026874 L74.1339767,8.79985556 Z" id="Shape" fill="#F79474"></path>
                                <path d="M40.4438218,24.9757907 C40.3897788,29.4402201 39.9054494,33.7886852 39.8762687,37.4023901 C41.5817074,37.4080947 43.328555,37.3731712 45.099012,37.2765899 C46.6481601,37.1920812 47.0990069,38.7652533 46.4515527,41.9961061 C44.52016,42.4470708 42.510261,42.9175656 40.4666167,43.3898542 C41.7968726,50.2221805 43.9756397,53.6355586 42.139851,58.0194415 C41.5196816,59.5004119 32.7505958,62.5627205 31.2068731,60.3604644 C30.4721162,63.7691156 11.2977498,62.5627205 8.25035723,60.3604644 C6.98498093,59.446016 8.36021968,53.4826562 9.09726349,48.1184054 C8.34773806,47.9070495 7.87184479,47.5744125 7.72192923,47.099752 C6.18278798,42.2265452 -3.11241657,13.5220388 1.07426269,10.4221938 C1.60942211,10.0259582 2.12556804,9.6620064 2.62632158,9.33919448 C2.76441495,9.23975611 2.90986369,9.14108107 3.0629906,9.04308992 C3.21832679,8.94368502 3.43926309,8.82515745 3.72579954,8.68750721 C4.21226826,8.42761377 4.68569574,8.21683243 5.14985734,8.06439661 C7.10790405,7.2604976 10.2829557,6.10183751 14.6750122,4.58841634 C14.9793527,3.54248652 14.3564387,2.49673231 15.188301,3.00736533 C17.0727383,4.16411433 23.2615605,8.24671751 24.3398532,7.8750418 C25.4181462,7.50336608 25.4181462,3.77264294 25.6216671,2.53356124 C25.6989661,2.06294705 27.1492661,5.19209032 27.106538,4.62422785 C29.4298871,5.00406398 31.019193,5.29310446 31.8744557,5.49134929 C32.4100509,5.48249621 33.3331728,5.77796915 34.5266232,6.30208125 C34.6565063,6.35606757 34.7693214,6.40684552 34.8650966,6.45353373 C41.1277533,9.3054057 53.9822029,17.787648 58.4215902,22.208873 C60.1817323,17.0311993 66.4917034,15.4532146 75.4593919,5.87590875 C76.5364227,4.72566203 77.9075834,5.55943942 79.5728735,8.37724089 C68.78575,24.7112198 61.7353222,32.8512256 58.4215902,32.7975249 C55.9693373,32.7574564 48.0438023,29.1872789 40.4438218,24.9757907 L40.4438218,24.9757907 Z" id="Shape" fill="#1E98D2"></path>
                                <path d="M44.7691117,42.0522049 C44.1217266,42.2034 43.6187922,42.3207672 43.1272233,42.4353271 C41.8748659,42.7271881 40.8054122,42.9753234 39.7760341,43.2125662 C38.3340692,43.5448983 37.0079621,43.8471967 35.7381011,44.1325273 C27.6360121,45.9530195 21.6094265,47.1257929 16.9850188,47.7028108 C11.5204681,48.3846587 8.38416522,48.1347441 8.02517085,46.9981015 C7.97067743,46.8255651 7.79073589,46.7312074 7.62326015,46.7873474 C7.45578442,46.8434874 7.36419419,47.0288663 7.41868762,47.2014025 C8.31668681,50.0446346 17.5425269,48.8934659 35.8740083,44.7744881 C37.145061,44.4888901 38.4722591,44.186343 39.9152715,43.8537692 C40.9452019,43.6163994 42.0151285,43.3681543 43.2679426,43.0761869 C43.7596221,42.9616013 44.2626442,42.8442134 44.9101167,42.6929979 C45.0159312,42.6682855 46.183171,42.3956293 46.5220396,42.3165063 C46.6440148,42.2880262 46.7385693,42.1887175 46.763857,42.0625305 C47.4476581,38.6503031 46.931049,36.8476628 45.0821497,36.9485231 C40.7382794,37.1854886 36.8671965,37.0947059 30.6016711,36.7380399 C22.5021463,36.2769732 20.2001814,36.2371499 18.2170491,36.839954 C17.8776725,33.1285638 17.3767897,29.5671761 16.7417957,26.2063452 C16.7081461,26.0282477 16.5407257,25.9119738 16.3678519,25.9466403 C16.1949781,25.9813067 16.0821147,26.153786 16.1157643,26.3318835 C16.7698326,29.793669 17.2808529,33.4705372 17.6183863,37.3062514 C17.6370207,37.518012 17.8430435,37.6560299 18.0384819,37.58768 C20.0118441,36.8975453 22.0791309,36.9109476 30.5664838,37.3940915 C36.853423,37.7519767 40.7431415,37.8431964 45.115874,37.6046564 C46.3366415,37.5380618 46.7322537,38.819364 46.1796907,41.7227325 C45.7166912,41.8308641 44.8590757,42.0311941 44.7691117,42.0522049 Z" id="Shape" fill="#0E143F" fill-rule="nonzero"></path>
                                <path d="M37.0018397,9.55614891 C36.9142124,9.39876127 36.9670223,9.19799086 37.1197934,9.10771568 C37.2725649,9.0174405 37.4674467,9.07184596 37.555074,9.2292336 C39.5444349,12.8023286 40.4685007,17.063204 40.6498938,22.3161792 C40.739334,24.9062896 40.6690837,27.1728372 40.4350835,31.365675 L40.395426,32.0747274 C40.3800475,32.3500936 40.3680604,32.5664612 40.356698,32.7744159 C40.3468003,32.9555691 40.1962302,33.0941568 40.0203902,33.0839597 C39.8445502,33.073763 39.7100276,32.918643 39.7199253,32.7374898 C39.7313046,32.5292204 39.7433057,32.3126013 39.7586982,32.0369863 L39.7983545,31.3279595 C40.0312653,27.1546385 40.1010452,24.903264 40.0125162,22.339539 C39.8344943,17.1841887 38.9320474,13.0229987 37.0018397,9.55614891 Z M40.7747576,46.2399688 C40.7310897,46.0641947 40.8340039,45.8852317 41.0046227,45.8402447 C41.1752415,45.7952573 41.3489551,45.9012811 41.3926227,46.0770555 C41.4347764,46.2467351 41.4781034,46.4183779 41.5229327,46.5934388 C41.6919574,47.2534912 42.3821197,49.8016758 42.5358991,50.4150221 C42.8710392,51.75172 43.0599307,52.7629221 43.132191,53.7257417 C43.1457674,53.9066418 43.0144263,54.0646289 42.8388322,54.0786159 C42.6632378,54.0926028 42.5098847,53.9572929 42.4963079,53.7763927 C42.4274334,52.8586841 42.2449882,51.8819922 41.9183855,50.5793445 C41.766543,49.9737239 41.0769779,47.4277454 40.9062511,46.7610452 C40.8610302,46.5844552 40.8173094,46.4112515 40.7747576,46.2399688 Z" id="Shape" fill="#0E143F" fill-rule="nonzero"></path>
                                <path d="M44.1419532,42.7208112 L43.6996892,39.4584704 C43.6753285,39.2787742 43.5141808,39.1534469 43.3397554,39.1785439 C43.1653301,39.2036406 43.0436785,39.3696579 43.0680392,39.5493541 L43.5103031,42.8116949 C43.5346638,42.9913908 43.6958118,43.1167181 43.8702372,43.0916214 C44.0446626,43.0665244 44.1663138,42.9005071 44.1419532,42.7208112 Z" id="Shape" fill="#0E143F" fill-rule="nonzero"></path>
                                <path d="M78.1484722,10.449382 L76.1274025,8.72975915 C75.9916091,8.61421958 75.7906106,8.63396496 75.6784597,8.77386167 C75.5663091,8.91375837 75.5854751,9.1208304 75.7212688,9.23636997 L77.7423386,10.9559928 C77.878132,11.0715323 78.0791305,11.051787 78.191281,10.9118903 C78.3034319,10.7719936 78.2842656,10.5649215 78.1484722,10.449382 Z" id="Shape" fill="#0E143F" fill-rule="nonzero"></path>
                                <path d="M31.4552274,60.0402573 C31.4572473,60.2216856 31.3161217,60.3704487 31.1400152,60.3725732 C30.9639083,60.3746102 30.8195083,60.2292204 30.8174888,60.0477924 C30.7403049,53.1142529 30.6810235,48.3740504 30.6396522,45.8276557 C30.6367047,45.646241 30.7770675,45.4967139 30.953161,45.493585 C31.1292548,45.4906409 31.2743962,45.635245 31.2773437,45.8166596 C31.3187392,48.3645594 31.3780311,53.1056015 31.4552274,60.0402573 Z M31.0830773,37.1221251 C31.0892551,37.3034533 30.9515793,37.4556087 30.7755694,37.4623726 C30.5995594,37.4683381 30.451867,37.3265019 30.4456891,37.1451737 C30.2010345,29.9644562 29.8413667,25.2497426 29.3709042,23.0216907 C28.5068491,18.9296321 26.9036207,14.1542737 24.5606905,8.69762596 C24.4894443,8.53169499 24.5622562,8.33767979 24.7233204,8.26428092 C24.8843846,8.19088201 25.0727091,8.26589408 25.1439553,8.43182504 C27.5030909,13.9262153 29.1199853,18.7422786 29.99411,22.8820254 C30.4754824,25.1617458 30.8370652,29.9015598 31.0830773,37.1221251 Z" id="Shape" fill="#0E143F" fill-rule="nonzero"></path>
                                <path d="M34.994251,37.3530693 L28.2051316,37.1705721 C28.4014571,33.6444869 28.4452343,30.6870979 28.3364631,28.2984055 C28.1593887,24.4097228 27.1815557,18.9060792 25.4029644,11.7874748 L21.9924119,8.98306456 L24.8862527,8.5647255 L26.5068749,7.50336608 L27.3006667,7.8750418 L26.8264413,11.2090581 C30.0948408,17.5686416 32.1851971,22.6585349 33.0975093,26.4787378 C33.7190553,29.0813914 34.3513027,32.7061686 34.994251,37.3530693 L34.994251,37.3530693 Z M35.8906468,44.4346158 C35.894968,44.4716143 35.8992893,44.5086579 35.9036116,44.5457462 L32.1393206,50.5372823 L28.6760459,45.8640155 L35.8906471,44.4346158 L35.8906468,44.4346158 Z" id="Shape" fill="#021768"></path>
                                <path d="M24.881961,8.89182973 C25.0573169,8.87496648 25.1862016,8.71484654 25.1698329,8.53419187 C25.1534643,8.35353719 24.9980406,8.22075801 24.8226847,8.23762126 L21.5611015,8.55127421 C21.4658917,8.56043016 21.379695,8.61311976 21.3262674,8.69482196 L19.0936564,12.1089574 L14.9164293,4.14885153 L15.2807082,3.11993777 C15.3410567,2.94948214 15.2558502,2.76090015 15.0903941,2.69872812 C14.9249381,2.63655608 14.7418873,2.72433727 14.6815388,2.8947929 L14.2681106,4.06252969 C14.2368527,4.1508184 14.2437927,4.24867112 14.2871756,4.33134132 L18.7832061,12.8989574 C18.8971858,13.116157 19.1942895,13.1310491 19.328198,12.9262747 L21.7708009,9.19101709 L24.881961,8.89182973 Z" id="Shape" fill="#0E143F" fill-rule="nonzero"></path>
                                <path d="M26.6456276,7.10472765 C26.5433464,7.05480287 26.4230424,7.06447097 26.3295132,7.1301318 L24.6727473,8.29324097 C24.5272083,8.39541461 24.4896242,8.59979045 24.588801,8.74972721 C24.6879778,8.899664 24.8863592,8.93838364 25.0318985,8.83621003 L26.5376714,7.77910317 L29.6124716,9.27995325 C29.8991812,9.41989997 30.186797,9.08957892 30.0207186,8.81108979 L26.1745229,2.36158646 C26.0823298,2.20699195 25.8859443,2.15866406 25.7358844,2.25364311 C25.5858241,2.34862216 25.5389138,2.55094151 25.6311069,2.70553602 L28.91525,8.21255996 L26.6456276,7.10472765 Z" id="Shape" fill="#0E143F" fill-rule="nonzero"></path>
                                <path d="M24.5734368,24.0683965 L25.5088909,29.3406476 L23.3874431,33.3321204 L19.7331623,31.8351489 L19.0897241,29.3712418 C19.0439688,29.1960319 18.869007,29.092209 18.6989361,29.1393469 C18.5288652,29.1864847 18.4280875,29.3667332 18.4738429,29.5419431 L19.1588197,32.1649138 C19.1849614,32.2650174 19.2554304,32.3465377 19.3489322,32.3848408 L23.4138654,34.0500357 C23.5635177,34.1113405 23.7340511,34.048068 23.8113986,33.9025401 L26.1226289,29.5539942 C26.1577744,29.4878681 26.1697749,29.4113008 26.1566165,29.3371395 L25.1358147,23.5838647 C25.1013056,23.3893712 24.9090693,23.2701139 24.7260661,23.3296698 L17.7618047,25.5960906 C17.6021913,25.6480345 17.5087282,25.8182769 17.5477618,25.9859683 L17.9569959,27.7440701 C17.9980655,27.9205079 18.1701948,28.0292395 18.3414574,27.9869291 C18.5127204,27.9446186 18.6182629,27.767288 18.5771933,27.5908502 L18.2372482,26.1304198 L24.5734368,24.0683965 Z" id="Shape" fill="#0E143F" fill-rule="nonzero"></path>
                            </g>
                        </g>
                        <g id="Group-3" transform="translate(228.062500, 188.958333)" fill-rule="nonzero">
                            <path d="M-24.1605935,30.69388 L41.786737,42.9372662 C42.387871,43.0488693 42.824026,43.5745367 42.824026,44.187439 L42.824026,46.0513476 C42.824026,46.7535382 42.2562255,47.3227762 41.5558081,47.3227762 C41.478346,47.3227762 41.4010465,47.3156612 41.3248793,47.3015204 L-24.6224512,35.0581343 C-25.2235852,34.9465312 -25.6597402,34.4208638 -25.6597402,33.8079615 L-25.6597402,31.9440529 C-25.6597402,31.2418622 -25.0919397,30.6726243 -24.3915223,30.6726243 C-24.3140601,30.6726243 -24.2367607,30.6797393 -24.1605935,30.69388 Z" id="Shape" fill="#86D7FF" transform="translate(8.582143, 38.997700) rotate(90.000000) translate(-8.582143, -38.997700) "></path>
                            <path d="M-8.26773633,30.69388 L57.6795941,42.9372662 C58.2807281,43.0488693 58.7168832,43.5745367 58.7168832,44.187439 L58.7168832,46.0513476 C58.7168832,46.7535382 58.1490827,47.3227762 57.4486653,47.3227762 C57.3712032,47.3227762 57.2939037,47.3156612 57.2177364,47.3015204 L-8.72959402,35.0581343 C-9.3307281,34.9465312 -9.76688307,34.4208638 -9.76688307,33.8079615 L-9.76688307,31.9440529 C-9.76688307,31.2418622 -9.19908258,30.6726243 -8.49866518,30.6726243 C-8.42120293,30.6726243 -8.34390356,30.6797393 -8.26773633,30.69388 Z" id="Shape" fill="#86D7FF" transform="translate(24.475000, 38.997700) rotate(90.000000) translate(-24.475000, -38.997700) "></path>
                            <path d="M114.425121,30.69388 L180.372451,42.9372662 C180.973585,43.0488693 181.40974,43.5745367 181.40974,44.187439 L181.40974,46.0513476 C181.40974,46.7535382 180.84194,47.3227762 180.141522,47.3227762 C180.06406,47.3227762 179.986761,47.3156612 179.910593,47.3015204 L113.963263,35.0581343 C113.362129,34.9465312 112.925974,34.4208638 112.925974,33.8079615 L112.925974,31.9440529 C112.925974,31.2418622 113.493774,30.6726243 114.194192,30.6726243 C114.271654,30.6726243 114.348953,30.6797393 114.425121,30.69388 Z" id="Shape" fill="#86D7FF" transform="translate(147.167857, 38.997700) scale(-1, 1) rotate(90.000000) translate(-147.167857, -38.997700) "></path>
                            <path d="M95.3536921,30.69388 L161.301023,42.9372662 C161.902157,43.0488693 162.338312,43.5745367 162.338312,44.187439 L162.338312,46.0513476 C162.338312,46.7535382 161.770511,47.3227762 161.070094,47.3227762 C160.992632,47.3227762 160.915332,47.3156612 160.839165,47.3015204 L94.8918345,35.0581343 C94.2907004,34.9465312 93.8545454,34.4208638 93.8545454,33.8079615 L93.8545454,31.9440529 C93.8545454,31.2418622 94.4223459,30.6726243 95.1227633,30.6726243 C95.2002254,30.6726243 95.2775249,30.6797393 95.3536921,30.69388 Z" id="Shape" fill="#86D7FF" transform="translate(128.096429, 38.997700) scale(-1, 1) rotate(90.000000) translate(-128.096429, -38.997700) "></path>
                            <polygon id="Shape" fill="#60C9FF" points="0 7.180824e-14 155.75 7.180824e-14 155.75 7.60930736 0 7.60930736"></polygon>
                        </g>
                        <g id="Man-Standing-1" transform="translate(93.635417, 113.864583)">
                            <g id="Back-Bottom/-Sit/-Pants2" transform="translate(21.496175, 76.584431)">
                                <path d="M68.1354771,48.8426139 C67.5616623,52.4767592 66.5818126,58.4310026 65.1959286,66.7053445 L60.568839,66.4299879 C60.1998559,60.4684823 59.5517953,54.8820315 58.8947555,49.7380678 C57.1756745,36.2793823 72.4769884,21.346489 68.1354771,48.8426139 Z M45.3693781,48.097568 C44.9218214,51.7496719 44.1488597,57.7347349 43.0504928,66.0527566 L38.4166822,65.9402322 C37.841381,59.9953297 37.0001671,54.4350643 36.1653097,49.3173325 C33.980986,35.9272797 48.7556133,20.4655681 45.3693781,48.097568 Z" id="Shape" fill="#FFB5B9"></path>
                                <path d="M47.3326803,22.2503065 C47.4243359,30.780541 46.2936792,43.7076896 43.9407104,61.031752 C42.9037438,61.6070973 41.8934981,61.89477 40.9099735,61.89477 C39.9264489,61.89477 38.6184797,61.6070973 36.9860656,61.031752 C34.9900733,41.3416813 32.403138,34.7874922 32.7624412,26.9841047 C28.7628079,27.6602111 24.1953073,27.9975546 18.5784842,27.9975546 C0.06813475,27.9975546 0.369657264,8.24843462 0.0110304144,3.85940121 C-0.340170771,-0.438753379 7.69514921,-1.14681746 24.1169904,1.73520899 C49.7461308,-0.178585553 64.4401538,0.150164455 68.1990596,2.72145902 C71.9579655,5.29275357 71.7911959,24.4387745 67.6987507,60.159522 C66.5550028,61.0753082 65.2677148,61.5784307 63.8368867,61.6688895 C62.4060583,61.7593484 60.9372964,61.430467 59.4306011,60.682245 C57.5953819,28.9689701 54.1492612,29.4028878 57.1528604,16.9556515 C53.5517165,19.0074196 50.4018438,20.7719405 47.3326803,22.2503065 L47.3326803,22.2503065 Z" id="Shape" fill="#134DBD"></path>
                                <path d="M47.2628794,20.4207021 C41.6412058,23.6106777 38.3710293,25.0803743 34.0672467,26.1202875 C33.8974743,26.1613092 33.7928597,26.3331985 33.8335836,26.504213 C33.8743071,26.6752275 34.0449482,26.7806074 34.2147205,26.7395857 C38.587198,25.683074 41.904826,24.1920516 47.5731862,20.9755841 C47.7252997,20.8892684 47.7791477,20.6950812 47.6934588,20.5418547 C47.60777,20.3886283 47.414993,20.3343864 47.2628794,20.4207021 Z" id="Shape" fill="#0E143F" fill-rule="nonzero"></path>
                                <path d="M37.2772515,64.1275608 C37.8596233,63.5405927 40.5869044,65.2528845 41.7227888,65.2561994 C42.480045,65.2584093 42.9732776,64.88796 43.2024868,64.144852 C47.9159468,66.1172319 50.702299,67.3668431 51.5615441,67.8936854 C52.4207889,68.4205277 52.6744795,69.0349062 52.3226155,69.7368207 L37.2772515,69.7368207 C36.8890037,66.388626 36.8890037,64.5188726 37.2772515,64.1275608 Z M59.721787,64.1275608 C60.3041589,63.5405927 63.0314399,65.2528845 64.1673243,65.2561994 C64.9245805,65.2584093 65.4178131,64.88796 65.6470224,64.144852 C70.3604823,66.1172319 73.1468345,67.3668431 74.0060796,67.8936854 C74.8653244,68.4205277 75.119015,69.0349062 74.7671511,69.7368207 L59.721787,69.7368207 C59.3335392,66.388626 59.3335392,64.5188726 59.721787,64.1275608 Z" id="Shape" fill="#021768"></path>
                            </g>
                            <g id="Back-body/-Woman/-Pose4/--Long-sleeve-T-shirt" transform="translate(13.593169, 22.395988)">
                                <path d="M63.596665,4.91924043 C64.8222182,2.09445555 65.6756069,0.539586609 66.1568317,0.254633588 C66.6380567,-0.0303194043 66.6535514,1.00846487 66.2033165,3.37098644 C69.8729649,1.83533455 71.8434152,1.22238654 72.1146672,1.53214243 C72.6554095,2.1496415 69.7698041,3.47955774 69.4605642,3.93603037 C69.9028825,3.97293984 73.5018502,2.80577825 73.7850439,3.38765909 C73.9738398,3.77557965 72.6531591,4.51806399 69.8230021,5.61511213 C72.4498229,5.13405982 73.7809597,5.09155781 73.8164122,5.48760609 C73.8695909,6.08167851 71.2979801,6.73916978 70.2144515,7.14961256 C69.8180402,7.29977399 72.8899091,7.02675643 72.8937626,7.46760864 C72.8976161,7.90846084 71.8674761,8.08731728 69.861081,8.61833372 C68.523484,8.97234466 67.0521973,8.97520034 65.4472202,8.62690074 L63.5179321,13.4738832 L60.9787935,10.9727748 L63.596665,4.91924043 Z" id="Shape" fill="#FFB5B9"></path>
                                <path d="M33.1856775,9.67322767 C37.1497232,12.8303225 44.3040078,20.7157071 48.964106,26.7388447 C49.9228638,22.1371192 55.0575871,20.2150616 60.6267911,9.28616746 C61.348028,7.87082709 62.875764,8.28405492 65.2099994,10.525851 C60.103439,26.6821312 54.9675207,45.5181189 51.2736657,44.631156 C48.9363882,44.0699326 42.6247525,38.8673282 36.7097566,33.0604516 C36.8031369,38.0558422 36.7721236,42.5960831 37.2553453,45.997136 C37.9402353,50.8175877 40.4466437,51.6288113 41.2368109,53.7846271 C41.8311757,55.4062345 33.3880453,64.3664066 24.9684062,66.7501391 C16.548767,69.1338713 11.2022948,67.2984265 6.55928751,62.9542452 C4.99673287,61.4922573 6.54431049,57.3459094 8.14814708,53.0357682 C5.41405157,52.7230263 3.33907494,52.1791874 2.63191351,51.2846779 C0.188675942,48.1941548 -0.711607002,24.511984 1.49240355,16.0849924 C1.40423892,13.9901903 1.95104398,12.3353498 4.26206464,10.8394607 C5.27655373,10.1827971 7.73484449,8.9913375 11.6369369,7.26508183 C14.267052,9.73461798 23.3898364,9.20015151 23.2233802,6.96252433 C28.868656,7.29895746 32.1894218,8.20252525 33.1856775,9.67322767 Z" id="Shape" fill="#FCBA19"></path>
                                <path d="M36.7357059,32.477755 L33.9822742,29.6010793 C33.8589819,29.4722684 33.6588257,29.4719976 33.5352129,29.6004745 C33.4116001,29.7289513 33.4113402,29.9375242 33.5346325,30.066335 L36.2880645,32.9430107 C36.4113568,33.0718216 36.6115127,33.0720923 36.7351256,32.9436155 C36.8587384,32.8151387 36.8589982,32.6065658 36.7357059,32.477755 Z" id="Shape" fill="#0E143F" fill-rule="nonzero"></path>
                                <path d="M9.42682852,38.9373663 C8.56652745,37.3423161 7.58408018,35.6944194 6.47950547,33.9935838 C5.80128079,32.9492463 5.09965911,31.1588628 4.38384739,28.6316946 C4.33442424,28.4572064 4.15861632,28.357506 3.99116947,28.4090074 C3.82372261,28.4605089 3.72804551,28.6437097 3.77746869,28.8181979 C4.51015181,31.4049307 5.23322544,33.2500547 5.95589664,34.3628314 C7.0509447,36.048998 8.02419767,37.6814723 8.87567428,39.2601618 C10.9259595,43.0615149 10.1484672,48.5952377 6.49364429,55.8679996 L6.47486852,55.9133403 C5.36347863,59.2687147 5.36347863,61.7959577 6.51622286,63.4821144 C7.66732045,65.1658625 11.8344005,66.6401259 19.1012579,67.9962995 C19.2731119,68.0283717 19.4373775,67.9091975 19.4681555,67.7301169 C19.4989333,67.5510362 19.3845686,67.3798629 19.2127146,67.3477907 C12.1313747,66.0262394 8.04292391,64.5797942 7.03115687,63.0998493 C6.02350831,61.6259288 6.02104248,59.3141271 7.06481081,56.1515839 C10.7991748,48.7123777 11.6029829,42.9720887 9.42682852,38.9373663 Z" id="Shape" fill="#0E143F" fill-rule="nonzero"></path>
                            </g>
                            <g id="Head-Back/-Women/-3" transform="translate(0.000000, 0.233876)">
                                <path d="M31.9262956,3.18432971 C36.6401817,3.18432971 40.4615415,6.94776786 40.4615415,11.5902041 L40.4615415,16.965389 C40.4615415,21.6078252 38.1709016,25.5337194 37.6107721,25.5000867 C37.5316538,25.4952747 37.2329552,25.4068473 36.7768289,25.248932 C36.5657919,27.5741856 36.5512582,28.923339 36.7331768,29.2963615 C37.1122122,30.07357 38.7375566,29.749878 36.6699454,32.1617301 C34.6023341,34.5735822 26.7344388,35.9612232 24.3401078,32.0771727 C25.2120293,29.3258639 26.5102237,25.718883 28.2346908,21.25623 C26.4803691,20.1453443 25.1363582,18.9480132 24.9676825,17.8381345 C24.6229085,15.5695354 24.0973642,13.4868919 23.3910496,11.5902041 C23.3910496,6.94776786 27.2124094,3.18432971 31.9262956,3.18432971 Z" id="Shape" fill="#FFB5B9"></path>
                                <path d="M36.8805675,27.1843811 C36.8934041,25.1487494 36.8684339,23.9620964 36.8010754,23.5727414 C36.7950502,23.5379139 36.7890364,23.5100073 36.7809704,23.4837205 C36.771941,23.4538995 36.771941,23.4538995 36.7394369,23.3930107 C36.653122,23.2629913 36.653122,23.2629913 36.3049575,23.2929414 C36.1726417,23.43043 36.1726417,23.43043 36.1632231,23.4822214 C36.1540049,23.5195865 36.1540049,23.5195865 36.1505078,23.5439262 C36.1471149,23.568853 36.1449361,23.5971438 36.1433613,23.6316334 C36.1382317,23.7439798 36.1390176,23.9485228 36.145399,24.2517879 C36.1579232,24.8469714 36.1923197,25.8278272 36.2486047,27.1955473 C36.2656499,27.6097446 36.8779534,27.5989258 36.8805675,27.1843811 Z" id="Shape" fill="#F97A80" fill-rule="nonzero"></path>
                                <path d="M3.43403252,45.2054298 C14.4865947,58.8657585 36.7790698,45.9588346 39.5595885,37.7612933 C42.3401072,29.5637521 38.5608607,27.4250692 36.3136703,26.0265216 C34.0664798,24.6279739 33.0960227,15.1898506 35.5555565,14.1201065 C38.0150903,13.0503624 38.0103384,16.2904132 38.7599538,16.1363011 C39.5095693,15.9821889 37.7451013,9.59979241 40.0298154,9.23776399 C40.6711979,9.1361326 44.0667754,5.03588713 41.8921008,2.16218885 C39.7174261,-0.711509417 33.3655865,-0.69081015 27.2785454,2.3786122 C26.5176989,2.76227307 25.8498141,3.55435369 25.2748913,4.75485405 C24.1383735,4.65838708 23.1198822,5.30493701 22.2194174,6.69450386 C20.8687201,8.77885415 21.384617,14.6048523 15.6681042,21.0158802 C12.3037135,24.7890199 -7.61852973,31.5451009 3.43403252,45.2054298 Z" id="Shape" fill="#732213"></path>
                                <path d="M37.769538,16.0297124 C36.7293159,15.0181615 35.8025585,15.1460195 35.2855056,16.4095466 C35.21897,16.5721403 35.2958832,16.758281 35.457296,16.8253034 C35.6187089,16.8923258 35.8034976,16.8148499 35.8700333,16.6522562 C36.207722,15.827043 36.5957713,15.7735067 37.3304209,16.4879074 C37.456029,16.6100534 37.6561542,16.6065018 37.777413,16.4799748 C37.8986719,16.3534478 37.8951461,16.1518585 37.769538,16.0297124 Z" id="Shape" fill="#F97A80" fill-rule="nonzero"></path>
                            </g>
                        </g>
                        <g id="Group-2" transform="translate(96.416667, 164.854167)" fill-rule="nonzero">
                            <path d="M11.6437113,50.1371644 L63.4728379,50.1371644 C64.1756022,50.1371644 64.7453052,50.7054473 64.7453052,51.4064597 L64.7453052,55.2143456 C64.7453052,55.9153581 64.1756022,56.4836409 63.4728379,56.4836409 L11.6437113,56.4836409 L11.6437113,56.4836409 L11.6437113,50.1371644 Z" id="Shape" fill="#60C9FF"></path>
                            <path d="M7.87200675,61.8709326 L59.5719332,61.8709326 C60.2729457,61.8709326 60.8412285,62.4406356 60.8412285,63.1433999 L60.8412285,66.3858585 C60.8412285,67.0886228 60.2729457,67.6583258 59.5719332,67.6583258 L7.87200675,67.6583258 L7.87200675,67.6583258 L7.87200675,61.8709326 Z" id="Shape" fill="#A1E0FF" transform="translate(34.356618, 64.764629) rotate(90.000000) translate(-34.356618, -64.764629) "></path>
                            <path d="M31.6593651,50.7685971 L35.7845749,50.7685971 C36.4855873,50.7685971 37.0538702,51.3383001 37.0538702,52.0410644 L37.0538702,61.6458596 C37.0538702,62.3486239 36.4855873,62.918327 35.7845749,62.918327 L31.6593651,62.918327 L31.6593651,62.918327 L31.6593651,50.7685971 Z" id="Shape" fill="#00A7FF" transform="translate(34.356618, 56.843462) rotate(90.000000) translate(-34.356618, -56.843462) "></path>
                            <path d="M31.6593651,81.5370797 L35.7845749,81.5370797 C36.4855873,81.5370797 37.0538702,82.1067827 37.0538702,82.809547 L37.0538702,92.4143422 C37.0538702,93.1171065 36.4855873,93.6868095 35.7845749,93.6868095 L31.6593651,93.6868095 L31.6593651,93.6868095 L31.6593651,81.5370797 Z" id="Shape" fill="#00A7FF" transform="translate(34.356618, 87.611945) scale(-1, 1) rotate(-90.000000) translate(-34.356618, -87.611945) "></path>
                            <path d="M1.35265976,0 L37.3324294,0 C38.0050312,0 38.561469,0.52214463 38.6025243,1.19181868 L41.909676,55.1368691 C41.9525719,55.8365742 41.4187053,56.4384851 40.7172514,56.4812743 C40.6913917,56.4828518 40.6654893,56.4836409 40.6395812,56.4836409 L4.6598115,56.4836409 C3.98720973,56.4836409 3.43077183,55.9614963 3.38971685,55.2918222 L0.0825651113,1.34677192 C0.0396690233,0.647066608 0.573535616,0.045155914 1.27498952,0.00236675752 C1.30084941,0.000789287103 1.32675156,0 1.35265976,0 Z" id="Shape" fill="#60C9FF"></path>
                            <path d="M1.35265976,0 L34.1512611,0 C34.8238629,0 35.3803007,0.52214463 35.4213559,1.19181868 L38.8110727,56.4836409 L38.8110727,56.4836409 L4.6598115,56.4836409 C3.98720973,56.4836409 3.43077183,55.9614963 3.38971685,55.2918222 L0.0825651113,1.34677192 C0.0396690233,0.647066608 0.573535616,0.045155914 1.27498952,0.00236675752 C1.30084941,0.000789287103 1.32675156,0 1.35265976,0 Z" id="Shape" fill="#A1E0FF"></path>
                            <path d="M21.3138276,90.1199664 L47.3994077,90.1199664 C48.6292451,90.1199664 49.6262255,91.1144615 49.6262255,92.3412332 C49.6262255,93.5680049 48.6292451,94.5625 47.3994077,94.5625 L21.3138276,94.5625 C20.0839901,94.5625 19.0870098,93.5680049 19.0870098,92.3412332 C19.0870098,91.1144615 20.0839901,90.1199664 21.3138276,90.1199664 Z" id="Shape" fill="#86D7FF"></path>
                        </g>
                        <g id="Window-3" transform="translate(22.250000, 0.000000)" fill-rule="nonzero">
                            <polygon id="Shape" fill="#F2FBFF" points="5.41958992 0 75.2366601 0 75.2366601 96.5540123 5.41958992 96.5540123"></polygon>
                            <path d="M21.3595603,27.6322338 L21.3595603,72.0978974 L58.9778903,72.0978974 L58.9778903,27.6322338 L21.3595603,27.6322338 Z M21.3595603,25.7265625 L58.9778903,25.7265625 L58.9778903,4.44656636 L61.2094862,4.44656636 L61.2094862,25.7265625 L71.0922678,25.7265625 L71.0922678,27.6322338 L61.2094862,27.6322338 L61.2094862,72.0978974 L71.0922678,72.0978974 L71.0922678,74.0035687 L61.2094862,74.0035687 L61.2094862,92.107446 L58.9778903,92.107446 L58.9778903,74.0035687 L21.3595603,74.0035687 L21.3595603,92.107446 L19.4467638,92.107446 L19.4467638,74.0035687 L9.88278162,74.0035687 L9.88278162,72.0978974 L19.4467638,72.0978974 L19.4467638,27.6322338 L9.88278162,27.6322338 L9.88278162,25.7265625 L19.4467638,25.7265625 L19.4467638,4.44656636 L21.3595603,4.44656636 L21.3595603,25.7265625 Z" id="Shape" fill="#CCEEFF"></path>
                            <path d="M69.8170702,45.1008873 L69.8170702,5.39940201 L10.8391798,5.39940201 L10.8391798,45.1008873 L69.8170702,45.1008873 Z M69.8170702,50.5002894 L10.8391798,50.5002894 L10.8391798,91.1546103 L69.8170702,91.1546103 L69.8170702,50.5002894 Z M5.41958992,0 L75.2366601,0 L75.2366601,96.5540123 L5.41958992,96.5540123 L5.41958992,0 Z" id="Shape" fill="#CCEEFF"></path>
                            <polygon id="Shape" fill="#A1E0FF" points="0 96.5540123 80.65625 96.5540123 80.65625 102.90625 0 102.90625"></polygon>
                            <path d="M67.322409,90.2017747 C67.1193631,85.4392611 67.4711076,81.9483917 68.3776424,79.7291667 C69.2841775,77.5099416 71.5705166,74.5427028 75.2366601,70.8274498 C75.2366601,80.6018841 72.5985765,87.0599922 67.322409,90.2017747 Z" id="Shape" fill="#60C9FF"></path>
                            <path d="M66.9478755,89.8841628 C63.7598814,87.9784915 62.1658844,84.0612784 62.1658844,78.1325231 C64.3810611,80.3860373 65.7625254,82.185838 66.3102767,83.5319252 C66.8580279,84.8780123 67.070561,86.9954249 66.9478755,89.8841628 Z" id="Shape" fill="#60C9FF"></path>
                            <path d="M64.3974802,87.9784915 L70.1358696,87.9784915 C71.1922777,87.9784915 72.048666,88.8316898 72.048666,89.8841628 L72.048666,95.6011767 C72.048666,96.6536497 71.1922777,97.506848 70.1358696,97.506848 L64.3974802,97.506848 C63.3410721,97.506848 62.4846838,96.6536497 62.4846838,95.6011767 L62.4846838,89.8841628 C62.4846838,88.8316898 63.3410721,87.9784915 64.3974802,87.9784915 Z" id="Shape" fill="#86D7FF"></path>
                            <path d="M72.022219,89.5665509 L62.5111308,89.5665509 C62.6629045,88.6652596 63.4496909,87.9784915 64.3974802,87.9784915 L70.1358696,87.9784915 C71.0836589,87.9784915 71.8704453,88.6652596 72.022219,89.5665509 Z M72.048666,90.8369985 L72.048666,92.7426698 L62.4846838,92.7426698 L62.4846838,90.8369985 L72.048666,90.8369985 Z M72.048666,94.0131173 L72.048666,95.6011767 C72.048666,95.7093909 72.0396124,95.8154987 72.022219,95.9187886 L62.5111308,95.9187886 C62.4937374,95.8154987 62.4846838,95.7093909 62.4846838,95.6011767 L62.4846838,94.0131173 L72.048666,94.0131173 Z" id="Shape" fill="#A1E0FF"></path>
                            <polygon id="Shape" fill="#A1E0FF" points="60.5718874 96.8716242 73.3238636 96.8716242 73.3238636 98.7772955 60.5718874 98.7772955"></polygon>
                        </g>
                        <g id="Standing-Lamp-3" transform="translate(393.083333, 98.104167)" fill-rule="nonzero">
                            <polygon id="Shape" fill="#60C9FF" points="5.40357143 160.284998 40.6857143 160.284998 40.6857143 164.09375 5.40357143 164.09375"></polygon>
                            <polygon id="Shape" fill="#86D7FF" points="20.9785714 19.6785542 23.8392857 19.6785542 23.8392857 160.602394 20.9785714 160.602394"></polygon>
                            <polygon id="Shape" fill="#60C9FF" points="11.6719274 0 32.8991021 0 44.5 33.0091876 0.317857143 33.0091876"></polygon>
                            <polygon id="Shape" fill="#A1E0FF" points="0 29.2004352 44.5 29.2004352 44.5 35.5483559 0 35.5483559"></polygon>
                        </g>
                        <g id="Plant-13" transform="translate(31.520833, 144.458333)" fill-rule="nonzero">
                            <path d="M6.90116939,57.4438893 C4.51820361,54.1737271 5.24528898,49.5966794 8.52515999,47.2207674 C11.805031,44.8448555 16.3956672,45.5697886 18.778633,48.8399508 C21.1615988,52.110113 20.4345135,56.6871607 17.1546424,59.0630726 C13.8747714,61.4389846 9.28413517,60.7140515 6.90116939,57.4438893 Z" id="Shape" fill="#D8F4FF"></path>
                            <polygon id="Shape" fill="#CCEEFF" points="12.3155382 48.1055505 13.5921775 48.1055505 13.7498494 82.1814556 12.3155382 82.4727802"></polygon>
                            <polygon id="Shape" fill="#CCEEFF" points="16.8174735 52.5898054 17.5678633 53.6195711 12.9201602 56.9863294 12.1697704 55.9565637"></polygon>
                            <polygon id="Shape" fill="#CCEEFF" points="9.73007158 51.2191216 10.3625142 50.0421884 12.9860457 51.3562812 12.3536031 52.5332147"></polygon>
                            <ellipse id="Shape" fill="#CCEEFF" cx="19.46875" cy="19.4111205" rx="19.46875" ry="19.4111205"></ellipse>
                            <polygon id="Shape" fill="#A1E0FF" points="18.6246422 14.612501 10.4779609 8.95318964 11.4539537 7.56951695 18.6246422 12.5508287 18.6246422 5.72787162 20.3265722 5.72787162 20.3265722 21.5256395 30.810077 11.8649831 31.968157 13.1026624 20.3265722 23.8305014 20.3265722 93.5552365 18.6246422 93.5552365 18.6246422 33.9947074 4.4682377 22.425146 5.55016695 21.1213652 18.6246422 31.8067017"></polygon>
                            <path d="M36.1371421,65.7491816 C32.6644744,70.1808365 26.2460888,70.9665824 21.8012767,67.5041938 C17.3564646,64.0418055 16.5683859,57.6424189 20.0410538,53.210764 C23.5137216,48.7791091 29.9321072,47.9933631 34.3769195,51.4557514 C38.8217315,54.9181397 39.6098102,61.3175263 36.1371421,65.7491816 Z" id="Shape" fill="#CCEEFF"></path>
                            <polygon id="Shape" fill="#A1E0FF" points="26.6830386 53.2616618 28.3800286 53.2454679 28.5380016 84.5926356 26.8410116 84.6088296"></polygon>
                            <polygon id="Shape" fill="#A1E0FF" points="21.1944052 55.8539677 22.2422179 54.5167986 28.2492317 59.1960996 27.201419 60.533269"></polygon>
                            <polygon id="Shape" fill="#A1E0FF" points="34.4447441 59.5384548 35.5892139 60.7839805 27.9674457 67.7671511 26.8229757 66.5216255"></polygon>
                            <path d="M8.33316157,75.0987613 L32.1110081,75.0987613 C33.521145,75.0987613 34.6642868,76.2385193 34.6642868,77.644482 C34.6642868,77.7076986 34.661925,77.7708932 34.6572066,77.8339342 L31.6703315,117.739583 L9.96746269,117.739583 L5.79370506,77.9090129 C5.64717488,76.5106616 6.66534212,75.2586389 8.06784521,75.1125425 C8.1559842,75.1033614 8.24454282,75.0987613 8.33316157,75.0987613 Z" id="Shape" fill="#A1E0FF"></path>
                            <path d="M34.4803563,80.196714 L34.2478132,83.3035673 L12.5599579,117.739583 L10.8358,117.739583 L34.4803563,80.196714 Z M9.78478285,115.996252 L9.29573717,111.329242 L30.907715,76.3716216 L33.3344975,77.9043199 L9.78478285,115.996252 Z" id="Shape" fill="#CCEEFF"></path>
                            <polygon id="Shape" fill="#60C9FF" points="4.22258565 73.1894707 36.7768888 73.1894707 36.7768888 79.0909144 4.22258565 79.0909144"></polygon>
                            <polygon id="Shape" fill="#60C9FF" points="6.13754466 115.830293 38.6918478 115.830293 38.6918478 117.739583 6.13754466 117.739583"></polygon>
                        </g>
                    </g>
                </g>
            </g>
        </g>
    </g>
</svg>
