<?xml version="1.0" encoding="UTF-8"?>
<svg width="350px" height="215px" viewBox="0 0 350 215" version="1.1" xmlns="http://www.w3.org/2000/svg" xmlns:xlink="http://www.w3.org/1999/xlink">
    <!-- Generator: Sketch 64 (93537) - https://sketch.com -->
    <title>Welcome Screen</title>
    <desc>Created with Sketch.</desc>
    <g id="Designs:-Dashboard" stroke="none" stroke-width="1" fill="none" fill-rule="evenodd">
        <g id="Dashboard---Blank-State-(Gov-Admin)" transform="translate(-425.000000, -215.000000)">
            <g id="Welcome-Screen" transform="translate(425.000000, 215.000000)">
                <g id="bg" opacity="0.5" transform="translate(0.000000, 149.000000)" fill-rule="nonzero">
                    <path d="M314.761333,21.6266178 C292.628529,15.9212525 281.627934,23.8394594 256.568184,34.7163429 C231.508437,45.5932262 200.56306,49.0810657 165.2364,28.7817734 C129.909739,8.48248097 90.3272965,15.9212525 74.2316835,38.5729821 C63.5012749,53.6741353 38.7573803,62.4831412 0,65 L350,65 C341.262759,39.8879887 329.516535,25.4301946 314.761333,21.6266178 Z" id="Shape" fill="#CCEEFF"></path>
                    <path d="M0.499286733,65 C12.4772031,35.2769681 35.9125516,25.3692911 70.8053318,35.2769681 C123.144503,50.1384842 153.741511,38.9923472 181.051872,16.7000733 C208.362233,-5.59220049 240.455111,-8.56450365 278.232308,26.3600587 C303.417107,49.6431002 327.339672,62.5230806 350,65 L0.499286733,65 Z" id="Shape" fill="#E5F6FF"></path>
                </g>
                <g id="Man-Standing-1" transform="translate(235.000000, 139.500000) scale(-1, 1) translate(-235.000000, -139.500000) translate(188.000000, 63.000000)">
                    <g id="Head-Front/-Women/-4" transform="translate(28.349206, 0.183914)">
                        <path d="M11.018502,13.0724821 C10.7242487,12.2125146 10.973629,11.2964618 11.5829886,10.7032476 C11.423218,9.64406173 11.2782913,8.67487935 11.1482084,7.79570051 C11.1482084,4.14501115 14.1542965,1.18554266 17.8624941,1.18554266 C21.5706917,1.18554266 24.5767798,4.14501115 24.5767798,7.79570051 L24.5767798,11.2713823 C24.5767798,14.1926815 22.8499269,17.4126977 21.6394027,18.6482617 C21.9155048,19.5054204 22.2624621,20.2395712 22.6802748,20.8507141 C22.7715926,20.9842864 22.8543121,21.1188936 22.9284332,21.2545355 C24.9090842,21.5063219 25.8960641,26.4553264 24.420106,27.6364495 C22.6811489,29.0280357 20.8217676,29.7509125 18.841962,29.8050801 C15.1817756,29.9052232 11.8030085,27.7008135 8.70566054,23.1918516 C10.1820815,22.4983613 11.7699784,21.9717626 13.4693511,21.6120553 L14.2965498,15.5718012 C13.8975696,15.252211 13.5261233,14.9265407 13.199,14.6017251 C12.2451865,14.6232986 11.3457323,14.0288264 11.018502,13.0724821 Z" id="Shape" fill="#F79474"></path>
                        <path d="M21.2463995,18.7122252 C20.5578973,19.3052131 19.6859039,18.988795 16.7664762,16.8259949 C16.6558496,16.7440394 16.50019,16.7679058 16.4188008,16.879302 C16.3374115,16.9906983 16.361113,17.1474408 16.4717396,17.2293963 C19.5776836,19.5303732 20.621755,19.9092329 21.5696766,19.0928142 C21.6740472,19.0029226 21.6862883,18.8448533 21.5970178,18.7397566 C21.5077473,18.6346598 21.3507701,18.6223336 21.2463995,18.7122252 Z" id="Shape" fill="#E2643B" fill-rule="nonzero"></path>
                        <path d="M20.7617568,14.7445033 C20.6707205,14.6409538 20.6802844,14.4826975 20.7831185,14.3910278 C20.8859526,14.2993581 21.0431156,14.3089886 21.1341519,14.4125381 C21.3958399,14.7101957 21.6693242,14.7945288 21.9980213,14.6876126 C22.1287126,14.6451023 22.2688821,14.7173241 22.3110988,14.8489246 C22.3533154,14.9805251 22.2815925,15.1216698 22.1509012,15.1641801 C21.6282447,15.3341861 21.1507245,15.1869355 20.7617568,14.7445033 Z" id="Shape" fill="#E2643B" fill-rule="nonzero"></path>
                        <path d="M22.3386846,10.200205 C22.3386846,10.0619089 22.227348,9.94979776 22.0900074,9.94979776 C21.9526667,9.94979776 21.8413301,10.0619089 21.8413301,10.200205 L21.8413301,12.1537676 C21.8413301,12.2793873 21.9337613,12.3855658 22.0574385,12.402018 C22.519286,12.4634555 22.7074312,12.5617987 22.7074312,12.6064772 C22.7074312,12.7064714 22.46602,12.9431222 21.9641952,13.2395042 C21.8457283,13.3094718 21.8060199,13.4628962 21.875504,13.5821873 C21.9449882,13.7014783 22.0973526,13.7414629 22.2158195,13.6714954 C22.8687962,13.2858419 23.2047857,12.9564777 23.2047857,12.6064772 C23.2047857,12.2454371 22.8959287,12.0445585 22.3386846,11.9398281 L22.3386846,10.200205 Z" id="Shape" fill="#E2643B" fill-rule="nonzero"></path>
                        <path d="M24.5766508,8.32531553 C24.5774763,8.11662975 24.5767798,7.91017385 24.5767798,7.69613216 C23.241113,7.82201554 21.0689067,8.19694674 19.7275735,6.1188 C19.3545576,7.69613216 17.0726093,6.18073394 16.6191079,4.71728966 C16.6191079,9.49148584 15.8101134,9.07083397 15.1581032,10.0236315 C14.4758824,11.0205767 14.7621592,11.5319805 14.4606391,11.5939474 C13.870951,11.7151371 13.396865,9.74971154 12.6900267,9.8990105 C11.9831883,10.0483095 10.4491969,11.4217953 11.0936813,13.0911203 C11.7381657,14.7604454 13.7890712,14.377237 14.1461201,15.3634519 C14.2508578,15.652751 14.3177822,15.5058669 14.2965959,15.969924 C14.2869139,16.1819958 13.9662313,18.2286096 13.5497907,21.4969091 C13.5217954,21.7166214 9.12145486,22.6485978 8.90156858,23.2566205 C8.6816823,23.8646434 12.6545992,27.0305949 12.4621089,27.6681371 C11.9588054,29.3351167 11.2153941,30.4539447 10.28551,30.5496892 C8.99998842,30.6820512 7.69185797,30.2916142 5.89013129,28.7011771 C3.14911138,31.5759394 1.1170437,27.870079 2.22458923,25.5415434 C-0.156447582,25.5415434 -1.48707848,22.3054019 3.14911138,20.3259644 C2.51836713,19.0915869 2.52642912,16.9410593 5.89013129,16.2363212 C5.10382161,15.6804759 4.24745764,13.3635431 8.65009932,13.0911203 C9.62825078,12.6216912 8.75208192,9.58051775 9.7066262,6.59893652 C10.5369223,4.00545268 13.1582301,1.33551482 14.465609,1.97694891 C17.3651396,-1.95691249 21.1801865,1.65411903 24.6190476,1.65411903 C27.6031746,1.65411903 26.7622916,4.8473473 26.4331794,5.28421637 C27.4473954,6.70278415 26.9472875,8.60916757 25.2605758,9.45167401 C24.9701157,9.59675781 24.2701923,14.7068425 26.4331794,15.5663926 C28.5961664,16.4259428 27.1058201,18.3818647 26.1845021,18.9294543 C27.2465424,20.9443503 26.5553118,21.839472 25.5935537,21.7617968 C23.9834886,21.6436721 23.1496205,21.5419445 22.8158532,21.1660459 C22.4820859,20.7901472 21.6194006,18.7471578 21.6169672,18.6881355 C21.6180074,18.547309 23.6555535,16.1380728 24.0794254,13.4554998 C24.4767118,10.9411787 24.557583,9.72141204 24.5733758,8.68412957 C24.3304117,8.71647708 23.9369613,8.69156005 23.5056691,8.60611893 C22.8202862,8.47034117 22.2988798,8.2331345 22.3410753,8.07630299 C22.3832708,7.9194715 22.9730896,7.90240406 23.6584726,8.03818183 C24.0369787,8.11316579 24.3654744,8.2190841 24.5766508,8.32531553 L24.5766508,8.32531553 Z M18.5922849,8.49291351 C17.9771865,8.71601533 17.4301537,8.76436627 17.370453,8.60090833 C17.3107524,8.43745042 17.7609912,8.12408182 18.3760896,7.90097997 C18.991188,7.67787815 19.5382208,7.62952723 19.5979215,7.79298514 C19.6576221,7.95644308 19.2073833,8.26981168 18.5922849,8.49291351 Z M19.7275735,10.7010196 C19.5215625,10.7010196 19.3545576,10.5328529 19.3545576,10.3254087 C19.3545576,10.1179645 19.5215625,9.94979776 19.7275735,9.94979776 C19.9335845,9.94979776 20.1005894,10.1179645 20.1005894,10.3254087 C20.1005894,10.5328529 19.9335845,10.7010196 19.7275735,10.7010196 Z M23.7064095,10.7010196 C23.5003985,10.7010196 23.3333936,10.5328529 23.3333936,10.3254087 C23.3333936,10.1179645 23.5003985,9.94979776 23.7064095,9.94979776 C23.9124204,9.94979776 24.0794254,10.1179645 24.0794254,10.3254087 C24.0794254,10.5328529 23.9124204,10.7010196 23.7064095,10.7010196 Z" id="Shape" fill="#212529"></path>
                        <path d="M13.8874114,12.1565073 C13.0691164,11.3610503 12.3400789,11.4615945 11.9333372,12.4551988 C11.8809967,12.5830582 11.9415007,12.7294344 12.0684768,12.782139 C12.1954529,12.8348437 12.3408177,12.7739187 12.3931582,12.6460592 C12.6588024,11.9971334 12.964063,11.9550338 13.5419781,12.5168197 C13.6407882,12.6128721 13.7982175,12.6100792 13.8936062,12.5105817 C13.988995,12.4110842 13.9862215,12.2525596 13.8874114,12.1565073 Z" id="Shape" fill="#E2643B" fill-rule="nonzero"></path>
                    </g>
                    <g id="Front-Bottom/-Standing/-Long-Pants" transform="translate(29.592593, 61.476012)">
                        <path d="M2.33525654,75.9737486 L7.46153183,76.9771276 L4.34635278,87.5784509 L0.247462877,86.789239 L2.33525654,75.9737486 Z M33.9188655,77.2365288 L39.102162,76.5956724 L39.3928063,87.6474702 L35.2523353,88.1723234 L33.9188655,77.2365288 Z" id="Shape" fill="#F79474"></path>
                        <path d="M20.4843388,25.4230216 L6.03875245,84.9792283 L0.496761206,83.7495985 C1.70032775,60.656917 3.96212024,45.5223673 7.28213869,43.5364106 C5.47911728,30.5467557 5.69196745,16.4711932 7.92068922,1.30972306 L12.5047807,1.54209228 L31.4831124,-7.11700318e-15 L39.7883598,42.9558361 L39.6151645,83.7645754 L34.5480199,84.9792283 C30.9820031,62.7584386 29.3625895,49.3055103 32.1765514,46.6237016 C28.6179556,40.8602306 24.7205513,33.7933372 20.4843388,25.4230216 Z" id="Shape" fill="#1A6EE3"></path>
                        <path d="M0.219713104,85.9807039 C0.659139312,85.5447709 2.71699751,86.8164663 3.57407417,86.8189281 C4.14545861,86.8205695 4.5176252,86.545442 4.69057396,85.9935461 C8.24709495,87.4584052 10.3495252,88.3864742 10.9978648,88.7777526 C11.6462044,89.1690313 11.8376255,89.6253217 11.5721281,90.1466238 L0.219713104,90.1466238 C-0.0732377013,87.6599658 -0.0732377013,86.2713259 0.219713104,85.9807039 Z M34.7858506,86.0383905 C35.2252768,85.6024575 37.283135,86.8741529 38.1402118,86.8766149 C38.7115963,86.8782561 39.0837629,86.6031286 39.2567115,86.0512326 C42.8132325,87.5160917 44.9156629,88.4441608 45.5640023,88.8354394 C46.2123419,89.2267178 46.403763,89.6830082 46.1382657,90.2043104 L34.7858506,90.2043104 C34.4928999,87.7176526 34.4928999,86.3290125 34.7858506,86.0383905 Z" id="Shape" fill="#021768"></path>
                        <path d="M30.4283536,6.1482039 C30.5092694,6.0364587 30.4849035,5.87981955 30.3739303,5.79834055 C30.2629571,5.71686152 30.1074,5.74139713 30.0264842,5.85314233 L21.910874,17.0608103 C21.8955031,17.0820376 21.8835453,17.1055682 21.8754392,17.1305389 L19.0023777,25.9810029 C18.9597055,26.1124543 19.0309392,26.25385 19.1614824,26.2968191 C19.2920257,26.339788 19.4324445,26.2680588 19.4751167,26.1366073 L22.3359434,17.3238327 L30.4283536,6.1482039 Z" id="Shape" fill="#0E143F" fill-rule="nonzero"></path>
                    </g>
                    <g id="Front-body/-Woman/-Pose5/-Shirt" transform="translate(0.000000, 19.614872)">
                        <path d="M60.5307278,32.1182672 C58.3946233,28.3082945 46.1831542,12.717198 47.3112967,8.69730142 C48.4394389,4.67740484 50.5484358,4.94127956 55.3090156,7.22209865 C57.2960383,8.17409184 64.2750271,18.9845434 65.4116636,25.0927777 C68.7840051,22.5686249 72.522921,24.627077 85.1504642,22.1342557 C86.8222053,20.2345181 87.6261984,19.5415664 88.0363587,19.3893668 C88.4465193,19.2371671 88.3223503,20.0438344 87.6638522,21.8093685 C88.2068208,21.6903869 89.0156112,22.8690752 89.9983034,22.6205055 C91.4273172,22.2590398 93.3167108,20.5582498 93.8586093,21.0509228 C94.2471116,21.4041339 93.1681853,22.4714126 90.6218305,24.252759 C88.1789446,25.1448462 86.5582607,25.4248524 85.7597792,25.0927777 C69.6902385,31.1138343 61.2805546,33.455664 60.5307278,32.1182672 Z M26.9203645,25.2536166 C27.529558,21.4646476 29.2198773,14.66023 32.7522579,7.4431729 C39.7295291,5.34760184 43.4576918,5.67338739 43.9367461,8.42052945 C44.6553274,12.5412426 31.975908,30.870494 28.6637747,31.8936797 C26.4556859,32.5758032 19.0772579,28.0168119 6.52849059,18.2167059 C5.26752612,18.463439 4.11469492,18.4343723 3.06999705,18.1295062 C1.50295023,17.6722069 0.697482064,17.5117242 0.704741823,17.1624886 C0.712001583,16.8132529 3.1164048,17.0855396 2.80723239,16.9593385 C1.96215789,16.6143876 -0.0465593439,16.0465798 0.000823967196,15.57684 C0.0324128164,15.26368 1.07504503,15.3216068 3.12872057,15.7506204 C0.921641477,14.8298229 -0.10606495,14.217461 0.0456012651,13.9135346 C0.273100587,13.457645 3.08192349,14.4480026 3.42886642,14.4268158 C3.19094544,14.0594995 0.94265841,12.9531806 1.37230789,12.4737612 C1.58783283,12.2332702 3.12592628,12.7548325 5.98658825,14.0384482 C5.65652033,12.15832 5.67865302,11.3355296 6.05298636,11.5700768 C6.42731968,11.8046241 6.96023749,13.087061 7.65173978,15.4173873 C18.0954274,19.8681008 24.5183023,23.1468439 26.9203645,25.2536166 Z" id="Shape" fill="#F79474"></path>
                        <path d="M36.5425742,24.4051729 C35.9359826,25.2267509 35.3155056,26.0052579 34.6907749,26.7185451 C32.7522579,28.9318495 26.5054735,21.2057726 26.8855687,19.9263708 C27.8924209,16.5373034 30.111898,12.8133355 32.6401265,7.67173721 C32.9537485,6.93466185 33.5296091,6.26766756 34.5048366,5.63664239 C35.3028886,5.12025945 37.538687,3.95883927 41.212232,2.15238186 C41.4919393,1.97743721 41.763347,1.52283194 42.026455,0.788566103 C46.5776993,3.8453193 49.1437598,5.22587047 49.724636,4.93021962 C50.5959509,4.48674333 50.5959509,2.02732801 50.4650071,0.267717008 C51.1899463,1.66360135 51.6738342,2.3973504 51.9166705,2.46896413 C54.4396879,3.21301493 56.064086,4.04789369 56.789865,4.9736004 C58.1486559,5.66691614 60.7084786,9.0602152 63.4785735,14.7934924 C64.2334196,16.3558007 62.2504173,19.2513171 59.8954355,20.9066469 C59.6375102,23.7519864 59.3007328,26.420496 59.6541318,28.9069325 C60.5981678,35.5489598 64.0752984,40.4289466 62.4910013,44.2543601 C62.0456273,45.3297513 57.0573805,47.5351574 55.3654268,45.6455922 C53.6892961,48.6733662 39.1193296,49.8505326 36.063279,46.1002502 C33.0072284,42.3499676 40.2052731,35.0361372 39.3867778,31.0474458 C39.0123461,29.2227654 37.811402,26.9453705 36.5425742,24.4051729 L36.5425742,24.4051729 Z" id="Shape" fill="#FCBA19"></path>
                        <path d="M56.4957494,9.26839683 C57.6737649,10.9940852 58.8122039,12.9353404 59.9108906,15.0921606 C60.1210377,15.5046983 60.2783664,15.9164796 60.3867668,16.3297009 C60.7922234,17.8752975 60.5738293,19.1025472 59.778218,21.2680969 C59.4438215,22.1782803 59.3640398,22.4086208 59.2633024,22.8010508 C58.2946013,26.5746971 59.3396108,32.1334056 62.3814401,39.493773 C62.4357462,39.6251788 62.5820333,39.6858454 62.7081811,39.6292757 C62.8343291,39.5727062 62.8925683,39.4203218 62.8382619,39.2889163 C59.8367186,32.0260292 58.8108533,26.5691531 59.7437757,22.9348848 C59.838094,22.5674611 59.9158721,22.3429052 60.2427178,21.4532738 C61.0735572,19.1918384 61.3078298,17.8753607 60.8665309,16.1931343 C60.7483928,15.7427929 60.5774567,15.2953967 60.3502244,14.8493191 C59.2417419,12.6732688 58.0920843,10.7128835 56.901076,8.96816155 C56.8214856,8.85156868 56.6662294,8.82426144 56.5543015,8.90716912 C56.4423739,8.99007679 56.416159,9.15180394 56.4957494,9.26839683 Z" id="Shape" fill="#0E143F" fill-rule="nonzero"></path>
                        <path d="M55.6141074,45.0722732 C55.5358849,29.3137174 55.1577985,19.8714745 54.4743113,16.7029821 C53.7924166,13.5418727 52.5312328,9.86472702 50.6911913,5.66988046 C50.6341131,5.53975586 50.4865759,5.48246868 50.3616578,5.54192596 C50.2367398,5.60138327 50.1817448,5.75506974 50.238823,5.88519437 C52.0655488,10.0496847 53.315483,13.6940301 53.9890567,16.8165657 C54.6610378,19.9317184 55.03878,29.3653679 55.1167528,45.0749516 C55.117463,45.2180148 55.2293737,45.3333907 55.3667125,45.332658 C55.5040514,45.3319113 55.6148108,45.2153362 55.6141074,45.0722732 Z" id="Shape" fill="#0E143F" fill-rule="nonzero"></path>
                        <path d="M50.4881197,6.0354582 C50.6248658,6.02216157 50.7253727,5.89590744 50.7126081,5.75346173 C50.6998435,5.61101601 50.5786409,5.50632 50.4418948,5.51961663 L47.8984453,5.76693111 C47.8241987,5.77415055 47.7569808,5.81569615 47.7153169,5.88011811 L45.9556088,8.60102578 L41.774804,1.83923615 L42.1792574,0.894027604 C42.2351717,0.763355768 42.1788072,0.610208597 42.0533638,0.551963819 C41.9279204,0.493719041 41.780901,0.552432771 41.7249867,0.683104605 L41.2657824,1.75626607 C41.2316196,1.83610456 41.2384141,1.92850592 41.2838512,2.0019932 L45.7418739,9.21213878 C45.8385934,9.36856726 46.0573809,9.37092111 46.1571813,9.21660692 L48.0619732,6.2713666 L50.4881197,6.0354582 Z" id="Shape" fill="#0E143F" fill-rule="nonzero"></path>
                        <path d="M51.863463,4.62633315 C51.783702,4.58696759 51.6898865,4.59459087 51.6169505,4.64636425 L50.3249705,5.56347261 C50.2114762,5.64403625 50.1821673,5.80518603 50.2595074,5.92341075 C50.3368476,6.04163547 50.4915494,6.07216583 50.605044,5.99160219 L51.7792766,5.15807636 L54.1770689,6.34149251 C54.4054881,6.45422753 54.6309553,6.18130514 54.4898921,5.96282776 L50.7194156,0.123148168 C50.6427671,0.00443569467 50.4882462,-0.0270741036 50.3742837,0.0527690616 C50.2603211,0.132612227 50.2300723,0.293573376 50.3067206,0.412285849 L53.5720483,5.46959522 L51.863463,4.62633315 Z" id="Shape" fill="#0E143F" fill-rule="nonzero"></path>
                        <path d="M38.260675,20.6492263 C38.4504812,20.3734167 38.8502351,20.6609589 38.6698751,20.9435631 C37.4848648,22.8003432 36.2653215,24.5730411 35.1193845,26.1027309 C34.9195099,26.3695399 34.5319359,26.0675014 34.7212251,25.792443 L38.260675,20.6492263 Z M38.664896,20.9510742 L35.1254461,26.094291 L34.7272866,25.784003 C35.8651638,24.265072 37.0774132,22.5029764 38.255696,20.6567374 L38.664896,20.9510742 Z" id="Shape" fill="#0E143F" fill-rule="nonzero"></path>
                    </g>
                </g>
                <g id="Background" transform="translate(73.000000, 0.000000)" fill-rule="nonzero">
                    <g id="Background-Element-3" transform="translate(197.503275, 58.910553)" fill="#1E98D2">
                        <path d="M12.6244502,6.89402669 L6.97964739,12.6417496 L1.1257778,6.68114807 C-0.375259265,5.15274303 -0.375259265,2.67470884 1.1257778,1.14630378 C2.62681486,-0.382101261 5.06047679,-0.382101261 6.56151386,1.14630378 L6.97964739,1.57206104 L7.18871416,1.35918241 C8.68975123,-0.169222635 11.1234132,-0.169222635 12.6244502,1.35918241 C14.1254873,2.88758746 14.1254873,5.36562165 12.6244502,6.89402669 Z" id="Shape"></path>
                    </g>
                    <g id="Background-Element-2" transform="translate(0.000000, 55.118028)">
                        <ellipse id="Shape" fill="#FCBA19" cx="10.0001658" cy="10.1133997" rx="10.0001658" ry="10.1133997"></ellipse>
                        <path d="M9.7825346,13.1394146 L7.54023179,14.3347215 C7.31161305,14.4565915 7.02884611,14.3674671 6.90865412,14.1356565 C6.86079305,14.0433483 6.84427737,13.9376166 6.86166394,13.8348299 L7.28990566,11.3031293 C7.31592595,11.1493013 7.26562859,10.9923407 7.15540488,10.8833991 L5.3413438,9.09043875 C5.15638736,8.9076337 5.15260282,8.60741075 5.33289079,8.41987204 C5.4046824,8.34519313 5.49875101,8.29659362 5.60053365,8.28159724 L8.10750442,7.91222709 C8.25982982,7.88978388 8.39151006,7.79277689 8.45963204,7.65281955 L9.58078345,5.34940226 C9.6950928,5.11455245 9.97552078,5.0181289 10.2071369,5.1340342 C10.2993676,5.18018829 10.3740209,5.25588383 10.4195394,5.34940226 L11.5406909,7.65281955 C11.6088128,7.79277689 11.7404931,7.88978388 11.8928184,7.91222709 L14.3997892,8.28159724 C14.6553927,8.31925714 14.8324913,8.55988708 14.7953499,8.8190592 C14.7805601,8.92226291 14.7326297,9.01764483 14.6589791,9.09043875 L12.844918,10.8833991 C12.7346943,10.9923407 12.6843969,11.1493013 12.7104172,11.3031293 L13.138659,13.8348299 C13.1823212,14.0929548 13.0113462,14.3380958 12.7567755,14.3823677 C12.6554041,14.399997 12.5511283,14.3832508 12.4600911,14.3347215 L10.2177883,13.1394146 C10.0815443,13.0667869 9.91877858,13.0667869 9.7825346,13.1394146 Z" id="Shape" fill="#FFFFFF"></path>
                    </g>
                    <g id="Background-Element-1" transform="translate(2.000033, 0.000000)">
                        <polygon id="Shape" fill="#0F4C8B" points="6.11788193 2.6818647 12.6641663 29.3027101 32.4521802 8.00139036"></polygon>
                        <polygon id="Shape" fill="#0F4C8B" transform="translate(180.409732, 15.992287) scale(-1, 1) translate(-180.409732, -15.992287) " points="167.242582 2.6818647 173.788867 29.3027101 193.576881 8.00139036"></polygon>
                        <polygon id="Shape" fill="#FCBA19" points="32.560349 8.08249044 39.1066333 34.7033358 58.8946472 13.4020161"></polygon>
                        <polygon id="Shape" fill="#FCBA19" transform="translate(154.369300, 21.392913) scale(-1, 1) translate(-154.369300, -21.392913) " points="141.202151 8.08249044 147.748435 34.7033358 167.536449 13.4020161"></polygon>
                        <polygon id="Shape" fill="#0F4C8B" points="58.8807854 12.8964687 70.2230283 36.6678106 85.4210855 14.7281724"></polygon>
                        <polygon id="Shape" fill="#0F4C8B" transform="translate(127.591855, 25.348490) scale(-1, 1) translate(-127.591855, -25.348490) " points="114.321705 13.4628191 125.663948 37.234161 140.862005 15.2945228"></polygon>
                        <polygon id="Shape" fill="#FCBA19" points="85.4812265 14.5955198 99.7902356 38.4418253 114.099245 14.5955198"></polygon>
                        <path d="M0.928445324,2.50389668 C66.1068068,20.5019822 131.297099,20.5019822 196.475461,2.50389668 C197.146777,2.31852229 197.542393,1.61787551 197.359094,0.938958293 C197.175795,0.260041075 196.482993,-0.140054441 195.811677,0.0453199449 C131.067884,17.9234054 66.3360221,17.9234054 1.5922292,0.0453199449 C0.920913427,-0.140054441 0.228111381,0.260041075 0.0448125239,0.938958293 C-0.138486333,1.61787551 0.257129547,2.31852229 0.928445324,2.50389668 Z" id="Shape" fill="#1E98D2"></path>
                    </g>
                </g>
                <g id="Man-Standing-1" transform="translate(70.000000, 62.000000)">
                    <g id="Head-Front/-Man/3" transform="translate(41.042714, 0.184039)">
                        <path d="M2.5020224,14.4282321 C1.56545826,14.4296827 0.689706384,13.8387112 0.367746373,12.8973781 C0.073414445,12.0368228 0.32286137,11.1201439 0.932383808,10.5265242 C0.772570576,9.46661437 0.627605117,8.49676954 0.497487437,7.61698977 C0.497487437,3.96380511 3.50437907,1.00231378 7.21356784,1.00231378 C10.9227566,1.00231378 13.9296482,3.96380511 13.9296482,7.61698977 L13.9296482,11.8467826 C13.9296482,14.7960283 12.6674334,17.2390584 11.2297881,18.1559008 C11.5326132,19.344829 11.9519653,20.3313768 12.4878447,21.1155443 C13.4745359,22.5593977 13.4576496,24.1240763 12.4371859,25.8095799 L2.7361809,25.8095799 L3.48241206,14.9069961 C3.40200717,14.8311269 2.57765335,14.5044566 2.5020224,14.4282321 Z" id="Shape" fill="#FFB5B9"></path>
                        <path d="M11.9396985,9.52198093 C11.9396985,9.38359029 11.8283321,9.27140249 11.6909548,9.27140249 C11.5535774,9.27140249 11.4422111,9.38359029 11.4422111,9.52198093 L11.4422111,11.4768788 C11.4422111,11.6025843 11.5346669,11.7088354 11.6583772,11.7252989 C12.1203481,11.7867783 12.3085437,11.8851888 12.3085437,11.9298978 C12.3085437,12.0299603 12.0670679,12.2667729 11.565109,12.5633575 C11.4466104,12.6333728 11.4068914,12.7869022 11.4763941,12.9062748 C11.5458968,13.0256474 11.698302,13.0656593 11.8168006,12.995644 C12.4699518,12.6097269 12.8060311,12.2801375 12.8060311,11.9298978 C12.8060311,11.5686109 12.4970916,11.367595 11.9396985,11.2627931 L11.9396985,9.52198093 Z" id="Shape" fill="#F97A80" fill-rule="nonzero"></path>
                        <path d="M7.94355367,8.51401079 C7.32829083,8.7930787 6.78111186,8.85355869 6.72139523,8.64909661 C6.66167861,8.44463454 7.11203779,8.05265606 7.7273006,7.77358817 C8.34256344,7.49452026 8.88974241,7.43404027 8.94945904,7.63850236 C9.00917566,7.84296442 8.55881648,8.23494291 7.94355367,8.51401079 Z M12.8582512,8.64797223 C12.1726851,8.46681146 11.6511393,8.15031971 11.6933461,7.94106811 C11.7355529,7.73181652 12.3255294,7.7090444 13.0110955,7.89020517 C13.6966616,8.07136595 14.2182074,8.3878577 14.1760006,8.5971093 C14.1337939,8.80636089 13.5438174,8.82913301 12.8582512,8.64797223 Z M9.07914573,10.5242947 C8.87307969,10.5242947 8.70603015,10.356013 8.70603015,10.148427 C8.70603015,9.94084107 8.87307969,9.77255938 9.07914573,9.77255938 C9.28521177,9.77255938 9.45226131,9.94084107 9.45226131,10.148427 C9.45226131,10.356013 9.28521177,10.5242947 9.07914573,10.5242947 Z M13.0590452,10.5242947 C12.8529792,10.5242947 12.6859296,10.356013 12.6859296,10.148427 C12.6859296,9.94084107 12.8529792,9.77255938 13.0590452,9.77255938 C13.2651113,9.77255938 13.4321608,9.94084107 13.4321608,10.148427 C13.4321608,10.356013 13.2651113,10.5242947 13.0590452,10.5242947 Z M1.86261503,10.3610813 C1.74347357,10.2857719 1.29447016,10.2031859 0.831765773,10.6446624 C0.190352902,8.6862083 -0.0471461546,7.14132768 0.00612829899,6.03424933 C0.0871005756,4.35159189 0.638263121,3.293251 1.65961594,2.85922663 C1.8770502,1.23875592 2.81757343,0.361822947 4.48118567,0.228427699 C6.976604,0.0283348243 9.51920155,1.72293532 12.6859296,1.61858245 C15.8526577,1.51422958 17.436694,4.80570396 13.9296482,6.03424933 C12.0893795,6.67890979 9.53564806,6.48520551 6.26845407,5.45313649 C6.01861677,6.4183558 5.73625917,7.06129383 5.42138129,7.3819506 C5.10650338,7.70260737 4.83677482,7.85357246 4.61219556,7.83484586 C4.95302368,11.0383441 5.59198674,12.8607996 6.52908472,13.3022123 C7.60937228,13.8110732 9.27339661,13.0959641 10.4867191,13.3022123 C11.6984857,13.508196 12.3240439,13.5783229 13.0590452,13.869074 C13.7932483,14.1595094 13.9296482,13.1424512 13.9296482,11.8467826 C14.9520235,12.9409797 13.5544738,18.6668651 11.5033676,20.1926966 C9.45226131,21.7185281 5.01052701,18.9473475 4.35345162,17.9767377 C3.03305887,16.0262976 3.77751581,13.202732 3.62296661,12.0499067 C3.46841742,10.8970814 2.76121858,10.5702098 1.86261503,10.3610813 Z M10.7800473,16.9591338 C11.4541341,16.5099551 12.3117065,14.297094 9.94919499,14.1722512 C7.58668342,14.0474083 7.27713569,14.4789188 7.49143815,15.1977419 C7.70574064,15.9165651 10.1059605,17.4083126 10.7800473,16.9591338 Z" id="Shape" fill="#732213"></path>
                        <path d="M8.45985824,14.8200682 C8.62114168,15.9411442 9.41693186,16.4285838 10.729033,16.2513743 C10.8651921,16.2329849 10.9607725,16.1068845 10.9425178,15.9697211 C10.9242631,15.8325576 10.7990859,15.7362722 10.6629268,15.7546616 C9.60168305,15.8979909 9.07084008,15.5728374 8.95220206,14.7481884 C8.93249835,14.6112286 8.80631043,14.5162916 8.67035344,14.5361406 C8.53439644,14.5559897 8.44015453,14.6831083 8.45985824,14.8200682 Z" id="Shape" fill="#F97A80" fill-rule="nonzero"></path>
                        <path d="M3.23742256,11.9807772 C2.41890886,11.1847765 1.68967653,11.2853894 1.28282608,12.2796729 C1.23047156,12.4076197 1.2909918,12.5540959 1.41800182,12.6068366 C1.54501184,12.6595773 1.69041552,12.5986106 1.74277004,12.4706638 C2.00848525,11.8212943 2.31382738,11.779166 2.89189693,12.3413359 C2.99073346,12.4374539 3.14820483,12.4346592 3.24361909,12.3350936 C3.33903337,12.2355281 3.33625908,12.0768952 3.23742256,11.9807772 Z" id="Shape" fill="#F97A80" fill-rule="nonzero"></path>
                    </g>
                    <g id="Front-Bottom/-Standing/-Long-Pants" transform="translate(32.087940, 61.768611)">
                        <path d="M2.33588074,76.0256778 L7.46352625,77.0297426 L4.34751453,87.6383121 L0.247529022,86.8485608 L2.33588074,76.0256778 Z M33.9279318,77.2893211 L39.1126138,76.6480267 L39.4033358,87.7073786 L35.2617581,88.2325905 L33.9279318,77.2893211 Z" id="Shape" fill="#FFB5B9"></path>
                        <path d="M20.4898142,25.4403987 L6.04036657,85.0373129 L0.496893987,83.8068427 C1.70078224,60.6983769 3.96317929,45.5534825 7.28408517,43.5661684 C5.48058182,30.5676348 5.69348888,16.4824515 7.92280638,1.31061828 L12.5081232,1.54314632 L31.4915276,-7.12186776e-15 L39.798995,42.985197 L39.6257534,83.8218298 L34.5572544,85.0373129 C30.9902844,62.8013349 29.370438,49.3392114 32.185152,46.6555696 C28.625605,40.8881592 24.7271589,33.8164355 20.4898142,25.4403987 Z" id="Shape" fill="#021768"></path>
                        <path d="M0.219771832,86.0394731 C0.659315496,85.603242 2.71772375,86.8758067 3.5750295,86.8782701 C4.14656667,86.8799127 4.51883274,86.6045971 4.69182773,86.052324 C8.24929935,87.5181843 10.3522916,88.4468877 11.0008045,88.8384335 C11.6493173,89.2299797 11.8407896,89.6865819 11.5752213,90.2082404 L0.219771832,90.2082404 C-0.0732572773,87.7198827 -0.0732572773,86.3302936 0.219771832,86.0394731 Z M34.7951487,86.0971991 C35.2346923,85.660968 37.2931005,86.9335327 38.1504064,86.9359964 C38.7219436,86.9376387 39.0942097,86.6623231 39.2672045,86.11005 C42.8246763,87.5759103 44.9276686,88.5046137 45.5761813,88.8961598 C46.2246942,89.2877057 46.4161664,89.7443079 46.1505982,90.2659664 L34.7951487,90.2659664 C34.5021196,87.7776089 34.5021196,86.3880197 34.7951487,86.0971991 Z" id="Shape" fill="#021768"></path>
                        <path d="M30.4364869,6.15240629 C30.5174243,6.04058471 30.4930519,5.88383849 30.3820491,5.8023038 C30.2710462,5.72076908 30.1154475,5.74532146 30.0345101,5.85714304 L21.9167307,17.0724717 C21.9013556,17.0937134 21.8893946,17.1172602 21.8812864,17.1422479 L19.0074569,25.9987614 C18.9647733,26.1303025 19.036026,26.2717949 19.1666042,26.3147934 C19.2971823,26.3577917 19.4376387,26.2860135 19.4803222,26.1544721 L22.3419137,17.3356738 L30.4364869,6.15240629 Z" id="Shape" fill="#0E143F" fill-rule="nonzero"></path>
                    </g>
                    <g id="Front-body/-Man/-Pose5/-Long-sleeve-shirt" transform="translate(0.000000, 19.878858)">
                        <path d="M86.3844919,25.9161269 C87.9915157,25.6568666 89.2460511,25.4381622 90.1480988,25.2600138 C91.8202867,23.3589777 92.6244948,22.6655523 93.0347647,22.5132487 C93.4450349,22.360945 93.3208327,23.1681636 92.6621586,24.9349045 C93.2052723,24.8158417 94.0142789,25.9953355 94.9972337,25.746596 C96.4266296,25.3848833 98.3165281,23.6829307 98.8585715,24.1759402 C99.2471776,24.5293929 98.167963,25.5974011 95.6209275,27.379965 C93.1773886,28.272662 91.5562716,28.5528596 90.7575767,28.220558 L87.6529048,29.3735844 L86.3844919,25.9161269 Z M7.65378504,15.4279254 L11.6124434,18.3104042 L9.99253137,20.9967781 L6.53023561,18.2291573 C5.2689341,18.476059 4.11579476,18.4469725 3.07081764,18.141898 C1.50335196,17.6842861 0.697668497,17.5236937 0.704930196,17.1742194 C0.712191896,16.824745 3.1172378,17.0972178 2.80798274,16.9709305 C1.96268236,16.6257438 -0.0465717889,16.0575479 0.000824187437,15.587487 C0.0324214802,15.274113 1.07533238,15.3320794 3.12955686,15.7613862 C0.921887826,14.8399593 -0.1060933,14.2271788 0.045613454,13.9230447 C0.273173585,13.4668435 3.08274727,14.457878 3.42978294,14.4366767 C3.19179836,14.0691094 0.942910376,12.9620343 1.3726747,12.4822872 C1.58825725,12.2416318 3.12676182,12.7635506 5.98818842,14.0480437 C5.65803228,12.1666304 5.68017089,11.3432776 6.05460429,11.5779852 C6.42903766,11.8126928 6.96209791,13.0960062 7.65378504,15.4279254 Z" id="Shape" fill="#FFB5B9"></path>
                        <path d="M36.4470882,24.21073 C33.4904497,28.6499898 30.4713909,32.3560505 29.0664037,32.7902604 C25.7533851,33.8141452 9.23549009,20.8062646 8.06999828,19.9477914 C6.90450646,19.0893181 8.88267344,16.0791635 9.16560206,16.0791635 C17.8800907,20.8062646 22.9429344,20.8062646 26.5469907,23.9685838 C27.1496883,20.2184567 29.1825935,14.7903949 32.6457061,7.68439841 C32.9587008,6.94387558 33.5353024,6.27406767 34.5140595,5.64049513 C35.3123248,5.12375922 38.3739186,3.85008918 43.6988409,1.81948497 C44.0277666,1.64117019 44.2241868,1.27238984 44.2881015,0.713143938 C48.5859947,3.6083745 50.9409443,4.94361414 51.3529499,4.71886289 C51.9709584,4.381736 52.2988171,2.12656788 52.6390709,0.311062898 C53.37307,1.62227563 53.8153137,2.29888857 53.9658019,2.34090168 C54.8207702,2.57959058 55.5806661,2.82789287 56.2454896,3.08580863 C57.3261373,3.29918405 58.6542579,3.84666801 60.2986737,4.63484427 C62.2862276,5.58748814 70.2067435,20.8432246 71.3436839,26.955634 C74.7169268,24.4297559 78.2105129,27.2849249 88.099794,25.2758889 C89.2875095,25.0346012 89.8015337,26.212806 89.6418666,28.8105036 C75.6557229,34.3383438 67.6156946,36.3123131 65.5217817,34.7324115 C65.0515558,34.377616 64.4004587,33.5777067 63.6369736,32.4604152 C64.6681492,38.0397575 66.451769,40.7660012 64.995142,44.2846087 C64.4990826,45.4828821 57.7453289,48.3992446 56.4188123,45.7875842 C54.4776421,49.4349111 40.8994695,47.8416852 38.5603557,46.1317605 C37.0839728,45.0525038 40.2160197,35.0600849 39.3973056,31.0686672 C39.0124341,29.192331 37.7545515,26.8376118 36.4470882,24.21073 L36.4470882,24.21073 Z" id="Shape" fill="#1E98D2"></path>
                        <path d="M56.6022386,44.8668896 C57.2999817,39.7597007 57.3902159,33.6012097 57.0226337,27.0719808 C56.7696031,22.5774918 56.2684091,17.933408 55.9817014,16.559916 C55.2998588,13.2935059 54.0386344,9.49345771 52.1984403,5.15818502 C52.1428662,5.02725948 51.9959676,4.96807225 51.8703329,5.02598662 C51.7446981,5.08390101 51.6879027,5.236986 51.7434768,5.36791153 C53.5710302,9.67340403 54.8215948,13.4413347 55.4955828,16.6701169 C55.7757346,18.0122014 56.2743521,22.6324132 56.5260002,27.1023449 C56.8918034,33.5999738 56.8020405,39.7263013 56.1097178,44.7938149 C56.0903544,44.9355483 56.1849116,45.0668043 56.3209174,45.0869834 C56.4569233,45.1071625 56.5828752,45.0086233 56.6022386,44.8668896 Z" id="Shape" fill="#0E143F" fill-rule="nonzero"></path>
                        <path d="M51.9940772,5.52114536 C52.1308598,5.50783962 52.2313936,5.38149922 52.2186256,5.23895615 C52.2058576,5.09641307 52.0846226,4.99164547 51.9478399,5.00495121 L49.4037106,5.25243471 C49.3294441,5.25965909 49.2622082,5.30123311 49.2205332,5.3656991 L47.4790319,8.05957553 L44.2206738,1.77876395 L44.504822,0.966913748 C44.5518956,0.832418091 44.485432,0.683620082 44.3563715,0.634564094 C44.2273109,0.585508108 44.0845261,0.654770644 44.0374525,0.789266302 L43.7149665,1.71065289 C43.6905844,1.78031588 43.6959978,1.85752521 43.7298377,1.92275499 L47.2368717,8.68291412 C47.3257792,8.85429244 47.5575287,8.86604284 47.6619812,8.70446845 L49.5672822,5.75721502 L51.9940772,5.52114536 Z" id="Shape" fill="#0E143F" fill-rule="nonzero"></path>
                        <path d="M53.3697881,4.11105713 C53.2900058,4.07166467 53.1961652,4.07929316 53.1232097,4.13110196 L51.8308844,5.04883717 C51.7173597,5.12945587 51.688043,5.29071581 51.7654038,5.40902133 C51.8427646,5.52732686 51.9975078,5.55787808 52.1110327,5.47725938 L53.2855792,4.64316382 L55.6840124,5.82738886 C55.9076541,5.93781186 56.1320028,5.67717663 56.0024568,5.4574386 L53.0023128,0.368547127 C52.9303995,0.246566464 52.7772132,0.208434015 52.6601621,0.283375922 C52.5431108,0.358317828 52.5065193,0.517955114 52.5784326,0.639935777 L55.1401593,4.98517694 L53.3697881,4.11105713 Z" id="Shape" fill="#0E143F" fill-rule="nonzero"></path>
                        <path d="M51.7534193,17.4960056 L52.4831006,21.6560026 L50.8283099,24.8054191 L47.9778651,23.6242542 L47.4759647,21.6801425 C47.4402742,21.5418955 47.3037989,21.4599755 47.1711387,21.497169 C47.0384784,21.5343625 46.9598689,21.676585 46.9955594,21.814832 L47.5298612,23.8844508 C47.5502525,23.9634362 47.6052203,24.0277587 47.6781545,24.0579812 L50.84892,25.37188 C50.9656532,25.4202519 51.0986741,25.3703274 51.1590074,25.2555006 L52.961834,21.8243407 C52.9892485,21.7721648 52.9986093,21.7117505 52.9883453,21.6532345 L52.1920903,17.1136926 C52.1651723,16.9602302 52.0152224,16.8661318 51.8724746,16.9131236 L46.440149,18.7014116 C46.315646,18.7423972 46.242742,18.8767246 46.2731894,19.0090392 L46.5924038,20.3962451 C46.6244393,20.5354609 46.7587052,20.6212542 46.892295,20.5878696 C47.025885,20.5544851 47.1082112,20.4145649 47.0761758,20.2753491 L46.8110088,19.1230167 L51.7534193,17.4960056 Z" id="Shape" fill="#0E143F" fill-rule="nonzero"></path>
                        <path d="M37.275927,22.4778739 C37.4657839,22.2018758 37.8656446,22.4896145 37.6852364,22.7724119 C36.4999094,24.6304612 35.2800402,26.4043707 34.1337968,27.9351063 C33.9338688,28.2020976 33.5461912,27.8998524 33.735531,27.6246063 L37.275927,22.4778739 Z M37.6802561,22.7799281 L34.13986,27.9266603 L33.7415941,27.6161603 C34.8797755,26.096191 36.0923489,24.332891 37.2709466,22.4853902 L37.6802561,22.7799281 Z" id="Shape" fill="#0E143F" fill-rule="nonzero"></path>
                        <path d="M61.6103526,10.4263919 C61.6346633,10.5014307 61.6586171,10.5766387 61.6822169,10.6520181 C62.8840617,14.4907943 63.0938014,17.6744119 62.9571789,24.0795612 C62.8774894,27.8155661 62.8972984,29.256218 63.1390447,30.9577993 C63.3529566,32.463463 63.638001,33.8414194 64.0328983,35.4013264 C64.1222552,35.7543007 64.2137899,36.1040904 64.3330852,36.5514649 C64.3199097,36.5020546 64.5557518,37.3833951 64.6171301,37.615862 C64.8331364,38.4339766 64.9700216,39.0004648 65.0758576,39.5389223 C65.1034243,39.679173 65.2348729,39.7695805 65.369456,39.7408527 C65.504039,39.7121249 65.5907929,39.5751406 65.5632261,39.4348899 C65.454701,38.8827505 65.3154828,38.306608 65.0967918,37.478326 C65.0351454,37.2448425 64.799018,36.3624368 64.8124098,36.4126577 C64.6936472,35.9672811 64.6026413,35.6195115 64.5139278,35.2690791 C64.1233975,33.7264225 63.8421081,32.3666187 63.6311675,30.8818697 C63.3951291,29.220465 63.3755328,27.7952652 63.4545435,24.0910823 C63.5923679,17.629587 63.3797774,14.4026998 62.1551683,10.4912123 C62.1310434,10.4141553 62.1065553,10.3372703 62.0817016,10.2605549 C62.0377575,10.1249141 61.8966188,10.0520794 61.7664594,10.0978741 C61.6363001,10.1436687 61.5664085,10.2907511 61.6103526,10.4263919 Z" id="Shape" fill="#0E143F" fill-rule="nonzero"></path>
                        <path d="M9.80685262,20.5830285 L11.1616934,18.0647285 C11.2288762,17.939853 11.1861979,17.7818654 11.0663688,17.7118534 C10.9465397,17.6418414 10.7949366,17.6863169 10.7277538,17.8111924 L9.37291303,20.3294925 C9.30573026,20.4543679 9.34840854,20.6123555 9.46823764,20.6823676 C9.58806675,20.7523796 9.73966982,20.707904 9.80685262,20.5830285 Z" id="Shape" fill="#0E143F" fill-rule="nonzero"></path>
                        <path d="M86.7493676,26.9304819 L87.4130865,29.4424005 C87.4495568,29.5804264 87.586492,29.6615083 87.7189401,29.6235021 C87.8513879,29.5854959 87.9291932,29.442794 87.8927231,29.3047683 L87.2290042,26.7928495 C87.1925339,26.6548238 87.0555985,26.5737419 86.9231507,26.6117479 C86.7907026,26.6497541 86.7128973,26.7924561 86.7493676,26.9304819 Z" id="Shape" fill="#0E143F" fill-rule="nonzero"></path>
                    </g>
                </g>
                <g id="Plant-10" transform="translate(46.000000, 133.000000)" fill-rule="nonzero">
                    <path d="M13.3478536,48.6795154 C11.7682418,53.6471433 13.6902376,54.9402179 15.9608035,57.2215965 C17.4745141,58.7425156 17.7826849,61.0437189 16.885316,64.1252064 L10.9375319,66.1540288 C10.0050659,66.029217 8.26221561,61.087696 9.37294327,58.3172612 C10.4836709,55.5468264 10.0183217,54.7312205 7.39918575,51.4615377 C4.78004978,48.1918547 2.91688539,46.4358313 4.73005551,41.1228063 C6.54322561,35.8097812 4.21294457,34.7445515 1.1872908,30.1963138 C-1.83836297,25.648076 1.78355867,18.788025 2.54129768,18.7952733 C3.29903671,18.8025446 7.6654416,23.2477496 6.08582982,28.2153778 C4.50621804,33.1830059 7.30096464,35.8170412 10.9693457,39.0388375 C14.6377267,42.2606339 14.9274654,43.7118873 13.3478536,48.6795154 Z" id="Shape" fill="#60C9FF"></path>
                    <path d="M14.8285922,64.8267663 L13.8735013,65.1525532 C13.6817032,64.7706107 13.2899604,63.9939625 13.0715676,63.5327177 C11.7819473,60.8090445 10.8656345,58.0773672 10.5407766,55.2885002 C10.4840333,54.801366 10.4472574,54.3196992 10.4313755,53.8439847 C10.155153,45.570192 9.20174171,40.969403 5.56521075,34.7804613 C2.84222767,30.1462694 1.59224629,25.0647081 1.81573858,19.546729 C2.12170747,19.0690506 2.38920153,18.793823 2.54129768,18.7952676 C2.6149936,18.7959857 2.72282409,18.838671 2.85599914,18.9197329 C2.5080915,24.5108804 3.70128531,29.6274483 6.4361134,34.281799 C10.1726729,40.6409773 11.156426,45.3881835 11.4376319,53.8112485 C11.4525949,54.2594412 11.4873159,54.7141931 11.5409886,55.1749668 C11.8513777,57.8396201 12.7360126,60.4768603 13.9836583,63.1118835 C14.1765428,63.5192548 14.6151506,64.3861203 14.8285922,64.8267663 L14.8285922,64.8267663 Z" id="Shape" fill="#A1E0FF"></path>
                    <path d="M14.0605188,43.5177489 C9.93236019,37.6257483 11.1168361,30.1487422 14.659811,24.4642122 C18.2027859,18.7796823 19.7947724,12.9635748 15.6666137,7.07157413 C11.5384551,1.1795735 15.1445667,0.319614658 16.1459689,0.00923888318 C17.1473711,-0.30113689 24.7575972,7.26347735 22.60977,14.4335494 C20.4619428,21.6036214 16.1700151,32.4151323 19.1904233,35.3967274 C22.2108314,38.3783225 25.3502344,42.9861867 23.2176342,48.3169728 C21.0850338,53.647759 20.6107961,55.5578317 23.2176342,58.7525557 C25.8244722,61.9472796 25.5965962,64.9590587 24.4117366,65.493074 L15.6971432,65.1920676 C13.2457242,61.5044295 12.7117865,58.3621399 14.0953304,55.7651986 C16.1706462,51.8697869 18.1886775,49.4097495 14.0605188,43.5177489 Z" id="Shape" fill="#86D7FF"></path>
                    <path d="M14.3790221,0.908813821 C14.6348383,0.653895212 14.9367481,0.471421575 15.2276411,0.336632738 C20.3809809,5.31120111 21.8225715,11.5386599 19.5405345,18.9404287 C16.0458055,30.2755539 16.0458055,33.1564187 19.5405345,44.4915441 C21.0495145,49.3859087 20.8749782,51.6380305 19.5058404,54.2445797 C19.4893176,54.2760355 19.3172304,54.6015342 19.2683317,54.6953867 C18.2713749,56.6088708 18.2147379,58.0179669 19.528116,61.351826 C20.1475898,62.9242892 20.6738053,64.2666056 21.1068169,65.3789204 L20.0133835,65.3411528 C19.6118631,64.311656 19.1373131,63.101921 18.5897711,61.7120487 C17.173537,58.1171012 17.2420954,56.4114069 18.3730072,54.2408196 C18.423555,54.143802 18.5967603,53.8161886 18.6120467,53.7870864 C19.8575304,51.4159486 20.0112921,49.4318909 18.5773526,44.7809196 C15.0244625,33.257149 15.0244625,30.1748237 18.5773526,18.6510533 C20.7726949,11.5304783 19.3773226,5.6433314 14.3790221,0.908813821 Z" id="Shape" fill="#D8F4FF"></path>
                    <path d="M24.1814485,48.770997 C22.3986568,43.8532713 22.6354507,42.3925339 26.2121184,39.052781 C29.7887863,35.713028 32.5068063,32.9891026 30.7240144,28.0713769 C28.9412228,23.1536511 33.1751557,18.5679591 33.9390859,18.536207 C34.7030163,18.5048939 38.6178169,25.2498885 35.7400151,29.8956808 C32.862213,34.541473 30.5527165,35.6814954 32.5842499,40.9371851 C34.6157832,46.1928748 32.8037698,48.008825 30.2871328,51.3628618 C27.7704955,54.7168984 27.3323188,55.5475245 28.5583211,58.2827686 C29.7843232,61.0180126 28.2152936,66.0160525 27.2796336,66.1707506 L21.2036026,64.3321629 C20.1809025,61.2789884 20.4038295,58.9675915 21.8723837,57.3979723 C24.0752149,55.0435435 25.9642403,53.6887229 24.1814485,48.770997 Z" id="Shape" fill="#A1E0FF"></path>
                    <path d="M33.4516197,18.7968441 C33.663297,18.631173 33.8340137,18.5406686 33.9390859,18.5361024 C34.0567504,18.5314765 34.249165,18.6873983 34.4799959,18.9716498 C34.8803906,23.1841267 34.7914378,26.3654771 34.2035981,28.5311331 C33.8840458,29.7083936 33.8544052,29.7897248 31.7836663,35.3223292 C31.3876409,36.3804307 31.0749277,37.2272474 30.7794085,38.0463878 C29.5118406,41.559918 28.7293122,44.1243505 28.4209278,45.9855001 L25.1815164,65.5358671 L24.2100433,65.2419025 L27.4273285,45.8250692 C27.7483534,43.8876339 28.5439666,41.2803207 29.8309568,37.7129547 C30.1280132,36.8895537 30.4419811,36.0393387 30.8392614,34.9778841 C32.8845864,29.5131809 32.9242748,29.4042798 33.2311012,28.273902 C33.7941257,26.1996684 33.8710147,23.0351764 33.4516197,18.7968441 Z" id="Shape" fill="#CCEEFF"></path>
                    <path d="M10.2527124,64.0165998 L27.8834678,64.0165998 C29.2735722,64.0165998 30.4004746,65.1290213 30.4004746,66.5012624 C30.4004746,66.7127131 30.3731311,66.923299 30.3191073,67.1279142 L27.1827213,79.0069816 C26.8880097,80.1232021 25.8538316,80.8924039 24.6856539,80.8642524 L13.3234679,80.5904394 C12.2060544,80.5635111 11.2404878,79.812372 10.9527297,78.7461807 L7.82054643,67.1409263 C7.46267108,65.8149392 8.26147357,64.4536271 9.60472177,64.1003506 C9.81611384,64.044754 10.0339464,64.0165998 10.2527124,64.0165998 Z" id="Shape" fill="#60C9FF"></path>
                    <path d="M8.99091633,64.0165998 L29.1269709,64.0165998 C30.5170752,64.0165998 31.6439777,65.1290213 31.6439777,66.5012624 L6.47390953,66.5012624 C6.47390953,65.1290213 7.60081186,64.0165998 8.99091633,64.0165998 Z" id="Shape" fill="#00A7FF"></path>
                    <path d="M11.7596238,78.4276427 L26.3582634,78.4276427 C27.0533154,78.4276427 27.6167668,78.9838536 27.6167668,79.669974 C27.6167668,80.3560947 27.0533154,80.9123053 26.3582634,80.9123053 L11.7596238,80.9123053 C11.0645716,80.9123053 10.5011204,80.3560947 10.5011204,79.669974 C10.5011204,78.9838536 11.0645716,78.4276427 11.7596238,78.4276427 Z" id="Shape" fill="#00A7FF"></path>
                </g>
            </g>
        </g>
    </g>
</svg>
