<?xml version="1.0" encoding="UTF-8"?>
<svg width="312px" height="217px" viewBox="0 0 312 217" version="1.1" xmlns="http://www.w3.org/2000/svg" xmlns:xlink="http://www.w3.org/1999/xlink">
    <!-- Generator: sketchtool 64 (101010) - https://sketch.com -->
    <title>38EC50F2-BD0F-471A-A36A-769263AD536E</title>
    <desc>Created with sketchtool.</desc>
    <g id="Designs:-Opportunity-Listing" stroke="none" stroke-width="1" fill="none" fill-rule="evenodd">
        <g id="D:-Create-Opportunity---Select-Program" transform="translate(-729.000000, -239.000000)">
            <g id="Sprint-With-Us" transform="translate(615.000000, 191.000000)">
                <g id="Website-Launch" transform="translate(114.000000, 48.000000)">
                    <g id="bg" opacity="0.5" transform="translate(0.000000, 155.253838)" fill-rule="nonzero">
                        <path d="M280.044157,19.2877215 C260.352531,14.1993856 250.565267,21.2612466 228.269527,30.9618063 C205.973791,40.662366 178.441591,43.7729992 147.011349,25.6690544 C115.581107,7.56510944 80.3644823,14.1993856 66.0441643,34.401354 C56.4972858,47.8693331 34.4825642,55.7256542 0,57.9703173 L311.396111,57.9703173 C303.62256,35.574144 293.171906,22.6799453 280.044157,19.2877215 Z" id="Shape" fill="#CCEEFF"></path>
                        <path d="M0.444216991,57.9703173 C11.1010072,31.4618005 31.9515111,22.6256285 62.9957283,31.4618005 C109.562055,44.716059 136.78431,34.7753652 161.082425,14.8939777 C185.38054,-4.98740979 213.933675,-7.63826145 247.544167,23.5092456 C269.951163,44.2742504 291.235145,55.7612742 311.396111,57.9703173 L0.444216991,57.9703173 Z" id="Shape" fill="#E5F6FF"></path>
                    </g>
                    <g id="Background" transform="translate(63.523030, 0.000000)" fill-rule="nonzero">
                        <g id="Background-Element-2" transform="translate(8.218014, 63.967247)">
                            <polygon id="Shape" fill="#A1E0FF" points="68.4094166 119.716479 99.5046059 119.716479 101.725691 144.814739 66.1883316 144.814739"></polygon>
                            <path d="M63.7451382,142.593654 L104.168884,142.593654 C107.848898,142.593654 110.832139,145.576895 110.832139,149.256909 L57.0818833,149.256909 C57.0818833,145.576895 60.0651242,142.593654 63.7451382,142.593654 Z" id="Shape" fill="#60C9FF"></path>
                            <path d="M6.66325486,0 L161.472876,0 C165.15289,0 168.136131,2.98324082 168.136131,6.66325486 L168.136131,118.605937 C168.136131,122.28595 165.15289,125.269191 161.472876,125.269191 L6.66325486,125.269191 C2.98324082,125.269191 0,122.28595 0,118.605937 L0,6.66325486 C0,2.98324082 2.98324082,0 6.66325486,0 Z" id="Shape" fill="#A1E0FF"></path>
                            <polygon id="Shape" fill="#FFFFFF" points="6.66325486 6.66325486 161.467308 6.66325486 161.467308 103.058342 6.66325486 103.058342"></polygon>
                            <path d="M17.3244626,15.5475947 L150.806101,15.5475947 C151.787438,15.5475947 152.582969,16.3431256 152.582969,17.3244626 L152.582969,92.3971341 C152.582969,93.3784712 151.787438,94.174002 150.806101,94.174002 L17.3244626,94.174002 C16.3431256,94.174002 15.5475947,93.3784712 15.5475947,92.3971341 L15.5475947,17.3244626 C15.5475947,16.3431256 16.3431256,15.5475947 17.3244626,15.5475947 Z" id="Shape" fill="#F2FBFF"></path>
                            <path d="M1.0100325e-13,109.721597 L168.136131,109.721597 L168.136131,118.605937 C168.136131,122.28595 165.15289,125.269191 161.472876,125.269191 L6.66325486,125.269191 C2.98324082,125.269191 1.0100325e-13,122.28595 1.0100325e-13,118.605937 L1.0100325e-13,109.721597 Z" id="Shape" fill="#00A7FF"></path>
                        </g>
                        <g id="Background-Element-1" transform="translate(50.640737, 0.000000)">
                            <path d="M12.7600333,149.737474 C12.631696,151.314829 11.3141212,152.529557 9.73155344,152.529557 C8.1011167,152.529557 6.695746,151.382407 6.36920829,149.785004 L0.126113638,119.244153 C-0.298393595,117.167488 0.364007056,115.017609 1.88363788,113.539954 L27.2817557,88.8433982 L27.2817557,118.0435 L17.2520727,122.615764 C15.7867818,123.283751 14.797755,124.692444 14.6671633,126.297508 L12.7600333,149.737474 Z" id="Shape" fill="#60C9FF"></path>
                            <path d="M70.6042261,149.737474 L68.6970962,126.297508 C68.5665044,124.692444 67.5774777,123.283751 66.1121868,122.615764 L56.0825037,118.0435 L56.0825037,88.8433982 L81.4806215,113.539954 C83.0002525,115.017609 83.6626531,117.167488 83.2381458,119.244153 L76.9950511,149.785004 C76.6685134,151.382407 75.2631428,152.529557 73.6327061,152.529557 C72.0501382,152.529557 70.7325635,151.314829 70.6042261,149.737474 Z" id="Shape" fill="#60C9FF"></path>
                            <path d="M15.436649,59.44363 C15.436649,21.9999656 38.4971486,0 41.9786142,0 C45.4600796,0 68.5205794,21.9999656 68.5205794,59.44363 C68.5205794,84.4060729 64.0784095,108.79112 55.1940697,132.598772 L28.7631588,132.598772 C19.8788189,108.79112 15.436649,84.4060729 15.436649,59.44363 Z" id="Shape" fill="#CCEEFF"></path>
                            <path d="M28.7631588,132.598772 L55.1940697,132.598772 L54.2072566,138.51965 C54.135858,138.948042 53.765212,139.262027 53.3309106,139.262027 L30.6263177,139.262027 C30.1920165,139.262027 29.8213705,138.948042 29.7499717,138.51965 L28.7631588,132.598772 Z" id="Shape" fill="#FCBA19"></path>
                            <path d="M19.5965923,32.7563652 C21.0182835,28.3756536 22.7109512,24.3963058 24.5226545,20.8416846 C30.0326916,22.1141659 35.8513449,22.7926627 41.9786142,22.877175 C48.3030541,22.9644068 54.1469437,22.3355526 59.5102826,20.9906119 C61.2627972,24.4469444 62.9015248,28.3018725 64.2881639,32.5341315 C57.6704151,34.8324338 50.2338966,35.9815763 41.9786142,35.9815763 C33.9938463,35.9815763 26.5331721,34.9065116 19.5965923,32.7563821 L19.5965923,32.7563652 Z" id="Shape" fill="#FCBA19"></path>
                            <path d="M41.86756,95.7287615 C42.9715643,95.7287615 43.8665365,96.6237337 43.8665365,97.727738 L43.8665365,150.58956 C43.8665365,151.693564 42.9715643,152.588536 41.86756,152.588536 C40.7635557,152.588536 39.8685835,151.693564 39.8685835,150.58956 L39.8685835,97.727738 C39.8685835,96.6237337 40.7635557,95.7287615 41.86756,95.7287615 Z" id="Shape" fill="#60C9FF"></path>
                            <circle id="Shape" fill="#FCBA19" cx="41.86756" cy="60.6356192" r="14.2149437"></circle>
                            <circle id="Shape" fill="#F2FBFF" cx="41.86756" cy="60.6356192" r="11.5496418"></circle>
                        </g>
                        <g id="Background-Element-4" transform="translate(127.712385, 31.983623)">
                            <circle id="Shape" fill="#0F4C8B" cx="10.6612078" cy="10.6612078" r="10.6612078"></circle>
                            <path d="M6.42303284,10.2050671 C5.84113979,9.81269369 5.0514801,9.96653645 4.65927859,10.5486845 C4.26707707,11.1308326 4.42085245,11.9208383 5.0027455,12.3132117 L9.14797172,15.1083584 C9.6862314,15.4713096 10.4113996,15.3700117 10.8296986,14.8734399 L16.3591021,8.30936682 C16.8113101,7.77254105 16.7429044,6.97061013 16.2063138,6.51820398 C15.6697232,6.06579782 14.8681436,6.13423343 14.4159356,6.6710592 L9.62194416,12.362109 L6.42303284,10.2050671 Z" id="Shape" fill="#FFFFFF"></path>
                        </g>
                        <g id="Background-Element-3" transform="translate(0.000000, 49.974411)">
                            <path d="M1.99897646,0.111054248 L52.1954964,0.111054248 C53.238167,0.111054248 54.0834186,0.956305813 54.0834186,1.99897646 L54.0834186,26.2088025 C54.0834186,27.251473 53.238167,28.0967247 52.1954964,28.0967247 L1.99897646,28.0967247 C0.956305813,28.0967247 0.111054248,27.251473 0.111054248,26.2088025 L0.111054248,1.99897646 C0.111054248,0.956305813 0.956305813,0.111054248 1.99897646,0.111054248 Z" id="Path" fill="#00A7FF"></path>
                            <path d="M1.99897646,1.22159672 C1.56964149,1.22159672 1.22159672,1.56964149 1.22159672,1.99897646 L1.22159672,26.2088025 C1.22159672,26.6381375 1.56964149,26.9861822 1.99897646,26.9861822 L52.1954964,26.9861822 C52.6248315,26.9861822 52.9728762,26.6381375 52.9728762,26.2088025 L52.9728762,1.99897646 C52.9728762,1.56964149 52.6248315,1.22159672 52.1954964,1.22159672 L1.99897646,1.22159672 Z" id="Path" fill="#FFFFFF"></path>
                            <circle id="Oval" fill="#FCBA19" cx="14.2149437" cy="14.4370522" r="6.21903787"></circle>
                            <path d="M28.2077789,8.21801433 L35.0818783,8.21801433 C35.6952138,8.21801433 36.1924207,8.71522114 36.1924207,9.32855681 C36.1924207,9.94189247 35.6952138,10.4390993 35.0818783,10.4390993 L28.2077789,10.4390993 C27.5944432,10.4390993 27.0972364,9.94189247 27.0972364,9.32855681 C27.0972364,8.71522114 27.5944432,8.21801433 28.2077789,8.21801433 Z" id="bg" fill="#CCEEFF"></path>
                            <path d="M28.2077789,13.1044012 L44.8546521,13.1044012 C45.4679876,13.1044012 45.9651945,13.601608 45.9651945,14.2149437 C45.9651945,14.8282794 45.4679876,15.3254862 44.8546521,15.3254862 L28.2077789,15.3254862 C27.5944432,15.3254862 27.0972364,14.8282794 27.0972364,14.2149437 C27.0972364,13.601608 27.5944432,13.1044012 28.2077789,13.1044012 Z" id="bg" fill="#CCEEFF"></path>
                            <path d="M28.2077789,17.9907881 L40.4124822,17.9907881 C41.0258177,17.9907881 41.5230246,18.4879949 41.5230246,19.1013306 C41.5230246,19.7146663 41.0258177,20.2118731 40.4124822,20.2118731 L28.2077789,20.2118731 C27.5944432,20.2118731 27.0972364,19.7146663 27.0972364,19.1013306 C27.0972364,18.4879949 27.5944432,17.9907881 28.2077789,17.9907881 Z" id="bg" fill="#CCEEFF"></path>
                        </g>
                        <g id="Background-Element-5" transform="translate(127.712385, 78.182190)">
                            <path d="M1.99897646,0.111054248 L52.1954964,0.111054248 C53.238167,0.111054248 54.0834186,0.956305813 54.0834186,1.99897646 L54.0834186,26.2088025 C54.0834186,27.251473 53.238167,28.0967247 52.1954964,28.0967247 L1.99897646,28.0967247 C0.956305813,28.0967247 0.111054248,27.251473 0.111054248,26.2088025 L0.111054248,1.99897646 C0.111054248,0.956305813 0.956305813,0.111054248 1.99897646,0.111054248 Z" id="Path" fill="#00A7FF"></path>
                            <path d="M1.99897646,1.22159672 C1.56964149,1.22159672 1.22159672,1.56964149 1.22159672,1.99897646 L1.22159672,26.2088025 C1.22159672,26.6381375 1.56964149,26.9861822 1.99897646,26.9861822 L52.1954964,26.9861822 C52.6248315,26.9861822 52.9728762,26.6381375 52.9728762,26.2088025 L52.9728762,1.99897646 C52.9728762,1.56964149 52.6248315,1.22159672 52.1954964,1.22159672 L1.99897646,1.22159672 Z" id="Path" fill="#FFFFFF"></path>
                            <circle id="Oval" fill="#1E98D2" cx="14.2149437" cy="14.4370522" r="6.21903787"></circle>
                            <path d="M28.2077789,8.21801433 L35.0818783,8.21801433 C35.6952138,8.21801433 36.1924207,8.71522114 36.1924207,9.32855681 C36.1924207,9.94189247 35.6952138,10.4390993 35.0818783,10.4390993 L28.2077789,10.4390993 C27.5944432,10.4390993 27.0972364,9.94189247 27.0972364,9.32855681 C27.0972364,8.71522114 27.5944432,8.21801433 28.2077789,8.21801433 Z" id="bg" fill="#CCEEFF"></path>
                            <path d="M28.2077789,13.1044012 L44.8546521,13.1044012 C45.4679876,13.1044012 45.9651945,13.601608 45.9651945,14.2149437 C45.9651945,14.8282794 45.4679876,15.3254862 44.8546521,15.3254862 L28.2077789,15.3254862 C27.5944432,15.3254862 27.0972364,14.8282794 27.0972364,14.2149437 C27.0972364,13.601608 27.5944432,13.1044012 28.2077789,13.1044012 Z" id="bg" fill="#CCEEFF"></path>
                            <path d="M28.2077789,17.9907881 L40.4124822,17.9907881 C41.0258177,17.9907881 41.5230246,18.4879949 41.5230246,19.1013306 C41.5230246,19.7146663 41.0258177,20.2118731 40.4124822,20.2118731 L28.2077789,20.2118731 C27.5944432,20.2118731 27.0972364,19.7146663 27.0972364,19.1013306 C27.0972364,18.4879949 27.5944432,17.9907881 28.2077789,17.9907881 Z" id="bg" fill="#CCEEFF"></path>
                        </g>
                    </g>
                    <g id="Woman-Standing-1" transform="translate(31.000000, 78.000000)">
                        <g id="Head-Front/-Women/-3" transform="translate(0.000000, 0.163129)">
                            <path d="M15.8382112,11.8172555 C15.5753961,11.0544739 15.7981325,10.2419452 16.3423879,9.71577074 C16.1996873,8.77628459 16.0702446,7.91663054 15.9540598,7.13680863 C15.9540598,3.89868754 18.6389765,1.27367173 21.9509892,1.27367173 C25.2630018,1.27367173 27.9479185,3.89868754 27.9479185,7.13680863 L27.9479185,10.2197 C27.9479185,12.81086 26.4055631,15.6669788 25.3243717,16.7629104 C25.5709749,17.5232007 25.8808633,18.1743843 26.2540367,18.7164613 C26.3355981,18.8349385 26.5936717,19.1828127 26.6598736,19.3031255 C33.1671084,19.7621355 29.2588733,24.0710822 27.0393352,25.2920179 C25.6814043,26.0389958 24.3056487,26.6186761 22.8258104,26.6588849 C19.5566795,26.7477107 16.5389008,24.7924237 13.7724745,20.7930244 C15.0911542,20.1779061 16.5093996,19.7108189 18.0272109,19.3917626 L18.7660314,14.0341239 C18.4096784,13.750651 18.0779175,13.461785 17.7857442,13.1736772 C16.9338364,13.1928126 16.1304802,12.6655224 15.8382112,11.8172555 Z" id="Shape" fill="#F79474"></path>
                            <path d="M24.9733571,16.8196453 C24.3584146,17.345619 23.5795853,17.0649596 20.9720701,15.1465799 C20.8732629,15.0738863 20.7342341,15.0950555 20.6615404,15.1938627 C20.5888468,15.2926699 20.610016,15.4316988 20.7088232,15.5043924 C23.4829272,17.5453335 24.4154497,17.8813779 25.2620951,17.1572235 C25.3553148,17.0774907 25.366248,16.937285 25.2865152,16.8440653 C25.2067824,16.7508457 25.0665767,16.7399124 24.9733571,16.8196453 Z" id="Shape" fill="#E2643B" fill-rule="nonzero"></path>
                            <path d="M24.5404937,13.3003198 C24.4591838,13.2084726 24.4677259,13.068101 24.5595731,12.986791 C24.6514204,12.905481 24.791792,12.9140232 24.873102,13.0058704 C25.1068312,13.2698894 25.3510964,13.3446919 25.6446753,13.2498584 C25.7614035,13.2121522 25.8865973,13.2762122 25.9243035,13.3929404 C25.9620097,13.5096686 25.8979497,13.6348624 25.7812215,13.6725686 C25.3144058,13.823362 24.887904,13.6927523 24.5404937,13.3003198 Z" id="Shape" fill="#E2643B" fill-rule="nonzero"></path>
                            <path d="M25.9489421,9.26957756 C25.9489421,9.14691044 25.8495007,9.04746907 25.7268336,9.04746907 C25.6041664,9.04746907 25.5047251,9.14691044 25.5047251,9.26957756 L25.5047251,11.002366 C25.5047251,11.1137892 25.5872809,11.2079684 25.6977444,11.2225613 C26.1102479,11.2770557 26.2782917,11.364285 26.2782917,11.4039143 C26.2782917,11.4926081 26.0626729,11.7025148 25.6144632,11.9654023 C25.5086534,12.0274627 25.4731874,12.1635485 25.5352479,12.2693584 C25.5973083,12.3751682 25.7333941,12.4106341 25.839204,12.3485737 C26.4224164,12.0065033 26.7225087,11.7143609 26.7225087,11.4039143 C26.7225087,11.0836758 26.4466501,10.9054987 25.9489421,10.812604 L25.9489421,9.26957756 Z" id="Shape" fill="#E2643B" fill-rule="nonzero"></path>
                            <path d="M27.9478033,7.6065713 C27.9485406,7.42146932 27.9479185,7.23834522 27.9479185,7.04849261 C25.9420723,7.23623268 23.5057486,7.23623268 22.5062604,4.0331787 C22.5062604,8.26783791 20.1178854,8.26783791 19.5355362,9.11295882 C18.926204,9.99723818 19.181895,10.4508476 18.9125893,10.5058116 C18.3859037,10.6133055 17.9624692,8.86999481 17.3311497,9.00242133 C16.6998302,9.13484786 15.3297309,10.3531146 15.9053584,11.8337874 C16.4809859,13.3144603 18.4497513,12.9150516 18.7785363,13.8528393 C18.8388119,14.0247624 18.7785363,14.2911522 18.7252697,14.6235458 C18.3144572,17.5187838 18.093073,19.0855892 18.0611171,19.323962 C18.0131833,19.6815212 14.451697,20.1127752 14.0206839,20.9647571 C13.7470298,21.5056882 17.2278639,24.0710797 17.0659509,24.6084199 C15.94702,28.3218139 14.3513889,30.6366259 12.2790579,31.5528566 C7.15026125,33.8204288 -0.69905646,28.6627791 0.178966785,21.6660587 C1.05699001,14.6693384 13.985345,16.2952335 13.9593918,11.8918566 C13.9310004,7.07478632 16.2781997,1.92622522 18.9170283,1.97564032 C21.5515501,-1.49251234 28.2087892,0.911083029 29.6059798,2.85180967 C31.0031704,4.79253631 27.5035717,7.81879401 28.9843255,13.260488 C30.4650792,18.7021819 27.9731145,19.170389 26.6598736,19.3031255 C26.2157758,19.348013 25.3287625,16.8686748 25.3243717,16.7629104 C25.3253008,16.6379988 27.1251163,14.5364006 27.5037016,12.156988 C27.8585418,9.92681301 27.9307727,8.84489346 27.9448782,7.92483538 C27.7278724,7.95352727 27.3764584,7.93142614 26.9912456,7.85564081 C26.3790892,7.73520743 25.9133901,7.52480774 25.9510774,7.38569992 C25.9887647,7.24659213 26.5155671,7.2314535 27.1277235,7.35188688 C27.4657899,7.41839683 27.759189,7.51234519 27.9478033,7.6065713 Z M22.6028088,7.75522885 C22.0534277,7.9531177 21.5648401,7.99600445 21.5115179,7.85101907 C21.4581957,7.7060337 21.8603308,7.42807922 22.409712,7.23019035 C22.9590931,7.0323015 23.4476807,6.98941477 23.5010029,7.13440013 C23.5543251,7.27938552 23.15219,7.55733999 22.6028088,7.75522885 Z M23.6168029,9.71379455 C23.4328022,9.71379455 23.2836401,9.56463253 23.2836401,9.38063181 C23.2836401,9.19663111 23.4328022,9.04746907 23.6168029,9.04746907 C23.8008036,9.04746907 23.9499656,9.19663111 23.9499656,9.38063181 C23.9499656,9.56463253 23.8008036,9.71379455 23.6168029,9.71379455 Z M27.1705388,9.71379455 C26.9865381,9.71379455 26.8373761,9.56463253 26.8373761,9.38063181 C26.8373761,9.19663111 26.9865381,9.04746907 27.1705388,9.04746907 C27.3545395,9.04746907 27.5037016,9.19663111 27.5037016,9.38063181 C27.5037016,9.56463253 27.3545395,9.71379455 27.1705388,9.71379455 Z" id="Shape" fill="#000000"></path>
                            <path d="M18.4006055,11.004796 C17.6697374,10.2992345 17.0185905,10.388416 16.6553052,11.2697321 C16.6085567,11.383142 16.6625965,11.512976 16.7760064,11.5597244 C16.8894164,11.6064729 17.0192504,11.5524331 17.0659988,11.4390232 C17.3032615,10.8634331 17.5759079,10.8260912 18.0920784,11.3243891 C18.1803316,11.4095865 18.3209411,11.4071093 18.4061385,11.3188561 C18.4913359,11.2306029 18.4888587,11.0899934 18.4006055,11.004796 Z" id="Shape" fill="#E2643B" fill-rule="nonzero"></path>
                        </g>
                        <g id="Front-Bottom/-Standing/-Long-Pants" transform="translate(7.107472, 54.750652)">
                            <path d="M2.08575702,67.3878748 L6.66433948,68.2778608 L3.88198712,77.6811174 L0.221023868,76.9810952 L2.08575702,67.3878748 Z M30.2949635,68.5079468 L34.9244751,67.9395143 L35.1840668,77.7423367 L31.485965,78.2078757 L30.2949635,68.5079468 Z" id="Shape" fill="#F79474"></path>
                            <path d="M18.2957858,22.549939 L5.39357029,75.3756356 L0.443687087,74.2849677 C1.51866421,53.8020145 3.5388061,40.3778363 6.50411277,38.6163147 C4.89372672,27.0946344 5.08383591,14.6097662 7.07444037,1.16170987 L11.1687661,1.3678188 L28.119447,-6.31270311e-15 L35.5373593,38.1013515 L35.3826682,74.298252 L30.8568989,75.3756356 C27.6718764,55.6660409 26.2254815,43.7334424 28.7387988,41.3547077 C25.5604045,36.2425726 22.0794,29.9743164 18.2957858,22.549939 Z" id="Shape" fill="#1A6EE3"></path>
                            <path d="M0.196238889,76.2639335 C0.588716667,75.8772657 2.42671267,77.0052455 3.19221899,77.007429 C3.70255655,77.0088849 4.03496075,76.7648499 4.18943161,76.2753243 C7.3659728,77.5746381 9.24377879,78.3978251 9.82284956,78.7448847 C10.4019203,79.0919446 10.57289,79.4966691 10.3357584,79.9590583 L0.196238889,79.9590583 C-0.0654129629,77.7534201 -0.0654129629,76.5217119 0.196238889,76.2639335 Z M31.0693197,76.3151008 C31.4617974,75.928433 33.2997934,77.0564128 34.0652999,77.0585966 C34.5756375,77.0600523 34.9080417,76.8160172 35.0625124,76.3264917 C38.2390537,77.6258055 40.1168597,78.4489924 40.6959304,78.7960523 C41.2750012,79.1431119 41.4459707,79.5478365 41.2088393,80.0102257 L31.0693197,80.0102257 C30.8076679,77.8045877 30.8076679,76.5728793 31.0693197,76.3151008 Z" id="Shape" fill="#021768"></path>
                            <path d="M27.177379,5.45338886 C27.2496497,5.3542721 27.2278871,5.21533491 27.1287703,5.14306394 C27.0296535,5.07079294 26.8907162,5.09255576 26.8184454,5.19167252 L19.5699095,15.1327501 C19.5561809,15.1515784 19.5455006,15.1724499 19.5382606,15.1945985 L16.9721578,23.0448623 C16.9340448,23.1614581 16.9976678,23.2868746 17.1142638,23.3249877 C17.2308598,23.3631007 17.3562762,23.2994777 17.3943892,23.1828816 L19.9495644,15.366048 L27.177379,5.45338886 Z" id="Shape" fill="#0E143F" fill-rule="nonzero"></path>
                        </g>
                        <g id="Front-body/-Woman/-Pose1/-Long-sleeve-shirt-Tie" transform="translate(0.000000, 17.398175)">
                            <path d="M18.4965747,40.7200911 C17.9088301,41.5342244 16.5515151,42.1404318 15.845854,41.7061835 C14.7505882,41.0321811 0.414165734,30.6561735 0.0123870352,27.4913393 C-0.340400104,24.7124147 6.92653388,9.67161813 11.0658336,5.44907845 C11.1702787,5.33376281 11.2886293,5.21940894 11.4221751,5.10561622 C11.8227074,4.7435645 12.1877696,4.49993748 12.5061248,4.39886624 C13.4178361,3.94170305 15.1591852,3.16945936 17.4079138,1.56902436 C17.6356587,1.40693685 17.8456632,1.10626367 18.0379276,0.667004829 C19.269887,1.81534688 21.5116109,3.24315164 24.7630996,4.95041911 C25.0288891,2.45843034 25.2187236,0.954721351 25.3326029,0.439292179 C25.4835696,-0.243997954 26.3265722,1.99432533 26.3117075,1.79595679 L30.6537381,4.27809199 C33.3111949,5.38773768 40.9109491,13.9124308 45.1198787,17.2681418 C48.2568189,14.5381513 49.5202507,13.591728 56.3068475,7.48211031 C57.1219266,6.74833739 58.0241822,7.41535814 59.0136144,9.48317257 C52.0471897,20.1860903 47.4159444,25.4147017 45.1198787,25.1690069 C43.3405169,24.978603 38.3452453,21.8562158 33.8146271,18.3845374 C33.0706883,19.5329968 32.2057318,20.7304012 32.2057318,23.7043377 C32.2057318,28.4645885 37.9430621,34.5916697 36.5772017,37.8668645 C35.7583306,39.8304342 25.3758252,41.1369576 18.4965747,40.7200911 L18.4965747,40.7200911 Z M14.5322076,34.7471197 C15.7056241,32.3944839 16.9711049,29.7002456 16.6019089,27.91351 C16.1403686,25.6798713 14.4521946,22.25423 13.0919424,18.6187704 C11.0138969,21.1429303 9.23647062,23.3772981 7.75966366,25.3218733 C9.6921308,28.7849458 10.8036523,30.4113506 14.5322076,34.7471197 L14.5322076,34.7471197 Z" id="Shape" fill="#FCBA19"></path>
                            <path d="M31.1341941,8.43997499 C31.7579642,9.37979781 32.2218234,10.1031285 32.5252214,10.6089703 C33.0898576,11.5503625 33.6436429,12.5502693 34.1865536,13.6086881 C34.2789976,13.7889102 34.3548321,13.9716514 34.4147219,14.157155 C34.8449909,15.489878 34.5047316,16.7870242 33.4853189,18.734743 C33.4700342,18.7639462 32.965641,19.709216 32.8388752,19.9617636 C32.6168053,20.4041804 32.4755737,20.7429597 32.3972273,21.0460552 C31.5286552,24.4062652 32.8723483,29.1454781 36.4063645,35.27943 C36.4691666,35.3884349 36.6054981,35.4241339 36.7108695,35.3591663 C36.8162409,35.2941987 36.8507501,35.153166 36.787948,35.0441611 C33.3096988,29.0070037 31.9964854,24.3752928 32.8263667,21.1647645 C32.8945927,20.9008222 33.0246694,20.5888002 33.233112,20.1735324 C33.3567951,19.927126 33.8582621,18.9873402 33.8759531,18.9535396 C34.9497968,16.901823 35.3171025,15.5015698 34.836061,14.0115828 C34.7683837,13.8019577 34.6828592,13.5958662 34.5789489,13.3932903 C34.0314415,12.3259102 33.4726942,11.3170444 32.902683,10.3666904 C32.5949685,9.85365185 32.1277247,9.1250431 31.5004017,8.1798676 C31.4309692,8.07525505 31.2927047,8.04867684 31.1915793,8.1205035 C31.0904538,8.19233017 31.0647616,8.33536242 31.1341941,8.43997499 Z" id="Shape" fill="#0E143F" fill-rule="nonzero"></path>
                            <path d="M57.6618759,6.12593405 C57.5948336,3.98379217 57.6873169,2.75952201 57.9393258,2.45312356 C58.1913348,2.14672514 58.4411178,2.82373402 58.6886746,4.48415023 C60.7573711,2.56537587 61.9169809,1.67378623 62.1675035,1.80938138 C62.6669211,2.07969062 61.068433,3.66871052 60.9695285,4.04477559 C61.2700742,3.95901063 63.377082,2.2993302 63.6982433,2.61031836 C63.9123508,2.81764381 63.211614,3.63260894 61.5960333,5.05521372 C63.2194185,4.08690506 64.0884804,3.72813707 64.2032196,3.97890976 C64.3753282,4.35506877 62.8290835,5.42529771 62.2083513,5.96367531 C61.9812549,6.16064199 63.9464509,5.21805216 64.0506593,5.50604639 C64.1548679,5.79404062 63.5159791,6.16735525 62.3137433,7.01417924 C61.5122526,7.57872855 60.5415156,7.94635101 59.4015325,8.11704656 L58.734307,9.14414357 L56.8464921,7.26740701 L57.6618759,6.12593405 Z M20.0804342,40.4694388 C22.1523231,40.1749553 23.3500487,40.1404843 23.6736106,40.3660257 C23.9971727,40.5915671 23.3661458,40.9185301 21.7805299,41.346915 C23.8578147,43.2612333 24.8436923,44.3537066 24.7381626,44.6243351 C24.5277892,45.1638335 22.8194301,43.6958512 22.4441856,43.6343098 C22.5586808,43.9327785 24.3885105,45.9136174 24.120117,46.2750168 C23.941188,46.5159499 23.0774045,45.8849068 21.5287668,44.3818875 C22.6373403,45.940797 23.0759122,46.7921731 22.8444829,46.9360159 C22.4973388,47.1517799 21.2978801,45.6825459 20.710836,45.1041961 C20.4960647,44.8926053 21.6152352,46.8039613 21.3465883,46.9409542 C21.0779414,47.0779472 20.6491956,46.4636138 19.7023273,45.3228057 C19.0710816,44.5622669 18.6133402,43.6077927 18.329103,42.4593832 L16.8009086,41.6360821 L19.1496051,40.0020168 L20.0804342,40.4694388 Z" id="Shape" fill="#F79474"></path>
                            <path d="M19.2531534,39.5178858 C19.1845853,39.43762 18.9740966,39.1925677 18.7426348,38.9239068 C18.3985889,38.5245677 18.0260955,38.0936526 17.6430503,37.6523248 C16.5775326,36.4246818 15.6107091,35.3239361 14.8444052,34.4715068 C14.7608691,34.3785819 14.6203302,34.3733062 14.530503,34.4597228 C14.4406756,34.5461395 14.4355756,34.6915244 14.5191117,34.7844492 C15.2832981,35.6345231 16.2485823,36.7335161 17.3125161,37.959334 C17.6951783,38.4002207 18.0673122,38.8307201 18.4110114,39.2296567 C18.6420941,39.4978776 18.8522071,39.7424925 18.9202889,39.8221888 C19.0015189,39.9172764 19.141883,39.9262396 19.233801,39.8422086 C19.325719,39.7581776 19.3343834,39.6129733 19.2531534,39.5178858 Z" id="Shape" fill="#0E143F" fill-rule="nonzero"></path>
                            <path d="M32.0597988,38.8868049 C29.4628001,30.6613228 28.1039328,25.0926704 27.9838818,22.2009906 C27.9272001,20.8356914 28.0396166,20.0689079 28.3432078,19.0939145 C28.3555808,19.0541783 28.4377334,18.7939762 28.4610957,18.7181096 C28.8214662,17.5478414 28.8520126,16.6171849 28.442714,14.6707705 C27.8338824,11.7754798 26.7077086,8.4071814 25.0645606,4.56446902 C25.0149373,4.44841884 24.8837685,4.39595628 24.7715866,4.44729062 C24.6594047,4.49862493 24.6086909,4.6343169 24.6583141,4.75036708 C26.290175,8.5666828 27.4068304,11.9065127 28.0086484,14.7684507 C28.4018109,16.6381287 28.3739438,17.4871495 28.0378357,18.5786277 C28.0150727,18.6525479 27.9332299,18.9117691 27.9203852,18.9530205 C27.6013274,19.9776852 27.4810208,20.7982871 27.5400739,22.2207085 C27.6624415,25.1681891 29.0280331,30.7643976 31.6375339,39.0294779 C31.6756186,39.1501039 31.8010197,39.2159524 31.9176249,39.1765541 C32.0342301,39.137156 32.0978835,39.0074309 32.0597988,38.8868049 Z" id="Shape" fill="#0E143F" fill-rule="nonzero"></path>
                            <path d="M17.930476,1.59898391 L18.1947671,0.849397076 C18.2368,0.7301824 18.1774533,0.598290362 18.0622125,0.554807967 C17.9469716,0.511325569 17.819476,0.572718709 17.777443,0.691933385 L17.4894885,1.50863486 C17.4740875,1.5523157 17.4718591,1.59980234 17.483098,1.64482095 C18.3858415,5.26086224 19.0910952,7.20865202 19.6880428,7.61007839 C20.3412355,8.04932759 22.0362967,7.12334135 24.9942101,4.8416128 C25.0925471,4.76575582 25.1128207,4.6217948 25.0394923,4.52006684 C24.9661638,4.41833889 24.8270015,4.39736632 24.7286646,4.4732233 C22.0004055,6.57779675 20.3272389,7.4918223 19.9301488,7.22479307 C19.4798469,6.92198076 18.7841541,5.0068918 17.930476,1.59898391 Z" id="Shape" fill="#0E143F" fill-rule="nonzero"></path>
                            <path d="M25.4195481,0.582666493 C27.0621811,2.71065288 27.8423149,4.09488078 27.7517768,4.61683665 C27.6828595,5.01414904 26.7544175,5.01414904 24.9262007,4.43763516 C24.8088639,4.40063398 24.6847484,4.46903873 24.6489805,4.59042146 C24.6132128,4.7118042 24.6793374,4.84019975 24.796674,4.87720094 C26.8987494,5.54007403 28.0429451,5.54007403 28.1890105,4.69799945 C28.3134555,3.98056837 27.5087333,2.55271235 25.7666708,0.295917867 C25.6901269,0.196757192 25.5503696,0.180562448 25.4545145,0.259745895 C25.3586591,0.338929342 25.3430042,0.483505818 25.4195481,0.582666493 Z" id="Shape" fill="#0E143F" fill-rule="nonzero"></path>
                            <path d="M14.8430258,40.8194307 L16.4023335,39.116133 C16.4866814,39.0239964 16.482857,38.8785696 16.3937915,38.7913131 C16.304726,38.7040567 16.1641466,38.7080129 16.0797988,38.8001497 L14.5204911,40.5034474 C14.4361432,40.595584 14.4399676,40.7410108 14.5290331,40.8282673 C14.6180987,40.9155237 14.758678,40.9115675 14.8430258,40.8194307 Z" id="Shape" fill="#0E143F" fill-rule="nonzero"></path>
                            <path d="M23.966428,5.49368801 L24.8614372,4.80659311 L26.3117075,5.046422 C28.9690003,5.42362446 30.514327,5.9856462 30.947688,6.73248723 C31.5977294,7.8527488 30.7539641,9.42372321 30.1021942,9.03187918 C29.6676812,8.77064983 28.5120305,7.81184925 26.6352425,6.15547746 C29.0923906,9.00512071 30.5742268,10.7567231 31.0807505,11.4102846 C31.8405364,12.390627 30.5507928,13.5225268 30.2785471,13.268481 C30.09705,13.0991172 28.6223411,10.8598243 25.8544204,6.55060223 C26.4681641,11.6737678 26.589462,14.1734766 26.2183136,14.0497287 C25.7978118,13.9095254 24.8819925,13.4541724 24.5070651,12.9246735 C24.3735306,12.7360864 24.6260233,10.5829165 25.2645433,6.46516354 C24.7271744,9.36184554 24.2944693,10.9694881 23.966428,11.2880912 C23.4743659,11.7659958 20.7070735,10.4089141 20.886551,9.33413862 C21.0062024,8.61762161 22.0328282,7.3374714 23.966428,5.49368801 Z M24.4319345,6.47178201 C22.9137072,8.29226995 22.2603029,9.31459267 22.4717213,9.53875014 C22.7888489,9.87498635 23.1999049,10.2836957 23.4324463,10.1043151 C23.5874738,9.98472798 23.9206365,8.77388364 24.4319345,6.47178201 Z M26.9387429,5.83198261 C28.9318579,7.61829525 30.0675022,8.43838269 30.3456756,8.29224497 C30.7629359,8.07303834 30.8876194,7.67469642 29.8307666,7.00842819 C29.1261978,6.56424936 28.16219,6.17210084 26.9387429,5.83198261 Z" id="Shape" fill="#021768"></path>
                            <path d="M55.6756411,9.83886584 L57.3515042,11.5151201 C57.4396903,11.6033269 57.5803019,11.6008785 57.6655685,11.5096513 C57.750835,11.4184241 57.7484682,11.272964 57.660282,11.1847571 L55.984419,9.50850291 C55.8962326,9.42029603 55.7556213,9.42274447 55.6703545,9.51397169 C55.5850879,9.60519889 55.5874547,9.75065897 55.6756411,9.83886584 Z" id="Shape" fill="#0E143F" fill-rule="nonzero"></path>
                        </g>
                    </g>
                    <g id="Woman-Standing-1" transform="translate(259.337778, 146.000000) scale(-1, 1) translate(-259.337778, -146.000000) translate(216.337778, 78.000000)">
                        <g id="Front-Bottom/-Standing/-Skirt" transform="translate(28.726691, 56.266667)">
                            <path d="M20.7251948,2.07755983 L23.4989017,2.18814815 C24.6603577,25.7615235 25.4900591,39.0030197 25.9880061,41.9126371 C26.4859531,44.8222542 26.1609119,55.1774196 25.0128824,72.9781328 L29.8799461,77.6061539 C26.3127561,77.2689228 23.8030191,76.5336239 22.3507346,75.4002566 C20.9275639,53.3771829 17.3470493,51.7465 19.084983,42.9296006 C17.7392837,39.3660357 16.953018,35.4232927 16.2057065,31.1151468 L14.4757158,42.2302886 L4.6214262,72.79218 C6.48421601,75.0778887 7.64984325,76.4303927 8.11830792,76.8496916 C8.58677257,77.2689905 7.22577759,77.1621508 4.03532296,76.5291723 C3.25729595,76.8751369 2.05742388,76.6452564 0.435706764,75.8395308 C6.11745794,53.3814992 2.0486034,48.3234893 7.53271015,41.3301324 C5.94930945,29.9793088 5.21703228,14.3931158 7.17428002,1.1444827 L20.7467275,1.93921296 L20.7251948,2.07755983 Z" id="Shape" fill="#FFB5B9"></path>
                            <path d="M4.42964339,35.8555194 C2.8462427,24.5046958 -2.34679182,10.4047605 2.8065479,1.1444827 L6.83226473,1.34753521 C15.0065113,1.50391996 20.562057,1.05474155 23.4989017,-2.48763644e-14 C27.148737,8.89939147 27.148737,24.5046958 26.4247793,35.3481927 C18.7362397,37.7256469 11.3316078,38.3584134 4.42964339,35.8555194 Z" id="Shape" fill="#021768"></path>
                            <path d="M16.1588834,29.4652001 C16.7796817,24.5464015 17.9999908,19.9413255 19.819698,15.6494051 C19.8668569,15.5381775 19.8150953,15.409705 19.7040853,15.3624538 C19.5930754,15.3152025 19.4648543,15.3670656 19.4176955,15.4782932 C17.5820059,19.8079093 16.3513319,24.4520993 15.7255611,29.4102962 C15.7104295,29.5301894 15.7951653,29.6396728 15.9148239,29.6548342 C16.0344826,29.6699955 16.1437517,29.5850936 16.1588834,29.4652001 Z" id="Shape" fill="#0E143F" fill-rule="nonzero"></path>
                            <path d="M0.969954457,73.4343188 C1.08073707,73.332043 4.4558683,75.7485726 5.2325733,76.0929 C6.0092783,76.4372276 6.63804171,76.8259729 7.30955538,76.199151 C7.96120863,76.6466131 9.57141413,77.2254699 9.8766339,77.4087589 C10.4460011,77.7506719 10.6141058,78.1493947 10.3809479,78.6049271 L6.8235518,78.6049271 L1.53433524,76.580529 L1.41991911,78.6049271 L0.848110324,78.6049271 C0.489907524,77.5243845 0.279999626,76.7704412 0.218386606,76.3430972 C0.00946618581,74.8940386 0.781951128,73.6078856 0.969954457,73.4343188 Z" id="Shape" fill="#021768"></path>
                            <path d="M22.1889913,73.4343188 C22.2997739,73.332043 25.6749052,75.7485726 26.4516103,76.0929 C27.2283151,76.4372276 27.8570786,76.8259729 28.5285923,76.199151 C29.1802454,76.6466131 30.7904509,77.2254699 31.0956707,77.4087589 C31.665038,77.7506719 31.8331426,78.1493947 31.5999848,78.6049271 L28.0425886,78.6049271 L22.753372,76.580529 L22.638956,78.6049271 L22.0671471,78.6049271 C21.7089444,77.5243845 21.4990364,76.7704412 21.4374235,76.3430972 C21.228503,74.8940386 22.000988,73.6078856 22.1889913,73.4343188 Z" id="Shape" fill="#021768"></path>
                        </g>
                        <g id="Head-Front/-Women/-1" transform="translate(0.593358, 0.000000)">
                            <path d="M42.5963777,27.8722108 C41.4771694,28.4948219 40.3052551,28.8229824 39.0806347,28.8566914 C35.8808956,28.9447683 32.9271734,27.0059681 30.2194682,23.0402915 C31.5101572,22.4303599 32.8982984,21.9672111 34.3838921,21.650845 L35.1070301,16.3383817 C33.9751882,15.4262507 33.0968153,14.4578078 32.9734569,13.6414765 C32.7363579,12.0724603 32.530121,10.6917095 32.3547464,9.49922409 C32.3547464,6.28840664 34.9826721,3.6855248 38.2243828,3.6855248 C41.4660934,3.6855248 44.0940192,6.28840664 44.0940192,9.49922409 L44.0940192,12.5561207 C44.0940192,15.1254322 42.5844023,17.9574684 41.5261607,19.0441592 C41.7675294,19.7980387 42.0708399,20.4437316 42.4360923,20.9812378 C42.5159224,21.098716 42.5882358,21.2171043 42.6530326,21.3364027 C44.38452,21.5578514 44.4014835,26.8680371 42.5963777,27.8722108 Z" id="Shape" fill="#FFB5B9"></path>
                            <path d="M41.1825968,19.1004156 C40.5807074,19.6219544 39.8184098,19.3436615 37.2662427,17.4414575 C37.1695328,17.3693768 37.033455,17.3903675 36.9623044,17.4883416 C36.8911538,17.5863157 36.9118737,17.7241723 37.0085835,17.796253 C39.7238034,19.8199849 40.6365318,20.1531958 41.465206,19.4351474 C41.5564469,19.3560869 41.5671481,19.2170634 41.4891077,19.1246298 C41.4110674,19.0321962 41.2738377,19.0213551 41.1825968,19.1004156 Z" id="Shape" fill="#F97A80" fill-rule="nonzero"></path>
                            <path d="M40.7589216,15.610765 C40.6793375,15.5196922 40.6876984,15.3805041 40.777596,15.2998798 C40.8674937,15.2192554 41.0048857,15.2277255 41.0844698,15.3187983 C41.3132378,15.5805911 41.5523181,15.6547629 41.8396654,15.560729 C41.9539159,15.5233408 42.0764523,15.5868606 42.1133581,15.7026045 C42.1502639,15.8183485 42.0875637,15.9424866 41.9733133,15.9798749 C41.5164063,16.1293969 41.0989576,15.9998884 40.7589216,15.610765 Z" id="Shape" fill="#F97A80" fill-rule="nonzero"></path>
                            <path d="M42.1374737,11.6140096 C42.1374737,11.4923768 42.0401431,11.393774 41.9200798,11.393774 C41.8000164,11.393774 41.7026858,11.4923768 41.7026858,11.6140096 L41.7026858,13.3321873 C41.7026858,13.442671 41.7834892,13.5360561 41.891608,13.550526 C42.2953556,13.6045608 42.4598324,13.6910546 42.4598324,13.7303498 C42.4598324,13.8182957 42.2487905,14.0264325 41.8100946,14.2871034 C41.7065307,14.3486405 41.6718176,14.4835788 41.7325607,14.5884965 C41.7933038,14.6934142 41.926501,14.728581 42.0300649,14.6670439 C42.6008979,14.3278578 42.8946203,14.0381787 42.8946203,13.7303498 C42.8946203,13.4128115 42.6246172,13.2361368 42.1374737,13.1440254 L42.1374737,11.6140096 Z" id="Shape" fill="#F97A80" fill-rule="nonzero"></path>
                            <path d="M38.8623667,10.1124298 C38.324647,10.3086501 37.8464303,10.3511752 37.7942399,10.2074123 C37.7420495,10.0636495 38.1356488,9.78803871 38.6733686,9.59181842 C39.2110883,9.39559816 39.689305,9.35307305 39.7414954,9.4968359 C39.7936858,9.64059878 39.4000865,9.91620956 38.8623667,10.1124298 Z M43.1576529,10.2119951 C42.5584904,10.0925772 42.1026763,9.88395162 42.1395636,9.74601675 C42.176451,9.6080819 42.6920713,9.59307093 43.2912339,9.71248882 C43.8903964,9.83190671 44.3462105,10.0405323 44.3093231,10.1784672 C44.2724358,10.3164021 43.7568155,10.331413 43.1576529,10.2119951 Z M39.8548373,12.054481 C39.6747423,12.054481 39.5287464,11.9065767 39.5287464,11.7241275 C39.5287464,11.5416783 39.6747423,11.393774 39.8548373,11.393774 C40.0349324,11.393774 40.1809283,11.5416783 40.1809283,11.7241275 C40.1809283,11.9065767 40.0349324,12.054481 39.8548373,12.054481 Z M43.3331404,12.054481 C43.1530453,12.054481 43.0070495,11.9065767 43.0070495,11.7241275 C43.0070495,11.5416783 43.1530453,11.393774 43.3331404,11.393774 C43.5132354,11.393774 43.6592313,11.5416783 43.6592313,11.7241275 C43.6592313,11.9065767 43.5132354,12.054481 43.3331404,12.054481 Z M32.5902549,7.68506272 C31.709025,7.23543007 31.0408859,6.67394666 29.7536157,7.45989142 C27.8784513,8.60477584 25.104703,14.7931709 22.0024486,14.7931709 C19.9342791,14.7931709 18.1499386,13.5890778 16.6494273,11.1808917 C15.9428868,14.3351175 13.9311929,16.7743494 10.6143456,18.4985873 C5.63907466,21.0849442 1.96885191,19.6930555 0.527428784,16.2897461 C-0.913994339,12.8864368 0.754658278,7.54605755 3.64568984,6.63882781 C6.53672162,5.73159807 6.20994614,9.88706628 7.74819196,9.10506907 C9.28643778,8.32307188 11.1100391,1.93040603 16.0094831,0.353453188 C19.275779,-0.697848708 21.5654045,0.596072996 22.8783596,4.2352183 C24.6040549,1.29756973 26.2183885,0.00364802582 27.7213604,0.353453188 C29.0730592,0.668050682 31.1079011,2.49210646 33.8258862,5.8256205 C33.847744,5.81533155 33.8700445,5.80502531 33.892798,5.79469712 C36.4713985,2.35578771 39.4456582,4.03336582 41.1958244,3.87413235 C43.7247868,3.64404253 45.4550642,2.15286833 46.9927575,3.59221338 C49.0748986,5.54118441 46.5980336,7.64523462 45.0966171,8.15835633 C43.5952006,8.67147805 39.1209038,8.54616498 37.4004767,6.61372475 C38.1401876,9.09916775 36.4301892,10.6207166 35.8602011,11.4587115 C35.2638028,12.3355347 35.5140664,12.7853193 35.2504771,12.8398198 C34.7349712,12.9464074 34.2454792,10.9054397 33.7026057,11.3491061 C33.3697466,11.621137 34.1210013,13.1233101 35.1698927,16.0380765 C35.2309339,16.2077041 35.1966809,16.5026231 35.0671336,16.9228336 C33.9195172,15.9561472 33.1481644,15.1096692 32.7530754,14.3833995 C31.99296,12.9861227 32.0131768,9.85906866 32.2684013,9.05362012 C32.4439089,8.4997457 32.5268276,8.05455555 32.5902549,7.68506272 L32.5902549,7.68506272 Z" id="Shape" fill="#D5561D"></path>
                            <path d="M34.7450344,15.3765007 C33.7164586,15.7350675 32.595524,15.1815594 32.2413569,14.1402058 C31.8871899,13.0988521 32.4339062,11.9639923 33.462482,11.6054254 C34.4910578,11.2468586 35.7736102,15.0179339 34.7450344,15.3765007 Z" id="Shape" fill="#FFB5B9"></path>
                            <path d="M34.7493608,13.3345968 C34.0340064,12.6349846 33.396681,12.7234141 33.0411069,13.597299 C32.9953508,13.7097526 33.0482435,13.8384919 33.1592461,13.8848462 C33.2702488,13.9312004 33.3973269,13.8776163 33.443083,13.7651626 C33.6753095,13.1944259 33.9421686,13.1573989 34.4473826,13.6514952 C34.5337626,13.7359742 34.6713874,13.7335178 34.7547764,13.6460088 C34.8381654,13.5584997 34.8357407,13.4190758 34.7493608,13.3345968 Z" id="Shape" fill="#F97A80" fill-rule="nonzero"></path>
                        </g>
                        <g id="Front-body/-Woman/-Pose6/-Long-sleeve-shirt" transform="translate(26.851135, 15.942222)">
                            <path d="M31.4047719,27.7424115 C33.2403095,26.7592457 34.6540793,26.2032975 35.035559,26.2607863 C35.4170387,26.318275 34.9979687,26.8840615 33.7783495,27.958146 C36.4250574,28.7394818 37.7591197,29.2729131 37.7805363,29.5584396 C37.8232303,30.1276375 35.6916402,29.5790872 35.3339799,29.6892464 C35.5616172,29.9028927 38.0178471,30.8515572 37.9338093,31.2887534 C37.8777842,31.5802174 36.8471228,31.4011641 34.8418251,30.7515937 C36.481941,31.6435646 37.2302215,32.2038782 37.0866664,32.4325348 C36.8713336,32.7755195 35.1889033,32.0026834 34.4251092,31.7488484 C34.1456735,31.6559824 35.9444884,32.8548825 35.7651436,33.0938053 C35.5857989,33.3327282 34.9466388,32.9776604 33.626567,32.3843917 C32.7465193,31.9888793 31.9376163,31.3458297 31.199858,30.4552426 C30.1476478,30.5083157 29.4963842,30.6070993 29.2460677,30.7515937 C28.6034609,31.1225359 28.2377536,28.3787347 28.7424827,28.225891 C29.3319241,28.0473942 30.2193537,27.8862345 31.4047719,27.7424115 Z M47.2350074,5.95060534 C48.5203335,4.10895489 49.5591714,2.94046361 50.3515208,2.44513149 C51.8875284,0.849166202 52.6196949,0.273150055 52.9872392,0.154008032 C53.3547837,0.0348660233 53.2209482,0.731035635 52.585733,2.24251687 C53.069839,2.15639684 53.312032,2.52468736 54.1891775,2.33998272 C55.4647073,2.07138843 57.6261391,1.33515895 58.0911493,1.7798473 C58.4245283,2.09865694 55.9586323,3.84625483 55.0831152,4.19315755 C54.2075982,4.54006027 52.372803,4.58222799 50.9731589,4.78314955 L49.1810549,7.25354539 L47.2350074,5.95060534 Z" id="Shape" fill="#FFB5B9"></path>
                            <path d="M25.5880277,18.4069212 C25.5112573,18.9784844 25.4207418,19.5627193 25.3223574,20.1620017 C24.9511317,22.4232241 23.7763689,25.053705 23.9943686,27.759463 C25.7256552,27.8026956 27.5366533,27.7991965 29.3849069,27.6992317 C30.4547971,27.6413654 30.7661661,28.7185752 30.3190139,30.9308609 C28.7141758,31.3023796 27.0308543,31.6932565 25.3228866,32.08234 C28.0692228,39.1151245 28.6153596,38.8859397 27.3412175,41.9026376 C26.912909,42.9167134 20.8567033,45.0135906 19.7905599,43.5056235 C19.2831138,45.8396544 6.04069486,45.0135906 3.93606998,43.5056235 C2.57018739,42.5269662 4.52223126,38.7717319 5.86274263,35.3092413 C4.56924226,35.2480382 3.74665016,34.9765327 3.57112103,34.425518 C2.5081418,31.0886511 -1.70906113,11.4336026 1.18239089,9.31102283 C1.55198877,9.03970553 1.90845535,8.79049412 2.25429145,8.56945274 C2.34966306,8.50136357 2.45011452,8.43379708 2.55586877,8.36669887 C3.26264642,7.91826776 5.20173626,6.90150724 8.37313824,5.31641736 C8.58332535,4.60023011 8.15312135,3.88416311 8.72763157,4.23381263 C10.0290831,5.0258819 14.3032778,7.82139292 15.0479806,7.56689266 C15.7926836,7.31239241 15.7926836,4.75782681 15.9332415,3.90938125 C15.9866266,3.58713412 16.9882493,5.72977549 16.9587399,5.34093884 C18.6079366,5.60825919 19.7215942,5.80990266 20.2997125,5.94586924 C21.6607712,6.26597423 22.4142299,6.60490258 22.5671006,6.74160238 C26.1511045,8.41671252 32.7488886,12.961172 36.3835404,15.1322608 C37.5991497,11.5869141 41.9570137,10.5064089 48.1503807,3.94846964 C48.894212,3.16085272 49.8411785,3.73177125 50.9912801,5.66122525 C43.5413542,16.8457112 38.6721076,22.4194775 36.3835404,22.3827067 C34.7380023,22.3560488 30.0986676,20.6037741 25.5880266,18.4069207 L25.5880277,18.4069212 Z" id="Shape" fill="#1E98D2"></path>
                            <path d="M21.623849,11.745498 C21.5533614,11.6442478 21.576578,11.5038027 21.6757043,11.431805 C21.7748309,11.3598073 21.9123302,11.3835211 21.9828177,11.4847713 C23.0376088,12.999902 24.0557784,14.7023164 25.0374823,16.5920161 C25.2387258,16.9793935 25.3901116,17.367916 25.4947381,17.7589961 C25.885565,19.2198552 25.6780865,20.363095 24.9422714,22.3269439 C24.6528074,23.0995069 24.583925,23.2945131 24.500394,23.6135868 C24.2353031,24.6261877 24.1486043,25.8030805 24.2417613,27.1443341 C24.2503688,27.2682614 24.1589908,27.3758516 24.0376627,27.3846433 C23.9163349,27.3934353 23.8110017,27.3000993 23.8023942,27.1761722 C23.7059616,25.7877583 23.7962998,24.5614662 24.0748731,23.4973643 C24.164089,23.1565749 24.2347459,22.9565454 24.5308971,22.1661348 C25.2355132,20.2855539 25.4289292,19.2198003 25.0698453,17.8775916 C24.9738428,17.5187469 24.8345081,17.1611527 24.6483957,16.8029017 C23.6753673,14.9299015 22.6671332,13.2440998 21.623849,11.745498 Z M25.1122341,32.8602898 C25.0758003,32.7417556 25.1403403,32.6154962 25.2563882,32.5782819 C25.3724361,32.5410676 25.496047,32.6069904 25.5324808,32.7255244 C25.8343724,33.707703 26.4057976,35.4095462 27.2462336,37.8292969 C27.2869012,37.9463857 27.2269405,38.0749788 27.1123078,38.1165178 C26.9976749,38.1580569 26.8717789,38.0968116 26.8311113,37.9797227 C25.9889721,35.5550676 25.4161873,33.8491758 25.1122341,32.8602898 Z" id="Shape" fill="#0E143F" fill-rule="nonzero"></path>
                            <path d="M29.1570673,30.9692738 C28.7099629,31.0728027 28.3626206,31.1531685 28.0231277,31.2316119 C27.1582104,31.43146 26.4196121,31.6013676 25.7086913,31.7638165 C24.7128252,31.9913768 23.796974,32.1983718 22.9199681,32.3937483 C17.3244113,33.6403074 13.1622623,34.4433492 9.96850127,34.8384549 C6.19451114,35.3053417 4.02848198,35.1342158 3.78054921,34.3559141 C3.74291434,34.237772 3.61864107,34.1731617 3.50297707,34.2116029 C3.38731308,34.2500441 3.32405799,34.3769799 3.36169286,34.4951219 C3.98187927,36.4419892 10.3535338,35.6537409 23.01383,32.8333229 C23.8916588,32.6377632 24.8082634,32.430598 25.8048531,32.2028722 C26.5161553,32.0403363 27.2550802,31.8703535 28.1203129,31.6704326 C28.4598822,31.5919715 28.8072851,31.5115916 29.2544498,31.4080488 C29.3275287,31.3911272 30.1336611,31.2044293 30.3676943,31.1502509 C30.4519343,31.1307495 30.5172366,31.0627491 30.534701,30.9763442 C31.0069555,28.6398645 30.6501691,27.4055293 29.3732613,27.4745921 C26.3732481,27.6368513 23.6997569,27.5746889 19.3725885,27.3304664 C13.7788026,27.0147568 12.1889934,26.9874883 10.81938,27.4002508 C10.5849959,24.8589232 10.2390705,22.4203079 9.80052378,20.1190213 C9.77728427,19.9970713 9.66165851,19.9174542 9.54226645,19.9411917 C9.42287437,19.9649291 9.34492734,20.0830321 9.36816685,20.2049821 C9.81988695,22.5753961 10.1728136,25.0930852 10.4059247,27.7195421 C10.4187942,27.8645424 10.56108,27.9590484 10.6960559,27.9122468 C12.0589217,27.4396857 13.4866549,27.4488628 19.348287,27.7796895 C23.6902445,28.0247468 26.3766061,28.0872084 29.3965523,27.9238711 C30.2396526,27.8782713 30.5128748,28.7556268 30.1312575,30.7436718 C29.8114955,30.8177135 29.2191994,30.9548869 29.1570673,30.9692738 Z" id="Shape" fill="#0E143F" fill-rule="nonzero"></path>
                            <path d="M19.9620813,43.2863657 C19.9634762,43.4105964 19.8660105,43.5124601 19.7443858,43.5139148 C19.6227608,43.5153096 19.5230337,43.4157558 19.5216389,43.2915253 C19.4683333,38.5438716 19.4273917,35.2980778 19.3988194,33.5544661 C19.3967838,33.4302447 19.4937228,33.3278579 19.6153384,33.3257154 C19.7369544,33.3236995 19.8371935,33.4227153 19.8392292,33.5469367 C19.8678182,35.2915789 19.908767,38.5379477 19.9620813,43.2863657 Z M19.7050627,27.5934639 C19.7093293,27.7176261 19.6142461,27.8218126 19.4926881,27.826444 C19.3711301,27.8305289 19.269129,27.7334084 19.2648624,27.6092461 C19.0958963,22.6923404 18.8474984,19.4639998 18.5225822,17.9383694 C17.9258387,15.1363839 16.8185989,11.8665175 15.2004978,8.13014678 C15.1512929,8.01652765 15.2015791,7.88367819 15.3128151,7.83341924 C15.4240511,7.78316026 15.5541139,7.83452383 15.6033187,7.94814296 C17.2326118,11.7103573 18.3492898,15.0080959 18.9529878,17.8427353 C19.2854386,19.4037451 19.535159,22.6492729 19.7050627,27.5934639 Z" id="Shape" fill="#0E143F" fill-rule="nonzero"></path>
                            <path d="M15.4223773,8.26312537 C15.5434836,8.25157847 15.6324954,8.14193836 15.6211907,8.01823735 C15.609886,7.89453634 15.5025455,7.80361748 15.3814392,7.81516437 L13.1288875,8.02993427 C13.0631326,8.0362037 13.0036025,8.07228223 12.9667038,8.12822678 L11.4247925,10.466013 L8.53986844,5.0154309 L8.79145092,4.31089518 C8.83312948,4.19417784 8.77428317,4.06504871 8.66001404,4.02247719 C8.54574488,3.97990567 8.41932429,4.04001273 8.37764572,4.15673007 L8.09211924,4.95632311 C8.07053154,5.01677769 8.07532453,5.0837811 8.1052861,5.14038847 L11.2103858,11.0069555 C11.2891038,11.1556802 11.4942929,11.1658773 11.5867743,11.0256607 L13.2737125,8.46799014 L15.4223773,8.26312537 Z" id="Shape" fill="#0E143F" fill-rule="nonzero"></path>
                            <path d="M16.6404207,7.03942977 C16.5697821,7.0052444 16.4866964,7.01186452 16.4221022,7.05682494 L15.2778877,7.85324926 C15.1773739,7.92321138 15.1514171,8.06315516 15.2199118,8.16582246 C15.2884064,8.26848978 15.4254148,8.29500257 15.5259288,8.22504048 L16.5658628,7.5011999 L18.6894163,8.52888805 C18.8874269,8.6247148 19.0860634,8.39853163 18.9713644,8.20783971 L16.315061,3.79162369 C16.2513896,3.68576705 16.1157596,3.65267514 16.0121235,3.71771085 C15.9084872,3.78274655 15.8760895,3.92128217 15.9397609,4.02713882 L18.2078932,7.79800397 L16.6404207,7.03942977 Z" id="Shape" fill="#0E143F" fill-rule="nonzero"></path>
                        </g>
                    </g>
                    <g id="Man-Kneeling-1" transform="translate(219.476459, 166.052201) scale(-1, 1) translate(-219.476459, -166.052201) translate(175.976459, 115.052201)">
                        <g id="Head-Back/-Man/1-" transform="translate(29.096213, 0.385238)">
                            <path d="M9.83609715,18.4078031 C9.69914299,19.9499114 9.69284417,20.8475355 9.81720072,21.1006755 C10.0835139,21.6427821 11.2254934,23.6380903 9.7727738,25.3203685 C8.32005422,27.0026466 2.79201051,27.9705328 1.10973515,25.2613893 C1.19629522,23.2330504 1.77036769,19.7913822 2.83195255,14.9363849 C2.12607151,14.3219981 1.64012703,13.6928306 1.55067399,13.1085082 C1.30843307,11.5261497 0.939181608,10.0734961 0.4429196,8.75054734 C0.4429196,5.51242626 3.12783633,2.88741044 6.43984899,2.88741044 C9.75186162,2.88741044 12.4367784,5.51242626 12.4367784,8.75054734 L12.4367784,12.4997641 C12.4367784,15.7378852 12.0480555,18.3096735 10.4338059,18.4526044 C10.2794827,18.4662687 10.0768,18.450171 9.83609715,18.4078031 L9.83609715,18.4078031 Z" id="Shape" fill="#944300"></path>
                            <path d="M9.92075856,19.6275592 C9.92977761,18.2076965 9.91223337,17.3800004 9.86490676,17.1084235 C9.86067341,17.0841311 9.85644806,17.0646662 9.85078088,17.046331 C9.84443673,17.0255307 9.84443673,17.0255307 9.82159909,16.9830605 C9.76095356,16.8923714 9.76095356,16.8923714 9.51633055,16.9132617 C9.42336442,17.0091606 9.42336442,17.0091606 9.41674687,17.0452854 C9.4102701,17.0713478 9.4102701,17.0713478 9.40781298,17.0883248 C9.40542907,17.1057114 9.40389825,17.1254443 9.40279182,17.149501 C9.39918771,17.2278631 9.39973987,17.3705328 9.40422353,17.5820617 C9.41302311,17.997205 9.43719034,18.6813565 9.47673662,19.6353477 C9.48871273,19.9242522 9.91892188,19.9167061 9.92075856,19.6275592 Z" id="Shape" fill="#4A2D00" fill-rule="nonzero"></path>
                            <path d="M2.60472076,16.0546601 C5.4335753,16.4664438 7.02923702,16.3943061 7.39170592,15.8382471 C7.93540928,15.0041585 7.26170828,11.2613178 8.98979562,10.5151662 C10.717883,9.76901463 10.7145442,12.0289653 11.2412298,11.9214714 C11.7679154,11.8139775 10.5281866,7.36222585 12.1334443,7.10970933 C12.5840846,7.03882096 12.9894961,6.94075131 13.3496787,6.81550037 C16.4811936,5.72653854 18.2514748,3.93131093 17.6512676,2.68439972 C17.2511295,1.85312558 15.7679259,1.63669596 13.201657,2.03511086 C14.1809252,0.61927949 13.7280133,-0.0578039914 11.8429212,0.00386041667 C10.2389373,0.0563293242 6.22825897,2.02409197 4.00004749,2.20145091 C2.51457317,2.3196902 1.67476019,3.09698875 1.48060857,4.53334658 C0.56862117,4.91805844 0.0764765444,5.8561539 0.00417469597,7.34763299 C-0.0681271524,8.83911211 0.79872154,11.7414545 2.60472076,16.0546601 Z" id="Shape" fill="#441006"></path>
                            <path d="M10.5453561,11.8471253 C9.81448799,11.1415638 9.16334111,11.2307454 8.80005579,12.1120614 C8.75330735,12.2254713 8.80734715,12.3553053 8.92075706,12.4020538 C9.03416697,12.4488022 9.16400098,12.3947624 9.21074942,12.2813525 C9.44801213,11.7057624 9.72065853,11.6684206 10.236829,12.1667185 C10.3250822,12.2519159 10.4656917,12.2494386 10.5508891,12.1611855 C10.6360865,12.0729322 10.6336093,11.9323227 10.5453561,11.8471253 Z" id="Shape" fill="#4A2D00" fill-rule="nonzero"></path>
                        </g>
                        <g id="Back-Bottom/-Sit/-Pants" transform="translate(0.000000, 50.974807)">
                            <path d="M81.0634962,37.1771754 C80.8046132,39.4820968 80.3570252,43.1986424 79.720733,48.3268129 L76.4705304,48.5323825 C75.9094514,44.1220252 75.2874486,40.3362681 74.6897166,37.0293284 C72.6070919,25.5072511 83.476273,15.6954392 81.0634962,37.1771754 Z M14.786041,47.9601559 C12.2586298,47.5128119 8.11816459,46.751985 2.36464514,45.6776758 L2.61341676,42.4304942 C6.77548633,42.2438535 10.6794152,41.8565952 14.2748643,41.4576426 C23.6820107,40.4138212 33.9085599,51.3447847 14.786041,47.9601559 Z" id="Shape" fill="#944300"></path>
                            <path d="M48.7622799,23.8196341 C47.7650134,39.5884219 46.6738968,47.9945483 45.4889302,49.0380134 C44.0042235,50.3454253 30.5956685,51.4844296 7.4843503,47.2320796 C5.48826294,46.864811 5.60503042,42.0758631 7.4843503,41.9139896 C19.7152114,40.8604939 31.0175468,37.9696661 36.1479661,40.5813386 C34.4224431,36.1916889 28.0474208,10.9976421 27.6936959,7.16737874 C27.242631,2.28308054 34.6134306,1.17825569 49.8060948,3.85290421 C49.788315,4.25627706 49.7705008,4.65695579 49.7526523,5.05494041 C68.7634082,0.597929063 79.3252837,-0.911725567 81.4382785,0.525976549 C83.7796623,2.1190767 83.7569817,17.3986701 80.7364381,42.4401033 C80.5175779,44.2545347 74.8958846,43.453663 74.8546029,41.9543704 C74.4229197,26.2762913 71.3287433,19.7757011 73.8177171,12.6244506 C67.1654113,16.3944398 58.5038321,19.6990535 48.7622799,23.8196341 L48.7622799,23.8196341 Z" id="Shape" fill="#134DBD"></path>
                            <path d="M48.6023329,23.4627386 C44.5319593,25.1851946 42.0310949,25.9122386 41.2093213,25.6497895 C41.0924687,25.6124704 40.9674879,25.676945 40.9301689,25.7937975 C40.8928498,25.91065 40.9573244,26.0356308 41.0741769,26.0729499 C42.047388,26.3837634 44.5779517,25.6480853 48.7754496,23.8718344 C48.8884184,23.8240295 48.941244,23.6936969 48.8934392,23.5807282 C48.8456343,23.4677595 48.7153017,23.4149338 48.6023329,23.4627386 Z" id="Shape" fill="#0E143F" fill-rule="nonzero"></path>
                            <path d="M3.69512491,41.8850024 C4.08179266,42.2774803 2.95381291,44.1154763 2.95162925,44.8809826 C2.95017348,45.3913202 3.19420844,45.7237244 3.6837341,45.8781953 C3.10793968,47.1297862 2.70321518,48.0288939 2.46956057,48.5755177 C3.30210146,49.1889752 3.90232377,49.8362025 3.6837341,50.2009204 C3.33667434,50.7799912 2.93194981,50.9509608 2.46956057,50.7138293 L0,49.7667531 L0,41.8850024 C2.20563811,41.6233506 3.43734641,41.6233506 3.69512491,41.8850024 Z M75.9352358,46.211653 C76.3277135,45.8249852 78.1657095,46.952965 78.931216,46.9551488 C79.4415535,46.9566045 79.7739578,46.7125694 79.9284285,46.2230438 C83.1049698,47.5223577 84.9827758,48.3455446 85.5618464,48.6926045 C86.1409172,49.0396641 86.3118868,49.4443886 86.0747553,49.9067779 L75.9352358,49.9067779 C75.673584,47.7011399 75.673584,46.4694315 75.9352358,46.211653 Z" id="Shape" fill="#191844"></path>
                        </g>
                        <g id="Back-body/-Man/-Pose1/-Long-sleeve-T-shirt-Copy" transform="translate(11.105425, 0.073712)">
                            <path d="M58.5124744,4.7550077 C58.7971506,3.3209897 59.0521067,2.44000373 59.2773425,2.11204983 C59.5025783,1.78409593 59.7299867,1.9004474 59.9595678,2.46110426 C61.483719,0.740308604 62.3762913,-0.0638433323 62.6372848,0.0486484237 C63.1575755,0.272900999 61.6990458,1.99999569 61.6322014,2.38354706 C61.9243776,2.27101092 62.1694699,2.03400457 62.51561,2.31485307 C62.74637,2.50208541 62.6883173,2.84168565 62.3414522,3.33365379 C62.7190713,3.01019764 62.975596,2.96820627 63.1110262,3.20767967 C63.3141717,3.56688979 63.60099,3.59115632 63.0279785,4.18345114 C62.818341,4.40014354 63.493641,4.02374322 63.6217165,4.30124598 C63.7497922,4.57874875 64.3477905,4.26845883 63.221475,5.22045531 C62.4705979,5.85511965 61.5345272,6.3088659 60.4132631,6.58169407 L58.5392895,10.0931572 L56.2713341,8.54383945 L58.5124744,4.7550077 Z" id="Shape" fill="#944300"></path>
                            <path d="M36.9476067,32.1124034 C37.6037921,38.3158113 37.1556049,44.5370582 37.7255337,48.5192474 C38.2067427,51.8815352 39.9677645,52.4473675 40.522942,53.9510591 C40.9405473,55.0821379 35.008339,61.3319001 29.0926358,62.9945647 C23.1769327,64.6572292 19.6121535,62.8532775 16.1582476,60.3469108 C15.9102628,60.1669579 15.8078882,59.7074421 15.8002513,59.0563588 C12.4795816,57.1731206 0.37203808,50.3495489 0.0123870352,47.5165569 C-0.389391661,44.3517227 9.09179792,25.2829354 12.5805769,24.4028406 C12.6090808,24.3956501 12.6374771,24.3890027 12.6657658,24.3828984 C13.5034748,23.8975966 15.8568339,22.937783 19.7258431,21.5034574 C21.5737822,23.2259705 27.9835206,22.8531776 27.8665672,21.2924221 C30.4521664,21.4453931 32.3437478,21.7664609 33.5413113,22.2556257 C38.9354291,21.1499428 45.304181,20.3627993 46.4285908,21.0564273 C47.0168998,16.8524537 51.9193465,14.5189585 57.4661579,5.74473824 C58.132337,4.69094313 59.3291502,5.07882603 61.0565972,6.90838692 C56.313292,18.225632 49.8525472,28.0969644 49.7227201,28.2141018 C48.2035973,29.5847403 42.2638984,31.2874538 36.9476067,32.1124034 L36.9476067,32.1124034 Z M13.4992795,39.3406057 C11.4001972,42.1618629 9.4869919,44.1640246 7.75966366,45.3470908 C10.5228647,48.065072 11.4598225,48.9822466 16.3354442,54.4903412 C16.7728212,51.7529368 17.2645872,48.7326775 16.9055777,46.9952398 C16.4860278,44.964815 14.9046482,42.3024049 13.4992795,39.3406057 L13.4992795,39.3406057 Z" id="Shape" fill="#0F4C8B"></path>
                            <path d="M36.5301414,31.8719177 C35.6884128,32.3195546 35.206154,32.6725936 35.0573888,32.980586 C34.6734891,33.7753839 34.6324188,34.5021426 34.7969684,35.1039985 C34.8311096,35.2288738 34.8665718,35.3194821 34.89307,35.3725793 C34.9493417,35.4853367 35.0833197,35.5295544 35.1923184,35.4713424 C35.3013172,35.4131304 35.3440611,35.2745324 35.2877895,35.161775 C35.2744192,35.1349838 35.2500788,35.0727923 35.2244177,34.9789338 C35.0886177,34.4822322 35.1230627,33.8727118 35.4547609,33.1859881 C35.5447197,32.9997436 35.9795375,32.6814341 36.7332387,32.2806106 C36.8423344,32.2225929 36.8853088,32.0840712 36.8292251,31.9712138 C36.7731412,31.8583564 36.6392368,31.8139 36.5301414,31.8719177 Z" id="Shape" fill="#0E143F" fill-rule="nonzero"></path>
                            <path d="M12.2523909,35.6729328 C12.981088,38.198569 13.6776898,40.0113594 14.347496,41.117323 C14.4126226,41.2248582 14.5496869,41.2574166 14.6536376,41.190044 C14.7575883,41.1226716 14.7890613,40.9808811 14.7239346,40.8733459 C14.0799919,39.8100872 13.3962646,38.0308006 12.6780525,35.541505 C12.6429695,35.4199086 12.5192415,35.3507563 12.4016983,35.3870491 C12.2841551,35.4233419 12.2173079,35.5513364 12.2523909,35.6729328 Z" id="Shape" fill="#0E143F" fill-rule="nonzero"></path>
                            <path d="M16.0989342,55.4358466 C15.3180631,57.776236 15.3180631,59.5389999 16.12799,60.7151021 C16.93676,61.8895243 19.8645825,62.91783 24.9703324,63.8637674 C25.0910783,63.886138 25.2064926,63.8030134 25.2281175,63.6781038 C25.2497422,63.5531942 25.1693887,63.4338 25.0486427,63.4114295 C20.0732389,62.4896413 17.2006619,61.480739 16.4897866,60.4484704 C15.7800682,59.4178819 15.7800682,57.7999965 16.5188425,55.5857778 C16.5588648,55.465825 16.4973096,55.3350207 16.3813551,55.2936183 C16.2654006,55.2522159 16.1389565,55.3158938 16.0989342,55.4358466 Z" id="Shape" fill="#0E143F" fill-rule="nonzero"></path>
                        </g>
                    </g>
                </g>
            </g>
        </g>
    </g>
</svg>
