<?xml version="1.0" encoding="UTF-8"?>
<svg width="213px" height="250px" viewBox="0 0 213 250" version="1.1" xmlns="http://www.w3.org/2000/svg" xmlns:xlink="http://www.w3.org/1999/xlink">
    <!-- Generator: Sketch 64 (93537) - https://sketch.com -->
    <title>swu-learnmore</title>
    <desc>Created with Sketch.</desc>
    <g id="Designs:-Landing-Page-&amp;-Learn-More" stroke="none" stroke-width="1" fill="none" fill-rule="evenodd">
        <g id="D:-Learn-More---SWU---Default" transform="translate(-882.000000, -215.000000)" fill-rule="nonzero">
            <g id="swu-learnmore" transform="translate(882.000000, 215.000000)">
                <g id="Background-Element-2" transform="translate(9.622711, 75.000000)">
                    <polygon id="Shape" fill="#A1E0FF" points="80.1025641 140.364583 116.512821 140.364583 119.113553 169.791667 77.5018315 169.791667"></polygon>
                    <path d="M74.6410256,167.1875 L121.974359,167.1875 C126.283394,167.1875 129.776557,170.685276 129.776557,175 L66.8388278,175 C66.8388278,170.685276 70.3319909,167.1875 74.6410256,167.1875 Z" id="Shape" fill="#60C9FF"></path>
                    <path d="M7.8021978,0 L189.07326,0 C193.382295,0 196.875458,3.49777539 196.875458,7.8125 L196.875458,139.0625 C196.875458,143.377224 193.382295,146.875 189.07326,146.875 L7.8021978,146.875 C3.49316294,146.875 0,143.377224 0,139.0625 L0,7.8125 C0,3.49777539 3.49316294,0 7.8021978,0 Z" id="Shape" fill="#A1E0FF"></path>
                    <polygon id="Shape" fill="#FFFFFF" points="7.8021978 7.8125 189.066741 7.8125 189.066741 120.833333 7.8021978 120.833333"></polygon>
                    <path d="M20.2857143,18.2291667 L176.583224,18.2291667 C177.7323,18.2291667 178.66381,19.1619068 178.66381,20.3125 L178.66381,108.333333 C178.66381,109.483927 177.7323,110.416667 176.583224,110.416667 L20.2857143,110.416667 C19.1366383,110.416667 18.2051282,109.483927 18.2051282,108.333333 L18.2051282,20.3125 C18.2051282,19.1619068 19.1366383,18.2291667 20.2857143,18.2291667 Z" id="Shape" fill="#F2FBFF"></path>
                    <path d="M1.18267626e-13,128.645833 L196.875458,128.645833 L196.875458,139.0625 C196.875458,143.377224 193.382295,146.875 189.07326,146.875 L7.8021978,146.875 C3.49316294,146.875 1.18267626e-13,143.377224 1.18267626e-13,139.0625 L1.18267626e-13,128.645833 Z" id="Shape" fill="#00A7FF"></path>
                </g>
                <g id="Background-Element-1" transform="translate(59.296703, 0.000000)">
                    <path d="M14.941092,175.563451 C14.7908181,177.41286 13.2480316,178.837098 11.3949573,178.837098 C9.4858318,178.837098 7.84024262,177.492093 7.45789017,175.619178 L0.147670106,139.810792 C-0.349397689,137.375955 0.426226389,134.855276 2.20560606,133.122763 L31.9449967,104.166667 L31.9449967,138.403057 L20.2009508,143.763923 C18.4851993,144.547121 17.3271193,146.198778 17.1742057,148.080675 L14.941092,175.563451 Z" id="Shape" fill="#60C9FF"></path>
                    <path d="M82.67253,175.563451 L80.4394165,148.080675 C80.2865027,146.198778 79.1284228,144.547121 77.4126714,143.763923 L65.6686253,138.403057 L65.6686253,104.166667 L95.4080159,133.122763 C97.1873958,134.855276 97.9630198,137.375955 97.4659519,139.810792 L90.1557319,175.619178 C89.7733794,177.492093 88.1277903,178.837098 86.2186648,178.837098 C84.3655903,178.837098 82.822804,177.41286 82.67253,175.563451 Z" id="Shape" fill="#60C9FF"></path>
                    <path d="M18.0752187,69.6961724 C18.0752187,25.7944105 45.0774246,0 49.1539733,0 C53.2305218,0 80.2327279,25.7944105 80.2327279,69.6961724 C80.2327279,98.9640135 75.0312627,127.554873 64.6283323,155.46875 L33.6796144,155.46875 C23.2766839,127.554873 18.0752187,98.9640135 18.0752187,69.6961724 Z" id="Shape" fill="#CCEEFF"></path>
                    <path d="M33.6796144,155.46875 L64.6283323,155.46875 L63.4728442,162.410832 C63.3892416,162.913111 62.9552415,163.28125 62.4467054,163.28125 L35.861241,163.28125 C35.3527052,163.28125 34.9187051,162.913111 34.8351022,162.410832 L33.6796144,155.46875 Z" id="Shape" fill="#FCBA19"></path>
                    <path d="M22.9462166,38.4060206 C24.6109159,33.2697456 26.5929096,28.6040596 28.7142853,24.436355 C35.1661471,25.9283075 41.9793765,26.7238281 49.1539733,26.8229167 C56.5594429,26.9251937 63.4022221,26.1878779 69.6823107,24.6109685 C71.7343808,28.663432 73.6532143,33.1832391 75.2768702,38.145457 C67.5279567,40.8401591 58.8203222,42.1875 49.1539733,42.1875 C39.8043776,42.1875 31.0684585,40.9270135 22.9462166,38.4060404 L22.9462166,38.4060206 Z" id="Shape" fill="#FCBA19"></path>
                    <path d="M49.0239367,112.239583 C50.3166472,112.239583 51.364596,113.288916 51.364596,114.583333 L51.364596,176.5625 C51.364596,177.856917 50.3166472,178.90625 49.0239367,178.90625 C47.7312262,178.90625 46.6832774,177.856917 46.6832774,176.5625 L46.6832774,114.583333 C46.6832774,113.288916 47.7312262,112.239583 49.0239367,112.239583 Z" id="Shape" fill="#60C9FF"></path>
                    <ellipse id="Shape" fill="#FCBA19" cx="49.0239367" cy="71.09375" rx="16.6446886" ry="16.6666667"></ellipse>
                    <ellipse id="Shape" fill="#F2FBFF" cx="49.0239367" cy="71.09375" rx="13.5238095" ry="13.5416667"></ellipse>
                </g>
                <g id="Background-Element-4" transform="translate(149.542125, 37.500000)">
                    <ellipse id="Shape" fill="#0F4C8B" cx="12.4835165" cy="12.5" rx="12.4835165" ry="12.5"></ellipse>
                    <path d="M7.52091489,11.9651864 C6.83955949,11.5051384 5.91492412,11.6855152 5.45568403,12.3680693 C4.99644394,13.0506234 5.17650397,13.9768853 5.85785937,14.4369334 L10.7116246,17.7141731 C11.3418884,18.1397243 12.1910088,18.020955 12.6808073,17.438737 L19.1553457,9.74252518 C19.6848491,9.11311036 19.604751,8.17286638 18.9764415,7.64243146 C18.348132,7.11199654 17.4095392,7.19223557 16.8800358,7.82165039 L11.2666127,14.4942642 L7.52091489,11.9651864 Z" id="Shape" fill="#FFFFFF"></path>
                </g>
                <g id="Background-Element-3" transform="translate(0.000000, 58.593750)">
                    <path d="M2.34065934,0.130208333 L61.1172161,0.130208333 C62.3381092,0.130208333 63.3278388,1.1212447 63.3278388,2.34375 L63.3278388,30.7291667 C63.3278388,31.9516719 62.3381092,32.9427083 61.1172161,32.9427083 L2.34065934,32.9427083 C1.11976613,32.9427083 0.13003663,31.9516719 0.13003663,30.7291667 L0.13003663,2.34375 C0.13003663,1.1212447 1.11976613,0.130208333 2.34065934,0.130208333 Z" id="Path" fill="#00A7FF"></path>
                    <path d="M2.34065934,1.43229167 C1.83793861,1.43229167 1.43040293,1.84036546 1.43040293,2.34375 L1.43040293,30.7291667 C1.43040293,31.2325513 1.83793861,31.640625 2.34065934,31.640625 L61.1172161,31.640625 C61.6199369,31.640625 62.0274725,31.2325513 62.0274725,30.7291667 L62.0274725,2.34375 C62.0274725,1.84036546 61.6199369,1.43229167 61.1172161,1.43229167 L2.34065934,1.43229167 Z" id="Path" fill="#FFFFFF"></path>
                    <ellipse id="Oval" fill="#FCBA19" cx="16.6446886" cy="16.9270833" rx="7.28205128" ry="7.29166667"></ellipse>
                    <path d="M33.029304,9.63541667 L41.0783857,9.63541667 C41.796558,9.63541667 42.378752,10.2183792 42.378752,10.9375 C42.378752,11.6566208 41.796558,12.2395833 41.0783857,12.2395833 L33.029304,12.2395833 C32.3111315,12.2395833 31.7289377,11.6566208 31.7289377,10.9375 C31.7289377,10.2183792 32.3111315,9.63541667 33.029304,9.63541667 Z" id="bg" fill="#CCEEFF"></path>
                    <path d="M33.029304,15.3645833 L52.5216092,15.3645833 C53.2397815,15.3645833 53.8219755,15.9475459 53.8219755,16.6666667 C53.8219755,17.3857874 53.2397815,17.96875 52.5216092,17.96875 L33.029304,17.96875 C32.3111315,17.96875 31.7289377,17.3857874 31.7289377,16.6666667 C31.7289377,15.9475459 32.3111315,15.3645833 33.029304,15.3645833 Z" id="bg" fill="#CCEEFF"></path>
                    <path d="M33.029304,21.09375 L47.320144,21.09375 C48.0383163,21.09375 48.6205103,21.6767126 48.6205103,22.3958333 C48.6205103,23.1149541 48.0383163,23.6979167 47.320144,23.6979167 L33.029304,23.6979167 C32.3111315,23.6979167 31.7289377,23.1149541 31.7289377,22.3958333 C31.7289377,21.6767126 32.3111315,21.09375 33.029304,21.09375 Z" id="bg" fill="#CCEEFF"></path>
                </g>
                <g id="Background-Element-5" transform="translate(149.542125, 91.666667)">
                    <path d="M2.34065934,0.130208333 L61.1172161,0.130208333 C62.3381092,0.130208333 63.3278388,1.1212447 63.3278388,2.34375 L63.3278388,30.7291667 C63.3278388,31.9516719 62.3381092,32.9427083 61.1172161,32.9427083 L2.34065934,32.9427083 C1.11976613,32.9427083 0.13003663,31.9516719 0.13003663,30.7291667 L0.13003663,2.34375 C0.13003663,1.1212447 1.11976613,0.130208333 2.34065934,0.130208333 Z" id="Path" fill="#00A7FF"></path>
                    <path d="M2.34065934,1.43229167 C1.83793861,1.43229167 1.43040293,1.84036546 1.43040293,2.34375 L1.43040293,30.7291667 C1.43040293,31.2325513 1.83793861,31.640625 2.34065934,31.640625 L61.1172161,31.640625 C61.6199369,31.640625 62.0274725,31.2325513 62.0274725,30.7291667 L62.0274725,2.34375 C62.0274725,1.84036546 61.6199369,1.43229167 61.1172161,1.43229167 L2.34065934,1.43229167 Z" id="Path" fill="#FFFFFF"></path>
                    <ellipse id="Oval" fill="#1E98D2" cx="16.6446886" cy="16.9270833" rx="7.28205128" ry="7.29166667"></ellipse>
                    <path d="M33.029304,9.63541667 L41.0783857,9.63541667 C41.796558,9.63541667 42.378752,10.2183792 42.378752,10.9375 C42.378752,11.6566208 41.796558,12.2395833 41.0783857,12.2395833 L33.029304,12.2395833 C32.3111315,12.2395833 31.7289377,11.6566208 31.7289377,10.9375 C31.7289377,10.2183792 32.3111315,9.63541667 33.029304,9.63541667 Z" id="bg" fill="#CCEEFF"></path>
                    <path d="M33.029304,15.3645833 L52.5216092,15.3645833 C53.2397815,15.3645833 53.8219755,15.9475459 53.8219755,16.6666667 C53.8219755,17.3857874 53.2397815,17.96875 52.5216092,17.96875 L33.029304,17.96875 C32.3111315,17.96875 31.7289377,17.3857874 31.7289377,16.6666667 C31.7289377,15.9475459 32.3111315,15.3645833 33.029304,15.3645833 Z" id="bg" fill="#CCEEFF"></path>
                    <path d="M33.029304,21.09375 L47.320144,21.09375 C48.0383163,21.09375 48.6205103,21.6767126 48.6205103,22.3958333 C48.6205103,23.1149541 48.0383163,23.6979167 47.320144,23.6979167 L33.029304,23.6979167 C32.3111315,23.6979167 31.7289377,23.1149541 31.7289377,22.3958333 C31.7289377,21.6767126 32.3111315,21.09375 33.029304,21.09375 Z" id="bg" fill="#CCEEFF"></path>
                </g>
            </g>
        </g>
    </g>
</svg>
